<svg xmlns="http://www.w3.org/2000/svg" viewBox="0 0 251.15 250.58"><defs><style>.cls-1{fill:#f4f4f5;}.cls-2{fill:#e11d48;}.cls-3{fill:#18181b;}</style></defs><g id="Layer_2" data-name="Layer 2"><g id="Layer_1-2" data-name="Layer 1"><path class="cls-1" d="M43.14,218.86a32.57,32.57,0,0,0,4.07,3.48c1,.62,1.64,1.61,2.6,2.15,3.17,1.77,5.81,4.3,9,6,2.79,1.54,5.45,3.3,8.3,4.72,2.55,1.28,5.1,2.57,7.71,3.71,1.62.7,3.24,1.44,4.9,2.05,2.82,1,5.64,2.14,8.54,2.89,2.11.54,4,1.82,6.34,1.63.8.77,1.92.2,2.75.58,2.7,1.22,5.68,1.13,8.47,1.9,1.07.3,2.24-.26,3.36.33s2.43-.19,3.47.69a52.82,52.82,0,0,1,7.54.46c2.24.17,4.5-.06,6.75.06s4.54-.58,6.79-.46,4.5-.78,6.79-.56c.09,0,.21,0,.25,0,.63-.81,1.52-.37,2.29-.5a19.31,19.31,0,0,1,2.55-.47,19.88,19.88,0,0,0,7.17-1.43,20.07,20.07,0,0,1,3.25-.6c1.06-.24,2.08-.65,3.15-.82,1.47-.25,2.74-1.09,4.26-1.21s2.76-1,4.12-1.51c2.72-1.07,5.45-2.11,8.13-3.3,2.26-1,4.49-2.06,6.66-3.22a78.83,78.83,0,0,0,9.88-5.77c2.79-2.06,5.79-3.8,8.54-6,2.19-1.72,4.5-3.37,6.51-5.26,2.47-2.33,5-4.59,7.31-7.13,2.84-3.15,6-6,8.5-9.48,1.64-2.25,3.4-4.43,5-6.68A104.17,104.17,0,0,0,234.37,185c1-1.83,1.7-3.84,3-5.53-.09-1.2.94-1.91,1.3-3,.92-2.76,2.46-5.3,3.31-8.12a24.73,24.73,0,0,1,1.24-3.23c.53-1.12.36-2.51,1.37-3.43-.15-1.41.81-2.56.95-3.85s.74-2.56,1-3.84c.28-1.47,1-2.86,1-4.32a13,13,0,0,1,.61-4,10.52,10.52,0,0,0,.45-3.07,2.48,2.48,0,0,1,.1-1,13.1,13.1,0,0,0,.84-4.63c.11-8.33.05-16.67.05-25,0-.48.07-1.1-.19-1.41-.57-.7,0-1.53-.35-2.11a4.72,4.72,0,0,1-.47-2.32,4.8,4.8,0,0,0-.43-2.57,4.67,4.67,0,0,1-.51-2.76c.27-2.25-.73-4.23-1.29-6.25s-1-4.22-1.66-6.29c-.32-1-1-1.86-1-2.8,0-1.54-.86-2.71-1.38-4s-.61-2.72-1.31-4c-.92-1.61-1.1-3.57-2.38-5,.48-1.13-1-1.37-1.05-2.33a5.24,5.24,0,0,0-1-2.33c-1.14-1.68-1.95-3.53-2.95-5.29A9.41,9.41,0,0,0,231,59.29a9.18,9.18,0,0,0-3.77-1.68c-3.15-.37-6-1.93-9.17-2.07-.82-.73-1.91-.23-2.76-.58a18.24,18.24,0,0,0-3.61-.93c-1.26-.22-2.51-.45-3.79-.57a19.91,19.91,0,0,0-3.55-.42c-.95-1.21-2.63.21-3.59-1a9,9,0,0,1-4-.5c-3.53.24-7-.39-10.54-.48-3.91-.1-7.84.11-11.75-.06s-7.86.43-11.79.55c-2.19.08-4.36.32-6.54.49a.69.69,0,0,0-.43.16c-.63.67-1.42.19-2.12.34s-1.52.39-2.29.49c-1.59.2-3.2.34-4.79.51-.81,1.07-2.09.35-3.16.85A15.44,15.44,0,0,1,138,55.48a15.22,15.22,0,0,0-3.44.78,11.58,11.58,0,0,1-2.19.75c-3.36.38-6.32,2.22-9.67,2.6-2.92,1.82-6.54,1.9-9.42,3.85-.73.5-2,.27-2.64.8-1.71,1.32-4,1.35-5.62,2.78-3.58,1.08-6.63,3.28-10,4.81a54.26,54.26,0,0,0-5,3c-1.94,1.14-4.13,2-5.81,3.42-3.09,2.65-7,4.17-9.79,7.19-4.12,2.38-7.26,6-11.16,8.66-4.65,5-9.8,9.39-14.19,14.6-2,2.42-4.29,4.65-6.15,7.23-1.26,1.74-2.58,3.42-3.87,5.15-.84,1.14-1.69,2.29-2.49,3.46q-1.55,2.24-3,4.51c-1,1.51-1.92,3-2.82,4.58-1.26,2.14-2.57,4.26-3.66,6.48-1.61,3.25-3.6,6.32-4.66,9.83-1.53,1.74-1.9,4.05-2.8,6.09-1.26,2.88-2.16,5.94-3.29,8.88a8.86,8.86,0,0,0-.79,3c-.43,1.13-.67,1.87-1,2.56-.81,1.71-.83,3.65-1.52,5.37a8.09,8.09,0,0,0-.46,3.33c.87,1.78,1.56,3.42,2.49,4.94.82,1.32,1.39,2.77,2.28,4.06,1.47,2.12,2.84,4.31,4.22,6.5a87.74,87.74,0,0,0,7.68,10.3c2.78,3.25,5.81,6.3,8.82,9.35C39.66,215.88,41.43,217.34,43.14,218.86Zm-32-39c0-.2,0-.44,0-.68-.1-1.6.35-3.27-.5-4.79-1.18-2.09-1.57-4.53-3-6.66v-2l-.94-.67v-1.73a4.06,4.06,0,0,1-1.08-3.57l-1-1a5.66,5.66,0,0,0-.48-3A5,5,0,0,1,3.54,153c0-.37-.26-.73-.33-1.1-.21-1.17-.92-2.24-.65-3.49a1.2,1.2,0,0,0,0-.5c-.33-1.19-.71-2.38-1-3.58s.14-2.34-.4-3.59a13.07,13.07,0,0,1-.59-4.5c-.08-2.33.36-4.74-.12-7a21.16,21.16,0,0,1-.32-6.8c.4-3.53.38-7,.44-10.55a12.67,12.67,0,0,1,.48-2c.14-.69-.3-1.48.43-2.08.13-.1.06-.46.07-.71a11.61,11.61,0,0,1,.9-5.38c.54-1.06.1-2.62.1-3.94l1-1c.12-1.45-.36-3.17,1-4.49V89.76l.94-.69V86.78l.3.07c.26-.8.53-1.6.77-2.41.07-.23,0-.63.09-.7,1.06-.59.72-1.72,1.08-2.57a7.24,7.24,0,0,0,.9-2.65c0-.54.9-1.07.88-1.58,0-1.09,1.43-1.39,1.09-2.6-.28-1,1.2-1.36,1.09-2.58-.07-.75.92-1.56,1.29-2.41s1-1.62,1.37-2.43c1-2.51,2.7-4.56,3.87-6.9A65.88,65.88,0,0,1,23.45,52c1.87-2.7,4-5.24,6.08-7.77A93,93,0,0,1,37.93,35q3.21-3,6.58-5.74c1.8-1.49,3.63-2.93,5.47-4.36a96.2,96.2,0,0,1,10.74-7.25c1.68-1,3.3-2.07,5-3,2.65-1.42,5.35-2.76,8.06-4.07,2.28-1.11,4.92-1.41,7-3,2-.1,3.63-1.4,5.46-1.83,1.67-.39,3.22-1.35,5-1.21.42,0,.85-.35,1.3-.46.84-.21,1.7-.31,2.53-.52S96.74,3,97.57,2.8s1.76-.16,2.64-.27a5.58,5.58,0,0,0,.88-.27,10.37,10.37,0,0,1,3.71-.76,14.42,14.42,0,0,0,2.54-.45c.85-.13,1.82.29,2.54-.51a27.05,27.05,0,0,0,5.48-.07c3.36-.69,6.71-.33,10.06-.42s6.66.05,10,0a12.34,12.34,0,0,1,3.05.54c.93.19,1.83-.08,2.85.36a13.62,13.62,0,0,0,4.23.62,9.26,9.26,0,0,1,2.57.45c.76.29,1.67.22,2.53.53a14.86,14.86,0,0,0,4.07,1c1.54.09,2.77,1.15,4.33,1.07s2.59,1.19,4.09,1c2.31,1.3,5,1.63,7.35,2.76a57.15,57.15,0,0,0,5.8,2.28c1.15.41,2.06,1.47,3.21,1.92a57.37,57.37,0,0,1,7.43,3.74,43.85,43.85,0,0,1,4.26,2.5c1.31.94,2.67,1.9,4.07,2.76,3.15,1.92,5.86,4.41,8.77,6.64a81.26,81.26,0,0,1,7.5,6.59c.81.78,1.82,1.35,2.6,2.15,1.36,1.4,2.61,2.9,3.9,4.37a39.67,39.67,0,0,1,3.68,4.23c2.34,3.58,5.4,6.61,7.51,10.37a6.82,6.82,0,0,0,2.51,2.25,4.27,4.27,0,0,1,2.37,3.72L236,63.71c-.15,2.44,2.82,3.8,2.59,6.6,1.05,1,2.12,2,2,3.8a2.34,2.34,0,0,0,.73,1.41,5.73,5.73,0,0,1,1.24,3,4,4,0,0,0,.51,1.53,8.78,8.78,0,0,1,1.5,4.64,3,3,0,0,0,.49,1.29,10,10,0,0,1,1.54,5.13,4,4,0,0,0,1.27,3,25.87,25.87,0,0,1,.63,4.14,22.46,22.46,0,0,0,.56,4,2.65,2.65,0,0,0,.38.84,7.93,7.93,0,0,1,.66,3c.66,3.84,0,7.75.56,11.53a49.18,49.18,0,0,1,.26,11.55c-.35,3.78-.17,7.54-.39,11.3,0,.68-.38,1.35-.46,2a9.62,9.62,0,0,1-.26,2.17c-.42,1.32-1.22,2.65-1.17,3.95.08,2.08-.88,4-.55,6-.37.38-.84.69-1,1.11a10.3,10.3,0,0,0-.52,2.29,12.67,12.67,0,0,1-2,5.76,7.39,7.39,0,0,1-1.43,5.07c-.73,1-.87,2.47-1.43,4.2l-.93.85-.77,3.35-1.43,1.19v1.54c-.83,1.87-2.36,3.17-2.55,5.25-.85.93-2.08,1.74-1.95,3.24a44.41,44.41,0,0,0-3.45,4.93,50.88,50.88,0,0,1-4.46,6.63c-1.74,2.33-3.66,4.53-5.55,6.74-3.93,4.62-8.36,8.72-12.68,12.93a24.69,24.69,0,0,1-6.21,4.83c-1.63,2.2-4.25,3.09-6.35,4.67a63.12,63.12,0,0,1-6.87,4.46c-1.29.72-2.5,1.62-3.82,2.23a53.93,53.93,0,0,1-7.61,3.29v.64h-1.72l-.76,1.12H172.7c-.1.21-.31.67-.36.79a14.61,14.61,0,0,0-2.26.46c-1.14.46-2.25,1-3.74,1.71l-4.76,1.27c-.13.12-.42.42-.57.57l-6.9,1.39-.69.7a3.63,3.63,0,0,1-.45.1c-.95.1-2-.3-2.79.51-1.33-.3-2.52.44-3.8.48-1.52,0-3-.05-4.4.84a.83.83,0,0,1-.43.17c-1.25,0-2.5,0-3.75,0s-2.28.58-3.54.55c-4.66-.11-9.33,0-14,0h-5.74c-1.87,0-3.65-.83-5.55-.52a1.74,1.74,0,0,1-.89-.23,8.74,8.74,0,0,0-4.19-.76c-1.21.11-2.29-.84-3.54-.49-.88-1-2-.26-3.12-.58L96.3,247a7.8,7.8,0,0,1-4.93-.94c-2.86.17-5.08-2.11-7.9-2.05-.72-1-2.08-.73-2.93-1.35-1.07-.76-2.42-.41-3.5-1.3-.89-.75-2.26-.92-3.41-1.36-.87-.32-1.6-.9-2.47-1.26-1.7-.7-3.18-1.9-5-2.43-.72-.22-1.27-.92-2-1.29-2.4-1.28-4.8-2.55-7.07-4-2.71-1.77-5.34-3.66-8-5.58-2.8-2.05-5.36-4.37-8.07-6.51a82,82,0,0,1-8.89-8.58c-3.17-3.4-6-7.13-8.86-10.8a58.43,58.43,0,0,1-4.71-6.8c-.46-.8-1.25-1.25-1.59-2.08a3.16,3.16,0,0,0-1.14-2.52,3.92,3.92,0,0,1-1.38-2.44,1.72,1.72,0,0,0-.58-1,5.52,5.52,0,0,1-1.45-3.48Z"/><path class="cls-2" d="M249.56,112.07c0,8.33.06,16.67-.05,25a13.1,13.1,0,0,1-.84,4.63,2.48,2.48,0,0,0-.1,1,10.52,10.52,0,0,1-.45,3.07,13,13,0,0,0-.61,4c0,1.46-.75,2.85-1,4.32-.23,1.28-.83,2.48-1,3.84s-1.1,2.44-.95,3.85c-1,.92-.84,2.31-1.37,3.43a24.73,24.73,0,0,0-1.24,3.23c-.85,2.82-2.39,5.36-3.31,8.12-.36,1.06-1.39,1.77-1.3,3-1.27,1.69-1.94,3.7-3,5.53a104.17,104.17,0,0,1-6.24,10.15c-1.65,2.25-3.41,4.43-5,6.68-2.53,3.46-5.66,6.33-8.5,9.48-2.29,2.54-4.84,4.8-7.31,7.13-2,1.89-4.32,3.54-6.51,5.26-2.75,2.17-5.75,3.91-8.54,6a78.83,78.83,0,0,1-9.88,5.77c-2.17,1.16-4.4,2.23-6.66,3.22-2.68,1.19-5.41,2.23-8.13,3.3-1.36.53-2.66,1.38-4.12,1.51s-2.79,1-4.26,1.21c-1.07.17-2.09.58-3.15.82a20.07,20.07,0,0,0-3.25.6,19.88,19.88,0,0,1-7.17,1.43,19.31,19.31,0,0,0-2.55.47c-.77.13-1.66-.31-2.29.5,0,0-.16,0-.25,0-2.29-.22-4.47.67-6.79.56s-4.49.59-6.79.46-4.51.11-6.75-.06a52.82,52.82,0,0,0-7.54-.46c-1-.88-2.42-.14-3.47-.69s-2.29,0-3.36-.33c-2.79-.77-5.77-.68-8.47-1.9-.83-.38-2,.19-2.75-.58-2.3.19-4.23-1.09-6.34-1.63-2.9-.75-5.72-1.85-8.54-2.89-1.66-.61-3.28-1.35-4.9-2.05-2.61-1.14-5.16-2.43-7.71-3.71-2.85-1.42-5.51-3.18-8.3-4.72-3.18-1.75-5.82-4.28-9-6-1-.54-1.6-1.53-2.6-2.15a32.57,32.57,0,0,1-4.07-3.48c-1.71-1.52-3.48-3-5.08-4.61-3-3.05-6-6.1-8.82-9.35a87.74,87.74,0,0,1-7.68-10.3c-1.38-2.19-2.75-4.38-4.22-6.5-.89-1.29-1.46-2.74-2.28-4.06-.93-1.52-1.62-3.16-2.49-4.94a8.09,8.09,0,0,1,.46-3.33c.69-1.72.71-3.66,1.52-5.37.33-.69.57-1.43,1-2.56a8.86,8.86,0,0,1,.79-3c1.13-2.94,2-6,3.29-8.88.9-2,1.27-4.35,2.8-6.09,1.06-3.51,3.05-6.58,4.66-9.83,1.09-2.22,2.4-4.34,3.66-6.48.9-1.55,1.85-3.07,2.82-4.58s2-3,3-4.51c.8-1.17,1.65-2.32,2.49-3.46,1.29-1.73,2.61-3.41,3.87-5.15,1.86-2.58,4.11-4.81,6.15-7.23,4.39-5.21,9.54-9.65,14.19-14.6,3.9-2.65,7-6.28,11.16-8.66,2.8-3,6.7-4.54,9.79-7.19C85.9,76.79,88.09,76,90,74.81a54.26,54.26,0,0,1,5-3c3.37-1.53,6.42-3.73,10-4.81,1.62-1.43,3.91-1.46,5.62-2.78.67-.53,1.91-.3,2.64-.8,2.88-2,6.5-2,9.42-3.85,3.35-.38,6.31-2.22,9.67-2.6a11.58,11.58,0,0,0,2.19-.75,15.22,15.22,0,0,1,3.44-.78,15.44,15.44,0,0,0,5.27-1.09c1.07-.5,2.35.22,3.16-.85,1.59-.17,3.2-.31,4.79-.51.77-.1,1.53-.33,2.29-.49s1.49.33,2.12-.34a.69.69,0,0,1,.43-.16c2.18-.17,4.35-.41,6.54-.49,3.93-.12,7.83-.71,11.79-.55s7.84,0,11.75.06c3.51.09,7,.72,10.54.48a9,9,0,0,0,4,.5c1,1.21,2.64-.21,3.59,1a19.91,19.91,0,0,1,3.55.42c1.28.12,2.53.35,3.79.57a18.24,18.24,0,0,1,3.61.93c.85.35,1.94-.15,2.76.58,3.17.14,6,1.7,9.17,2.07A9.18,9.18,0,0,1,231,59.29a9.41,9.41,0,0,1,2.59,3.39c1,1.76,1.81,3.61,2.95,5.29a5.24,5.24,0,0,1,1,2.33c.08,1,1.53,1.2,1.05,2.33,1.28,1.44,1.46,3.4,2.38,5,.7,1.24.77,2.66,1.31,4s1.38,2.42,1.38,4c0,.94.71,1.84,1,2.8.68,2.07,1.08,4.21,1.66,6.29s1.56,4,1.29,6.25a4.67,4.67,0,0,0,.51,2.76,4.8,4.8,0,0,1,.43,2.57,4.72,4.72,0,0,0,.47,2.32c.34.58-.22,1.41.35,2.11C249.63,111,249.55,111.59,249.56,112.07ZM168.07,110a7.17,7.17,0,0,0-1.88-5.07c-1.67-1.93-3.88-1.22-5.13-1.32-2.4.73-3.65,2-3.88,3.66a28.81,28.81,0,0,0,.19,5l3,2.3H164C166.25,113.75,167.15,112.06,168.07,110Zm-18.53,18.91a3.93,3.93,0,0,0-1.25-5.31c-1.79-.07-3.65-.27-5.26,1s-3.47,1.31-5.21,1.85c-1.95.62-4.2-.17-6.23.65a3.36,3.36,0,0,0-2.29-.51c-1.17,0-2.33,0-3.4,0-2.06-1.44-4.81-1.17-6.62-3h-3.42l-1.79,1.74v3c.41.59.7,1.37,1.26,1.7a45.89,45.89,0,0,0,4.94,2.52c.84.37,2,.26,2.67.75,1,.65,2.2-.3,2.94.78,1.68.16,3.35.38,5,.49,2.82.17,5.55-.52,8.33-.91,3.32-.47,6.12-2.16,9.16-3.25C148.91,130.2,149.28,129.45,149.54,128.88Zm-43-18.45a2.33,2.33,0,0,0,0-2.86,11.66,11.66,0,0,1-.77-2c-2.15-2.15-3.07-2.53-6.07-2.42-4,2.25-4.71,3.36-4.66,6.72a7.25,7.25,0,0,0,5.2,5.2h2.18l3.28-2.32A13,13,0,0,1,106.58,110.43Z"/><path class="cls-3" d="M166.19,104.9a7.17,7.17,0,0,1,1.88,5.07c-.92,2.09-1.82,3.78-4.08,4.56h-3.61l-3-2.3a28.81,28.81,0,0,1-.19-5c.23-1.71,1.48-2.93,3.88-3.66C162.31,103.68,164.52,103,166.19,104.9Z"/><path class="cls-3" d="M148.29,123.57a3.93,3.93,0,0,1,1.25,5.31c-.26.57-.63,1.32-1.13,1.49-3,1.09-5.84,2.78-9.16,3.25-2.78.39-5.51,1.08-8.33.91-1.69-.11-3.36-.33-5-.49-.74-1.08-2-.13-2.94-.78-.72-.49-1.83-.38-2.67-.75a45.89,45.89,0,0,1-4.94-2.52c-.56-.33-.85-1.11-1.26-1.7v-3l1.79-1.74h3.42c1.81,1.83,4.56,1.56,6.62,3,1.07,0,2.23,0,3.4,0a3.36,3.36,0,0,1,2.29.51c2-.82,4.28,0,6.23-.65,1.74-.54,3.68-.68,5.21-1.85S146.5,123.5,148.29,123.57Z"/><path class="cls-3" d="M106.58,107.57a2.33,2.33,0,0,1,0,2.86,13,13,0,0,0-.84,2.28L102.46,115h-2.18a7.25,7.25,0,0,1-5.2-5.2c0-3.36.67-4.47,4.66-6.72,3-.11,3.92.27,6.07,2.42A11.66,11.66,0,0,0,106.58,107.57Z"/></g></g></svg>