<svg xmlns="http://www.w3.org/2000/svg" viewBox="0 0 2620.17 1943.54"><defs><style>.cls-1{fill:#881337;}.cls-2,.cls-4{fill:#9f1239;}.cls-3{fill:#fecdd3;}.cls-37,.cls-4,.cls-50,.cls-51,.cls-56,.cls-60{isolation:isolate;}.cls-26,.cls-4,.cls-50{opacity:0.5;}.cls-5{fill:#699ff0;}.cls-6{fill:#4888e5;}.cls-7{fill:#a8d29f;}.cls-8{fill:#7db2ff;}.cls-9{fill:#3b7fd1;}.cls-10{fill:#82b378;}.cls-11{fill:#ffb27d;}.cls-12{fill:#35488b;}.cls-13{fill:#2c3a64;}.cls-14{fill:#f43f5e;}.cls-15{fill:#374151;}.cls-16{fill:#ed985f;}.cls-17{fill:#e11d48;}.cls-18{fill:#e5e7eb;}.cls-19{fill:#c94c43;}.cls-20{fill:#b23b38;}.cls-21{fill:#fff;}.cls-22{fill:#ed975d;}.cls-23{fill:#4a75cb;}.cls-24{fill:#e58638;}.cls-25{fill:#739af0;}.cls-27{fill:#2b478b;}.cls-28{fill:#f4a671;}.cls-29{fill:#233862;}.cls-30{fill:#efcdaf;}.cls-31{fill:#e2b99a;}.cls-32{fill:#fff3e9;}.cls-33{fill:#afcdfb;}.cls-34{fill:#e57970;}.cls-35{fill:#d3671e;}.cls-36{fill:#f99746;}.cls-37{fill:#d86713;opacity:0.4;}.cls-38{fill:#f1a34f;}.cls-39{fill:#c95c12;}.cls-40{fill:#caddff;}.cls-41{fill:#f9ddbf;}.cls-42{fill:#e5c1a1;}.cls-43{fill:#b64c41;}.cls-44{fill:#963333;}.cls-45{fill:#b7d2f9;}.cls-46{fill:#ed7d2b;}.cls-47{fill:#739cf3;}.cls-48{fill:#415da5;}.cls-49{fill:#ffa412;}.cls-50,.cls-51,.cls-52{fill:#ebf3fa;}.cls-51,.cls-56{opacity:0.3;}.cls-53{fill:#dc8d39;}.cls-54{fill:#ecf2fd;}.cls-55{fill:#e5eaf5;}.cls-56{fill:#ced4ea;}.cls-57{fill:#aac9f5;}.cls-58{fill:#c3d9fa;}.cls-59{fill:#9dc1ed;}</style></defs><g id="Layer_2" data-name="Layer 2"><g id="Layer_1-2" data-name="Layer 1"><path class="cls-1" d="M142.48,1940.21S-126.37,1511,74.54,1086c189.07-400,504.37-188.17,857-505.87,535.31-482.32,1597.36-208,1377.84,457.94C2195.61,1383.22,2773.64,1590,2580.23,1941Z"/><rect class="cls-2" x="1698.25" y="1324.73" width="324.63" height="38.69" rx="7.46"/><path class="cls-3" d="M1776.92,1363.42l-3.86,22.64-55.82,327.72a2.77,2.77,0,0,1-2.92,2c-2.87,0-5.1-1.91-4.8-4.09l44.28-335.6,1.67-12.68Z"/><path class="cls-3" d="M1776.92,1363.42l-3.86,22.64c-2.65-9-19.26-10-19.26-10l1.67-12.68Z"/><path class="cls-2" d="M2006.8,1941.8c-1.5,0-2.76-1.42-2.92-3.3l-55.82-537.9-2.41-23.18-1.45-14h21.45l1.67,20.81,1.31,16.33,43,534.53C2011.9,1938.68,2009.67,1941.8,2006.8,1941.8Z"/><path class="cls-2" d="M1968.63,1400.6c-5.45-17.71-23-23.15-23-23.15h0l-1.45-14h21.45l1.67,20.81Z"/><path class="cls-4" d="M1733.08,1164.82s108.72-160.92,249.23-218c18.68-7.59,36.57,12.57,27,30.29l-.49.9C1991.91,1008,1827.14,1086.37,1733.08,1164.82Z"/><path class="cls-4" d="M1697.14,1208.41S1895,1039.17,2093.3,1021.35c12.09-1.09,23.36,7.36,24.9,19.41,1,7.84-1.87,17.82-13.62,29.65C2073.27,1102,1841.19,1143,1697.14,1208.41Z"/><path class="cls-2" d="M1026.71,935.05s-76.75-89.78-87.5-181.4c-1.42-12.17,13.29-19.4,22.13-10.91l.44.44C976.64,757.93,995.94,867.21,1026.71,935.05Z"/><path class="cls-2" d="M1046.46,963.17S979.24,819.8,1000.88,700.6a13.91,13.91,0,0,1,15.41-11.45c4.76.68,10.14,4,15.18,12.78C1044.91,725.43,1031.42,868.14,1046.46,963.17Z"/><path class="cls-2" d="M1373.75,582.81c-33.91-36.78-99.2,14.25-99.2,14.25s-10,100.5-23.36,109.72-8.21-87.6-8.21-87.6c-29,11.74-81.86,82.36-81.86,82.36s50,85.09,34.81,90.75-40.44-77.61-40.44-77.61c-22.58,22-31.29,66.21-31.29,66.21-4.73,67.11,81.7,69.72,81.7,69.72S1222.6,880.48,1222,925h0a116.56,116.56,0,0,0,.51,21.78l7.29-3.8q-.63-3.4-1-6.69h0a.17.17,0,0,0,0-.1c-.09-1.39-.2-3.37-.33-5.79h0c0-5.52-.21-9.53-.47-12.35h0c-.46-17.18-.13-40,4.33-47.12a16.22,16.22,0,0,1-3.3-2.54l3.3,2.54c26.44,20.25,91.21-7.83,122.28-33.09s10.79-27.18-16.24-33.34-64.1,18.48-78.95,18.28-1.15-15.28,23-25.58,47.81,6.85,87.14-9.1,31.15-101.3,31.15-101.3c-21.69,21.51-75.51,31.4-82,23.41s62.73-42.89,72-51.14S1407.66,619.6,1373.75,582.81Z"/><path class="cls-2" d="M1754.54,632.74c-50.14-54.38-146.68,21.07-146.68,21.07S1593,802.42,1573.31,816.05s-12.14-129.52-12.14-129.52c-43,17.35-121,121.77-121,121.77s73.95,125.83,51.47,134.19-59.8-114.76-59.8-114.76c-33.38,32.49-46.26,97.9-46.26,97.9-7,99.25,120.8,103.1,120.8,103.1s24.69,44.17,23.79,110h0s-1.3,12.75.76,32.21l10.79-5.62c-.63-3.36-1.12-6.66-1.44-9.9a.06.06,0,0,1,0-.06v-.14c-.13-2.06-.3-5-.48-8.56h0c-.07-8.17-.32-14.1-.71-18.27h0c-.67-25.4-.2-59.21,6.41-69.69a23.41,23.41,0,0,1-4.89-3.74l4.89,3.74c39.09,30,134.86-11.56,180.81-48.92s16-40.18-24-49.3-94.78,27.33-116.74,27-1.71-22.6,34-37.83,70.69,10.13,128.84-13.46,46.07-149.79,46.07-149.79c-32.07,31.8-111.66,46.44-121.17,34.62s92.75-63.42,106.51-75.62S1804.68,687.12,1754.54,632.74Z"/><path class="cls-2" d="M338.87,1026.78c-.08-82.78,136.59-94.06,136.59-94.06s125,110.91,151.62,107.14-88.39-115.71-88.39-115.71c48.49-18.36,192,8.18,192,8.18s34.78,159.62,59.6,149.41-38-139.75-38-139.75c52.12,1.35,112.39,45.35,112.39,45.35,81.12,76.28-21,176.5-21,176.5s13.24,55.06,64,108.54h0s10.76,9.49,23.85,27L918.39,1303q-3-4.85-6.34-9.23a0,0,0,0,0,0,0l-.1-.12c-1.45-1.79-3.53-4.33-6.1-7.41h0c-6.15-6.77-10.44-11.84-13.3-15.56h0c-18.74-21.39-44.8-48.82-58.19-52.42a26.13,26.13,0,0,0,1.17-6.79q-.56,3.24-1.17,6.79c-9.39,54.31-119.65,92.91-185.8,97.09s-43.64-20.91-17.7-58.76,98.68-49.51,116.5-66.43-15.75-19.87-56.64-5.3-50.42,62-116.15,86.78-151.63-88.16-151.63-88.16c50.52,1.79,127.06-46.62,125.91-63.56s-124.41,18.3-145,18.72S339,1109.6,338.87,1026.78Z"/><path class="cls-5" d="M1842.24,1373.6a565.14,565.14,0,0,1-9.11,101.39c-47.74,262.44-277.47,461.43-553.69,461.43-229.74,0-427.31-137.64-514.77-335A555.91,555.91,0,0,1,736,1520.51c-81.08-300.13,96.49-609.17,396.62-690.26a563.06,563.06,0,0,1,146.82-19.48q21.46,0,42.54,1.6C1615.52,834.53,1842.35,1079.23,1842.24,1373.6Z"/><path class="cls-6" d="M1842.24,1373.6a565,565,0,0,1-9.11,101.38,557,557,0,0,1-27.46,98.57c-80.62,212.12-285.81,362.86-526.23,362.86a560.39,560.39,0,0,1-265.05-66.19q-10.89-5.84-21.53-12.13a565,565,0,0,1-228.2-256.63A557.41,557.41,0,0,1,736,1520.52c63.58,15.2,164,31.46,284.25,23.8,20.89-1.31,42.38-3.36,64.4-6.27a937.37,937.37,0,0,0,247.7-68c204.81-87.82,342.6-263.67,422.78-397.39A560.13,560.13,0,0,1,1842.24,1373.6Z"/><path class="cls-7" d="M1842.25,1373.6a565.15,565.15,0,0,1-9.12,101.39c-22.91-3.32-52.74-6.56-71.15-4.39-33.18,3.9-66.36,72.21-134.67,74.89s-152.22-49.52-242-14.39-136.61-2-152.22-27.33,39-83.92,34.08-109.29,6.9-111.24,83-111.24,107.63-41.6,121-56.6c38.34-43,68.31-3.9,99.54-37.08s-23.42-91.72,0-130.76,138.57-48.51,138.57-48.51A560.48,560.48,0,0,1,1842.25,1373.6Z"/><path class="cls-7" d="M1012.55,1277.93c-27.32,38.48,9.76,118.5-13.66,159.48s-68.31,33.19-101.48,52.69c-28.81,16.94-40.35,86.84-132.74,111.36a565.67,565.67,0,0,1-35-348.94c18.86-19,44.69-36.13,79.91-45.4,111.25-29.28,114-111.15,158.91-112.72C1077.82,1090.6,1039.88,1239.45,1012.55,1277.93Z"/><path class="cls-7" d="M1432.15,1065.6s-68.31-13.66-105.39,9.76-112.21,65.38-102.46,89.78,81,42.93,110.27,42,9.35-58.85,151.25-42C1521.79,1169.44,1522.31,1090.39,1432.15,1065.6Z"/><path class="cls-8" d="M1380.48,819.82c-34.61,60.58-98,137.3-204.91,165-129,33.44-238.83,9.28-294.42-8.88a562.12,562.12,0,0,1,398.29-165.19q21.46,0,42.54,1.6A563.79,563.79,0,0,1,1380.48,819.82Z"/><path class="cls-9" d="M1805.67,1573.6c-80.62,212.12-285.81,362.86-526.23,362.86a560.39,560.39,0,0,1-265.05-66.19q-10.89-5.83-21.53-12.13C1138.13,1847.49,1500.62,1797.86,1805.67,1573.6Z"/><path class="cls-7" d="M1107.11,1735.31c-29.86,21.78-37,88.71-56.08,98-9.59,4.65-24.33,21.41-36.64,36.93a565.16,565.16,0,0,1-194.73-172c33.79-23.44,97.14-63,141.08-64.13,0,0,22-.26,38.25-44.87,6.41-17.59,13.29-33.19,21.25-44.93,12.26-18.06,27.06-27,46.71-20a34,34,0,0,1,17.69,13.68c11.37,16.93,12.08,43.81,44.09,69.73C1172,1642.79,1137,1713.53,1107.11,1735.31Z"/><path class="cls-7" d="M1534.29,979.06s-5.88-105.78-136-124.18C1398.29,854.88,1393.49,979.06,1534.29,979.06Z"/><path class="cls-7" d="M1528.41,978.33S1632.75,998.05,1675,873.6C1675,873.6,1554.55,840,1528.41,978.33Z"/><path class="cls-7" d="M1529.85,934.21s46.3-37.49,8.39-100.72C1538.24,833.49,1480.15,872.81,1529.85,934.21Z"/><path class="cls-7" d="M1528.41,978.33s-15.64,67.86-12.92,91.77h12.92s-5-63.16,7.27-95Z"/><path class="cls-10" d="M1672.48,1144.73s-2.78-50-64.35-58.75C1608.13,1086,1605.86,1144.73,1672.48,1144.73Z"/><path class="cls-10" d="M1669.7,1144.39s49.38,9.33,69.36-49.55C1739.06,1094.84,1682.07,1078.92,1669.7,1144.39Z"/><path class="cls-10" d="M1670.38,1123.51s21.91-17.74,4-47.66C1674.35,1075.85,1646.87,1094.46,1670.38,1123.51Z"/><path class="cls-10" d="M1669.7,1144.39s-7.4,32.11-6.11,43.42h6.11s-2.36-29.88,3.44-45Z"/><path class="cls-7" d="M1458.14,1024.88s-1.74-31.43-40.4-36.9C1417.74,988,1416.31,1024.88,1458.14,1024.88Z"/><path class="cls-7" d="M1456.4,1024.66s31,5.86,43.55-31.12C1500,993.54,1464.17,983.6,1456.4,1024.66Z"/><path class="cls-7" d="M1456.83,1011.6s13.75-11.14,2.49-29.92C1459.32,981.6,1442.06,993.31,1456.83,1011.6Z"/><path class="cls-7" d="M1456.4,1024.66s-4.65,20.16-3.84,27.27h3.84s-1.48-18.77,2.16-28.24Z"/><path class="cls-11" d="M1765.29,952.5s-10-2-12.31,0-13.15,13-10.83,16.62,13.48-3,15.8-3.62,8.81-3.16,8.81-3.16Z"/><path class="cls-12" d="M1871.75,1306.7l10.74,4s46.64-64.7,52.39-121.62a86.27,86.27,0,0,0-1.54-29.1s.46-2.6,1.26-7.21c.37-2.14.82-4.73,1.34-7.69,1.52-8.69,3.6-20.58,6-34.12,5.49-31.15,12.6-71,18.12-100.25l-2.89-.93-31.31-10.1-6.47-20.55L1896.07,973s-5.21,10.19-9.86,58.31c-.86,6.32-1.64,13.28-2.23,20.83a413.19,413.19,0,0,0,2.22,84.3c1.07,8.37,2.42,17,4.1,25.87,1.22,6.51,1.41,15.38.89,25.55C1888.83,1234.39,1871.75,1306.7,1871.75,1306.7Z"/><path class="cls-13" d="M1884,1052.13l50.63,100.64c.37-2.14.82-4.73,1.34-7.69,1.52-8.69,3.6-20.58,6-34.12,5.49-31.15,12.6-71,18.12-100.25l-2.89-.93-31.31-10.1-6.47-20.55L1896.1,973s-5.21,10.19-9.86,58.31C1885.34,1037.6,1884.56,1044.6,1884,1052.13Z"/><path class="cls-12" d="M1906.24,985.9l1.18-10c19.63,5.22,72.09-14.57,72.09-14.57s19,16.72,16.52,56.8c-1.21,19.56-3.44,102.69-5.77,127.29-.84,8.91-1.57,15.26-1.87,17.79h0a3.53,3.53,0,0,0,.57,2.17,114.8,114.8,0,0,1,8.58,18.06c22.83,60.82-3.51,135.73-3.51,135.73l-6.84-2.76s-15-83.36-27.17-120.19c-2.06-6.24-4-11.15-5.86-14.09-5.3-8.54-10.21-22.51-14.67-39.12-8.43-31.4-15.22-72.25-19.73-103.78C1919.12,1039.24,1906.24,985.9,1906.24,985.9Z"/><path class="cls-11" d="M1765.29,952.5l1.47,9.84s.65,0,1.78-.08c3.58-.25,12.28-.73,22.11-1.79,14.79-1.46,32.35-4.07,39.34-8.37,10.64-6.5,28.12-26.42,39.49-46.33a12.36,12.36,0,0,0,.82-1.46c5.93-10.57,10.08-21,10.4-29.42a41.9,41.9,0,0,0-1.38-13.33,33.88,33.88,0,0,0-6-12,6.26,6.26,0,0,0-1.13-1.38,28.19,28.19,0,0,0-7.72-6.58c-2-.82-4.07.16-6.26,2.52v.08a37.56,37.56,0,0,0-5.61,8.29c-.08.08-.16.16-.16.24-.41.73-.82,1.55-1.3,2.44a2,2,0,0,0-.33.57c-.89,1.87-1.79,3.82-2.68,5.85-10,21.78-20.64,54.78-29.5,64.61-3.82,4.23-21.3,12.52-35.19,18.69C1773.42,949.25,1765.29,952.5,1765.29,952.5Z"/><path class="cls-11" d="M1868.73,864a61,61,0,0,0,22.62,5.3c33.75,1.85,41.41-27.74,42.81-47.38a28.28,28.28,0,0,0-11.58-1.47c-2.4.14-4.9.38-7,.64-4.13-2.16-11.54-12.64-15.83-30.17l-1.46.68L1874,803.05s2.58,7.93,4.49,15.51c1.49,5.94,2.57,11.67,1.67,13.27-1.92.79-3.07,1.28-3.07,1.28h0A168.51,168.51,0,0,0,1868.73,864Z"/><path class="cls-14" d="M1860.29,886.15c.25.68.54,1.33.84,2,8.55,18.41,24.38,94.68,24.38,94.68-2.26,13.72,103-2.69,103.33-15.17,3.7-13.24-13.17-34.51-22.68-45.18a31.91,31.91,0,0,1-3.19-4.3,29.91,29.91,0,0,1-4.31-12.59c-1.87-17.7-1.16-34.29-1.32-44.37h0c-1.86-1.38-3.66-2.65-5.33-3.86a48.47,48.47,0,0,1-6.49-5.39,9.85,9.85,0,0,1-3.11-6.13,32.54,32.54,0,0,1,.13-5.13c.08-.82.19-1.63.31-2.45a69.53,69.53,0,0,1,4.89-16.33c-9.06-3.67-25.16-1.49-25.16-1.49v2.36c.06,5.89,0,21-1.88,23.85-2.36,3.56-45.51,19.16-47.79,14.33s3.91-27,4.13-27.86h0c-14.45,5.67-19.61,10.43-19.61,10.43C1866.17,849.19,1853.56,868.29,1860.29,886.15Z"/><path class="cls-15" d="M1889.35,727.05c.06-1.46,1.19-17.23,25.21-18,0,0-11.81,1.4-13.85,6.6,0,0,8-6.42,14.59-4.36s10.4,13.54,10.44,17.32-3.61,15.94-7.76,17a12.75,12.75,0,0,1-5,0,55.07,55.07,0,0,1,3.23,5.76c9.58,19.68-.3,38.9-8.42,36.78-5.2-1.36-6.67,7.52-6.67,7.52l-50.56-40.93S1869.09,716.24,1889.35,727.05Z"/><path class="cls-16" d="M1874,803.06s2.59,7.91,4.49,15.51c14.24-4,18.56-18.94,19.87-27Z"/><path class="cls-11" d="M1871,811.44s34.06-7.88,28.82-29-4.36-36.39-26.33-32.25-24.18,13.25-24.15,20.73S1862,813,1871,811.44Z"/><path class="cls-15" d="M1847.41,758.9c3.66-7.66,8-7.25,10.66-5.9,16-14.8,31.71-2.71,31.71-2.71a41.6,41.6,0,0,0,19.13,20.56s-5.23,5.36-20.4,5.24c-4.63,0-9.29-2.16-13.52-5.09a81.88,81.88,0,0,0,17.76,13.25c-19-3.64-31.72-25.62-33-28-1.61,2.38-4.69,7.43-5,11.7-.35,5.8,1.65,17.07-1.68,17.5C1853.1,785.5,1841.91,770.39,1847.41,758.9Z"/><path class="cls-14" d="M1857.45,843.54s-8.2,14.3-9.42,18c0,0,10.63-.4,14.93,7.78C1863,869.3,1864,845.46,1857.45,843.54Z"/><path class="cls-17" d="M1913.86,957.22c20.77-.22,38.36-21.79,49.11-39a29.91,29.91,0,0,1-4.31-12.59c-1.87-17.7-1.16-34.29-1.32-44.37h0c-1.86-1.38-3.66-2.65-5.33-3.86a48.47,48.47,0,0,1-6.49-5.39C1928.51,880.73,1885.7,957.51,1913.86,957.22Z"/><path class="cls-11" d="M1835.35,968.52l2.84,10.4s3.58-.65,9.27-1.71c1.71-.32,2.68-.57,2.68-.57,4.55-.89,10-2.11,15.93-3.41h.08c10.16-2.44,21.54-5.36,31.13-8.62,6.75-2.35,12.6-4.87,16.58-7.39a10.29,10.29,0,0,0,1.14-.82c9.51-6.9,20.8-27.22,29.58-49,1.22-3,2.36-6,3.5-8.94a221.65,221.65,0,0,0,9.26-30.89,86.92,86.92,0,0,0,2.2-14.71,35.76,35.76,0,0,0,.08-4.14c-.17-23.57-11.87-26.82-11.87-26.82-.24-.08-.49-.16-.81-.24-2-.33-4.15,1.05-6.34,3.73-2.76,3.34-5.69,8.78-8.7,15.36-4.63,10.49-9.51,24.06-14.06,37.55-2.52,7.4-5,14.79-7.39,21.62-1.39,4.15-2.77,8-4.07,11.62-2.52,6.83-4.79,12.36-6.82,15.85-1.31,2.28-5,5.45-10,9-8.62,6.26-21.21,13.82-32.18,20-4.56,2.61-8.86,5-12.44,6.91C1839.17,966.48,1835.35,968.52,1835.35,968.52Z"/><path class="cls-14" d="M1931.93,840.79c15.65-4.32,27.72,7.9,27.72,7.9-.2-23.53-11.91-26.75-11.91-26.75C1943,820,1937.56,828.15,1931.93,840.79Z"/><path class="cls-18" d="M1954.28,1324.73h54.09s1.3-8.24-1.53-14.5c-2.71-6-6.95-8.73-5.93-16-3.44,3.54-9,7.5-16.86,6.45-1,1.55-6.19,9.87-9.39,12.17C1971.13,1315.4,1955.37,1314.49,1954.28,1324.73Z"/><path class="cls-18" d="M1838.14,1324.73h54.09s2-8.63-1.53-14.5c-3.14-5.19-1.94-8.15.39-12.45a21.1,21.1,0,0,1-9.11,1.72,19.12,19.12,0,0,1-8-2.83c-2.33,2.65-12.3,14-15.41,16.19C1855,1315.4,1839.23,1314.49,1838.14,1324.73Z"/><path class="cls-19" d="M1832.13,1016.71l-12.85-31.35a8.7,8.7,0,0,0-10.33-5.07,53.64,53.64,0,0,0-16.77-19.08,39.84,39.84,0,0,0-22.64-7.44,32.12,32.12,0,0,0-12.08,2.39c-18.27,7.49-26.46,30.58-19.75,53.26l-1,.4s-3.13-.21-8.37-.21c-16.55,0-54.18,2.2-80.58,20.53a7.32,7.32,0,0,0-1.76,4.46,7,7,0,0,0,.55,3s42.38-27.44,81.58.76c2.4,1.73,4.74,3.34,7,4.81l3.52,8.58a28,28,0,0,0,36.46,15.26l35.9-14.71,7.48-3.07A25,25,0,0,0,1832.13,1016.71Zm-69.59-25.41-14.62,6a8.56,8.56,0,0,0-5,10l-1.57.64c-6-20.66,1.31-41.49,17.63-48.18a27,27,0,0,1,7-1.86c7.52-1,15.35,1,22.38,5.42a49.24,49.24,0,0,1,17,18.39l-2.16.88a8.58,8.58,0,0,0-10.61-3.59L1778,985a7.25,7.25,0,0,0-9.42-4l-2,.83A7.24,7.24,0,0,0,1762.54,991.3Z"/><path class="cls-20" d="M1735.18,1043.13c-2.26-1.48-4.6-3.08-7-4.81-39.2-28.2-81.58-.76-81.58-.76a7,7,0,0,1-.55-3c5.93-3.91,28.16-16.91,55.71-12.47C1734,1027.35,1739.87,1031.84,1735.18,1043.13Z"/><path class="cls-20" d="M1818.54,1049.19l-7.48,3.07c11.21-6.12-2.68-32-10.8-49.07s-20.41-9.27-20.41-9.27a9.77,9.77,0,0,0-8.85-5.41c-.31-5.52-4.52-6.63-4.52-6.63l2-.83a7.25,7.25,0,0,1,9.42,4l14.62-6a8.58,8.58,0,0,1,10.61,3.59l2.16-.88a49.24,49.24,0,0,0-17-18.39c-7-4.39-14.86-6.41-22.38-5.42a15.86,15.86,0,0,0,3.57-4.13,39.84,39.84,0,0,1,22.64,7.44A53.59,53.59,0,0,1,1809,980.29a8.7,8.7,0,0,1,10.33,5.07l12.85,31.35A25,25,0,0,1,1818.54,1049.19Z"/><path class="cls-11" d="M1801.7,978.6c5.2,2.2,12.52,9.84,24.22,5.2a182,182,0,0,1,21.54-6.58c1.71-.32,2.68-.57,2.68-.57l-4.63-13.49a2.19,2.19,0,0,1-.57.16c-3,.65-18.29,3.9-25.44,2.28-8-1.87-21.54,7.8-21.54,7.8S1796.5,976.48,1801.7,978.6Z"/><path class="cls-21" d="M1654.87,1060.21c0-4.88-8.84-19.94-8.84-19.94s-8.84,15.06-8.84,19.94a8.84,8.84,0,1,0,17.68,0Z"/><path class="cls-18" d="M2346.45,1888.93s10.24,9.49,8.24,16.23-11.24,11.24-12.49,19.48-6.24,12.73-10.73,12.73H2310s-3.31-5.8,4.68-7.55,11-11.43,10.5-20.42a160.07,160.07,0,0,1,.75-21l17-4Z"/><path class="cls-18" d="M2220.85,1914.8s2.5,20-2,22.22-58.18,1.5-58.18,1.5,0-6.74,9.24-8.24,25.47-7,28.22-19.23S2220.85,1914.8,2220.85,1914.8Z"/><path class="cls-12" d="M2172.29,1609.76s3,37.86,6.6,83.36c4.84,61.8,10.67,137.73,11.25,152.11,1,25,5,64.92,5,64.92s9.49,9.49,28.47,5.49c0,0,16.91-57,21.75-117.37.07-1,.15-2,.22-3,4.5-61.42,11.48-190.77,11.48-190.77Z"/><path class="cls-13" d="M2172.29,1609.76s3,37.86,6.6,83.36l66.46,105.15c.07-1,.15-2,.22-3,4.5-61.42,11.48-190.77,11.48-190.77Z"/><path class="cls-12" d="M2186.14,1614.26s54.69,137.08,90.64,201.51,47.2,82.4,47.2,82.4,20.6-8.24,22.47-13.86c0,0-13.75-124.37-37.83-154.69-13.61-17.13-29.59-68.54-30.34-86.52s-4.87-53.56-4.87-53.56Z"/><path class="cls-11" d="M2078.83,1595.29s-19.3,9.26-21.9,11.64-9,14-8.51,14.92,1.45,1.16,3.2,0,6.65-6.27,6.83-5.33-13.1,16.57-10.75,19.87,15.67,2.33,23.27-3.07,15.19-25.29,16.33-26.37C2097,1597.69,2078.83,1595.29,2078.83,1595.29Z"/><path class="cls-17" d="M2078,1605.21c-5.36-4.66-5.5-5.84-5.5-5.84s34.22-59.17,37.18-64.86S2131,1440,2131,1440l63.4-18.38s-44.66,115.48-52.46,129.75c-12.89,23.58-55,58.29-55,58.29A19.81,19.81,0,0,1,2078,1605.21Z"/><path class="cls-11" d="M2162.05,1398.45s-22.31,39.25-44.12,44.38c0,0,.91-13.19,6.22-22.21-2.18-2.56-4.08-4.92-5.74-7a131.12,131.12,0,0,1-8.1-11.34l7.4-19.9,5-13.5a64.83,64.83,0,0,0,7.84,11.31C2144.88,1396.6,2162.05,1398.45,2162.05,1398.45Z"/><path class="cls-22" d="M2130.58,1380.16s2.67,19.67-12.17,33.43a131.12,131.12,0,0,1-8.1-11.34l7.4-19.9C2125.65,1379.94,2130.58,1380.16,2130.58,1380.16Z"/><path class="cls-11" d="M2104.43,1405.15s33.34-13,24.93-33.63-9.78-36.21-31.42-28.79-22.54,17-21.41,24.55S2095.54,1408,2104.43,1405.15Z"/><path class="cls-14" d="M2276.64,1599.9c-13.44,19.33-114,45.16-112.79,31.79a145.5,145.5,0,0,0,0-26.4q-.36-4.3-1.07-9.11c-2.56-17.6-8.62-40.2-22.16-66.38-1-2-2.07-3.94-3.16-5.94a203.86,203.86,0,0,1-13.94-31.32c-7-20.13-9.78-39.4-6.26-52a.84.84,0,0,1,0-.17c21-9.72,29.16-47.41,29.16-47.41s71.7,12.87,111.87,108.45c0,0,3.86,10.49,8.27,24.73,5.35,17.28,11.52,40,12.59,56.3C2279.7,1590.17,2279.06,1596.42,2276.64,1599.9Z"/><path class="cls-15" d="M2134.14,1333.19c.24-.46.91-1,2.57-1.46a7,7,0,0,0-3.36-.13c-.93-2.28-3.21-6.17-7.47-6.2a5.26,5.26,0,0,1,3.34,3.09c-5.84-3.71-16.68-4.79-43.74,4.23-35.66,11.87-17.85,32.58-12.44,34.24s15.35-9,24.3-10.45,13.79,11,17.21,12,1.47-1.81,5-4.65,5.62,3.84,5.55,8.54,6.9,9.2,6.9,9.2l4.08-7.49c4.09-7.5,3-34.7-.93-39.6Z"/><path class="cls-17" d="M2279.18,1582.45c-86.52-26.1-100.29-129.25-100.29-129.25s49.26,37.64,87.7,73C2271.94,1543.43,2278.11,1566.2,2279.18,1582.45Z"/><path class="cls-11" d="M2302.9,1585.84s-2,16.37-1.48,19,3.59,10.61,4.36,10.66,3.13.14,3.07-1.5-1.13-3.17-.44-2.89.88,6.44,4,6.28,12.3-3.62,11.93-10.79-10.16-20.32-10.39-21.52C2312,1575,2302.9,1585.84,2302.9,1585.84Z"/><path class="cls-14" d="M2308.08,1588.6c-6.86,3.15-9.41-.06-9.41-.06s-40-66.77-44.2-72.14-78-37-78-37-30-11.49-31.23-29.71c-1-15.83,8-25.56,17.81-31.43a33.24,33.24,0,0,1,37.36,2.42c24.21,18.8,72.21,56.62,79.93,66.88,17.2,22.83,36.25,94.38,36.25,94.38A23.87,23.87,0,0,1,2308.08,1588.6Z"/><path class="cls-23" d="M2136.21,1633.88l-18,18-.25-.15-27-16.94s14,4.51,15.87,4,21.31-7.2,25.91-6.65a2,2,0,0,1,.67.19Z"/><path class="cls-24" d="M2117.4,1656.74c-.72-.16-2.86-.67-5.78-1.41-8.39-2.15-23.17-6.27-29-9.65-5.24-3-32.91-19.12-52-30.42a35.29,35.29,0,0,1,21.39-3.85c22.26,13.07,51.34,30.22,54.89,32.72,5.86,4.12,13.84,9.1,13.84,9.1a5.05,5.05,0,0,1-.12.56C2120.37,1654.9,2119.54,1657.2,2117.4,1656.74Z"/><path class="cls-25" d="M2117.4,1656.74c-.72-.16-2.86-.67-5.78-1.41-8.39-2.15-23.17-6.27-29-9.65-5.24-3-32.91-19.12-52-30.42-9.58-5.67-17-10.14-18.28-11.14-3.89-3-11.38-10.46-9.54-11.87s5.44,0,6.79-.2h.06c.31,0,.83-.13,1.55-.18,2.57-.15,7.67.2,14.93,4.4,0,0,11.52,6.72,25.88,15.15,22.26,13.07,51.34,30.22,54.89,32.72,5.86,4.12,13.84,9.1,13.84,9.1a5.05,5.05,0,0,1-.12.56C2120.37,1654.9,2119.54,1657.2,2117.4,1656.74Z"/><path class="cls-23" d="M2117.4,1656.74c-.72-.16-2.86-.67-5.78-1.41a8.54,8.54,0,0,0-1.95-6l11,4.44C2120.37,1654.9,2119.54,1657.2,2117.4,1656.74Z"/><g class="cls-26"><path class="cls-23" d="M2093.63,1642.6h0a.36.36,0,0,1-.13-.49l.19-.33a.37.37,0,0,1,.5-.13h0a.37.37,0,0,1,.13.5l-.2.33A.36.36,0,0,1,2093.63,1642.6Z"/><path class="cls-23" d="M2092,1641.65h0a.36.36,0,0,1-.12-.49l.19-.33a.37.37,0,0,1,.5-.13h0a.37.37,0,0,1,.12.5l-.19.33a.35.35,0,0,1-.49.12Z"/><path class="cls-23" d="M2090.42,1640.71h0a.37.37,0,0,1-.13-.5l.2-.33a.36.36,0,0,1,.49-.12h0a.36.36,0,0,1,.13.49l-.19.33A.37.37,0,0,1,2090.42,1640.71Z"/><path class="cls-23" d="M2088.82,1639.76h0a.36.36,0,0,1-.13-.49l.19-.33a.37.37,0,0,1,.5-.13h0a.36.36,0,0,1,.13.49l-.2.33A.36.36,0,0,1,2088.82,1639.76Z"/><path class="cls-23" d="M2087.21,1638.81h0a.36.36,0,0,1-.12-.49l.19-.33a.37.37,0,0,1,.5-.13h0a.36.36,0,0,1,.12.49l-.19.34A.38.38,0,0,1,2087.21,1638.81Z"/><path class="cls-23" d="M2085.61,1637.86h0a.36.36,0,0,1-.13-.49l.2-.33a.36.36,0,0,1,.49-.13h0a.37.37,0,0,1,.13.5l-.19.33a.35.35,0,0,1-.49.12Z"/><path class="cls-23" d="M2084,1636.92h0a.37.37,0,0,1-.13-.5l.2-.33a.36.36,0,0,1,.48-.13h0a.36.36,0,0,1,.13.49l-.2.33A.36.36,0,0,1,2084,1636.92Z"/><path class="cls-23" d="M2082.4,1636h0a.37.37,0,0,1-.12-.5l.19-.32a.37.37,0,0,1,.49-.14h0a.36.36,0,0,1,.12.49l-.19.33A.37.37,0,0,1,2082.4,1636Z"/><path class="cls-23" d="M2080.8,1635h0a.36.36,0,0,1-.13-.49l.2-.33a.36.36,0,0,1,.49-.13h0a.36.36,0,0,1,.13.49l-.19.33A.37.37,0,0,1,2080.8,1635Z"/><path class="cls-23" d="M2061.91,1623.85h0a.36.36,0,0,1-.13-.49l.2-.33a.36.36,0,0,1,.49-.13h0a.37.37,0,0,1,.13.5l-.19.33a.35.35,0,0,1-.49.12Z"/><path class="cls-23" d="M2060.31,1622.91h0a.37.37,0,0,1-.13-.5l.2-.33a.36.36,0,0,1,.48-.13h0a.36.36,0,0,1,.13.49l-.2.33A.36.36,0,0,1,2060.31,1622.91Z"/><path class="cls-23" d="M2058.7,1622h0a.37.37,0,0,1-.12-.5l.19-.32a.37.37,0,0,1,.49-.14h0a.36.36,0,0,1,.12.49l-.19.33A.37.37,0,0,1,2058.7,1622Z"/><path class="cls-23" d="M2057.1,1621h0a.36.36,0,0,1-.13-.49l.2-.33a.36.36,0,0,1,.49-.13h0a.37.37,0,0,1,.13.5l-.2.32a.35.35,0,0,1-.47.14Z"/><path class="cls-23" d="M2055.5,1620.06h0a.36.36,0,0,1-.13-.49l.2-.33a.36.36,0,0,1,.49-.13h0a.37.37,0,0,1,.13.5l-.2.33a.36.36,0,0,1-.48.13Z"/><path class="cls-23" d="M2053.89,1619.12h0a.37.37,0,0,1-.12-.5l.19-.33a.36.36,0,0,1,.5-.12h0a.36.36,0,0,1,.12.49l-.19.33A.37.37,0,0,1,2053.89,1619.12Z"/><path class="cls-23" d="M2052.29,1618.17h0a.37.37,0,0,1-.13-.5l.2-.32a.36.36,0,0,1,.48-.14h0a.36.36,0,0,1,.13.49l-.19.33A.37.37,0,0,1,2052.29,1618.17Z"/><path class="cls-23" d="M2050.69,1617.22h0a.36.36,0,0,1-.13-.49l.2-.33a.36.36,0,0,1,.49-.13h0a.37.37,0,0,1,.13.5l-.2.32a.35.35,0,0,1-.47.14Z"/><path class="cls-23" d="M2049.09,1616.27h0a.36.36,0,0,1-.14-.48h0l.19-.33a.37.37,0,0,1,.5-.13h0a.36.36,0,0,1,.13.49h0l-.19.33A.36.36,0,0,1,2049.09,1616.27Z"/><path class="cls-23" d="M2042.88,1612.6h0a.37.37,0,0,1-.13-.5l.2-.33a.36.36,0,0,1,.48-.13h0a.36.36,0,0,1,.13.49l-.19.33A.37.37,0,0,1,2042.88,1612.6Z"/><path class="cls-23" d="M2046,1614.46h0a.36.36,0,0,1-.13-.49h0l.19-.32a.37.37,0,0,1,.49-.14h0a.36.36,0,0,1,.13.49l-.2.33A.36.36,0,0,1,2046,1614.46Z"/><path class="cls-23" d="M2041.28,1611.66h0a.37.37,0,0,1-.13-.5l.19-.32a.37.37,0,0,1,.49-.14h0a.36.36,0,0,1,.13.49l-.2.33A.36.36,0,0,1,2041.28,1611.66Z"/><path class="cls-23" d="M2039.67,1610.71h0a.37.37,0,0,1-.12-.49l.19-.33a.37.37,0,0,1,.5-.13h0a.37.37,0,0,1,.12.5l-.19.32a.36.36,0,0,1-.49.13Z"/><path class="cls-23" d="M2038.07,1609.76h0a.36.36,0,0,1-.13-.49l.2-.33a.36.36,0,0,1,.49-.13h0a.37.37,0,0,1,.13.5l-.19.33A.37.37,0,0,1,2038.07,1609.76Z"/><path class="cls-23" d="M2036.47,1608.82h0a.37.37,0,0,1-.13-.5l.2-.33a.36.36,0,0,1,.49-.13h0a.37.37,0,0,1,.13.5l-.2.33A.36.36,0,0,1,2036.47,1608.82Z"/><path class="cls-23" d="M2034.87,1607.87h0a.36.36,0,0,1-.13-.49h0l.19-.33a.37.37,0,0,1,.5-.12h0a.35.35,0,0,1,.13.48h0l-.19.33A.36.36,0,0,1,2034.87,1607.87Z"/><path class="cls-23" d="M2033.26,1606.92h0a.36.36,0,0,1-.13-.49l.2-.33a.36.36,0,0,1,.49-.13h0a.35.35,0,0,1,.14.47v0l-.19.33A.37.37,0,0,1,2033.26,1606.92Z"/><path class="cls-23" d="M2031.66,1606h0a.36.36,0,0,1-.13-.49l.2-.33a.36.36,0,0,1,.49-.13h0a.37.37,0,0,1,.13.5l-.2.33A.36.36,0,0,1,2031.66,1606Z"/><path class="cls-23" d="M2030.06,1605h0a.36.36,0,0,1-.14-.48h0l.19-.33a.37.37,0,0,1,.5-.13h0a.37.37,0,0,1,.13.5l-.2.33a.36.36,0,0,1-.48.13Z"/><path class="cls-23" d="M2028.48,1604.1h0a.37.37,0,0,1-.12-.5l.19-.33a.36.36,0,0,1,.5-.12h0a.36.36,0,0,1,.12.49l-.19.33A.37.37,0,0,1,2028.48,1604.1Z"/><path class="cls-23" d="M2026.88,1603.15h0a.37.37,0,0,1-.13-.5l.2-.32a.36.36,0,0,1,.48-.14h0a.36.36,0,0,1,.13.49l-.19.33A.37.37,0,0,1,2026.88,1603.15Z"/><path class="cls-23" d="M2025.28,1602.2h0a.36.36,0,0,1-.13-.49l.19-.33a.37.37,0,0,1,.5-.13h0a.36.36,0,0,1,.13.49l-.2.33A.36.36,0,0,1,2025.28,1602.2Z"/><path class="cls-23" d="M2013,1593.94a.56.56,0,0,1-.62.17l-.15-.08-2.51-2c.31,0,.83-.13,1.55-.18l1.65,1.3a.56.56,0,0,1,.08.79Z"/><rect class="cls-23" x="2050.94" y="1617.98" width="3.72" height="1.93" rx="0.68" transform="translate(-386.79 2558.83) rotate(-59.33)"/><rect class="cls-23" x="2055.49" y="1619.78" width="3.72" height="1.93" rx="0.68" transform="translate(-384.64 2567.42) rotate(-59.42)"/><path class="cls-23" d="M2076.09,1632.24h0a.37.37,0,0,1-.13-.5l.2-.33a.36.36,0,0,1,.49-.13h0a.37.37,0,0,1,.13.5l-.2.33A.36.36,0,0,1,2076.09,1632.24Z"/><path class="cls-23" d="M2074.49,1631.29h0a.36.36,0,0,1-.13-.49h0l.19-.33a.37.37,0,0,1,.5-.12h0a.35.35,0,0,1,.13.48h0l-.19.33A.36.36,0,0,1,2074.49,1631.29Z"/><path class="cls-23" d="M2072.88,1630.34h0a.36.36,0,0,1-.13-.49l.2-.33a.36.36,0,0,1,.49-.13h0a.35.35,0,0,1,.14.47v0l-.19.33A.37.37,0,0,1,2072.88,1630.34Z"/><path class="cls-23" d="M2071.28,1629.39h0a.36.36,0,0,1-.13-.49l.2-.33a.36.36,0,0,1,.49-.13h0a.37.37,0,0,1,.13.5l-.2.33A.36.36,0,0,1,2071.28,1629.39Z"/><path class="cls-23" d="M2069.68,1628.44h0a.36.36,0,0,1-.14-.48h0l.19-.33a.37.37,0,0,1,.5-.13h0a.37.37,0,0,1,.13.5l-.2.33a.36.36,0,0,1-.48.13Z"/><path class="cls-23" d="M2068.07,1627.5h0a.36.36,0,0,1-.12-.49h0l.19-.33a.36.36,0,0,1,.49-.12h0a.35.35,0,0,1,.14.47v0l-.19.33A.37.37,0,0,1,2068.07,1627.5Z"/><path class="cls-23" d="M2066.47,1626.6h0a.36.36,0,0,1-.13-.49l.2-.33a.36.36,0,0,1,.49-.13h0a.36.36,0,0,1,.13.49l-.2.33A.36.36,0,0,1,2066.47,1626.6Z"/><path class="cls-23" d="M2064.87,1625.6h0a.36.36,0,0,1-.13-.49l.19-.33a.37.37,0,0,1,.5-.13h0a.37.37,0,0,1,.13.5l-.2.33A.36.36,0,0,1,2064.87,1625.6Z"/><path class="cls-23" d="M2063.26,1624.65h0a.36.36,0,0,1-.12-.49l.19-.33a.37.37,0,0,1,.5-.13h0a.37.37,0,0,1,.12.5l-.19.33a.35.35,0,0,1-.49.12Z"/></g><path class="cls-27" d="M2053.39,1629.15a1.3,1.3,0,0,0,1.5-1.06,1.28,1.28,0,0,0-.15-.86,7.22,7.22,0,0,0-2.56-2.73c-2.42-1.4-3.14,3-2.35,3.54A13.89,13.89,0,0,0,2053.39,1629.15Z"/><path class="cls-27" d="M2053.16,1623.86l-3,5a27.75,27.75,0,0,1-7-2.87,21.32,21.32,0,0,1-4.76-3.46,7.76,7.76,0,0,1-.72-.8l3.13-5.29a3.14,3.14,0,0,1,1.1.14c3.55,1,10.84,6.76,10.84,6.76Z"/><path class="cls-23" d="M2041.9,1616.6l-3.51,6a7.76,7.76,0,0,1-.72-.8l3.13-5.29A2.92,2.92,0,0,1,2041.9,1616.6Z"/><path class="cls-27" d="M2109.8,1648.46c.15,0,10.45,2.28,16.06,6.38l-7.09-.11-9.1-5.38S2109.07,1648.73,2109.8,1648.46Z"/><path class="cls-23" d="M2088.77,1627.94s-6.38,4.39-7.49,5a6.16,6.16,0,0,1-2.88.43h0l-11-1.85s-11.69-6.83-14.21-8.37h0c-.23-.15-.38-.24-.44-.29-.74-.53-1-1-.73-1.15s19.48,7.5,21.6,8.36h.06c2.07.83,2.49.4,2.49.4l10.6-2.91a1,1,0,0,1,.57-.07A5.07,5.07,0,0,1,2088.77,1627.94Z"/><path class="cls-23" d="M2087.36,1627.49c-2.9.89-10.92,3.34-11.61,3.43s-18.24-6.24-22.54-7.79h0c-.23-.15-.38-.24-.44-.29-.74-.53-1-1-.73-1.15s19.48,7.5,21.6,8.36,2.55.42,2.55.42l10.6-2.91A1,1,0,0,1,2087.36,1627.49Z"/><path class="cls-23" d="M2088.77,1627.94s-6.38,4.39-7.49,5a6.16,6.16,0,0,1-2.88.43h0a23.8,23.8,0,0,1-4.69-3.28c2.07.83,2.49.4,2.49.4l10.6-2.91a1,1,0,0,1,.57-.07A5.17,5.17,0,0,1,2088.77,1627.94Z"/><path class="cls-25" d="M2118.46,1652l-27.51-17.2s14.21,4.63,16.12,4.11,21.54-7.07,26.21-6.48c-5.3,2.14-17.74,7.45-18.6,10.39S2116.88,1649.94,2118.46,1652Z"/><path class="cls-28" d="M1889.79,1644.6c.1-5.78,4.59-15.65-4.27-25a187.84,187.84,0,0,1-14.45-18c-1-1.5-11.68,7.31-11.45,7.67,1.76,2.61,9.85,15.92,11,23.35,1.29,8.36,15.62,17.52,15.62,17.52S1889.75,1650.4,1889.79,1644.6Z"/><path class="cls-27" d="M1957.09,1645.79c-14.09.73-23.73-21.14-29.66-21.43a37.92,37.92,0,0,0-5.21.58A102.28,102.28,0,0,1,1935,1658.2c8.45,42.2-9.36,81.35-39.77,87.43-29.59,5.92-60.2-21.62-69.62-62-.27-1.12-.51-2.26-.75-3.42a102.88,102.88,0,0,1-1-35.39v-.1a18.78,18.78,0,0,0-2.84.91c-5.38,2.56-5.84,26.45-19.14,31.19s-22.25-20.73-6.42-40.57c9.65-12.11,26.75-18,38.63-20.66a56.56,56.56,0,0,1,8.47-10.77c.12-.12.23-.24.36-.36a34.63,34.63,0,0,1-18-34.13h-.08a17.55,17.55,0,1,1,19.15-27.26,34.78,34.78,0,0,1,16.5-3.55,17.55,17.55,0,1,1,28.84,17.41,34.58,34.58,0,0,1-2.14,37.57,55.71,55.71,0,0,1,14.35,7.57c11.91-2.28,31.39-4.13,45.82,3.8C1969.66,1618.09,1971.19,1645.05,1957.09,1645.79Z"/><path class="cls-29" d="M1825.62,1683.66c-.27-1.12-.51-2.26-.75-3.42a102.88,102.88,0,0,1-1-35.39c1.75-2,4.07-3.55,6.7-2.3,5.83,2.76,4.91,30.65,13.79,37.08C1850.93,1684.4,1834.46,1684.45,1825.62,1683.66Z"/><path class="cls-29" d="M1859.42,1600.42a97.09,97.09,0,0,1-16.86,4.43c.12-.12.23-.24.36-.36a34.63,34.63,0,0,1-18-34.13h-.08c.35-.14.79.08,1.37.9,2.22,3.14,14.2,28.58,33.16,25.66C1859.42,1596.89,1864.37,1598.6,1859.42,1600.42Z"/><path class="cls-29" d="M1868.4,1541.74s4.44-8.28,11-6.13,7.51,11.64,3.22,14.25C1882.65,1549.86,1876.26,1544,1868.4,1541.74Z"/><path class="cls-29" d="M1837.45,1546.6s-9.5-4.38-13.79.68,4.29,11.51,4.29,11.51S1832.09,1550.18,1837.45,1546.6Z"/><path class="cls-30" d="M1761.16,1699.6c-6.71-6-1.19-20.27-3.75-23.09a22.67,22.67,0,0,0-2.61-2.08,65.78,65.78,0,0,1-9.23,20.81c-15.23,22.9-41,32.57-57.46,21.59-16.06-10.68-17.47-37-3.51-59.46.39-.63.79-1.25,1.2-1.88a65.72,65.72,0,0,1,15.52-16.47h0a13,13,0,0,0-1.7-.87c-3.58-1.27-14.58,9.32-22.74,5.46s-.7-19.42,15.42-21.25c9.83-1.11,20.2,4,26.8,8.1a36.39,36.39,0,0,1,8.69-1h.32a22.09,22.09,0,0,1,7.3-23.54h0a11.22,11.22,0,1,1,21-3.68,21.92,21.92,0,0,1,9.06,5.84,11.21,11.21,0,1,1,5.19,20.89,22.16,22.16,0,0,1-17.93,16,35.46,35.46,0,0,1,3.07,9.9c6.42,4.34,16.06,12.3,19,22.4C1779.34,1692.77,1767.87,1705.66,1761.16,1699.6Z"/><path class="cls-31" d="M1684.6,1657.4c.39-.63.79-1.25,1.2-1.88a65.72,65.72,0,0,1,15.52-16.47c1.71-.13,3.44.23,4.07,2,1.39,3.87-11.62,16.07-10.5,23C1695.71,1669.16,1688.24,1661.75,1684.6,1657.4Z"/><path class="cls-31" d="M1737.46,1635a62.83,62.83,0,0,1-9.62-5.6h.32a22.09,22.09,0,0,1,7.3-23.54h0c.22.09.33.39.22,1-.42,2.43-6.48,19.34,3.4,26.58C1739.05,1633.42,1740.53,1636.42,1737.46,1635Z"/><path class="cls-32" d="M1768,1612.53s5.74-1.74,7.76,2.21-1.87,8.65-5,7.89A25.46,25.46,0,0,0,1768,1612.53Z"/><path class="cls-32" d="M1751.84,1600.74s-2.32-6.27-6.54-5.92S1742,1602,1742,1602,1747.78,1600,1751.84,1600.74Z"/><path class="cls-33" d="M1619.22,1696.16s-14.4-18.56-14.49-33.7.34-20.18,2.87-19.5,13.9,9.13,18,17.54,11.26,30.42,11.41,33.42S1619.22,1696.16,1619.22,1696.16Z"/><path class="cls-34" d="M1620,1690.24s-9.19-12.82-9.54-23.06-.17-13.64,1.39-13.13,8.72,6.44,11.39,12.2,7.5,20.78,7.65,22.81S1620,1690.24,1620,1690.24Z"/><path class="cls-33" d="M1642.44,1688.42s-6.9-25.14-4.17-32,16.86-2.28,18.47,2.55.61,25.2.61,25.2Z"/><path class="cls-34" d="M1644.28,1659.52s-1,19.92,2.49,27.67l6.69-1.9s1-22.24.15-23.75S1644.28,1659.52,1644.28,1659.52Z"/><path class="cls-33" d="M1637.88,1657.86s23.21,15.37,25.08,13.74-5.18-17.21-7.92-18.61S1637.71,1648.72,1637.88,1657.86Z"/><rect class="cls-35" x="1595.18" y="1677.72" width="316.43" height="260.92"/><rect class="cls-36" x="1753.4" y="1677.72" width="316.43" height="260.92"/><polygon class="cls-37" points="2069.83 1677.72 2069.83 1760.57 1753.4 1779.53 1753.4 1677.72 2069.83 1677.72"/><polygon class="cls-36" points="1753.4 1677.72 1816.01 1746.37 2128.26 1746.37 2069.83 1677.72 1753.4 1677.72"/><polygon class="cls-38" points="1595.37 1872.47 1645.51 1872.47 1641.1 1858.36 1645.51 1848.28 1595.37 1848.28 1595.37 1872.47"/><polygon class="cls-37" points="2069.9 1917.22 2019.76 1917.22 2024.18 1903.11 2019.76 1893.03 2069.9 1893.03 2069.9 1917.22"/><polygon class="cls-39" points="1753.4 1707.22 1686.7 1773.92 1595.37 1773.92 1595.37 1677.72 1753.4 1677.72 1753.4 1707.22"/><polygon class="cls-36" points="1595.19 1677.72 1524.04 1746.37 1682.36 1746.37 1753.4 1677.72 1595.19 1677.72"/><path class="cls-40" d="M1517.06,1869.9l-5.77,1.12a12.71,12.71,0,0,1-14.84-10l-8.47-43.63a12.71,12.71,0,0,1,8.24-14.37,2.31,2.31,0,0,0-.13-.46l-.49-2.56a3.3,3.3,0,0,1,2.61-3.87h0l2.56-.49a3.31,3.31,0,0,1,3.87,2.6l.49,2.57a2.16,2.16,0,0,1,0,.36v.06a12.7,12.7,0,0,1,13.41,10.21l8.47,43.63A12.7,12.7,0,0,1,1517.06,1869.9Z"/><rect class="cls-27" x="1491.11" y="1816.58" width="31.19" height="30.54" transform="translate(-321.59 320.83) rotate(-10.99)"/><path class="cls-23" d="M1505.18,1801.16l-9,1.85a2.31,2.31,0,0,0-.13-.46l-.49-2.56a3.3,3.3,0,0,1,2.61-3.87h0l2.56-.49a3.31,3.31,0,0,1,3.87,2.6l.49,2.57A2.37,2.37,0,0,1,1505.18,1801.16Z"/><path class="cls-41" d="M1672.32,1790.15s-3.79,5.34-7.27,5.41-8.77-2.47-8.77-2.47-3.19-7.12-1-9.9a4.64,4.64,0,0,1,4.45.73,6.21,6.21,0,0,1,1.17,1.12,3.73,3.73,0,0,0,1.83,1.24c2.48.75,5.43-1,6.53.69a11.27,11.27,0,0,0,1.92,2.27A9.88,9.88,0,0,0,1672.32,1790.15Z"/><path class="cls-41" d="M1622.86,1828.68s13.41-32.5,37.55-33.12c0,0,22.28,2.48,23.52,33.12Z"/><path class="cls-38" d="M1653.8,1796.6s9.67,2.15,12.66.88c0,0,.45-4-3.63-3.48a8.55,8.55,0,0,1-5.67-1.49C1655.65,1791.7,1653.39,1794.86,1653.8,1796.6Z"/><path class="cls-42" d="M1662.22,1790.46c-.62.46-2.52-6.54-2.52-6.54a6.21,6.21,0,0,1,1.17,1.12,3.73,3.73,0,0,0,1.83,1.24C1662.7,1786.48,1662.82,1790,1662.22,1790.46Z"/><path class="cls-42" d="M1671.15,1789.24c-.14.08-4.61,2.76-5.22,2.76s3.3-5,3.3-5A11.43,11.43,0,0,0,1671.15,1789.24Z"/><path class="cls-42" d="M1636,1819.6c-.25-.21,9.49-14.34,12.17-14.44s8.71,3.09,13.07,3.5,8.59-.82,9.42,1.76,3.09,11.72,1.7,13.18S1641.32,1824.17,1636,1819.6Z"/><path class="cls-34" d="M1523,1841.6a4.55,4.55,0,0,1-1.53,1.73,4.35,4.35,0,0,1-1.15.55,4.6,4.6,0,0,1-3.51-.26l-60.13-30.55a4.6,4.6,0,0,1,4.17-8.21l60.13,30.55A4.6,4.6,0,0,1,1523,1841.6Z"/><polygon class="cls-43" points="1476.57 1823.17 1472.78 1810.92 1463.1 1806 1468.93 1819.29 1476.57 1823.17"/><polygon class="cls-43" points="1491.26 1830.63 1483.62 1826.75 1477.78 1813.46 1487.46 1818.38 1491.26 1830.63"/><polygon class="cls-43" points="1505.93 1838.08 1498.29 1834.2 1492.45 1820.91 1502.14 1825.83 1505.93 1838.08"/><path class="cls-43" d="M1521.42,1843.3a4.35,4.35,0,0,1-1.15.55,4.6,4.6,0,0,1-3.51-.26l-3.53-1.8-5.83-13.29,9.68,4.92Z"/><path class="cls-43" d="M1454.61,1806.85s-1.21-6.54-6.52-8.48c0,0,.62.76-1.93,1.57s-1.82,2.58-2.72,3.37C1443.44,1803.31,1447.12,1808.21,1454.61,1806.85Z"/><path class="cls-23" d="M1453.58,1807.71l-.14-.07a.83.83,0,0,1-.36-1.12h0l.75-1.47a.82.82,0,0,1,1.1-.37h0l.14.07a.83.83,0,0,1,.37,1.11l-.75,1.48A.85.85,0,0,1,1453.58,1807.71Z"/><path class="cls-43" d="M1522.7,1841.44s6-2.88,10.69.27c0,0-1-.06-.12,2.48s-1,3-1.12,4.19C1532.15,1848.38,1526,1848.29,1522.7,1841.44Z"/><rect class="cls-23" x="1521.91" y="1840.4" width="3.31" height="1.82" rx="0.83" transform="translate(-806.25 2373.86) rotate(-63.27)"/><path class="cls-38" d="M1600.78,1842a4.58,4.58,0,0,1-2.23.61,4.48,4.48,0,0,1-1.26-.15,4.67,4.67,0,0,1-2.8-2.14L1560.72,1782a4.62,4.62,0,1,1,8-4.61l33.77,58.38A4.6,4.6,0,0,1,1600.78,1842Z"/><polygon class="cls-41" points="1571.92 1801.34 1575.41 1789 1569.98 1779.6 1567.63 1793.93 1571.92 1801.34"/><polygon class="cls-41" points="1580.16 1815.6 1575.88 1808.18 1578.22 1793.86 1583.66 1803.26 1580.16 1815.6"/><polygon class="cls-41" points="1588.41 1829.84 1584.12 1822.42 1586.46 1808.1 1591.91 1817.5 1588.41 1829.84"/><path class="cls-41" d="M1598.55,1842.65a4.48,4.48,0,0,1-1.26-.15,4.67,4.67,0,0,1-2.8-2.14l-2-3.43,2.35-14.32,5.44,9.4Z"/><path class="cls-38" d="M1562.4,1775.69s2.54-6.14-.86-10.66c0,0,.12,1-2.47.26s-2.92,1.17-4.12,1.35A11.6,11.6,0,0,0,1562.4,1775.69Z"/><path class="cls-35" d="M1561.06,1775.85l-.08-.13a.84.84,0,0,1,.31-1.14l1.43-.82a.83.83,0,0,1,1.13.29h0l.08.13a.83.83,0,0,1-.3,1.14l-1.43.83A.84.84,0,0,1,1561.06,1775.85Z"/><path class="cls-38" d="M1600.64,1841.79s6.6.86,8.82,6.06c0,0-.78-.58-1.46,2s-2.47,2-3.22,2.9C1604.78,1852.76,1599.69,1849.35,1600.64,1841.79Z"/><path class="cls-35" d="M1599.84,1842.87l.08.14a.83.83,0,0,0,1.13.3l1.43-.83a.82.82,0,0,0,.31-1.12h0l-.08-.14a.83.83,0,0,0-1.13-.3l-1.43.83A.83.83,0,0,0,1599.84,1842.87Z"/><path class="cls-23" d="M1491.48,1858.41a4.57,4.57,0,0,1-1.71-1.56,4.45,4.45,0,0,1-.53-1.15,4.61,4.61,0,0,1,.32-3.51l31.51-59.63a4.61,4.61,0,0,1,8.14,4.31l-31.51,59.62A4.62,4.62,0,0,1,1491.48,1858.41Z"/><polygon class="cls-5" points="1510.62 1812.34 1522.93 1808.74 1528.01 1799.14 1514.62 1804.76 1510.62 1812.34"/><polygon class="cls-5" points="1502.92 1826.9 1506.93 1819.33 1520.31 1813.7 1515.24 1823.31 1502.92 1826.9"/><polygon class="cls-5" points="1495.23 1841.45 1499.24 1833.87 1512.63 1828.25 1507.55 1837.86 1495.23 1841.45"/><path class="cls-5" d="M1489.77,1856.85a4.45,4.45,0,0,1-.53-1.15,4.61,4.61,0,0,1,.32-3.51l1.85-3.5,13.38-5.62-5.07,9.6Z"/><path class="cls-5" d="M1527.29,1790.6s6.56-1.1,8.58-6.38c0,0-.76.61-1.53-2s-2.55-1.85-3.33-2.77A11.67,11.67,0,0,0,1527.29,1790.6Z"/><path class="cls-23" d="M1526.45,1789.6l.07-.14a.84.84,0,0,1,1.12-.35l1.46.78a.83.83,0,0,1,.35,1.12l-.08.14a.82.82,0,0,1-1.1.35h0l-1.46-.77A.84.84,0,0,1,1526.45,1789.6Z"/><path class="cls-23" d="M1491.61,1858.17s2.78,6-.44,10.68c0,0,.07-1-2.48-.16s-3-1.06-4.17-1.19C1484.52,1867.5,1484.71,1861.38,1491.61,1858.17Z"/><path class="cls-23" d="M1490.27,1858.06l-.07.13a.85.85,0,0,0,.34,1.13l1.46.77a.84.84,0,0,0,1.13-.35l.07-.14a.83.83,0,0,0-.35-1.12l-1.46-.77A.83.83,0,0,0,1490.27,1858.06Z"/><path class="cls-43" d="M1554.43,1804.21s2.76,3.88,5.28,3.93,6.37-1.79,6.37-1.79,2.31-5.17.74-7.19a3.37,3.37,0,0,0-3.22.53,5.13,5.13,0,0,0-.86.82,2.75,2.75,0,0,1-1.32.9c-1.8.54-3.94-.74-4.74.5a8.45,8.45,0,0,1-1.39,1.65A6.06,6.06,0,0,1,1554.43,1804.21Z"/><path class="cls-43" d="M1590.33,1832.18s-9.73-23.59-27.25-24c0,0-16.17,1.8-17.07,24Z"/><path class="cls-44" d="M1567.88,1808.86s-7,1.57-9.19.65c0,0-.33-2.94,2.63-2.53a6.21,6.21,0,0,0,4.12-1.08C1566.54,1805.34,1568.17,1807.6,1567.88,1808.86Z"/><path class="cls-44" d="M1561.77,1804.44c.45.34,1.83-4.75,1.83-4.75a4.77,4.77,0,0,0-.86.82,2.82,2.82,0,0,1-1.32.9C1561.41,1801.6,1561.33,1804.11,1561.77,1804.44Z"/><path class="cls-44" d="M1555.29,1803.6a28.43,28.43,0,0,0,3.78,2c.45,0-2.39-3.65-2.39-3.65A8.45,8.45,0,0,1,1555.29,1803.6Z"/><path class="cls-44" d="M1580.82,1825.6c.18-.16-6.88-10.41-8.83-10.48s-6.32,2.24-9.49,2.54-6.23-.6-6.83,1.27-2.25,8.51-1.24,9.57S1576.94,1828.91,1580.82,1825.6Z"/><path class="cls-40" d="M1624.21,1805.47h0c-2.9,0-4.35-4.34-4.35-4.34l-28.22,8.55a5.54,5.54,0,0,1-.78,5.47s-4.89,3.26-3.37,8.28l6.25,20.63a7,7,0,0,0,8.66,4.63l29.77-9a7,7,0,0,0,4.63-8.66l-6.24-20.63A7,7,0,0,0,1624.21,1805.47Z"/><path class="cls-44" d="M1588.82,1808.76l1.69,5.6c.61,2,8.34,1.48,17.27-1.22s15.65-6.54,15-8.56l-1.69-5.6Z"/><path class="cls-43" d="M1621.13,1799c.61,2-6.13,5.86-15.05,8.56s-16.65,3.25-17.26,1.22,6.12-5.85,15-8.55S1620.51,1797,1621.13,1799Z"/><path class="cls-45" d="M1548.49,1816.68h0c-2-1-1.52-4.52-1.52-4.52l-22.56-3.86a4.28,4.28,0,0,1-2.44,3.53s-4.52.57-5.2,4.58l-2.83,16.49a5.41,5.41,0,0,0,4.41,6.22l23.8,4.07a5.4,5.4,0,0,0,6.22-4.4l2.82-16.49A5.4,5.4,0,0,0,1548.49,1816.68Z"/><path class="cls-39" d="M1522.77,1806.69l-.76,4.47c-.28,1.62,5.28,3.92,12.41,5.14s13.14.9,13.41-.72l.77-4.48Z"/><path class="cls-38" d="M1548.6,1811.1c-.28,1.62-6.28,1.94-13.42.72s-12.68-3.52-12.41-5.13,6.28-1.94,13.42-.72S1548.88,1809.49,1548.6,1811.1Z"/><rect class="cls-35" x="1476.59" y="1823.38" width="139.79" height="115.26"/><rect class="cls-36" x="1546.48" y="1823.38" width="139.79" height="115.26"/><polygon class="cls-46" points="1546.48 1823.38 1686.63 1823.38 1686.63 1863.53 1546.48 1881.01 1546.48 1823.38"/><polygon class="cls-36" points="1546.48 1823.38 1574.14 1853.7 1712.08 1853.7 1686.27 1823.38 1546.48 1823.38"/><polygon class="cls-36" points="1476.67 1909.41 1498.82 1909.41 1496.87 1903.17 1498.82 1898.72 1476.67 1898.72 1476.67 1909.41"/><polygon class="cls-39" points="1546.48 1836.41 1517.02 1865.87 1476.67 1865.87 1476.67 1823.38 1546.48 1823.38 1546.48 1836.41"/><polygon class="cls-36" points="1476.59 1823.38 1445.16 1853.7 1515.1 1853.7 1546.48 1823.38 1476.59 1823.38"/><path class="cls-17" d="M1305,1296.51c-141-26.08-224,140.7-238.3,161.35-14.27-20.65-97.28-187.43-238.31-161.35C672.89,1325.27,606,1472,664.77,1615.19,712.65,1731.86,1022,1918.73,1064.53,1941v2.29l2.21-1.14,2.2,1.14V1941c42.51-22.23,347-211.23,399.76-325.77C1527.61,1487.33,1460.58,1325.27,1305,1296.51Z"/><path class="cls-16" d="M870.94,1627.84c-2.53,6.2-19.34,4.51-32.29-4.32s-31.37-16.8-41.88-24.13c-7.89-5.35-16.06-25.63-22.25-38.12a71.8,71.8,0,0,0-4.32-7.7c-7.61-2.25-7.14-10.14-14.18-12.67-8.36-2.91-5.82-7.61-5.82-7.61a30.11,30.11,0,0,1,13.33-1.78c2.63.37,7.89,8,11,12.77,2.91,2.16,6.38,5.07,10.14,8.45,10.14,9,21.59,20.66,26.19,26.38,5.35,6.67,40,14,49.39,21.69C877,1614.51,870.94,1627.84,870.94,1627.84Z"/><path class="cls-16" d="M811,1723.21l36.33,201.67,12.59.83s9.89-87.82,1.41-118.14,14.62-68.66,8.13-95S811,1723.21,811,1723.21Z"/><path class="cls-11" d="M852.75,1611.8,821,1606.6c-1.51-5.15-1.94-12.23-2-18.49,0-7.78.6-14.29.6-14.29l25.6-2.46,11.37-1.1C850.38,1582.21,852.75,1611.8,852.75,1611.8Z"/><path class="cls-16" d="M853.69,1576.6s-17,14.46-34.63,11.6c0-7.78.6-14.29.6-14.29l25.6-2.46Z"/><path class="cls-11" d="M835.14,1772.89c-6.42,17.86-12.19,36.06-9.3,51a102.23,102.23,0,0,1,1.64,13.63c.23,4.26.25,8.6.07,13-1.41,35.16-14.8,71-16.87,76.35l-.27.69-11.14-1.19-4.79-211.61s50.86-20.54,53.69,6.4C849.64,1735,842,1753.77,835.14,1772.89Z"/><path class="cls-12" d="M865.54,1784.88s-3.25.47-8.08,1c-9.06,1-23.66,2.17-32.68.78-4.3-.66-6.71-7.76-7.85-17.31-2.52-21.14,1.24-54.24,4.66-55.71,5-2.12,48.89-.32,48.89-.32S880.07,1737,865.54,1784.88Z"/><path class="cls-13" d="M858.17,1785.88c-9.06,1-23.66,2.17-32.68.78-4.31-.66-6.72-7.76-7.85-17.31l24.08-39.4,18.08-7.09S867.05,1753.07,858.17,1785.88Z"/><path class="cls-12" d="M794.3,1714s-9.46,41.82-8,74.9c0,0,21.5,4.25,43.48,0,0,0,36.39-52.93,33.32-69.94S803.51,1708.6,794.3,1714Z"/><path class="cls-11" d="M811.58,1568.77s29.57,23.45,43.89,4.8,27.77-28.16,9.5-43.92-27.45-11.5-33.75-6.44S804.25,1562.19,811.58,1568.77Z"/><path class="cls-15" d="M886,1536.65a6.38,6.38,0,0,0-3.52,0h0c2.39-4.41.6-11.25.6-11.25.6,3.75-2.78,8.16-2.78,8.16-.2-13.9-34.6-22.51-37.79-23.4s-2.78-6.18-2.78-6.18c-6.56,1.33-13.52,9.71-13.32,17.88s7,23.85,11.33,24.07,2.39,3.75-.59,8.61.89,18,6.26,22.68c4.32,3.74,6.59.61,9.13-.76a7.6,7.6,0,0,1,2-.77c10-2.24,20.47-12.15,25.66-24.8a33.87,33.87,0,0,0,2.34-12.58A17.75,17.75,0,0,1,886,1536.65Z"/><path class="cls-47" d="M861.57,1939.6h-7c-2.35-.32-4.09-.93-6.5-1.2-3.67-.43-5.35.9-5.69,1.2l-.07.07H812.46c-.75-1,0-3.15.68-4.76a4.08,4.08,0,0,1,2.79-2.26c3.16-.81,9.4-1.53,15.11-6.1,3.22-2.57,15.52-9.45,15.52-9.45h.06c.28,0,1.56.36,7.16,4.53,2.89,2.16,7.82-3,7.82-3a6.18,6.18,0,0,1,1.62,1.94,5.87,5.87,0,0,1,.64,4c-.45,2.37,1,6.79,2.14,9.78.69,1.81,1.28,3.09,1.28,3.09S867.61,1939,861.57,1939.6Z"/><path class="cls-48" d="M863.22,1920.54c-1.68,1-5.22,3.1-7.57,3.37-3.16.37-9.09-6.79-9.09-6.79h.06c.28,0,1.56.36,7.16,4.53,2.89,2.16,7.82-3,7.82-3A6.39,6.39,0,0,1,863.22,1920.54Z"/><path class="cls-48" d="M861.57,1939.6h-7c-2.35-.32-4.09-.93-6.5-1.2-3.67-.43-5.35.9-5.69,1.2l-.07.07H812.46c-.75-1,0-3.15.68-4.76.9-.71,1.16,3.09,1.66,3.7s24.34.22,25.71-.67,5.51-2.43,11.27-1.21c5,1.06,12.39-1.66,14.22-2.38.69,1.81,1.28,3.09,1.28,3.09S867.61,1939,861.57,1939.6Z"/><path class="cls-47" d="M813.57,1939.6h-7c-2.35-.32-4.09-.93-6.5-1.2-3.67-.43-5.35.9-5.69,1.2l-.06.07H764.46c-.75-1,0-3.15.68-4.76a4.08,4.08,0,0,1,2.79-2.26c3.17-.81,9.4-1.53,15.11-6.1,3.22-2.57,15.52-9.45,15.52-9.45h.07c.27,0,1.55.36,7.15,4.53,2.89,2.16,7.82-3,7.82-3a6.18,6.18,0,0,1,1.62,1.94,5.86,5.86,0,0,1,.64,4c-.44,2.37,1,6.79,2.14,9.78.69,1.81,1.28,3.09,1.28,3.09S819.62,1939,813.57,1939.6Z"/><path class="cls-48" d="M815.22,1920.54c-1.68,1-5.22,3.1-7.56,3.37-3.17.37-9.1-6.79-9.1-6.79h.07c.27,0,1.55.36,7.15,4.53,2.89,2.16,7.82-3,7.82-3A6.39,6.39,0,0,1,815.22,1920.54Z"/><path class="cls-48" d="M813.57,1939.6h-7c-2.35-.32-4.09-.93-6.5-1.2-3.67-.43-5.35.9-5.69,1.2l-.06.07H764.46c-.75-1,0-3.15.68-4.76.9-.71,1.16,3.09,1.66,3.7s24.34.22,25.71-.67,5.51-2.43,11.27-1.21c5,1.06,12.39-1.66,14.22-2.38.69,1.81,1.28,3.09,1.28,3.09S819.62,1939,813.57,1939.6Z"/><path class="cls-21" d="M876.64,1722.86s-28.44,8.28-63,2.39c-6.32-1.08-17.42-4.23-25.27-8.65l10.42-82.91,2.15-38.55s11.94-3.65,17.72-4c0,0,24.22,2.89,33.62.41,0,0,13.46,2.78,17.31,15.45C877.59,1633.35,880.27,1666.06,876.64,1722.86Z"/><path class="cls-11" d="M820.52,1627.84c-2.63,6.2-19.43,4.51-32.3-4.32-1.12-.75-2.25-1.5-3.47-2.25-12.58-7.89-28.92-15.21-38.5-21.88-9-6.2-18.49-32-24.88-43.09a21.35,21.35,0,0,0-1.69-2.73c-7.51-2.34-7-10.14-14.08-12.67-8.36-2.91-5.92-7.61-5.92-7.61a30.46,30.46,0,0,1,13.34-1.78c2.72.37,8,8,11,12.77,2.07,1.59,4.6,3.57,7.23,5.73,10.71,9.29,24.13,22.81,29.11,29.1,3.85,4.79,22.81,10,36.71,15.21,5.45,2.16,10.14,4.32,12.77,6.48C826.53,1614.51,820.52,1627.84,820.52,1627.84Z"/><path class="cls-21" d="M820.52,1627.84c-2.82,12.86-35.63-2.74-36.85-3.5,1.79-19.33,1.55-29.93,7-33.29,10.67-1.67,26.76-.85,30,.3C846.81,1600.79,820.52,1627.84,820.52,1627.84Z"/><path class="cls-49" d="M784.66,1552.73c-1.13,3.1-3.95,6.67-10.14,8.54a71.8,71.8,0,0,0-4.32-7.7c-7.61-2.25-7.14-10.14-14.18-12.67-8.36-2.91-5.82-7.61-5.82-7.61a30.11,30.11,0,0,1,13.33-1.78c2.63.37,7.89,8,11,12.77C777.43,1546.44,780.9,1549.35,784.66,1552.73Z"/><path class="cls-21" d="M767.24,1545c-2.84,2.2-10.44,9.88-10.44,9.88l-17.5-22.62s9-5.65,11.94-7.94c2.71-2.08,10.69-9.56,10.69-9.56l17.5,22.62S770.08,1542.77,767.24,1545Z"/><path class="cls-21" d="M767.24,1545c-2.84,2.2-10.44,9.88-10.44,9.88l-12.32-15.93s8.94-5.65,11.93-7.94c2.72-2.08,10.69-9.56,10.69-9.56l12.33,15.93S770.08,1542.77,767.24,1545Z"/><rect class="cls-21" x="770.37" y="1511.01" width="2.29" height="28.6" transform="translate(-771.95 790.79) rotate(-37.72)"/><rect class="cls-21" x="745.94" y="1529.91" width="2.29" height="28.6" transform="translate(-788.62 779.79) rotate(-37.72)"/><path class="cls-50" d="M733.67,1535.23l-23.34,28.6a8,8,0,0,1-11.18,1.13l-11.72-9.57a8.44,8.44,0,0,1-1.2-11.82l23.06-28.25a15.27,15.27,0,0,1,15.88-5,1.74,1.74,0,0,0,2-.73,4.63,4.63,0,0,1,.39-.56l1.23-1.51,8.71,7.11-1.23,1.51a5.38,5.38,0,0,1-.52.55,1.54,1.54,0,0,0-.36,1.84A15.29,15.29,0,0,1,733.67,1535.23Z"/><path class="cls-51" d="M733.67,1535.23l-23.34,28.6a8,8,0,0,1-11.18,1.13l-7.37-6a8.44,8.44,0,0,1-1.19-11.83l23-28.25a15.27,15.27,0,0,1,15.88-5,1.89,1.89,0,0,0,.82,0,1.65,1.65,0,0,0,1.13-.77c.12-.19.25-.37.39-.55l1.24-1.51,4.35,3.55-1.23,1.51a5.38,5.38,0,0,1-.52.55,1.54,1.54,0,0,0-.36,1.84A15.29,15.29,0,0,1,733.67,1535.23Z"/><path class="cls-51" d="M728.84,1531.28l-23.34,28.6a8,8,0,0,1-11.18,1.14l-2.54-2.07a8.44,8.44,0,0,1-1.19-11.83l23-28.25a15.27,15.27,0,0,1,15.88-5,1.89,1.89,0,0,0,.82,0,1.46,1.46,0,0,0,.17.68A15.25,15.25,0,0,1,728.84,1531.28Z"/><rect class="cls-52" x="701.73" y="1520.36" width="21.67" height="31.48" transform="translate(-928.04 1116.86) rotate(-50.78)"/><rect class="cls-52" x="732.53" y="1503.49" width="2.96" height="12.5" transform="translate(-900.47 1126.92) rotate(-50.89)"/><path class="cls-49" d="M731.23,1550c-1.69,2.53-4.69,4.78-9.86,6.29a21.35,21.35,0,0,0-1.69-2.73c-7.51-2.34-7-10.14-14.08-12.67-8.36-2.91-5.92-7.61-5.92-7.61a30.46,30.46,0,0,1,13.34-1.78c2.72.37,8,8,11,12.77C726.07,1545.87,728.6,1547.85,731.23,1550Z"/><path class="cls-11" d="M608.79,1509.71l-1.69,11.36s-.75,0-2.06-.09c-4.13-.28-14.18-.84-25.54-2.07-17.09-1.68-37.37-4.69-45.45-9.67-12.3-7.51-32.48-30.51-45.63-53.52a18.61,18.61,0,0,1-.94-1.69c-6.85-12.2-11.64-24.31-12-34a48.45,48.45,0,0,1,1.59-15.4,39.52,39.52,0,0,1,6.95-13.9,7.46,7.46,0,0,1,1.31-1.6,32.53,32.53,0,0,1,8.92-7.6c2.26-.94,4.7.19,7.23,2.91v.09a43.18,43.18,0,0,1,6.48,9.58c.1.1.19.19.19.28.47.85.94,1.79,1.5,2.82a2.41,2.41,0,0,1,.38.66q1.56,3.24,3.1,6.76c11.55,25.16,23.85,63.28,34.08,74.64,4.41,4.88,24.6,14.46,40.66,21.6C599.4,1506,608.79,1509.71,608.79,1509.71Z"/><path class="cls-15" d="M456.06,1259.24s-3.49-18.15-23.07-19.13-42.63,14.61-40.67,35-20.12,28.76-24,45.94,14.57,17.21,18.54,30.42-7,25.15,16.85,26.24,51.32-3,56.86-16.42,8.63-67.57,8.63-67.57Z"/><path class="cls-11" d="M490,1444.6a72.06,72.06,0,0,1-5.26,16.78c-1.88,4.28-4,8.34-6.22,12.57-6.46,12.44-20.79,18.15-22.18,42.48-.48,8.38.58,19,4,32.8,17,68.17-117,10.09-109.46-7.57,15.07-35.09,35.44-54.93,36.13-84.27a.89.89,0,0,0,0-.23c-.07-1.43-.12-5.24-.15-10.28-.07-12.33,0-32,.09-41.93v-.68c.06-4.26,0-7.34-.09-8.16,11-40,32.82-39.35,40.26-38.94,2.76.15,5.65.44,8,.73,4.78-2.49,13.35-14.6,18.31-34.85l1.67.79,28.14,13.22s-3,9.16-5.19,17.92c-1.73,6.86-3,13.48-1.93,15.34,2.22.9,3.55,1.46,3.55,1.46h0C480.13,1373,495.72,1412.67,490,1444.6Z"/><path class="cls-12" d="M485.8,1920.65,475.51,1926s-56-77.24-62.64-143c-1.18-11.73-.78-23.11,1.77-33.61,0,0-1.12-6.49-3-17.22q-.57-3.21-1.2-6.89c-1.59-9.07-3.54-20.21-5.71-32.52-2.14-12.13-4.49-25.41-6.91-39-4.77-26.67-9.8-54.44-14-76.86l3.35-1.08,15.32-5,20.85-6.72,7.47-23.74,4.88-1.29,22-5.8a43.3,43.3,0,0,1,2.46,7.69c2,7.66,4.9,22.19,7.77,48.3.38,3.57.78,7.36,1.17,11.38a467.58,467.58,0,0,1,0,121.45q-1.86,14.51-4.72,29.9c-1.42,7.51-1.63,17.75-1,29.51C466.08,1835.37,485.8,1920.65,485.8,1920.65Z"/><path class="cls-13" d="M467.94,1589.37c-14.39,34.26-45.59,107.85-57.49,135.93-1.59-9.07-3.54-20.21-5.71-32.52-2.14-12.13-4.49-25.41-6.91-39l-5.44-57.07,10.07-25.82L415.29,1538s9.59.48,20.37,1.13c8.93.55,18.7,1.24,24.51,1.89C462.15,1548.73,465.07,1563.26,467.94,1589.37Z"/><path class="cls-36" d="M631.75,1540.16c-4.88,4.32-25.51-17.21-27.3-19.18-4.13-.28-14.18-.84-25.54-2.07,3.57-5.82,6.86-14.17,8.36-18,11.55,5.07,20.94,8.82,20.94,8.82s17.64,2.91,20.32,5.86C636,1523.75,637.11,1535.6,631.75,1540.16Z"/><path class="cls-5" d="M626.31,1524.26c-3.52,0-72.77-3.53-72.77-3.53l48.12,51.32,105.63,22.55Z"/><path class="cls-36" d="M674.21,1589.93c-2.29,7-6.33,28.85-6.33,28.85L612,1600.5s8.7-19.94,11.14-27.28c2.21-6.66,7.14-28.59,7.14-28.59l55.87,18.29S676.51,1582.91,674.21,1589.93Z"/><path class="cls-46" d="M674.21,1589.93c-2.29,7-6.33,28.85-6.33,28.85l-39.35-12.87s8.69-19.94,11.13-27.28c2.22-6.67,7.15-28.59,7.15-28.59l39.35,12.88S676.51,1582.91,674.21,1589.93Z"/><rect class="cls-46" x="656.64" y="1522.15" width="4.7" height="58.78" transform="translate(-1020.56 1695.31) rotate(-71.88)"/><rect class="cls-53" x="636.9" y="1582.49" width="4.7" height="58.78" transform="translate(-1091.51 1718.11) rotate(-71.88)"/><path class="cls-54" d="M684.79,1574.25,705,1605.17a8,8,0,0,1-2.32,11L690,1624.44a8.45,8.45,0,0,1-11.63-2.45l-19.92-30.54a15.29,15.29,0,0,1,0-16.66,1.73,1.73,0,0,0-.11-2.08,5.47,5.47,0,0,1-.41-.54l-1.06-1.64,9.41-6.14,1.07,1.63a4.32,4.32,0,0,1,.36.67,1.54,1.54,0,0,0,1.64.9A15.3,15.3,0,0,1,684.79,1574.25Z"/><path class="cls-55" d="M684.79,1574.25,705,1605.17a8,8,0,0,1-2.32,11l-8,5.2a8.45,8.45,0,0,1-11.63-2.45l-19.92-30.54a15.29,15.29,0,0,1,0-16.66,2,2,0,0,0,.28-.78,1.66,1.66,0,0,0-.39-1.3,5.47,5.47,0,0,1-.41-.54l-1.06-1.64,4.7-3.07,1.07,1.63a4.32,4.32,0,0,1,.36.67,1.54,1.54,0,0,0,1.64.9A15.31,15.31,0,0,1,684.79,1574.25Z"/><path class="cls-56" d="M679.57,1577.66l20.17,30.94a8,8,0,0,1-2.32,11l-2.74,1.79a8.45,8.45,0,0,1-11.63-2.45l-19.92-30.54a15.29,15.29,0,0,1,0-16.66,2,2,0,0,0,.28-.78,1.25,1.25,0,0,0,.69,0A15.29,15.29,0,0,1,679.57,1577.66Z"/><rect class="cls-52" x="663.54" y="1583.7" width="31.48" height="21.67" transform="translate(-760.88 630.22) rotate(-33.12)"/><rect class="cls-52" x="654.37" y="1564.69" width="12.5" height="2.96" transform="translate(-750.24 618.13) rotate(-33.23)"/><path class="cls-54" d="M615.28,1561.16l7.49,36.15a8,8,0,0,1-6.17,9.4l-14.82,3.06a8.41,8.41,0,0,1-9.93-6.52l-7.4-35.71a15.28,15.28,0,0,1,6.1-15.5,1.72,1.72,0,0,0,.66-2c-.07-.21-.13-.43-.18-.65l-.39-1.91,11-2.28.39,1.91a4.82,4.82,0,0,1,.1.75,1.54,1.54,0,0,0,1.2,1.44A15.28,15.28,0,0,1,615.28,1561.16Z"/><path class="cls-55" d="M615.28,1561.16l7.49,36.15a8,8,0,0,1-6.17,9.4l-9.32,1.93a8.44,8.44,0,0,1-9.93-6.53L590,1566.4a15.27,15.27,0,0,1,6.1-15.5,1.77,1.77,0,0,0,.66-2c-.07-.21-.13-.43-.18-.65l-.4-1.91,5.51-1.14.39,1.91a4.82,4.82,0,0,1,.1.75,1.54,1.54,0,0,0,1.2,1.44A15.28,15.28,0,0,1,615.28,1561.16Z"/><path class="cls-56" d="M609.18,1562.43l7.48,36.15a8,8,0,0,1-6.17,9.39l-3.21.67a8.44,8.44,0,0,1-9.93-6.53L590,1566.4a15.27,15.27,0,0,1,6.1-15.5,1.7,1.7,0,0,0,.54-.62,1.37,1.37,0,0,0,.63.3A15.32,15.32,0,0,1,609.18,1562.43Z"/><rect class="cls-46" x="586.98" y="1567.2" width="31.48" height="21.67" transform="translate(-307.48 155.01) rotate(-11.7)"/><rect class="cls-46" x="589.53" y="1543.31" width="12.5" height="2.96" transform="translate(-303.56 154.64) rotate(-11.81)"/><path class="cls-57" d="M743.53,1799.66l-11.92,75.86-3.48,21.88-6.85,43.85H628.51s-12.2-7.51-28.07-17.37c-27-17-64.41-40.66-68.17-44.88-2.44-2.73-6.67-23.19-10.8-46.29-5.82-33-11.45-71.46-11.45-71.46l34-63.47-29.31-70.18,38.69-106.91L601.47,1572l105.72,22.44Z"/><polygon class="cls-57" points="605.63 1785.69 595.06 1845.55 674.28 1790.38 605.63 1785.69"/><path class="cls-57" d="M731.46,1875.52l-10.33,65.73H628.36s-12.2-7.51-28.07-17.37l-7.7-22.63,89.2-40.47,10.7-.56Z"/><path class="cls-58" d="M743.53,1799.66l-11.92,75.86-3.48,21.88c-6-3-47.88-24.6-46.19-36.62C683.72,1847.92,743.53,1799.66,743.53,1799.66Z"/><path class="cls-58" d="M532.27,1879s56.34,17,60.44,22.3,15.85,27.58,15.85,27.58Z"/><path class="cls-58" d="M605.63,1785.69s44.59-12.91,48.7-18.78,32.86-41.66,32.86-41.66-7.62,58.09-12.91,65.13S605.63,1785.69,605.63,1785.69Z"/><path class="cls-59" d="M569.08,1743.6l-47.61,89.11c-5.82-33-11.45-71.46-11.45-71.46l27-31.73Z"/><path class="cls-58" d="M569.08,1743.6s-25.82-10.14-59.06,17.65l34-63.47Z"/><polygon class="cls-58" points="514.71 1627.64 593.3 1648.18 626.16 1698.25 514.71 1627.64"/><polygon class="cls-59" points="595.06 1845.55 592.72 1901.3 681.94 1860.78 743.53 1799.66 687.2 1725.25 660.2 1796.84 595.06 1845.55"/><path class="cls-15" d="M508.68,1279.39s-7.55-27.18-29.4-29.8-35.6,10.47-38.54,23.23-.82,46.13,12.68,50.22S508.68,1279.39,508.68,1279.39Z"/><path class="cls-12" d="M446,1548.3l-1.36-11.61c-22.68,6-83.29-16.84-83.29-16.84s-22,19.32-19.09,65.62c1.41,22.6,2.32,61,2.32,61h0c-.06,32.89,2.39,65.46,4.34,86.11,1,10.3,1.82,17.63,2.17,20.55h0a4,4,0,0,1-.65,2.52c-4,6.71-7.71,13.54-9.92,20.85-15.5,51.19-3.3,129.83-3.3,129.83l15.26,23.8s17.31-96.31,31.39-138.85c2.38-7.22,4.67-12.89,6.77-16.28,6.12-9.88,11.8-26,16.95-45.2C417.24,1693.71,446,1548.3,446,1548.3Z"/><path class="cls-16" d="M483.23,1337.06s-3,9.15-5.19,17.92c-16.45-4.59-21.45-21.88-23-31.15Z"/><path class="cls-11" d="M486.7,1346.74s-39.35-9.1-33.31-33.52,5.05-42,30.43-37.26,27.93,15.31,27.9,24S497.09,1348.48,486.7,1346.74Z"/><path class="cls-15" d="M513.93,1286c-4.23-8.85-9.21-8.38-12.32-6.81-18.49-17.1-36.63-3.13-36.63-3.13a48,48,0,0,1-22.11,23.76s6.05,6.19,23.57,6c5.35,0,10.73-2.5,15.63-5.89a94.29,94.29,0,0,1-20.52,15.31c21.93-4.2,36.64-29.59,38.15-32.29,1.85,2.75,5.41,8.59,5.71,13.52.4,6.7-1.9,19.72,1.94,20.21C507.35,1316.77,520.28,1299.32,513.93,1286Z"/><path class="cls-14" d="M502.32,1383.82s9.48,16.53,10.89,20.79c0,0-12.28-.48-17.25,9C496,1413.6,496.39,1386.2,502.32,1383.82Z"/><path class="cls-14" d="M499,1433.06a21.08,21.08,0,0,1-1,2.32c-9.87,21.26-18.86,39-18.86,39-.25-.15-1.43,78.8-13.38,81.91-6.74,1.75-26,4.32-39.75,5.23-6.69.44-25,1.47-41.83,0-21.19-1.85-33.24-6.65-41.33-14-9.58-12.77,34.84-54.87,40.87-85.16-.08-1.58.2-6.66.63-13.28.77-12.1,2-29.37,2.38-39.92.06-1.58.1-3,.11-4.26v-.68c2.14-1.59,4.23-3.06,6.16-4.46,6.18-4.51,10.8-8.35,11.1-13.3a38.23,38.23,0,0,0-.1-5.86c-.09-.94-.21-1.88-.35-2.81a80.37,80.37,0,0,0-5.65-18.88c10.46-4.24,29.07-1.72,29.07-1.72v2.73c-.06,6.8,0,24.25,2.18,27.55,2.73,4.11,52.58,22.14,55.21,16.56s-4.5-31.21-4.77-32.18h0c16.69,6.54,22.66,12,22.66,12C492.26,1390.36,506.83,1412.43,499,1433.06Z"/><path class="cls-17" d="M430,1509.6c-13.09-6.06-32.89-37.78-45.59-60.52.77-12.1,2-29.37,2.38-39.92Z"/><path class="cls-11" d="M527.86,1528.21l-3.29,12s-4.13-.75-10.7-2c-2-.38-3.1-.66-3.1-.66-5.26-1-11.55-2.44-18.4-3.94h-.1c-11.73-2.82-24.88-6.2-36-10-7.79-2.72-14.55-5.63-19.15-8.54a10.93,10.93,0,0,1-1.32-.94c-11-8-24-31.45-34.17-56.62-1.41-3.47-2.73-7-4-10.33a258.24,258.24,0,0,1-10.71-35.58,102.72,102.72,0,0,1-2.53-17,42.5,42.5,0,0,1-.1-4.79c.19-27.23,13.71-31,13.71-31,.31-.11.62-.2.94-.28,2.35-.38,4.79,1.22,7.33,4.31,3.19,3.85,6.57,10.15,10,17.75,5.35,12.11,11,27.79,16.25,43.38,2.91,8.54,5.72,17.09,8.54,25,1.6,4.79,3.19,9.3,4.69,13.43,2.92,7.89,5.55,14.27,7.89,18.31,1.5,2.63,5.82,6.29,11.55,10.42,9.95,7.23,24.51,16,37.18,23.1,5.26,3,10.24,5.73,14.37,8C523.44,1525.86,527.86,1528.21,527.86,1528.21Z"/><path class="cls-14" d="M416.28,1380.65c-18.08-5-32,9.13-32,9.13.23-27.19,13.76-30.91,13.76-30.91C403.46,1356.6,409.77,1366.05,416.28,1380.65Z"/><path class="cls-36" d="M567.32,1540.13c-6,2.53-14.46,11.36-28,6a209.56,209.56,0,0,0-24.89-7.61c-2-.37-3.09-.65-3.09-.65-5.26-1-11.55-2.44-18.41-4,5.64-6.95,8.83-15.77,10.05-19.43,5.26,3,10.23,5.72,14.37,8,13.61,5.19,21.12,4.5,29.38,2.63,9.3-2.16,24.89,9,24.89,9S573.33,1537.69,567.32,1540.13Z"/><path class="cls-18" d="M394,1936.6H333.27s-2.27-9.68,1.72-16.27c3.53-5.84,2-12.55,1.31-20.51,2.75,1.12,6.25,4,10.12,4.69a17.41,17.41,0,0,0,11.28-2.13c2.61,3,9.92,18.38,13.41,20.89C375.08,1926.09,392.78,1925.07,394,1936.6Z"/><path class="cls-18" d="M516.49,1936.6H455.76s-2.27-9.68,1.72-16.27c3.53-5.84,2-12.55,1.31-20.51,2.75,1.12,6.25,4,10.12,4.69,4.25.73,9.75-2.07,12.56-3.7,1.37,11.79,8.64,20,12.13,22.46C497.57,1926.09,515.27,1925.07,516.49,1936.6Z"/><rect class="cls-18" y="1936.41" width="2620.15" height="7.13" rx="3.01"/><g class="cls-60"><path class="cls-17" d="M7.8,3.6H41.16Q58.44,3.6,70,15.72T81.6,45.6Q81.6,63.48,70,75.48T41.16,87.6H7.8ZM24.36,71.76h16.8q10.92,0,17.76-7.2,6.84-7.44,6.84-19T58.92,26.76q-6.84-7.32-17.76-7.32H24.36Z"/></g><g class="cls-60"><path class="cls-17" d="M100.32,20.4a9.11,9.11,0,0,1-6.66-2.82,9.11,9.11,0,0,1-2.82-6.66A9.31,9.31,0,0,1,93.66,4.2a9,9,0,0,1,6.66-2.88A9.15,9.15,0,0,1,107.1,4.2a9.31,9.31,0,0,1,2.82,6.72,9.11,9.11,0,0,1-2.82,6.66A9.24,9.24,0,0,1,100.32,20.4Zm7.8,67.2H92.64v-60h15.48Z"/></g><g class="cls-60"><path class="cls-17" d="M136.08,44.64q0,3.84,10.92,6.6a53.88,53.88,0,0,1,7,2,30.44,30.44,0,0,1,6.3,3.24,14.6,14.6,0,0,1,5,5.58,17.26,17.26,0,0,1,1.8,8q0,9.24-7,14.28t-17.16,4.92q-18.48,0-25.2-14.28l13.44-7.56q2.76,7.8,11.76,7.8,8.28,0,8.28-5.16,0-3.84-10.92-6.6-4.08-1.08-7-2.16a35.44,35.44,0,0,1-6.24-3.18,14,14,0,0,1-5.1-5.4A16.37,16.37,0,0,1,120.24,45q0-8.88,6.48-13.92T143,25.92a27.18,27.18,0,0,1,13.32,3.3,24.12,24.12,0,0,1,9.48,9.42l-13.2,7.2a9.87,9.87,0,0,0-9.6-6.12,8.51,8.51,0,0,0-5,1.38A4.16,4.16,0,0,0,136.08,44.64Z"/><path class="cls-17" d="M203.64,89.28q-13.56,0-22.68-9.12a30.86,30.86,0,0,1-9-22.56A30.86,30.86,0,0,1,181,35q9.12-9.12,22.68-9.12a31.09,31.09,0,0,1,16,4.2A27.93,27.93,0,0,1,230.52,41.4L217.2,49.2a13.58,13.58,0,0,0-5.46-5.88,15.87,15.87,0,0,0-8.22-2.16A15.51,15.51,0,0,0,192,45.78a16.12,16.12,0,0,0-4.56,11.82A16.43,16.43,0,0,0,192,69.36a15.61,15.61,0,0,0,11.52,4.56,16.46,16.46,0,0,0,8.34-2.1A13.23,13.23,0,0,0,217.32,66l13.44,7.68a29.26,29.26,0,0,1-11.22,11.4A31.19,31.19,0,0,1,203.64,89.28Z"/></g><g class="cls-60"><path class="cls-17" d="M290.16,80.16A31.68,31.68,0,0,1,235.92,57.6a31.74,31.74,0,1,1,63.48,0A30.69,30.69,0,0,1,290.16,80.16ZM256,69.48a16.82,16.82,0,0,0,23.28,0,16.1,16.1,0,0,0,4.68-11.88,16.1,16.1,0,0,0-4.68-11.88,16.82,16.82,0,0,0-23.28,0A16.58,16.58,0,0,0,251.4,57.6,16.58,16.58,0,0,0,256,69.48Z"/><path class="cls-17" d="M330.48,69.6l14.64-42h17l-22.8,60H321.72l-22.8-60h17Z"/></g><g class="cls-60"><path class="cls-17" d="M427.8,64H382.56q3,11.28,16.92,11.28,8.88,0,13.44-6l12.48,7.2q-8.88,12.84-26.16,12.84-14.88,0-23.88-9t-9-22.68q0-13.44,8.88-22.56T398,25.92q13.32,0,21.72,9.12,8.64,9.12,8.64,22.56A42.67,42.67,0,0,1,427.8,64ZM382.32,52h30.6A14.57,14.57,0,0,0,398,39.84,16.28,16.28,0,0,0,387.72,43,15.2,15.2,0,0,0,382.32,52Z"/><path class="cls-17" d="M454.68,27.6V37.92a16,16,0,0,1,7-8.58,21.56,21.56,0,0,1,11.28-2.94V43.68a17.63,17.63,0,0,0-12.72,2.88q-5.52,3.72-5.52,12.36V87.6H439.2v-60Z"/></g><g class="cls-60"><path class="cls-17" d="M536.76,69.6l14.64-42h17l-22.8,60H528l-22.8-60h17Z"/></g><g class="cls-60"><path class="cls-17" d="M624.6,80.16A31.68,31.68,0,0,1,570.36,57.6a31.74,31.74,0,1,1,63.48,0A30.69,30.69,0,0,1,624.6,80.16ZM590.4,69.48a16.82,16.82,0,0,0,23.28,0,16.1,16.1,0,0,0,4.68-11.88,16.1,16.1,0,0,0-4.68-11.88,16.82,16.82,0,0,0-23.28,0,16.58,16.58,0,0,0-4.56,11.88A16.58,16.58,0,0,0,590.4,69.48Z"/><path class="cls-17" d="M660.24,87.6H644.76V0h15.48Z"/><path class="cls-17" d="M714,60V27.6h15.48v60H714V80.88q-5.52,8.4-17.88,8.4a21.92,21.92,0,0,1-16.32-6.6q-6.36-6.72-6.36-18.24V27.6h15.48V62.52q0,5.88,3.18,9.12t8.7,3.24q6.12,0,9.66-3.78T714,60Z"/><path class="cls-17" d="M777,25.92q10,0,16.2,6.6,6.48,6.72,6.48,18.24V87.6H784.2V52.68q0-5.88-3.18-9.12t-8.7-3.24q-6.12,0-9.66,3.78t-3.54,11.1V87.6H743.64v-60h15.48v6.72Q764.64,25.92,777,25.92Z"/></g><g class="cls-60"><path class="cls-17" d="M847.2,27.6V42.48H833.64v25A5.94,5.94,0,0,0,835.2,72a7.16,7.16,0,0,0,4.56,1.62,67.19,67.19,0,0,0,7.44-.06v14q-15.72,1.8-22.38-2.94t-6.66-17.22v-25H807.72V27.6h10.44V15.48l15.48-4.68V27.6Z"/></g><g class="cls-60"><path class="cls-17" d="M914.64,64H869.4q3,11.28,16.92,11.28,8.88,0,13.44-6l12.48,7.2q-8.88,12.84-26.16,12.84-14.88,0-23.88-9t-9-22.68q0-13.44,8.88-22.56t22.8-9.12q13.32,0,21.72,9.12,8.64,9.12,8.64,22.56A42.67,42.67,0,0,1,914.64,64ZM869.16,52h30.6a14.57,14.57,0,0,0-14.88-12.12A16.28,16.28,0,0,0,874.56,43,15.2,15.2,0,0,0,869.16,52Z"/></g><g class="cls-60"><path class="cls-17" d="M983.88,64H938.64q3,11.28,16.92,11.28,8.88,0,13.44-6l12.48,7.2q-8.88,12.84-26.16,12.84-14.88,0-23.88-9t-9-22.68q0-13.44,8.88-22.56t22.8-9.12q13.32,0,21.72,9.12,8.64,9.12,8.64,22.56A42.67,42.67,0,0,1,983.88,64ZM938.4,52H969a14.57,14.57,0,0,0-14.88-12.12A16.28,16.28,0,0,0,943.8,43,15.2,15.2,0,0,0,938.4,52Z"/><path class="cls-17" d="M1010.76,27.6V37.92a16,16,0,0,1,7-8.58A21.56,21.56,0,0,1,1029,26.4V43.68a17.63,17.63,0,0,0-12.72,2.88q-5.52,3.72-5.52,12.36V87.6H995.28v-60Z"/><path class="cls-17" d="M1119.12,80.16a31.68,31.68,0,0,1-54.24-22.56,31.74,31.74,0,1,1,63.48,0A30.69,30.69,0,0,1,1119.12,80.16Zm-34.2-10.68a16.82,16.82,0,0,0,23.28,0,16.1,16.1,0,0,0,4.68-11.88,16.1,16.1,0,0,0-4.68-11.88,16.82,16.82,0,0,0-23.28,0,16.58,16.58,0,0,0-4.56,11.88A16.58,16.58,0,0,0,1084.92,69.48Z"/><path class="cls-17" d="M1174.2,25.92a27.05,27.05,0,0,1,20.64,9.24,31.66,31.66,0,0,1,8.64,22.44q0,13.44-8.64,22.56a27,27,0,0,1-20.64,9.12q-12.6,0-19.44-8.76V111.6h-15.48v-84h15.48v7.08Q1161.6,25.92,1174.2,25.92Zm-14.76,43.92a17.42,17.42,0,0,0,23.76,0A16.58,16.58,0,0,0,1188,57.6a16.18,16.18,0,0,0-4.8-12.12,17.1,17.1,0,0,0-23.76,0,16.4,16.4,0,0,0-4.68,12.12A16.81,16.81,0,0,0,1159.44,69.84Z"/><path class="cls-17" d="M1249.32,25.92A27.05,27.05,0,0,1,1270,35.16a31.66,31.66,0,0,1,8.64,22.44q0,13.44-8.64,22.56a27,27,0,0,1-20.64,9.12q-12.6,0-19.44-8.76V111.6H1214.4v-84h15.48v7.08Q1236.72,25.92,1249.32,25.92Zm-14.76,43.92a17.42,17.42,0,0,0,23.76,0,16.58,16.58,0,0,0,4.8-12.24,16.18,16.18,0,0,0-4.8-12.12,17.1,17.1,0,0,0-23.76,0,16.4,16.4,0,0,0-4.68,12.12A16.81,16.81,0,0,0,1234.56,69.84Z"/><path class="cls-17" d="M1340.64,80.16A31.68,31.68,0,0,1,1286.4,57.6a31.74,31.74,0,1,1,63.48,0A30.69,30.69,0,0,1,1340.64,80.16Zm-34.2-10.68a16.82,16.82,0,0,0,23.28,0,16.1,16.1,0,0,0,4.68-11.88,16.1,16.1,0,0,0-4.68-11.88,16.82,16.82,0,0,0-23.28,0,16.58,16.58,0,0,0-4.56,11.88A16.58,16.58,0,0,0,1306.44,69.48Z"/></g><g class="cls-60"><path class="cls-17" d="M1376.27,27.6V37.92a16,16,0,0,1,7-8.58,21.56,21.56,0,0,1,11.28-2.94V43.68a17.63,17.63,0,0,0-12.72,2.88q-5.52,3.72-5.52,12.36V87.6h-15.48v-60Z"/></g><g class="cls-60"><path class="cls-17" d="M1439.51,27.6V42.48H1426v25a5.94,5.94,0,0,0,1.56,4.56,7.16,7.16,0,0,0,4.56,1.62,67.19,67.19,0,0,0,7.44-.06v14q-15.72,1.8-22.38-2.94t-6.66-17.22v-25H1400V27.6h10.44V15.48L1426,10.8V27.6Z"/><path class="cls-17" d="M1491,60V27.6h15.48v60H1491V80.88q-5.52,8.4-17.88,8.4a21.92,21.92,0,0,1-16.32-6.6q-6.36-6.72-6.36-18.24V27.6h15.48V62.52q0,5.88,3.18,9.12t8.7,3.24q6.12,0,9.66-3.78T1491,60Z"/><path class="cls-17" d="M1554,25.92q10,0,16.2,6.6,6.48,6.72,6.48,18.24V87.6h-15.48V52.68q0-5.88-3.18-9.12t-8.7-3.24q-6.12,0-9.66,3.78t-3.54,11.1V87.6h-15.48v-60h15.48v6.72Q1541.63,25.92,1554,25.92Z"/><path class="cls-17" d="M1597.55,20.4a9.11,9.11,0,0,1-6.66-2.82,9.11,9.11,0,0,1-2.82-6.66,9.31,9.31,0,0,1,2.82-6.72,9,9,0,0,1,6.66-2.88,9.15,9.15,0,0,1,6.78,2.88,9.31,9.31,0,0,1,2.82,6.72,9.11,9.11,0,0,1-2.82,6.66A9.24,9.24,0,0,1,1597.55,20.4Zm7.8,67.2h-15.48v-60h15.48Z"/></g><g class="cls-60"><path class="cls-17" d="M1653.83,27.6V42.48h-13.56v25a5.94,5.94,0,0,0,1.56,4.56,7.16,7.16,0,0,0,4.56,1.62,67.19,67.19,0,0,0,7.44-.06v14q-15.72,1.8-22.38-2.94t-6.66-17.22v-25h-10.44V27.6h10.44V15.48l15.48-4.68V27.6Z"/></g><g class="cls-60"><path class="cls-17" d="M1672.42,20.4a9.11,9.11,0,0,1-6.66-2.82,9.11,9.11,0,0,1-2.82-6.66,9.31,9.31,0,0,1,2.82-6.72,9,9,0,0,1,6.66-2.88,9.15,9.15,0,0,1,6.78,2.88,9.31,9.31,0,0,1,2.82,6.72,9.11,9.11,0,0,1-2.82,6.66A9.24,9.24,0,0,1,1672.42,20.4Zm7.8,67.2h-15.48v-60h15.48Z"/></g><g class="cls-60"><path class="cls-17" d="M1752.7,64h-45.24q3,11.28,16.92,11.28,8.88,0,13.44-6l12.48,7.2q-8.88,12.84-26.16,12.84-14.88,0-23.88-9t-9-22.68q0-13.44,8.88-22.56t22.8-9.12q13.32,0,21.72,9.12,8.64,9.12,8.64,22.56A42.67,42.67,0,0,1,1752.7,64Zm-45.48-12h30.6a14.57,14.57,0,0,0-14.88-12.12A16.28,16.28,0,0,0,1712.62,43,15.2,15.2,0,0,0,1707.22,52Z"/></g><g class="cls-60"><path class="cls-17" d="M1776,44.64q0,3.84,10.92,6.6a53.88,53.88,0,0,1,7,2,30.44,30.44,0,0,1,6.3,3.24,14.6,14.6,0,0,1,5,5.58,17.26,17.26,0,0,1,1.8,8q0,9.24-7,14.28t-17.16,4.92q-18.48,0-25.2-14.28l13.44-7.56q2.76,7.8,11.76,7.8,8.28,0,8.28-5.16,0-3.84-10.92-6.6-4.08-1.08-7-2.16a35.44,35.44,0,0,1-6.24-3.18,14,14,0,0,1-5.1-5.4,16.37,16.37,0,0,1-1.74-7.74q0-8.88,6.48-13.92t16.32-5.16a27.18,27.18,0,0,1,13.32,3.3,24.12,24.12,0,0,1,9.48,9.42l-13.2,7.2a9.87,9.87,0,0,0-9.6-6.12,8.51,8.51,0,0,0-5,1.38A4.16,4.16,0,0,0,1776,44.64Z"/></g><g class="cls-60"><path class="cls-17" d="M1835.39,79a10.24,10.24,0,1,1-3-7.2A9.82,9.82,0,0,1,1835.39,79Z"/></g><g class="cls-60"><path class="cls-17" d="M58,143.6v15.84H24.36v19.92H57V195.2H24.36v32.4H7.8v-84Z"/><path class="cls-17" d="M77,160.4a9.63,9.63,0,0,1-9.48-9.48,9.31,9.31,0,0,1,2.82-6.72A9,9,0,0,1,77,141.32a9.15,9.15,0,0,1,6.78,2.88,9.31,9.31,0,0,1,2.82,6.72,9.11,9.11,0,0,1-2.82,6.66A9.24,9.24,0,0,1,77,160.4Zm7.8,67.2H69.36v-60H84.84Z"/><path class="cls-17" d="M132.36,165.92q10,0,16.2,6.6,6.48,6.72,6.48,18.24V227.6H139.56V192.68q0-5.88-3.18-9.12t-8.7-3.24q-6.12,0-9.66,3.78t-3.54,11.1v32.4H99v-60h15.48v6.72Q120,165.92,132.36,165.92Z"/><path class="cls-17" d="M213.72,174.68V143.6H229.2v84H213.72v-7.08q-6.84,8.76-19.44,8.76a27.58,27.58,0,0,1-20.76-9.12,34,34,0,0,1,0-45,27.42,27.42,0,0,1,20.76-9.24Q206.88,165.92,213.72,174.68Zm-28.56,35.16a16.76,16.76,0,0,0,12,4.68A16.1,16.1,0,0,0,209,209.84a16.81,16.81,0,0,0,4.68-12.24A16.4,16.4,0,0,0,209,185.48a15.89,15.89,0,0,0-11.88-4.8,16.22,16.22,0,0,0-16.68,16.92A16.81,16.81,0,0,0,185.16,209.84Z"/></g><g class="cls-60"><path class="cls-17" d="M299.16,207.92l13.32-40.32H329l-21.84,60q-4.68,13-12.42,18.78t-19.26,5.22V237.2q6.12.12,9.84-2.64t5.88-8.88l-24.6-58.08h16.92Z"/></g><g class="cls-60"><path class="cls-17" d="M385.08,220.16a31.86,31.86,0,0,1-45.12-45,31.86,31.86,0,0,1,45.12,45Zm-34.2-10.68a16.82,16.82,0,0,0,23.28,0,17.42,17.42,0,0,0,0-23.76,16.82,16.82,0,0,0-23.28,0,17.76,17.76,0,0,0,0,23.76Z"/><path class="cls-17" d="M444.84,200V167.6h15.48v60H444.84v-6.72q-5.52,8.4-17.88,8.4a21.92,21.92,0,0,1-16.32-6.6q-6.36-6.72-6.36-18.24V167.6h15.48v34.92q0,5.88,3.18,9.12t8.7,3.24q6.12,0,9.66-3.78T444.84,200Z"/><path class="cls-17" d="M490,167.6v10.32a16,16,0,0,1,7-8.58,21.56,21.56,0,0,1,11.28-2.94v17.28a17.63,17.63,0,0,0-12.72,2.88Q490,190.28,490,198.92V227.6H474.48v-60Z"/></g><g class="cls-60"><path class="cls-17" d="M575.76,229.28q-13.56,0-22.68-9.12a32.78,32.78,0,0,1,0-45.12q9.12-9.12,22.68-9.12a31.09,31.09,0,0,1,16,4.2,27.93,27.93,0,0,1,10.92,11.28l-13.32,7.8a13.58,13.58,0,0,0-5.46-5.88,15.87,15.87,0,0,0-8.22-2.16,15.51,15.51,0,0,0-11.52,4.62,16.12,16.12,0,0,0-4.56,11.82,16.43,16.43,0,0,0,4.56,11.76,15.61,15.61,0,0,0,11.52,4.56,16.46,16.46,0,0,0,8.34-2.1,13.23,13.23,0,0,0,5.46-5.82l13.44,7.68a29.26,29.26,0,0,1-11.22,11.4A31.19,31.19,0,0,1,575.76,229.28Z"/></g><g class="cls-60"><path class="cls-17" d="M661.2,220.16a31.86,31.86,0,0,1-45.12-45,31.86,31.86,0,0,1,45.12,45ZM627,209.48a16.82,16.82,0,0,0,23.28,0,17.42,17.42,0,0,0,0-23.76,16.82,16.82,0,0,0-23.28,0,17.76,17.76,0,0,0,0,23.76Z"/><path class="cls-17" d="M747.72,165.92q10.32,0,16.5,6.72t6.18,18v37H754.92V191.72q0-5.4-2.64-8.4a9.39,9.39,0,0,0-7.44-3,10.17,10.17,0,0,0-8.22,3.48q-2.94,3.48-2.94,10.08V227.6H718.2V191.72q0-5.4-2.64-8.4a9.39,9.39,0,0,0-7.44-3,10.31,10.31,0,0,0-8.22,3.54q-3.06,3.54-3.06,10V227.6H681.36v-60h15.48V174q5.4-8,16.68-8t16.32,8.64Q735.72,165.92,747.72,165.92Z"/><path class="cls-17" d="M850,165.92q10.32,0,16.5,6.72t6.18,18v37H857.16V191.72q0-5.4-2.64-8.4a9.39,9.39,0,0,0-7.44-3,10.17,10.17,0,0,0-8.22,3.48q-2.94,3.48-2.94,10.08V227.6H820.44V191.72q0-5.4-2.64-8.4a9.39,9.39,0,0,0-7.44-3,10.31,10.31,0,0,0-8.22,3.54q-3.06,3.54-3.06,10V227.6H783.6v-60h15.48V174q5.4-8,16.68-8t16.32,8.64Q838,165.92,850,165.92Z"/><path class="cls-17" d="M925.44,200V167.6h15.48v60H925.44v-6.72q-5.52,8.4-17.88,8.4a21.92,21.92,0,0,1-16.32-6.6q-6.36-6.72-6.36-18.24V167.6h15.48v34.92q0,5.88,3.18,9.12t8.7,3.24q6.12,0,9.66-3.78T925.44,200Z"/><path class="cls-17" d="M988.44,165.92q10,0,16.2,6.6,6.48,6.72,6.48,18.24V227.6H995.64V192.68q0-5.88-3.18-9.12t-8.7-3.24q-6.12,0-9.66,3.78t-3.54,11.1v32.4H955.08v-60h15.48v6.72Q976.08,165.92,988.44,165.92Z"/><path class="cls-17" d="M1032,160.4a9.63,9.63,0,0,1-9.48-9.48,9.31,9.31,0,0,1,2.82-6.72,9,9,0,0,1,6.66-2.88,9.15,9.15,0,0,1,6.78,2.88,9.31,9.31,0,0,1,2.82,6.72,9.11,9.11,0,0,1-2.82,6.66A9.24,9.24,0,0,1,1032,160.4Zm7.8,67.2h-15.48v-60h15.48Z"/></g><g class="cls-60"><path class="cls-17" d="M1088.27,167.6v14.88h-13.56v25a5.94,5.94,0,0,0,1.56,4.56,7.16,7.16,0,0,0,4.56,1.62,67.19,67.19,0,0,0,7.44-.06v14q-15.72,1.8-22.38-2.94t-6.66-17.22v-25h-10.44V167.6h10.44V155.48l15.48-4.68v16.8Z"/></g><g class="cls-60"><path class="cls-17" d="M1126.31,207.92l13.32-40.32h16.56l-21.84,60q-4.68,13-12.42,18.78t-19.26,5.22V237.2q6.12.12,9.84-2.64t5.88-8.88l-24.6-58.08h16.92Z"/></g><g class="cls-60"><path class="cls-17" d="M1171.79,219a10.24,10.24,0,1,1-3-7.2A9.82,9.82,0,0,1,1171.79,219Z"/></g><g class="cls-60"><path class="cls-17" d="M73,283.6H90v84H73.56V313.12l-23.64,39H48L24.36,313.24V367.6H7.8v-84h17L49,323.32Z"/><path class="cls-17" d="M150.48,314.68V307.6H166v60H150.48v-7.08q-7,8.76-19.56,8.76a27.45,27.45,0,0,1-20.64-9.12,34,34,0,0,1,0-45q8.64-9.24,20.64-9.24Q143.52,305.92,150.48,314.68Zm-28.56,35.16a17.42,17.42,0,0,0,23.76,0,16.58,16.58,0,0,0,4.8-12.24,16.18,16.18,0,0,0-4.8-12.12,17.1,17.1,0,0,0-23.76,0,16.4,16.4,0,0,0-4.68,12.12A16.81,16.81,0,0,0,121.92,349.84Z"/><path class="cls-17" d="M213.36,305.92q10,0,16.2,6.6,6.48,6.72,6.48,18.24V367.6H220.56V332.68q0-5.88-3.18-9.12t-8.7-3.24q-6.12,0-9.66,3.78t-3.54,11.1v32.4H180v-60h15.48v6.72Q201,305.92,213.36,305.92Z"/><path class="cls-17" d="M294.84,314.68V307.6h15.48v60H294.84v-7.08q-7,8.76-19.56,8.76a27.45,27.45,0,0,1-20.64-9.12,34,34,0,0,1,0-45q8.64-9.24,20.64-9.24Q287.88,305.92,294.84,314.68Zm-28.56,35.16a17.42,17.42,0,0,0,23.76,0,16.58,16.58,0,0,0,4.8-12.24,16.18,16.18,0,0,0-4.8-12.12,17.1,17.1,0,0,0-23.76,0,16.4,16.4,0,0,0-4.68,12.12A16.81,16.81,0,0,0,266.28,349.84Z"/><path class="cls-17" d="M370.32,315V307.6h15.12v57.12q0,13.8-9.24,21.24t-22.08,7.32q-20.4,0-28.44-14.64l13.2-7.56q4.44,8.4,15.72,8.4,7.32,0,11.52-3.84t4.2-10.92v-6.48q-6.84,9.12-19.2,9.12a28.62,28.62,0,0,1-21.36-8.88,30.88,30.88,0,0,1-8.52-21.84,30.23,30.23,0,0,1,8.64-21.72,28.29,28.29,0,0,1,21.24-9Q363.48,305.92,370.32,315Zm-4.74,33.42a15.79,15.79,0,0,0,4.74-11.82,15.11,15.11,0,0,0-4.8-11.64,16.25,16.25,0,0,0-12-4.68A16.91,16.91,0,0,0,341.4,325a15.31,15.31,0,0,0-4.68,11.64,15.79,15.79,0,0,0,4.74,11.82,18.05,18.05,0,0,0,24.12,0Z"/><path class="cls-17" d="M457.8,344H412.56q3,11.28,16.92,11.28,8.88,0,13.44-6l12.48,7.2q-8.88,12.84-26.16,12.84-14.88,0-23.88-9t-9-22.68q0-13.44,8.88-22.56t22.8-9.12q13.32,0,21.72,9.12,8.64,9.12,8.64,22.56A42.67,42.67,0,0,1,457.8,344Zm-45.48-12h30.6A14.57,14.57,0,0,0,428,319.84,16.28,16.28,0,0,0,417.72,323,15.2,15.2,0,0,0,412.32,332Z"/></g><g class="cls-60"><path class="cls-17" d="M524,349.6l14.64-42h17l-22.8,60H515.27l-22.8-60h17Z"/></g><g class="cls-60"><path class="cls-17" d="M611.87,360.16a32,32,0,1,1,9.24-22.56A30.64,30.64,0,0,1,611.87,360.16Zm-34.2-10.68a16.82,16.82,0,0,0,23.28,0,17.42,17.42,0,0,0,0-23.76,16.82,16.82,0,0,0-23.28,0,17.76,17.76,0,0,0,0,23.76Z"/><path class="cls-17" d="M647.51,367.6H632V280h15.48Z"/><path class="cls-17" d="M701.27,340V307.6h15.48v60H701.27v-6.72q-5.52,8.4-17.88,8.4a21.92,21.92,0,0,1-16.32-6.6q-6.36-6.72-6.36-18.24V307.6h15.48v34.92q0,5.88,3.18,9.12t8.7,3.24q6.12,0,9.66-3.78T701.27,340Z"/><path class="cls-17" d="M764.27,305.92q10,0,16.2,6.6,6.48,6.72,6.48,18.24V367.6H771.47V332.68q0-5.88-3.18-9.12t-8.7-3.24q-6.12,0-9.66,3.78t-3.54,11.1v32.4H730.91v-60h15.48v6.72Q751.91,305.92,764.27,305.92Z"/></g><g class="cls-60"><path class="cls-17" d="M834.47,307.6v14.88H820.91v25a5.94,5.94,0,0,0,1.56,4.56,7.16,7.16,0,0,0,4.56,1.62,67.19,67.19,0,0,0,7.44-.06v14q-15.72,1.8-22.38-2.94t-6.66-17.22v-25H795V307.6h10.44V295.48l15.48-4.68v16.8Z"/></g><g class="cls-60"><path class="cls-17" d="M901.91,344H856.67q3,11.28,16.92,11.28,8.88,0,13.44-6l12.48,7.2q-8.88,12.84-26.16,12.84-14.88,0-23.88-9t-9-22.68q0-13.44,8.88-22.56t22.8-9.12q13.32,0,21.72,9.12,8.64,9.12,8.64,22.56A42.67,42.67,0,0,1,901.91,344Zm-45.48-12H887a14.57,14.57,0,0,0-14.88-12.12A16.28,16.28,0,0,0,861.83,323,15.2,15.2,0,0,0,856.43,332Z"/></g><g class="cls-60"><path class="cls-17" d="M971.15,344H925.91q3,11.28,16.92,11.28,8.88,0,13.44-6l12.48,7.2q-8.88,12.84-26.16,12.84-14.88,0-23.88-9t-9-22.68q0-13.44,8.88-22.56t22.8-9.12q13.32,0,21.72,9.12,8.64,9.12,8.64,22.56A42.67,42.67,0,0,1,971.15,344Zm-45.48-12h30.6a14.57,14.57,0,0,0-14.88-12.12A16.28,16.28,0,0,0,931.07,323,15.2,15.2,0,0,0,925.67,332Z"/></g><g class="cls-60"><path class="cls-17" d="M998,307.6v10.32a16,16,0,0,1,7-8.58,21.56,21.56,0,0,1,11.28-2.94v17.28a17.63,17.63,0,0,0-12.72,2.88Q998,330.28,998,338.92V367.6H982.55v-60Z"/></g><g class="cls-60"><path class="cls-17" d="M1037.63,324.64q0,3.84,10.92,6.6a53.88,53.88,0,0,1,7,2,30.44,30.44,0,0,1,6.3,3.24,14.6,14.6,0,0,1,5,5.58,17.26,17.26,0,0,1,1.8,8q0,9.24-7,14.28t-17.16,4.92q-18.48,0-25.2-14.28l13.44-7.56q2.76,7.8,11.76,7.8,8.28,0,8.28-5.16,0-3.84-10.92-6.6-4.08-1.08-7-2.16a35.44,35.44,0,0,1-6.24-3.18,14,14,0,0,1-5.1-5.4,16.37,16.37,0,0,1-1.74-7.74q0-8.88,6.48-13.92t16.32-5.16a27.18,27.18,0,0,1,13.32,3.3,24.12,24.12,0,0,1,9.48,9.42l-13.2,7.2a9.87,9.87,0,0,0-9.6-6.12,8.51,8.51,0,0,0-5,1.38A4.16,4.16,0,0,0,1037.63,324.64Z"/></g><g class="cls-60"><path class="cls-17" d="M1097,359a10.24,10.24,0,1,1-3-7.2A9.82,9.82,0,0,1,1097,359Z"/></g><g class="cls-60"><path class="cls-18" d="M36.09,473.76H67.68v4.86q0,13.5-8.64,21.87t-22.32,8.37q-14.58,0-24.21-9.45a33.25,33.25,0,0,1-.09-46.53A32,32,0,0,1,36,443.34a33,33,0,0,1,16,4A29.8,29.8,0,0,1,63.45,458l-10.62,6.12a16.66,16.66,0,0,0-6.84-6.3,21.21,21.21,0,0,0-10.08-2.43q-9.09,0-14.85,5.94-5.76,5.76-5.76,14.85A20,20,0,0,0,21.15,491q5.85,5.76,15.66,5.76a21.11,21.11,0,0,0,11.88-3.15,15.62,15.62,0,0,0,6.48-8.82H36.09Z"/><path class="cls-18" d="M81.72,457.2a7.24,7.24,0,0,1-7.11-7.11,7,7,0,0,1,2.12-5,6.73,6.73,0,0,1,5-2.16,6.87,6.87,0,0,1,5.09,2.16,7,7,0,0,1,2.11,5,6.84,6.84,0,0,1-2.11,5A6.91,6.91,0,0,1,81.72,457.2Zm5.85,50.4H76v-45H87.57Z"/></g><g class="cls-60"><path class="cls-18" d="M116.82,494.1l11-31.5h12.78l-17.1,45H110.25l-17.1-45h12.78Z"/></g><g class="cls-60"><path class="cls-18" d="M188.1,489.87H154.17q2.25,8.46,12.69,8.46,6.66,0,10.08-4.5l9.36,5.4q-6.66,9.63-19.62,9.63-11.16,0-17.91-6.75a23.06,23.06,0,0,1-6.75-17,23.31,23.31,0,0,1,6.66-16.92q6.57-6.84,17.1-6.84,10,0,16.29,6.84a23.66,23.66,0,0,1,6.48,16.92A32,32,0,0,1,188.1,489.87Zm-34.11-9h22.95a10.91,10.91,0,0,0-11.16-9.09,12.22,12.22,0,0,0-7.74,2.39A11.36,11.36,0,0,0,154,480.87Z"/><path class="cls-18" d="M221.67,461.34a16,16,0,0,1,12.15,5q4.86,5,4.86,13.68V507.6H227.07V481.41a9.35,9.35,0,0,0-2.38-6.84,8.74,8.74,0,0,0-6.53-2.43,9.43,9.43,0,0,0-7.24,2.83q-2.65,2.83-2.66,8.33v24.3H196.65v-63h11.61v23Q212.4,461.34,221.67,461.34Z"/><path class="cls-18" d="M278.28,486.9V462.6h11.61v45H278.28v-5q-4.14,6.3-13.41,6.3a16.44,16.44,0,0,1-12.24-4.95q-4.77-5-4.77-13.68V462.6h11.61v26.19a9.35,9.35,0,0,0,2.39,6.84,8.7,8.7,0,0,0,6.52,2.43,9.46,9.46,0,0,0,7.25-2.84C277.39,493.33,278.28,490.56,278.28,486.9Z"/><path class="cls-18" d="M326.7,461.34a20.29,20.29,0,0,1,15.48,6.93,25.21,25.21,0,0,1,0,33.75,20.23,20.23,0,0,1-15.48,6.84q-9.45,0-14.58-6.57v5.31H300.51v-63h11.61v23.31Q317.25,461.34,326.7,461.34Zm-11.07,32.94a13.06,13.06,0,0,0,17.82,0,12.43,12.43,0,0,0,3.6-9.18,12.13,12.13,0,0,0-3.6-9.09,12.83,12.83,0,0,0-17.82,0,12.3,12.3,0,0,0-3.51,9.09A12.61,12.61,0,0,0,315.63,494.28Z"/></g><g class="cls-60"><path class="cls-18" d="M385.11,457.2a7.24,7.24,0,0,1-7.11-7.11,7,7,0,0,1,2.12-5,6.75,6.75,0,0,1,5-2.16,6.87,6.87,0,0,1,5.09,2.16,7,7,0,0,1,2.11,5,6.8,6.8,0,0,1-2.11,5A6.91,6.91,0,0,1,385.11,457.2ZM391,507.6H379.35v-45H391Z"/></g><g class="cls-60"><path class="cls-18" d="M411.93,475.38q0,2.88,8.19,4.95a42.1,42.1,0,0,1,5.22,1.48,23.88,23.88,0,0,1,4.73,2.43,11,11,0,0,1,3.73,4.19,12.94,12.94,0,0,1,1.35,6,12.44,12.44,0,0,1-5.22,10.71,21.73,21.73,0,0,1-12.87,3.69q-13.86,0-18.9-10.71l10.08-5.67q2.07,5.85,8.82,5.85,6.21,0,6.21-3.87,0-2.88-8.19-4.95-3.06-.81-5.22-1.62a26.63,26.63,0,0,1-4.68-2.39,10.41,10.41,0,0,1-3.82-4,12.32,12.32,0,0,1-1.31-5.81,12.49,12.49,0,0,1,4.86-10.44,19.27,19.27,0,0,1,12.24-3.87,20.49,20.49,0,0,1,10,2.47,18.17,18.17,0,0,1,7.11,7.07l-9.9,5.4a7.4,7.4,0,0,0-7.2-4.59,6.43,6.43,0,0,0-3.73,1A3.15,3.15,0,0,0,411.93,475.38Z"/><path class="cls-18" d="M499.77,467.91V462.6h11.61v45H499.77v-5.31q-5.22,6.57-14.67,6.57A20.59,20.59,0,0,1,469.62,502a25.48,25.48,0,0,1,0-33.75,20.47,20.47,0,0,1,15.48-6.93Q494.55,461.34,499.77,467.91Zm-21.42,26.37a13.06,13.06,0,0,0,17.82,0,12.43,12.43,0,0,0,3.6-9.18,12.13,12.13,0,0,0-3.6-9.09,12.83,12.83,0,0,0-17.82,0,12.3,12.3,0,0,0-3.51,9.09A12.61,12.61,0,0,0,478.35,494.28Z"/><path class="cls-18" d="M582.75,502a24,24,0,1,1,6.93-16.92A23,23,0,0,1,582.75,502Zm-25.65-8a12.61,12.61,0,0,0,17.46,0,13.06,13.06,0,0,0,0-17.82,12.61,12.61,0,0,0-17.46,0,13.32,13.32,0,0,0,0,17.82Z"/><path class="cls-18" d="M622.89,461.34a16,16,0,0,1,12.15,5q4.86,5,4.86,13.68V507.6H628.29V481.41a9.39,9.39,0,0,0-2.38-6.84,8.75,8.75,0,0,0-6.53-2.43,9.42,9.42,0,0,0-7.24,2.83q-2.65,2.83-2.66,8.33v24.3H597.87v-45h11.61v5Q613.62,461.34,622.89,461.34Z"/><path class="cls-18" d="M693.54,489.87H659.61q2.25,8.46,12.69,8.46,6.66,0,10.08-4.5l9.36,5.4q-6.66,9.63-19.62,9.63-11.16,0-17.91-6.75a23.06,23.06,0,0,1-6.75-17,23.31,23.31,0,0,1,6.66-16.92q6.57-6.84,17.1-6.84,10,0,16.29,6.84A23.66,23.66,0,0,1,694,485.1,32,32,0,0,1,693.54,489.87Zm-34.11-9h23a10.93,10.93,0,0,0-11.16-9.09,12.22,12.22,0,0,0-7.74,2.39A11.36,11.36,0,0,0,659.43,480.87Z"/><path class="cls-18" d="M736.38,486H702.63V474.84h33.75Z"/></g><g class="cls-60"><path class="cls-18" d="M758.24,475.38q0,2.88,8.19,4.95a42.1,42.1,0,0,1,5.22,1.48,23.88,23.88,0,0,1,4.73,2.43,11,11,0,0,1,3.73,4.19,12.94,12.94,0,0,1,1.35,6,12.44,12.44,0,0,1-5.22,10.71,21.73,21.73,0,0,1-12.87,3.69q-13.86,0-18.9-10.71l10.08-5.67q2.07,5.85,8.82,5.85,6.21,0,6.21-3.87,0-2.88-8.19-4.95-3.06-.81-5.22-1.62a26.63,26.63,0,0,1-4.68-2.39,10.41,10.41,0,0,1-3.82-4,12.32,12.32,0,0,1-1.31-5.81,12.49,12.49,0,0,1,4.86-10.44,19.27,19.27,0,0,1,12.24-3.87,20.49,20.49,0,0,1,10,2.47,18.17,18.17,0,0,1,7.11,7.07l-9.9,5.4a7.4,7.4,0,0,0-7.2-4.59,6.43,6.43,0,0,0-3.73,1A3.15,3.15,0,0,0,758.24,475.38Z"/></g><g class="cls-60"><path class="cls-18" d="M813.32,462.6v11.16H803.15v18.72a4.45,4.45,0,0,0,1.17,3.42,5.37,5.37,0,0,0,3.42,1.21,47.9,47.9,0,0,0,5.58,0V507.6q-11.79,1.35-16.78-2.21t-5-12.91V473.76h-7.83V462.6h7.83v-9.09L803.15,450v12.6Z"/></g><g class="cls-60"><path class="cls-18" d="M858.5,502a24,24,0,1,1,6.93-16.92A23,23,0,0,1,858.5,502Zm-25.65-8a12.61,12.61,0,0,0,17.46,0,13.06,13.06,0,0,0,0-17.82,12.61,12.61,0,0,0-17.46,0,13.32,13.32,0,0,0,0,17.82Z"/><path class="cls-18" d="M899.81,461.34a20.29,20.29,0,0,1,15.48,6.93,25.21,25.21,0,0,1,0,33.75,20.23,20.23,0,0,1-15.48,6.84q-9.45,0-14.58-6.57V525.6H873.62v-63h11.61v5.31Q890.36,461.34,899.81,461.34Zm-11.07,32.94a13.06,13.06,0,0,0,17.82,0,12.43,12.43,0,0,0,3.6-9.18,12.13,12.13,0,0,0-3.6-9.09,12.83,12.83,0,0,0-17.82,0,12.3,12.3,0,0,0-3.51,9.09A12.61,12.61,0,0,0,888.74,494.28Z"/><path class="cls-18" d="M978.65,461.34a20.29,20.29,0,0,1,15.48,6.93,25.21,25.21,0,0,1,0,33.75,20.23,20.23,0,0,1-15.48,6.84q-9.45,0-14.58-6.57V525.6H952.46v-63h11.61v5.31Q969.2,461.34,978.65,461.34Zm-11.07,32.94a13.06,13.06,0,0,0,17.82,0,12.43,12.43,0,0,0,3.6-9.18,12.13,12.13,0,0,0-3.6-9.09,12.83,12.83,0,0,0-17.82,0,12.3,12.3,0,0,0-3.51,9.09A12.61,12.61,0,0,0,967.58,494.28Z"/><path class="cls-18" d="M1020.41,507.6H1008.8V441.9h11.61Z"/><path class="cls-18" d="M1065.23,467.91V462.6h11.61v45h-11.61v-5.31q-5.22,6.57-14.67,6.57a20.59,20.59,0,0,1-15.48-6.84,25.48,25.48,0,0,1,0-33.75,20.47,20.47,0,0,1,15.48-6.93Q1060,461.34,1065.23,467.91Zm-21.42,26.37a13.06,13.06,0,0,0,17.82,0,12.43,12.43,0,0,0,3.6-9.18,12.13,12.13,0,0,0-3.6-9.09,12.83,12.83,0,0,0-17.82,0,12.3,12.3,0,0,0-3.51,9.09A12.61,12.61,0,0,0,1043.81,494.28Z"/></g><g class="cls-60"><path class="cls-18" d="M1113.11,462.6v11.16h-10.17v18.72a4.45,4.45,0,0,0,1.17,3.42,5.37,5.37,0,0,0,3.42,1.21,47.9,47.9,0,0,0,5.58,0V507.6q-11.79,1.35-16.78-2.21t-5-12.91V473.76h-7.83V462.6h7.83v-9.09l11.61-3.51v12.6Z"/></g><g class="cls-60"><path class="cls-18" d="M1143.35,443.34V454.5q-9.54-.63-9.54,7.65v.45h9.54v11.16h-9.54V507.6H1122.2V473.76h-6.48V462.6h6.48v-.45q0-9.63,5.36-14.54T1143.35,443.34Z"/></g><g class="cls-60"><path class="cls-18" d="M1185.29,502a24,24,0,1,1,6.93-16.92A23,23,0,0,1,1185.29,502Zm-25.65-8a12.61,12.61,0,0,0,17.46,0,13.06,13.06,0,0,0,0-17.82,12.61,12.61,0,0,0-17.46,0,13.32,13.32,0,0,0,0,17.82Z"/><path class="cls-18" d="M1212,462.6v7.74a12,12,0,0,1,5.22-6.44,16.26,16.26,0,0,1,8.46-2.2v13a13.22,13.22,0,0,0-9.54,2.16q-4.14,2.79-4.14,9.27V507.6h-11.61v-45Z"/><path class="cls-18" d="M1282.22,461.34q7.74,0,12.38,5t4.63,13.5V507.6h-11.61V480.69a9.22,9.22,0,0,0-2-6.3,7,7,0,0,0-5.58-2.25,7.62,7.62,0,0,0-6.16,2.61c-1.48,1.74-2.21,4.26-2.21,7.56V507.6h-11.61V480.69a9.22,9.22,0,0,0-2-6.3,7,7,0,0,0-5.58-2.25,7.75,7.75,0,0,0-6.16,2.65c-1.53,1.78-2.3,4.28-2.3,7.52V507.6h-11.61v-45h11.61v4.77q4.05-6,12.51-6t12.24,6.48Q1273.22,461.34,1282.22,461.34Z"/></g><g class="cls-60"><path class="cls-18" d="M29.52,551.34V562.5Q20,561.87,20,570.15v.45h9.54v11.16H20V615.6H8.37V581.76H1.89V570.6H8.37v-.45q0-9.63,5.36-14.54T29.52,551.34Z"/></g><g class="cls-60"><path class="cls-18" d="M71.46,610a23,23,0,0,1-16.92,6.84,23.76,23.76,0,1,1,0-47.52A23.86,23.86,0,0,1,71.46,610Zm-25.65-8a11.85,11.85,0,0,0,8.73,3.51A11.85,11.85,0,0,0,63.27,602a13.06,13.06,0,0,0,0-17.82,11.85,11.85,0,0,0-8.73-3.51,11.85,11.85,0,0,0-8.73,3.51,13.32,13.32,0,0,0,0,17.82Z"/><path class="cls-18" d="M98.19,570.6v7.74a12,12,0,0,1,5.22-6.44,16.26,16.26,0,0,1,8.46-2.2v13a13.22,13.22,0,0,0-9.54,2.16q-4.14,2.79-4.14,9.27V615.6H86.58v-45Z"/><path class="cls-18" d="M175.32,575.91V570.6h11.61v45H175.32v-5.31q-5.22,6.57-14.67,6.57A20.59,20.59,0,0,1,145.17,610a25.48,25.48,0,0,1,0-33.75,20.47,20.47,0,0,1,15.48-6.93Q170.1,569.34,175.32,575.91ZM153.9,602.28a13.06,13.06,0,0,0,17.82,0,12.43,12.43,0,0,0,3.6-9.18,12.13,12.13,0,0,0-3.6-9.09,12.83,12.83,0,0,0-17.82,0,12.3,12.3,0,0,0-3.51,9.09A12.61,12.61,0,0,0,153.9,602.28Z"/><path class="cls-18" d="M209.07,615.6H197.46V549.9h11.61Z"/><path class="cls-18" d="M231.3,615.6H219.69V549.9H231.3Z"/></g><g class="cls-60"><path class="cls-18" d="M290.16,570.6v11.16H280v18.72a4.45,4.45,0,0,0,1.17,3.42,5.37,5.37,0,0,0,3.42,1.21,47.9,47.9,0,0,0,5.58,0V615.6q-11.79,1.35-16.78-2.21t-5-12.91V581.76h-7.83V570.6h7.83v-9.09L280,558v12.6Z"/></g><g class="cls-60"><path class="cls-18" d="M323.37,569.34a16,16,0,0,1,12.15,4.95q4.86,5,4.86,13.68V615.6H328.77V589.41a9.35,9.35,0,0,0-2.38-6.84,8.74,8.74,0,0,0-6.53-2.43,9.43,9.43,0,0,0-7.24,2.83Q310,585.81,310,591.3v24.3H298.35v-63H310v23Q314.1,569.34,323.37,569.34Z"/><path class="cls-18" d="M356,565.2a7.24,7.24,0,0,1-7.11-7.11,7,7,0,0,1,2.12-5,6.75,6.75,0,0,1,5-2.16,6.87,6.87,0,0,1,5.09,2.16,7,7,0,0,1,2.11,5,6.8,6.8,0,0,1-2.11,5A6.91,6.91,0,0,1,356,565.2Zm5.85,50.4H350.28v-45h11.61Z"/><path class="cls-18" d="M397.53,569.34a16,16,0,0,1,12.15,4.95q4.86,5,4.86,13.68V615.6H402.93V589.41a9.35,9.35,0,0,0-2.38-6.84,8.74,8.74,0,0,0-6.53-2.43,9.43,9.43,0,0,0-7.24,2.83q-2.65,2.84-2.66,8.33v24.3H372.51v-45h11.61v5Q388.26,569.34,397.53,569.34Z"/></g><g class="cls-60"><path class="cls-18" d="M458.9,576.18V570.6h11.34v42.84q0,10.35-6.93,15.93a25.62,25.62,0,0,1-16.56,5.49q-15.3,0-21.33-11l9.9-5.67q3.33,6.3,11.79,6.3,5.49,0,8.64-2.88t3.15-8.19v-4.86q-5.13,6.84-14.4,6.84a21.46,21.46,0,0,1-16-6.66,23.16,23.16,0,0,1-6.39-16.38,22.67,22.67,0,0,1,6.48-16.29,21.22,21.22,0,0,1,15.93-6.75Q453.77,569.34,458.9,576.18Zm-3.55,25.06a11.81,11.81,0,0,0,3.55-8.86,11.34,11.34,0,0,0-3.6-8.73,12.18,12.18,0,0,0-9-3.51,12.69,12.69,0,0,0-9.09,3.51,11.48,11.48,0,0,0-3.51,8.73,11.82,11.82,0,0,0,3.56,8.86,13.52,13.52,0,0,0,18.09,0Z"/></g><g class="cls-60"><path class="cls-18" d="M491.12,583.38q0,2.88,8.19,5a42.1,42.1,0,0,1,5.22,1.48,23.88,23.88,0,0,1,4.73,2.43,11,11,0,0,1,3.73,4.19,12.94,12.94,0,0,1,1.35,6,12.44,12.44,0,0,1-5.22,10.71,21.73,21.73,0,0,1-12.87,3.69q-13.86,0-18.9-10.71l10.08-5.67q2.07,5.85,8.82,5.85,6.21,0,6.21-3.87,0-2.88-8.19-5-3.06-.81-5.22-1.62a26.63,26.63,0,0,1-4.68-2.39,10.41,10.41,0,0,1-3.82-4,12.32,12.32,0,0,1-1.31-5.81,12.49,12.49,0,0,1,4.86-10.44,19.27,19.27,0,0,1,12.24-3.87,20.49,20.49,0,0,1,10,2.47,18.17,18.17,0,0,1,7.11,7.07l-9.9,5.4a7.4,7.4,0,0,0-7.2-4.59,6.43,6.43,0,0,0-3.73,1A3.15,3.15,0,0,0,491.12,583.38Z"/></g><g class="cls-60"><path class="cls-18" d="M563.39,602.1l11-31.5h12.78l-17.1,45H556.82l-17.1-45H552.5Z"/></g><g class="cls-60"><path class="cls-18" d="M629.27,610a24,24,0,1,1,6.93-16.92A23,23,0,0,1,629.27,610Zm-25.65-8a12.61,12.61,0,0,0,17.46,0,13.06,13.06,0,0,0,0-17.82,12.61,12.61,0,0,0-17.46,0,13.32,13.32,0,0,0,0,17.82Z"/><path class="cls-18" d="M656,615.6H644.39V549.9H656Z"/><path class="cls-18" d="M696.32,594.9V570.6h11.61v45H696.32v-5q-4.14,6.3-13.41,6.3a16.44,16.44,0,0,1-12.24-5q-4.77-5-4.77-13.68V570.6h11.61v26.19a9.35,9.35,0,0,0,2.39,6.84,8.7,8.7,0,0,0,6.52,2.43,9.46,9.46,0,0,0,7.25-2.84Q696.33,600.39,696.32,594.9Z"/><path class="cls-18" d="M743.57,569.34a16,16,0,0,1,12.15,4.95q4.86,5,4.86,13.68V615.6H749V589.41a9.39,9.39,0,0,0-2.38-6.84,8.74,8.74,0,0,0-6.53-2.43,9.42,9.42,0,0,0-7.24,2.83q-2.66,2.84-2.66,8.33v24.3H718.55v-45h11.61v5Q734.3,569.34,743.57,569.34Z"/></g><g class="cls-60"><path class="cls-18" d="M796.22,570.6v11.16H786.05v18.72a4.45,4.45,0,0,0,1.17,3.42,5.37,5.37,0,0,0,3.42,1.21,47.9,47.9,0,0,0,5.58,0V615.6q-11.79,1.35-16.78-2.21t-5-12.91V581.76h-7.83V570.6h7.83v-9.09L786.05,558v12.6Z"/></g><g class="cls-60"><path class="cls-18" d="M846.8,597.87H812.87q2.25,8.46,12.69,8.46,6.66,0,10.08-4.5l9.36,5.4q-6.66,9.63-19.62,9.63-11.16,0-17.91-6.75a23.06,23.06,0,0,1-6.75-17,23.31,23.31,0,0,1,6.66-16.92q6.57-6.84,17.1-6.84,10,0,16.29,6.84a23.66,23.66,0,0,1,6.48,16.92A32,32,0,0,1,846.8,597.87Zm-34.11-9h22.95a10.91,10.91,0,0,0-11.16-9.09,12.22,12.22,0,0,0-7.74,2.39A11.36,11.36,0,0,0,812.69,588.87Z"/></g><g class="cls-60"><path class="cls-18" d="M898.73,597.87H864.8q2.25,8.46,12.69,8.46,6.66,0,10.08-4.5l9.36,5.4q-6.66,9.63-19.62,9.63-11.16,0-17.91-6.75a23.06,23.06,0,0,1-6.75-17,23.31,23.31,0,0,1,6.66-16.92q6.57-6.84,17.1-6.84,10,0,16.29,6.84a23.66,23.66,0,0,1,6.48,16.92A32,32,0,0,1,898.73,597.87Zm-34.11-9h23a10.91,10.91,0,0,0-11.16-9.09,12.22,12.22,0,0,0-7.74,2.39A11.36,11.36,0,0,0,864.62,588.87Z"/><path class="cls-18" d="M918.89,570.6v7.74a12,12,0,0,1,5.22-6.44,16.26,16.26,0,0,1,8.46-2.2v13a13.22,13.22,0,0,0-9.54,2.16q-4.14,2.79-4.14,9.27V615.6H907.28v-45Z"/></g><g class="cls-60"><path class="cls-18" d="M945.08,565.2a7.24,7.24,0,0,1-7.11-7.11,7,7,0,0,1,2.12-5,6.75,6.75,0,0,1,5-2.16,6.87,6.87,0,0,1,5.09,2.16,7,7,0,0,1,2.11,5,6.8,6.8,0,0,1-2.11,5A6.91,6.91,0,0,1,945.08,565.2Zm5.85,50.4H939.32v-45h11.61Z"/></g><g class="cls-60"><path class="cls-18" d="M971.9,583.38q0,2.88,8.19,5a42.1,42.1,0,0,1,5.22,1.48,23.88,23.88,0,0,1,4.73,2.43,11,11,0,0,1,3.73,4.19,12.94,12.94,0,0,1,1.35,6,12.44,12.44,0,0,1-5.22,10.71A21.73,21.73,0,0,1,977,616.86q-13.86,0-18.9-10.71l10.08-5.67q2.07,5.85,8.82,5.85,6.21,0,6.21-3.87,0-2.88-8.19-5-3.06-.81-5.22-1.62a26.63,26.63,0,0,1-4.68-2.39,10.41,10.41,0,0,1-3.82-4,12.32,12.32,0,0,1-1.31-5.81,12.49,12.49,0,0,1,4.86-10.44,19.27,19.27,0,0,1,12.24-3.87,20.49,20.49,0,0,1,10,2.47,18.17,18.17,0,0,1,7.11,7.07l-9.9,5.4a7.4,7.4,0,0,0-7.2-4.59,6.43,6.43,0,0,0-3.73,1A3.15,3.15,0,0,0,971.9,583.38Z"/><path class="cls-18" d="M1052.81,569.34q7.74,0,12.38,5t4.63,13.5V615.6h-11.61V588.69a9.22,9.22,0,0,0-2-6.3,7,7,0,0,0-5.58-2.25,7.62,7.62,0,0,0-6.16,2.61q-2.21,2.61-2.21,7.56V615.6h-11.61V588.69a9.22,9.22,0,0,0-2-6.3,7,7,0,0,0-5.58-2.25,7.75,7.75,0,0,0-6.16,2.65c-1.53,1.78-2.3,4.28-2.3,7.52V615.6H1003v-45h11.61v4.77q4.05-6,12.51-6t12.24,6.48Q1043.81,569.34,1052.81,569.34Z"/><path class="cls-18" d="M1094.12,609.12a7.68,7.68,0,1,1-2.25-5.4A7.36,7.36,0,0,1,1094.12,609.12Z"/></g></g></g></svg>