<svg xmlns="http://www.w3.org/2000/svg" viewBox="0 0 2620.15 1957.93"><defs><style>.cls-1{fill:#ffe4e6;}.cls-2{fill:#fecdd3;}.cls-3{fill:#dfebfd;}.cls-24,.cls-3,.cls-48{opacity:0.5;}.cls-4{fill:#699ff0;}.cls-5{fill:#4888e5;}.cls-6{fill:#a8d29f;}.cls-7{fill:#7db2ff;}.cls-8{fill:#3b7fd1;}.cls-9{fill:#82b378;}.cls-10{fill:#ffb27d;}.cls-11{fill:#35488b;}.cls-12{fill:#2c3a64;}.cls-13{fill:#f43f5e;}.cls-14,.cls-73{fill:#374151;}.cls-15{fill:#ed985f;}.cls-16,.cls-58{fill:#e11d48;}.cls-17{fill:#c94c43;}.cls-18{fill:#b23b38;}.cls-19{fill:#fff;}.cls-20{fill:#ed975d;}.cls-21{fill:#4a75cb;}.cls-22{fill:#e58638;}.cls-23{fill:#739af0;}.cls-25{fill:#2b478b;}.cls-26{fill:#f4a671;}.cls-27{fill:#233862;}.cls-28{fill:#efcdaf;}.cls-29{fill:#e2b99a;}.cls-30{fill:#fff3e9;}.cls-31{fill:#afcdfb;}.cls-32{fill:#e57970;}.cls-33{fill:#d3671e;}.cls-34{fill:#f99746;}.cls-35{fill:#d86713;opacity:0.4;}.cls-36{fill:#f1a34f;}.cls-37{fill:#c95c12;}.cls-38{fill:#caddff;}.cls-39{fill:#f9ddbf;}.cls-40{fill:#e5c1a1;}.cls-41{fill:#b64c41;}.cls-42{fill:#963333;}.cls-43{fill:#b7d2f9;}.cls-44{fill:#ed7d2b;}.cls-45{fill:#739cf3;}.cls-46{fill:#415da5;}.cls-47{fill:#ffa412;}.cls-48,.cls-49,.cls-50{fill:#ebf3fa;}.cls-49,.cls-54{opacity:0.3;}.cls-51{fill:#dc8d39;}.cls-52{fill:#ecf2fd;}.cls-53{fill:#e5eaf5;}.cls-54{fill:#ced4ea;}.cls-55{fill:#aac9f5;}.cls-56{fill:#c3d9fa;}.cls-57{fill:#9dc1ed;}.cls-58{font-size:120px;font-family:Gilroy-Bold, Gilroy;font-weight:700;}.cls-59{letter-spacing:0em;}.cls-60{letter-spacing:-0.01em;}.cls-61{letter-spacing:-0.02em;}.cls-62{letter-spacing:-0.02em;}.cls-63{letter-spacing:0em;}.cls-64{letter-spacing:0em;}.cls-65{letter-spacing:0.01em;}.cls-66{letter-spacing:-0.01em;}.cls-67{letter-spacing:-0.02em;}.cls-68{letter-spacing:-0.01em;}.cls-69{letter-spacing:-0.01em;}.cls-70{letter-spacing:0em;}.cls-71{letter-spacing:-0.09em;}.cls-72{letter-spacing:-0.02em;}.cls-73{font-size:90px;}.cls-74{letter-spacing:-0.02em;}.cls-75{letter-spacing:0em;}.cls-76{letter-spacing:-0.02em;}.cls-77{letter-spacing:-0.03em;}.cls-78{letter-spacing:-0.02em;}.cls-79{letter-spacing:-0.01em;}.cls-80{letter-spacing:0em;}</style></defs><g id="Layer_2" data-name="Layer 2"><g id="Слой_1" data-name="Слой 1"><path class="cls-1" d="M142.48,1954.61s-268.85-429.2-67.94-854.23c189.07-400,504.37-188.17,857-505.87,535.31-482.32,1597.36-208,1377.84,457.94-113.77,345.17,464.26,551.94,270.85,902.91Z"/><rect class="cls-2" x="1698.25" y="1339.13" width="324.63" height="38.69" rx="7.46"/><path class="cls-2" d="M1776.92,1377.82l-3.86,22.64-55.82,327.72a2.77,2.77,0,0,1-2.92,2c-2.87,0-5.1-1.91-4.8-4.09l44.28-335.6,1.67-12.68Z"/><path class="cls-2" d="M1776.92,1377.82l-3.86,22.64c-2.65-9-19.26-10-19.26-10l1.67-12.68Z"/><path class="cls-2" d="M2006.8,1956.2c-1.5,0-2.76-1.42-2.92-3.3L1948.06,1415l-2.41-23.18-1.45-14h21.45l1.67,20.81,1.31,16.33,43,534.53C2011.9,1953.08,2009.67,1956.2,2006.8,1956.2Z"/><path class="cls-2" d="M1968.63,1415c-5.45-17.71-23-23.15-23-23.15h0l-1.45-14h21.45l1.67,20.81Z"/><path class="cls-3" d="M1733.08,1179.22s108.72-160.92,249.23-218c18.68-7.59,36.57,12.57,27,30.29l-.49.9C1991.91,1022.39,1827.14,1100.77,1733.08,1179.22Z"/><path class="cls-3" d="M1697.14,1222.81S1895,1053.57,2093.3,1035.75c12.09-1.09,23.36,7.36,24.9,19.41,1,7.84-1.87,17.82-13.62,29.65C2073.27,1116.37,1841.19,1157.42,1697.14,1222.81Z"/><path class="cls-2" d="M1026.71,949.45s-76.75-89.78-87.5-181.4c-1.42-12.17,13.29-19.4,22.13-10.91l.44.44C976.64,772.33,995.94,881.61,1026.71,949.45Z"/><path class="cls-2" d="M1046.46,977.57S979.24,834.2,1000.88,715a13.91,13.91,0,0,1,15.41-11.45c4.76.68,10.14,4,15.18,12.78C1044.91,739.83,1031.42,882.54,1046.46,977.57Z"/><path class="cls-2" d="M1373.75,597.21c-33.91-36.78-99.2,14.25-99.2,14.25s-10,100.5-23.36,109.72-8.21-87.6-8.21-87.6c-29,11.74-81.86,82.36-81.86,82.36s50,85.09,34.81,90.75-40.44-77.61-40.44-77.61c-22.58,22-31.29,66.21-31.29,66.21-4.73,67.11,81.7,69.72,81.7,69.72s16.7,29.87,16.09,74.42h0a116.45,116.45,0,0,0,.51,21.78l7.29-3.8c-.42-2.27-.75-4.5-1-6.69v0a.31.31,0,0,0,0-.1c-.09-1.39-.2-3.37-.33-5.79h0s0,0,0,0c0-5.52-.21-9.53-.47-12.35a0,0,0,0,1,0,0c-.46-17.18-.13-40,4.33-47.12a16,16,0,0,1-3.3-2.54l3.3,2.54c26.44,20.25,91.21-7.83,122.28-33.09s10.79-27.18-16.24-33.34-64.1,18.48-78.95,18.28-1.15-15.28,23-25.58,47.81,6.85,87.14-9.1,31.15-101.3,31.15-101.3c-21.69,21.51-75.51,31.4-82,23.41s62.73-42.89,72-51.14S1407.66,634,1373.75,597.21Z"/><path class="cls-2" d="M1754.54,647.14c-50.14-54.38-146.68,21.07-146.68,21.07S1593,816.82,1573.31,830.45s-12.14-129.52-12.14-129.52c-43,17.35-121,121.77-121,121.77s73.95,125.83,51.47,134.19-59.8-114.76-59.8-114.76c-33.38,32.49-46.26,97.9-46.26,97.9-7,99.25,120.8,103.1,120.8,103.1s24.69,44.17,23.79,110h0s-1.3,12.75.76,32.21l10.79-5.62c-.63-3.36-1.12-6.66-1.44-9.9a.06.06,0,0,1,0-.06s0-.1,0-.14c-.13-2.06-.3-5-.48-8.56h0s0,0,0,0c-.07-8.17-.32-14.1-.71-18.27,0,0,0,0,0,0-.67-25.4-.2-59.21,6.41-69.69a23.31,23.31,0,0,1-4.89-3.74l4.89,3.74c39.09,30,134.86-11.56,180.81-48.92s16-40.18-24-49.3-94.78,27.33-116.74,27-1.71-22.6,34-37.83,70.69,10.13,128.84-13.46,46.07-149.79,46.07-149.79c-32.07,31.8-111.66,46.44-121.17,34.62s92.75-63.42,106.51-75.62S1804.68,701.52,1754.54,647.14Z"/><path class="cls-2" d="M338.87,1041.18c-.08-82.78,136.59-94.06,136.59-94.06s125,110.91,151.62,107.14-88.39-115.71-88.39-115.71c48.49-18.36,192,8.18,192,8.18s34.78,159.62,59.6,149.41-38-139.75-38-139.75c52.12,1.35,112.39,45.35,112.39,45.35,81.12,76.28-21,176.5-21,176.5s13.24,55.06,64,108.54h0s10.76,9.49,23.85,27l-13.14,3.57q-3-4.85-6.34-9.23a.1.1,0,0,0,0-.05l-.1-.12c-1.45-1.79-3.53-4.33-6.1-7.41h0c-6.15-6.77-10.44-11.84-13.3-15.56a.05.05,0,0,1,0,0c-18.74-21.39-44.8-48.82-58.19-52.42a26.18,26.18,0,0,0,1.17-6.79q-.56,3.24-1.17,6.79c-9.39,54.31-119.65,92.91-185.8,97.09s-43.64-20.91-17.7-58.76,98.68-49.51,116.5-66.43-15.75-19.87-56.64-5.3-50.42,62-116.15,86.78-151.63-88.16-151.63-88.16c50.52,1.79,127.06-46.62,125.91-63.56s-124.41,18.3-145,18.72S339,1124,338.87,1041.18Z"/><path class="cls-4" d="M1842.24,1388a565.54,565.54,0,0,1-9.11,101.39c-47.74,262.44-277.47,461.43-553.69,461.43-229.74,0-427.31-137.64-514.77-335A555.35,555.35,0,0,1,736,1534.91a562.92,562.92,0,0,1,543.44-709.74q21.46,0,42.54,1.6A562.62,562.62,0,0,1,1842.24,1388Z"/><path class="cls-5" d="M1842.24,1388a565.43,565.43,0,0,1-9.11,101.38,557.7,557.7,0,0,1-27.46,98.57c-80.62,212.12-285.81,362.86-526.23,362.86a560.32,560.32,0,0,1-265.05-66.19q-10.9-5.83-21.53-12.13a564.94,564.94,0,0,1-228.2-256.63A558,558,0,0,1,736,1534.92c63.58,15.2,164,31.46,284.25,23.8,20.89-1.31,42.38-3.36,64.4-6.27a937.48,937.48,0,0,0,247.7-68c204.81-87.82,342.6-263.67,422.78-397.39A560.18,560.18,0,0,1,1842.24,1388Z"/><path class="cls-6" d="M1842.25,1388a565.54,565.54,0,0,1-9.12,101.39c-22.91-3.32-52.74-6.56-71.15-4.39-33.18,3.9-66.36,72.21-134.67,74.89s-152.22-49.52-242-14.39-136.61-2-152.22-27.33,39-83.92,34.08-109.29,6.9-111.24,83-111.24,107.63-41.6,121-56.6c38.34-43,68.31-3.9,99.54-37.08s-23.42-91.72,0-130.76,138.57-48.51,138.57-48.51A560.54,560.54,0,0,1,1842.25,1388Z"/><path class="cls-6" d="M1012.55,1292.33c-27.32,38.48,9.76,118.5-13.66,159.48S930.58,1485,897.41,1504.5c-28.81,16.94-40.35,86.84-132.74,111.36a565.63,565.63,0,0,1-35-348.94c18.86-19,44.69-36.13,79.91-45.4,111.25-29.28,114-111.15,158.91-112.72C1077.82,1105,1039.88,1253.85,1012.55,1292.33Z"/><path class="cls-6" d="M1432.15,1080s-68.31-13.66-105.39,9.76-112.21,65.38-102.46,89.78,81,42.93,110.27,42,9.35-58.85,151.25-42C1521.79,1183.84,1522.31,1104.79,1432.15,1080Z"/><path class="cls-7" d="M1380.48,834.22c-34.61,60.58-98,137.3-204.91,165-129,33.44-238.83,9.28-294.42-8.88a562.08,562.08,0,0,1,398.29-165.19q21.46,0,42.54,1.6A565.55,565.55,0,0,1,1380.48,834.22Z"/><path class="cls-8" d="M1805.67,1588c-80.62,212.12-285.81,362.86-526.23,362.86a560.32,560.32,0,0,1-265.05-66.19q-10.9-5.83-21.53-12.13C1138.13,1861.89,1500.62,1812.26,1805.67,1588Z"/><path class="cls-6" d="M1107.11,1749.71c-29.86,21.78-37,88.71-56.08,98-9.59,4.65-24.33,21.41-36.64,36.93a565.19,565.19,0,0,1-194.73-172c33.79-23.44,97.14-63.05,141.08-64.13,0,0,22-.26,38.25-44.87,6.41-17.59,13.29-33.19,21.25-44.93,12.26-18.06,27.06-27,46.71-20a34,34,0,0,1,17.69,13.68c11.37,16.93,12.08,43.81,44.09,69.73C1172,1657.19,1137,1727.93,1107.11,1749.71Z"/><path class="cls-6" d="M1534.29,993.46s-5.88-105.78-136-124.18C1398.29,869.28,1393.49,993.46,1534.29,993.46Z"/><path class="cls-6" d="M1528.41,992.73S1632.75,1012.45,1675,888C1675,888,1554.55,854.38,1528.41,992.73Z"/><path class="cls-6" d="M1529.85,948.61s46.3-37.49,8.39-100.72C1538.24,847.89,1480.15,887.21,1529.85,948.61Z"/><path class="cls-6" d="M1528.41,992.73s-15.64,67.86-12.92,91.77h12.92s-5-63.16,7.27-95Z"/><path class="cls-9" d="M1672.48,1159.13s-2.78-50.05-64.35-58.75C1608.13,1100.38,1605.86,1159.13,1672.48,1159.13Z"/><path class="cls-9" d="M1669.7,1158.79s49.38,9.33,69.36-49.55C1739.06,1109.24,1682.07,1093.32,1669.7,1158.79Z"/><path class="cls-9" d="M1670.38,1137.91s21.91-17.74,4-47.66C1674.35,1090.25,1646.87,1108.86,1670.38,1137.91Z"/><path class="cls-9" d="M1669.7,1158.79s-7.4,32.11-6.11,43.42h6.11s-2.36-29.88,3.44-45Z"/><path class="cls-6" d="M1458.14,1039.28s-1.74-31.43-40.4-36.9C1417.74,1002.38,1416.31,1039.28,1458.14,1039.28Z"/><path class="cls-6" d="M1456.4,1039.06s31,5.86,43.55-31.12C1500,1007.94,1464.17,998,1456.4,1039.06Z"/><path class="cls-6" d="M1456.83,1026s13.75-11.14,2.49-29.92C1459.32,996,1442.06,1007.71,1456.83,1026Z"/><path class="cls-6" d="M1456.4,1039.06s-4.65,20.16-3.84,27.27h3.84s-1.48-18.77,2.16-28.24Z"/><path class="cls-10" d="M1765.29,966.9s-10-1.95-12.31,0-13.15,13-10.83,16.62,13.48-3,15.8-3.62,8.81-3.16,8.81-3.16Z"/><path class="cls-11" d="M1871.75,1321.1l10.74,4s46.64-64.7,52.39-121.62a86.56,86.56,0,0,0-1.54-29.1s.46-2.6,1.26-7.21c.37-2.14.82-4.73,1.34-7.69,1.52-8.69,3.6-20.58,6-34.12,5.49-31.15,12.6-71,18.12-100.25l-2.89-.93-31.31-10.1-6.47-20.55-23.32-6.14s-5.21,10.19-9.86,58.31c-.86,6.32-1.64,13.28-2.23,20.83a412.78,412.78,0,0,0,2.22,84.3c1.07,8.37,2.42,17,4.1,25.87,1.22,6.51,1.41,15.38.89,25.55C1888.83,1248.79,1871.75,1321.1,1871.75,1321.1Z"/><path class="cls-12" d="M1884,1066.53l50.63,100.64c.37-2.14.82-4.73,1.34-7.69,1.52-8.69,3.6-20.58,6-34.12,5.49-31.15,12.6-71,18.12-100.25l-2.89-.93-31.31-10.1-6.47-20.55-23.32-6.14s-5.21,10.19-9.86,58.31C1885.34,1052,1884.56,1059,1884,1066.53Z"/><path class="cls-11" d="M1906.24,1000.3l1.18-10c19.63,5.22,72.09-14.57,72.09-14.57s19,16.72,16.52,56.8c-1.21,19.56-3.44,102.69-5.77,127.29-.84,8.91-1.57,15.26-1.87,17.79a0,0,0,0,0,0,0,3.52,3.52,0,0,0,.57,2.17,115.86,115.86,0,0,1,8.58,18.06c22.83,60.82-3.51,135.73-3.51,135.73l-6.84-2.76s-15-83.36-27.17-120.19c-2.06-6.24-4-11.15-5.86-14.09-5.3-8.54-10.21-22.51-14.67-39.12-8.43-31.4-15.22-72.25-19.73-103.78C1919.12,1053.64,1906.24,1000.3,1906.24,1000.3Z"/><path class="cls-10" d="M1765.29,966.9l1.47,9.84s.65,0,1.78-.08c3.58-.25,12.28-.73,22.11-1.79,14.79-1.46,32.35-4.07,39.34-8.37,10.64-6.5,28.12-26.42,39.49-46.33a12.53,12.53,0,0,0,.82-1.46c5.93-10.57,10.08-21.05,10.4-29.42a42,42,0,0,0-1.38-13.33,33.94,33.94,0,0,0-6-12,6.11,6.11,0,0,0-1.13-1.38,28.06,28.06,0,0,0-7.72-6.58c-2-.82-4.07.16-6.26,2.52v.08a37.16,37.16,0,0,0-5.61,8.29c-.08.08-.16.16-.16.24-.41.73-.82,1.55-1.3,2.44a1.87,1.87,0,0,0-.33.57c-.89,1.87-1.79,3.82-2.68,5.85-10,21.78-20.64,54.78-29.5,64.61-3.82,4.23-21.3,12.52-35.19,18.69C1773.42,963.65,1765.29,966.9,1765.29,966.9Z"/><path class="cls-10" d="M1868.73,878.4a61.12,61.12,0,0,0,22.62,5.3c33.75,1.85,41.41-27.74,42.81-47.38a28.41,28.41,0,0,0-11.58-1.47c-2.4.14-4.9.38-7,.64-4.13-2.16-11.54-12.64-15.83-30.17l-1.46.68L1874,817.45s2.58,7.93,4.49,15.51c1.49,5.94,2.57,11.67,1.67,13.27-1.92.79-3.07,1.28-3.07,1.28v0A168.13,168.13,0,0,0,1868.73,878.4Z"/><path class="cls-13" d="M1860.29,900.55c.25.68.54,1.33.84,2,8.55,18.41,24.38,94.68,24.38,94.68-2.26,13.72,103-2.69,103.33-15.17,3.7-13.24-13.17-34.51-22.68-45.18a30.87,30.87,0,0,1-3.19-4.3,29.9,29.9,0,0,1-4.31-12.59c-1.87-17.7-1.16-34.29-1.32-44.37h0c-1.86-1.38-3.66-2.65-5.33-3.86a48.13,48.13,0,0,1-6.49-5.39,9.82,9.82,0,0,1-3.11-6.13,32.69,32.69,0,0,1,.13-5.13c.08-.82.19-1.63.31-2.45a69.3,69.3,0,0,1,4.89-16.33c-9.06-3.67-25.16-1.49-25.16-1.49s0,.9,0,2.36c.06,5.89,0,21-1.88,23.85-2.36,3.56-45.51,19.16-47.79,14.33s3.91-27,4.13-27.86v0c-14.45,5.67-19.61,10.43-19.61,10.43C1866.17,863.59,1853.56,882.69,1860.29,900.55Z"/><path class="cls-14" d="M1889.35,741.45c.06-1.46,1.19-17.23,25.21-18.05,0,0-11.81,1.4-13.85,6.6,0,0,8-6.42,14.59-4.36s10.4,13.54,10.44,17.32-3.61,15.94-7.76,17a12.58,12.58,0,0,1-5,0,56.61,56.61,0,0,1,3.23,5.76c9.58,19.68-.3,38.9-8.42,36.78-5.2-1.36-6.67,7.52-6.67,7.52l-50.56-40.93S1869.09,730.64,1889.35,741.45Z"/><path class="cls-15" d="M1874,817.46s2.59,7.91,4.49,15.51c14.24-4,18.56-18.94,19.87-27Z"/><path class="cls-10" d="M1871,825.84s34.06-7.88,28.82-29-4.36-36.39-26.33-32.25-24.18,13.25-24.15,20.73S1862,827.35,1871,825.84Z"/><path class="cls-14" d="M1847.41,773.3c3.66-7.66,8-7.25,10.66-5.9,16-14.8,31.71-2.71,31.71-2.71a41.56,41.56,0,0,0,19.13,20.56s-5.23,5.36-20.4,5.24c-4.63,0-9.29-2.16-13.52-5.09a81.67,81.67,0,0,0,17.76,13.25c-19-3.64-31.72-25.62-33-27.95-1.61,2.38-4.69,7.43-5,11.7-.35,5.8,1.65,17.07-1.68,17.5C1853.1,799.9,1841.91,784.79,1847.41,773.3Z"/><path class="cls-13" d="M1857.45,857.94s-8.2,14.3-9.42,18c0,0,10.63-.4,14.93,7.78C1863,883.7,1864,859.86,1857.45,857.94Z"/><path class="cls-16" d="M1913.86,971.62c20.77-.22,38.36-21.79,49.11-39a29.9,29.9,0,0,1-4.31-12.59c-1.87-17.7-1.16-34.29-1.32-44.37h0c-1.86-1.38-3.66-2.65-5.33-3.86a48.13,48.13,0,0,1-6.49-5.39C1928.51,895.13,1885.7,971.91,1913.86,971.62Z"/><path class="cls-10" d="M1835.35,982.92l2.84,10.4s3.58-.65,9.27-1.71c1.71-.32,2.68-.57,2.68-.57,4.55-.89,10-2.11,15.93-3.41h.08c10.16-2.44,21.54-5.36,31.13-8.62,6.75-2.35,12.6-4.87,16.58-7.39a10.13,10.13,0,0,0,1.14-.82c9.51-6.9,20.8-27.22,29.58-49,1.22-3,2.36-6,3.5-8.94a222.52,222.52,0,0,0,9.26-30.89,87.87,87.87,0,0,0,2.2-14.71,36.43,36.43,0,0,0,.08-4.14c-.17-23.57-11.87-26.82-11.87-26.82-.24-.08-.49-.16-.81-.24-2-.33-4.15,1.05-6.34,3.73-2.76,3.34-5.69,8.78-8.7,15.36-4.63,10.49-9.51,24.06-14.06,37.55-2.52,7.4-5,14.79-7.39,21.62-1.39,4.15-2.77,8-4.07,11.62-2.52,6.83-4.79,12.36-6.82,15.85-1.31,2.28-5,5.45-10,9-8.62,6.26-21.21,13.82-32.18,20-4.56,2.61-8.86,5-12.44,6.91C1839.17,980.88,1835.35,982.92,1835.35,982.92Z"/><path class="cls-13" d="M1931.93,855.19c15.65-4.32,27.72,7.9,27.72,7.9-.2-23.53-11.91-26.75-11.91-26.75C1943,834.39,1937.56,842.55,1931.93,855.19Z"/><path class="cls-14" d="M1954.28,1339.13h54.09s1.3-8.24-1.53-14.5c-2.71-6-6.95-8.73-5.93-16-3.44,3.54-9,7.5-16.86,6.45-1,1.55-6.19,9.87-9.39,12.17C1971.13,1329.8,1955.37,1328.89,1954.28,1339.13Z"/><path class="cls-14" d="M1838.14,1339.13h54.09s2-8.63-1.53-14.5c-3.14-5.19-1.94-8.15.39-12.45a21.05,21.05,0,0,1-9.11,1.72,19.15,19.15,0,0,1-8-2.83c-2.33,2.65-12.3,14-15.41,16.19C1855,1329.8,1839.23,1328.89,1838.14,1339.13Z"/><path class="cls-17" d="M1832.13,1031.11l-12.85-31.35a8.7,8.7,0,0,0-10.33-5.07,53.7,53.7,0,0,0-16.77-19.08,39.88,39.88,0,0,0-22.64-7.44,32,32,0,0,0-12.08,2.39c-18.27,7.49-26.46,30.58-19.75,53.26l-1,.4s-3.13-.21-8.37-.21c-16.55,0-54.18,2.2-80.58,20.53A7.28,7.28,0,0,0,1646,1049a6.87,6.87,0,0,0,.55,3s42.38-27.44,81.58.76q3.6,2.6,7,4.81l3.52,8.58a28,28,0,0,0,36.46,15.26l35.9-14.71,7.48-3.07A25,25,0,0,0,1832.13,1031.11Zm-69.59-25.41-14.62,6a8.56,8.56,0,0,0-5,10l-1.57.64c-6-20.66,1.31-41.49,17.63-48.18a27.18,27.18,0,0,1,7-1.86c7.52-1,15.35,1,22.38,5.42a49.27,49.27,0,0,1,17,18.39l-2.16.88a8.59,8.59,0,0,0-10.61-3.59l-14.62,6a7.25,7.25,0,0,0-9.42-3.95l-2,.83A7.24,7.24,0,0,0,1762.54,1005.7Z"/><path class="cls-18" d="M1735.18,1057.53q-3.4-2.22-7-4.81c-39.2-28.2-81.58-.76-81.58-.76a6.87,6.87,0,0,1-.55-3c5.93-3.91,28.16-16.91,55.71-12.47C1734,1041.75,1739.87,1046.24,1735.18,1057.53Z"/><path class="cls-18" d="M1818.54,1063.59l-7.48,3.07c11.21-6.12-2.68-32-10.8-49.07s-20.41-9.27-20.41-9.27a9.77,9.77,0,0,0-8.85-5.41c-.31-5.52-4.52-6.63-4.52-6.63l2-.83a7.25,7.25,0,0,1,9.42,3.95l14.62-6a8.59,8.59,0,0,1,10.61,3.59l2.16-.88a49.27,49.27,0,0,0-17-18.39c-7-4.39-14.86-6.41-22.38-5.42a15.85,15.85,0,0,0,3.57-4.13,39.88,39.88,0,0,1,22.64,7.44A53.7,53.7,0,0,1,1809,994.69a8.7,8.7,0,0,1,10.33,5.07l12.85,31.35A25,25,0,0,1,1818.54,1063.59Z"/><path class="cls-10" d="M1801.7,993c5.2,2.2,12.52,9.84,24.22,5.2a182.11,182.11,0,0,1,21.54-6.58c1.71-.32,2.68-.57,2.68-.57l-4.63-13.49a2.51,2.51,0,0,1-.57.16c-3,.65-18.29,3.9-25.44,2.28-8-1.87-21.54,7.8-21.54,7.8S1796.5,990.88,1801.7,993Z"/><path class="cls-19" d="M1654.87,1074.61c0-4.88-8.84-19.94-8.84-19.94s-8.84,15.06-8.84,19.94a8.84,8.84,0,1,0,17.68,0Z"/><path class="cls-14" d="M2346.45,1903.33s10.24,9.49,8.24,16.23-11.24,11.24-12.49,19.48-6.24,12.73-10.73,12.73H2310s-3.31-5.8,4.68-7.55,11-11.43,10.5-20.42a160.59,160.59,0,0,1,.75-21l17-4Z"/><path class="cls-14" d="M2220.85,1929.2s2.5,20-2,22.22-58.18,1.5-58.18,1.5,0-6.74,9.24-8.24,25.47-7,28.22-19.23S2220.85,1929.2,2220.85,1929.2Z"/><path class="cls-11" d="M2172.29,1624.16s3,37.86,6.6,83.36c4.84,61.8,10.67,137.73,11.25,152.11,1,25,5,64.92,5,64.92s9.49,9.49,28.47,5.49c0,0,16.91-57,21.75-117.37.07-1,.15-2,.22-3,4.5-61.42,11.48-190.77,11.48-190.77Z"/><path class="cls-12" d="M2172.29,1624.16s3,37.86,6.6,83.36l66.46,105.15c.07-1,.15-2,.22-3,4.5-61.42,11.48-190.77,11.48-190.77Z"/><path class="cls-11" d="M2186.14,1628.66s54.69,137.08,90.64,201.51,47.2,82.4,47.2,82.4,20.6-8.24,22.47-13.86c0,0-13.75-124.37-37.83-154.69-13.61-17.13-29.59-68.54-30.34-86.52s-4.87-53.56-4.87-53.56Z"/><path class="cls-10" d="M2078.83,1609.69s-19.3,9.26-21.9,11.64-9,14-8.51,14.92,1.45,1.16,3.2,0,6.65-6.27,6.83-5.33-13.1,16.57-10.75,19.87,15.67,2.33,23.27-3.07,15.19-25.29,16.33-26.37C2097,1612.09,2078.83,1609.69,2078.83,1609.69Z"/><path class="cls-16" d="M2078,1619.61c-5.36-4.66-5.5-5.84-5.5-5.84s34.22-59.17,37.18-64.86,21.31-94.56,21.31-94.56l63.4-18.38s-44.66,115.48-52.46,129.75c-12.89,23.58-55,58.29-55,58.29A19.76,19.76,0,0,1,2078,1619.61Z"/><path class="cls-10" d="M2162.05,1412.85s-22.31,39.25-44.12,44.38c0,0,.91-13.19,6.22-22.21-2.18-2.56-4.08-4.92-5.74-7a130.84,130.84,0,0,1-8.1-11.34l7.4-19.9,5-13.5a64.89,64.89,0,0,0,7.84,11.31C2144.88,1411,2162.05,1412.85,2162.05,1412.85Z"/><path class="cls-20" d="M2130.58,1394.56s2.67,19.67-12.17,33.43a130.84,130.84,0,0,1-8.1-11.34l7.4-19.9C2125.65,1394.34,2130.58,1394.56,2130.58,1394.56Z"/><path class="cls-10" d="M2104.43,1419.55s33.34-13,24.93-33.63-9.78-36.21-31.42-28.79-22.54,17-21.41,24.55S2095.54,1422.4,2104.43,1419.55Z"/><path class="cls-13" d="M2276.64,1614.3c-13.44,19.33-114,45.16-112.79,31.79a146.47,146.47,0,0,0,0-26.4q-.37-4.31-1.07-9.11c-2.56-17.6-8.62-40.2-22.16-66.38-1-2-2.07-3.94-3.16-5.94a203,203,0,0,1-13.94-31.32c-7-20.13-9.78-39.4-6.26-52a.84.84,0,0,1,.05-.17c21-9.72,29.16-47.41,29.16-47.41s71.7,12.87,111.87,108.45c0,0,3.86,10.49,8.27,24.73,5.35,17.28,11.52,40,12.59,56.3C2279.7,1604.57,2279.06,1610.82,2276.64,1614.3Z"/><path class="cls-14" d="M2134.14,1347.59c.24-.46.91-1,2.57-1.46a7,7,0,0,0-3.36-.13c-.93-2.28-3.21-6.17-7.47-6.2a5.26,5.26,0,0,1,3.34,3.09c-5.84-3.71-16.68-4.79-43.74,4.23-35.66,11.87-17.85,32.58-12.44,34.24s15.35-9,24.3-10.45,13.79,11,17.21,12,1.47-1.81,5-4.65,5.62,3.84,5.55,8.54S2132,1396,2132,1396l4.08-7.49c4.09-7.5,3-34.7-.93-39.6Z"/><path class="cls-16" d="M2279.18,1596.85c-86.52-26.1-100.29-129.25-100.29-129.25s49.26,37.64,87.7,73C2271.94,1557.83,2278.11,1580.6,2279.18,1596.85Z"/><path class="cls-10" d="M2302.9,1600.24s-2,16.37-1.48,19,3.59,10.61,4.36,10.66,3.13.14,3.07-1.5-1.13-3.17-.44-2.89.88,6.44,4,6.28,12.3-3.62,11.93-10.79-10.16-20.32-10.39-21.52C2312,1589.42,2302.9,1600.24,2302.9,1600.24Z"/><path class="cls-13" d="M2308.08,1603c-6.86,3.15-9.41-.06-9.41-.06s-40-66.77-44.2-72.14-78-37-78-37-30-11.49-31.23-29.71c-1-15.83,8-25.56,17.81-31.43a33.23,33.23,0,0,1,37.36,2.42c24.21,18.8,72.21,56.62,79.93,66.88,17.2,22.83,36.25,94.38,36.25,94.38A23.76,23.76,0,0,1,2308.08,1603Z"/><path class="cls-21" d="M2136.21,1648.28l-18,18-.25-.15-27-16.94s14,4.51,15.87,4,21.31-7.2,25.91-6.65a2,2,0,0,1,.67.19Z"/><path class="cls-22" d="M2117.4,1671.14c-.72-.16-2.86-.67-5.78-1.41-8.39-2.15-23.17-6.27-29-9.65-5.24-3-32.91-19.12-52-30.42a35.34,35.34,0,0,1,21.39-3.85c22.26,13.07,51.34,30.22,54.89,32.72,5.86,4.12,13.84,9.1,13.84,9.1a5.15,5.15,0,0,1-.12.56C2120.37,1669.3,2119.54,1671.6,2117.4,1671.14Z"/><path class="cls-23" d="M2117.4,1671.14c-.72-.16-2.86-.67-5.78-1.41-8.39-2.15-23.17-6.27-29-9.65-5.24-3-32.91-19.12-52-30.42-9.58-5.67-17-10.14-18.28-11.14-3.89-3-11.38-10.46-9.54-11.87s5.44,0,6.79-.2h.06c.31,0,.83-.13,1.55-.18,2.57-.15,7.67.2,14.93,4.4,0,0,11.52,6.72,25.88,15.15,22.26,13.07,51.34,30.22,54.89,32.72,5.86,4.12,13.84,9.1,13.84,9.1a5.15,5.15,0,0,1-.12.56C2120.37,1669.3,2119.54,1671.6,2117.4,1671.14Z"/><path class="cls-21" d="M2117.4,1671.14c-.72-.16-2.86-.67-5.78-1.41a8.55,8.55,0,0,0-1.95-6l11,4.44C2120.37,1669.3,2119.54,1671.6,2117.4,1671.14Z"/><g class="cls-24"><path class="cls-21" d="M2093.63,1657h0a.36.36,0,0,1-.13-.49l.19-.33a.37.37,0,0,1,.5-.13h0a.37.37,0,0,1,.13.5l-.2.33A.36.36,0,0,1,2093.63,1657Z"/><path class="cls-21" d="M2092,1656.05h0a.36.36,0,0,1-.12-.49l.19-.33a.37.37,0,0,1,.5-.13h0a.37.37,0,0,1,.12.5l-.19.33A.36.36,0,0,1,2092,1656.05Z"/><path class="cls-21" d="M2090.42,1655.11h0a.37.37,0,0,1-.13-.5l.2-.33a.36.36,0,0,1,.49-.12h0a.36.36,0,0,1,.13.49l-.19.33A.37.37,0,0,1,2090.42,1655.11Z"/><path class="cls-21" d="M2088.82,1654.16h0a.36.36,0,0,1-.13-.49l.19-.33a.37.37,0,0,1,.5-.13h0a.36.36,0,0,1,.13.49l-.2.33A.36.36,0,0,1,2088.82,1654.16Z"/><path class="cls-21" d="M2087.21,1653.21h0a.36.36,0,0,1-.12-.49l.19-.33a.37.37,0,0,1,.5-.13h0a.36.36,0,0,1,.12.49l-.19.34A.38.38,0,0,1,2087.21,1653.21Z"/><path class="cls-21" d="M2085.61,1652.26h0a.36.36,0,0,1-.13-.49l.2-.33a.36.36,0,0,1,.49-.13h0a.37.37,0,0,1,.13.5l-.19.33A.36.36,0,0,1,2085.61,1652.26Z"/><path class="cls-21" d="M2084,1651.32h0a.37.37,0,0,1-.13-.5l.2-.33a.35.35,0,0,1,.49-.12h0a.36.36,0,0,1,.13.49l-.2.33A.36.36,0,0,1,2084,1651.32Z"/><path class="cls-21" d="M2082.4,1650.37h0a.37.37,0,0,1-.12-.5l.19-.32a.36.36,0,0,1,.5-.13h0a.36.36,0,0,1,.12.49l-.19.33A.37.37,0,0,1,2082.4,1650.37Z"/><path class="cls-21" d="M2080.8,1649.42h0a.36.36,0,0,1-.13-.49l.2-.33a.36.36,0,0,1,.49-.13h0a.36.36,0,0,1,.13.49l-.19.33A.37.37,0,0,1,2080.8,1649.42Z"/><path class="cls-21" d="M2061.91,1638.25h0a.36.36,0,0,1-.13-.49l.2-.33a.36.36,0,0,1,.49-.13h0a.37.37,0,0,1,.13.5l-.19.33A.36.36,0,0,1,2061.91,1638.25Z"/><path class="cls-21" d="M2060.31,1637.31h0a.37.37,0,0,1-.13-.5l.2-.33a.35.35,0,0,1,.49-.12h0a.36.36,0,0,1,.13.49l-.2.33A.36.36,0,0,1,2060.31,1637.31Z"/><path class="cls-21" d="M2058.7,1636.36h0a.37.37,0,0,1-.12-.5l.19-.32a.36.36,0,0,1,.5-.13h0a.36.36,0,0,1,.12.49l-.19.33A.37.37,0,0,1,2058.7,1636.36Z"/><path class="cls-21" d="M2057.1,1635.41h0a.36.36,0,0,1-.13-.49l.2-.33a.36.36,0,0,1,.49-.13h0a.37.37,0,0,1,.13.5l-.2.32A.35.35,0,0,1,2057.1,1635.41Z"/><path class="cls-21" d="M2055.5,1634.46h0a.36.36,0,0,1-.13-.49l.2-.33a.36.36,0,0,1,.49-.13h0a.37.37,0,0,1,.13.5l-.2.33A.35.35,0,0,1,2055.5,1634.46Z"/><path class="cls-21" d="M2053.89,1633.52h0a.37.37,0,0,1-.12-.5l.19-.33a.36.36,0,0,1,.5-.12h0a.36.36,0,0,1,.12.49l-.19.33A.37.37,0,0,1,2053.89,1633.52Z"/><path class="cls-21" d="M2052.29,1632.57h0a.37.37,0,0,1-.13-.5l.2-.32a.35.35,0,0,1,.49-.13h0a.36.36,0,0,1,.13.49l-.19.33A.37.37,0,0,1,2052.29,1632.57Z"/><path class="cls-21" d="M2050.69,1631.62h0a.36.36,0,0,1-.13-.49l.2-.33a.36.36,0,0,1,.49-.13h0a.37.37,0,0,1,.13.5l-.2.32A.35.35,0,0,1,2050.69,1631.62Z"/><path class="cls-21" d="M2049.09,1630.67h0a.35.35,0,0,1-.13-.49l.19-.33a.37.37,0,0,1,.5-.13h0a.36.36,0,0,1,.12.5l-.19.33A.36.36,0,0,1,2049.09,1630.67Z"/><path class="cls-21" d="M2042.88,1627h0a.37.37,0,0,1-.13-.5l.2-.33a.35.35,0,0,1,.49-.12h0a.36.36,0,0,1,.13.49l-.19.33A.37.37,0,0,1,2042.88,1627Z"/><path class="cls-21" d="M2046,1628.86h0a.36.36,0,0,1-.13-.5l.19-.32a.36.36,0,0,1,.5-.13h0a.36.36,0,0,1,.13.49l-.2.33A.36.36,0,0,1,2046,1628.86Z"/><path class="cls-21" d="M2041.28,1626.06h0a.37.37,0,0,1-.13-.5l.19-.32a.36.36,0,0,1,.5-.13h0a.36.36,0,0,1,.13.49l-.2.33A.36.36,0,0,1,2041.28,1626.06Z"/><path class="cls-21" d="M2039.67,1625.11h0a.36.36,0,0,1-.12-.49l.19-.33a.37.37,0,0,1,.5-.13h0a.37.37,0,0,1,.12.5l-.19.32A.36.36,0,0,1,2039.67,1625.11Z"/><path class="cls-21" d="M2038.07,1624.16h0a.36.36,0,0,1-.13-.49l.2-.33a.36.36,0,0,1,.49-.13h0a.37.37,0,0,1,.13.5l-.19.33A.37.37,0,0,1,2038.07,1624.16Z"/><path class="cls-21" d="M2036.47,1623.22h0a.37.37,0,0,1-.13-.5l.2-.33a.36.36,0,0,1,.49-.13h0a.37.37,0,0,1,.13.5l-.2.33A.36.36,0,0,1,2036.47,1623.22Z"/><path class="cls-21" d="M2034.87,1622.27h0a.36.36,0,0,1-.13-.5l.19-.33a.37.37,0,0,1,.5-.12h0a.35.35,0,0,1,.12.49l-.19.33A.36.36,0,0,1,2034.87,1622.27Z"/><path class="cls-21" d="M2033.26,1621.32h0a.36.36,0,0,1-.13-.49l.2-.33a.36.36,0,0,1,.49-.13h0a.35.35,0,0,1,.13.49l-.19.33A.37.37,0,0,1,2033.26,1621.32Z"/><path class="cls-21" d="M2031.66,1620.37h0a.36.36,0,0,1-.13-.49l.2-.33a.36.36,0,0,1,.49-.13h0a.37.37,0,0,1,.13.5l-.2.33A.36.36,0,0,1,2031.66,1620.37Z"/><path class="cls-21" d="M2030.06,1619.42h0a.35.35,0,0,1-.13-.49l.19-.33a.37.37,0,0,1,.5-.13h0a.37.37,0,0,1,.13.5l-.2.33A.35.35,0,0,1,2030.06,1619.42Z"/><path class="cls-21" d="M2028.48,1618.5h0a.37.37,0,0,1-.12-.5l.19-.33a.36.36,0,0,1,.5-.12h0a.36.36,0,0,1,.12.49l-.19.33A.37.37,0,0,1,2028.48,1618.5Z"/><path class="cls-21" d="M2026.88,1617.55h0a.37.37,0,0,1-.13-.5l.2-.32a.35.35,0,0,1,.49-.13h0a.36.36,0,0,1,.13.49l-.19.33A.37.37,0,0,1,2026.88,1617.55Z"/><path class="cls-21" d="M2025.28,1616.6h0a.36.36,0,0,1-.13-.49l.19-.33a.37.37,0,0,1,.5-.13h0a.36.36,0,0,1,.13.49l-.2.33A.36.36,0,0,1,2025.28,1616.6Z"/><path class="cls-21" d="M2013,1608.34a.55.55,0,0,1-.62.17l-.15-.08-2.51-2c.31,0,.83-.13,1.55-.18l1.65,1.3A.56.56,0,0,1,2013,1608.34Z"/><rect class="cls-21" x="2053.04" y="1631.45" width="1.93" height="3.72" rx="0.68" transform="matrix(0.86, 0.51, -0.51, 0.86, 1119.34, -818.84)"/><rect class="cls-21" x="2056.23" y="1633.34" width="1.93" height="3.72" rx="0.68" transform="translate(1118.16 -819.21) rotate(30.58)"/><path class="cls-21" d="M2076.09,1646.64h0a.37.37,0,0,1-.13-.5l.2-.33a.36.36,0,0,1,.49-.13h0a.37.37,0,0,1,.13.5l-.2.33A.36.36,0,0,1,2076.09,1646.64Z"/><path class="cls-21" d="M2074.49,1645.69h0a.36.36,0,0,1-.13-.5l.19-.33a.37.37,0,0,1,.5-.12h0a.35.35,0,0,1,.12.49l-.19.33A.36.36,0,0,1,2074.49,1645.69Z"/><path class="cls-21" d="M2072.88,1644.74h0a.36.36,0,0,1-.13-.49l.2-.33a.36.36,0,0,1,.49-.13h0a.35.35,0,0,1,.13.49l-.19.33A.37.37,0,0,1,2072.88,1644.74Z"/><path class="cls-21" d="M2071.28,1643.79h0a.36.36,0,0,1-.13-.49l.2-.33a.36.36,0,0,1,.49-.13h0a.37.37,0,0,1,.13.5l-.2.33A.36.36,0,0,1,2071.28,1643.79Z"/><path class="cls-21" d="M2069.68,1642.84h0a.35.35,0,0,1-.13-.49l.19-.33a.37.37,0,0,1,.5-.13h0a.37.37,0,0,1,.13.5l-.2.33A.35.35,0,0,1,2069.68,1642.84Z"/><path class="cls-21" d="M2068.07,1641.9h0a.36.36,0,0,1-.12-.5l.19-.33a.36.36,0,0,1,.49-.12h0a.35.35,0,0,1,.13.49l-.19.33A.37.37,0,0,1,2068.07,1641.9Z"/><path class="cls-21" d="M2066.47,1641h0a.36.36,0,0,1-.13-.49l.2-.33a.36.36,0,0,1,.49-.13h0a.36.36,0,0,1,.13.49l-.2.33A.36.36,0,0,1,2066.47,1641Z"/><path class="cls-21" d="M2064.87,1640h0a.36.36,0,0,1-.13-.49l.19-.33a.37.37,0,0,1,.5-.13h0a.37.37,0,0,1,.13.5l-.2.33A.36.36,0,0,1,2064.87,1640Z"/><path class="cls-21" d="M2063.26,1639.05h0a.36.36,0,0,1-.12-.49l.19-.33a.37.37,0,0,1,.5-.13h0a.37.37,0,0,1,.12.5l-.19.33A.36.36,0,0,1,2063.26,1639.05Z"/></g><path class="cls-25" d="M2053.39,1643.55a1.3,1.3,0,0,0,1.35-1.92,7.27,7.27,0,0,0-2.56-2.73c-2.42-1.4-3.14,3-2.35,3.54A13.76,13.76,0,0,0,2053.39,1643.55Z"/><path class="cls-25" d="M2053.16,1638.26l-3,5a27.49,27.49,0,0,1-7-2.87,21.47,21.47,0,0,1-4.76-3.46,7.89,7.89,0,0,1-.72-.8l3.13-5.29a3.07,3.07,0,0,1,1.1.14c3.55,1,10.84,6.76,10.84,6.76Z"/><path class="cls-21" d="M2041.9,1631l-3.51,6a7.89,7.89,0,0,1-.72-.8l3.13-5.29A3.07,3.07,0,0,1,2041.9,1631Z"/><path class="cls-25" d="M2109.8,1662.86c.15,0,10.45,2.28,16.06,6.38l-7.09-.11-9.1-5.38S2109.07,1663.13,2109.8,1662.86Z"/><path class="cls-21" d="M2088.77,1642.34s-6.38,4.39-7.49,5a6.06,6.06,0,0,1-2.88.43h0l-11-1.85s-11.69-6.83-14.21-8.37h0c-.23-.15-.38-.24-.44-.29-.74-.53-1-1-.73-1.15s19.48,7.5,21.6,8.36l.06,0c2.07.83,2.49.4,2.49.4l10.6-2.91a1,1,0,0,1,.57-.07A5.15,5.15,0,0,1,2088.77,1642.34Z"/><path class="cls-21" d="M2087.36,1641.89c-2.9.89-10.92,3.34-11.61,3.43s-18.24-6.24-22.54-7.79h0c-.23-.15-.38-.24-.44-.29-.74-.53-1-1-.73-1.15s19.48,7.5,21.6,8.36,2.55.42,2.55.42l10.6-2.91A1,1,0,0,1,2087.36,1641.89Z"/><path class="cls-21" d="M2088.77,1642.34s-6.38,4.39-7.49,5a6.06,6.06,0,0,1-2.88.43h0a23.55,23.55,0,0,1-4.69-3.28c2.07.83,2.49.4,2.49.4l10.6-2.91a1,1,0,0,1,.57-.07A5.15,5.15,0,0,1,2088.77,1642.34Z"/><path class="cls-23" d="M2118.46,1666.36l-27.51-17.2s14.21,4.63,16.12,4.11,21.54-7.07,26.21-6.48c-5.3,2.14-17.74,7.45-18.6,10.39S2116.88,1664.34,2118.46,1666.36Z"/><path class="cls-26" d="M1889.79,1659c.1-5.78,4.59-15.65-4.27-25a186,186,0,0,1-14.45-18c-1-1.5-11.68,7.31-11.45,7.67,1.76,2.61,9.85,15.92,11,23.35,1.29,8.36,15.62,17.52,15.62,17.52S1889.75,1664.8,1889.79,1659Z"/><path class="cls-25" d="M1957.09,1660.19c-14.09.73-23.73-21.14-29.66-21.43a37.75,37.75,0,0,0-5.21.58A102.45,102.45,0,0,1,1935,1672.6c8.45,42.2-9.36,81.35-39.77,87.43-29.59,5.92-60.2-21.62-69.62-62-.27-1.12-.51-2.26-.75-3.42a102.79,102.79,0,0,1-1-35.39s0-.07,0-.1a18.8,18.8,0,0,0-2.84.91c-5.38,2.56-5.84,26.45-19.14,31.19s-22.25-20.73-6.42-40.57c9.65-12.11,26.75-18,38.63-20.66a56.83,56.83,0,0,1,8.47-10.77c.12-.12.23-.24.36-.36a34.61,34.61,0,0,1-18-34.13l-.08,0a17.55,17.55,0,1,1,19.15-27.26,34.86,34.86,0,0,1,16.5-3.55,17.55,17.55,0,1,1,28.84,17.41,34.6,34.6,0,0,1-2.14,37.57,55.83,55.83,0,0,1,14.35,7.57c11.91-2.28,31.39-4.13,45.82,3.8C1969.66,1632.49,1971.19,1659.45,1957.09,1660.19Z"/><path class="cls-27" d="M1825.62,1698.06c-.27-1.12-.51-2.26-.75-3.42a102.79,102.79,0,0,1-1-35.39c1.75-2,4.07-3.55,6.7-2.3,5.83,2.76,4.91,30.65,13.79,37.08C1850.93,1698.8,1834.46,1698.85,1825.62,1698.06Z"/><path class="cls-27" d="M1859.42,1614.82a97.35,97.35,0,0,1-16.86,4.43c.12-.12.23-.24.36-.36a34.61,34.61,0,0,1-18-34.13l-.08,0c.35-.14.79.08,1.37.9,2.22,3.14,14.2,28.58,33.16,25.66C1859.42,1611.29,1864.37,1613,1859.42,1614.82Z"/><path class="cls-27" d="M1868.4,1556.14s4.44-8.28,11-6.13,7.51,11.64,3.22,14.25C1882.65,1564.26,1876.26,1558.35,1868.4,1556.14Z"/><path class="cls-27" d="M1837.45,1561s-9.5-4.38-13.79.68,4.29,11.51,4.29,11.51S1832.09,1564.58,1837.45,1561Z"/><path class="cls-28" d="M1761.16,1714c-6.71-6-1.19-20.27-3.75-23.09a23.29,23.29,0,0,0-2.61-2.08,65.81,65.81,0,0,1-9.23,20.81c-15.23,22.9-41,32.57-57.46,21.59-16.06-10.68-17.47-37-3.51-59.46.39-.63.79-1.25,1.2-1.88a65.78,65.78,0,0,1,15.52-16.47l0,0a12.53,12.53,0,0,0-1.7-.87c-3.58-1.27-14.58,9.32-22.74,5.46s-.7-19.42,15.42-21.25c9.83-1.11,20.2,4,26.8,8.1a36.38,36.38,0,0,1,8.69-1h.32a22.08,22.08,0,0,1,7.3-23.54l0,0a11.22,11.22,0,1,1,21-3.68,22,22,0,0,1,9.06,5.84,11.21,11.21,0,1,1,5.19,20.89,22.15,22.15,0,0,1-17.93,16,35.63,35.63,0,0,1,3.07,9.9c6.42,4.34,16.06,12.3,19,22.4C1779.34,1707.17,1767.87,1720.06,1761.16,1714Z"/><path class="cls-29" d="M1684.6,1671.8c.39-.63.79-1.25,1.2-1.88a65.78,65.78,0,0,1,15.52-16.47c1.71-.13,3.44.23,4.07,2,1.39,3.87-11.62,16.07-10.5,23C1695.71,1683.56,1688.24,1676.15,1684.6,1671.8Z"/><path class="cls-29" d="M1737.46,1649.41a62.33,62.33,0,0,1-9.62-5.6h.32a22.08,22.08,0,0,1,7.3-23.54l0,0c.22.09.33.39.22,1-.42,2.43-6.48,19.34,3.4,26.58C1739.05,1647.82,1740.53,1650.82,1737.46,1649.41Z"/><path class="cls-30" d="M1768,1626.93s5.74-1.74,7.76,2.21-1.87,8.65-5,7.89A25.5,25.5,0,0,0,1768,1626.93Z"/><path class="cls-30" d="M1751.84,1615.14s-2.32-6.27-6.54-5.92-3.26,7.14-3.26,7.14S1747.78,1614.35,1751.84,1615.14Z"/><path class="cls-31" d="M1619.22,1710.56s-14.4-18.56-14.49-33.7.34-20.18,2.87-19.5,13.9,9.13,18,17.54,11.26,30.42,11.41,33.42S1619.22,1710.56,1619.22,1710.56Z"/><path class="cls-32" d="M1620,1704.64s-9.19-12.82-9.54-23.06-.17-13.64,1.39-13.13,8.72,6.44,11.39,12.2,7.5,20.78,7.65,22.81S1620,1704.64,1620,1704.64Z"/><path class="cls-31" d="M1642.44,1702.82s-6.9-25.14-4.17-32,16.86-2.28,18.47,2.55.61,25.2.61,25.2Z"/><path class="cls-32" d="M1644.28,1673.92s-1,19.92,2.49,27.67l6.69-1.9s1-22.24.15-23.75S1644.28,1673.92,1644.28,1673.92Z"/><path class="cls-31" d="M1637.88,1672.26s23.21,15.37,25.08,13.74-5.18-17.21-7.92-18.61S1637.71,1663.12,1637.88,1672.26Z"/><rect class="cls-33" x="1595.19" y="1692.12" width="316.43" height="260.92" transform="translate(3506.8 3645.16) rotate(180)"/><rect class="cls-34" x="1753.4" y="1692.12" width="316.43" height="260.92"/><polygon class="cls-35" points="2069.83 1692.12 2069.83 1774.97 1753.4 1793.93 1753.4 1692.12 2069.83 1692.12"/><polygon class="cls-34" points="1753.4 1692.12 1816.01 1760.77 2128.26 1760.77 2069.83 1692.12 1753.4 1692.12"/><polygon class="cls-36" points="1595.37 1886.87 1645.51 1886.87 1641.1 1872.76 1645.51 1862.68 1595.37 1862.68 1595.37 1886.87"/><polygon class="cls-35" points="2069.9 1931.62 2019.76 1931.62 2024.18 1917.51 2019.76 1907.43 2069.9 1907.43 2069.9 1931.62"/><polygon class="cls-37" points="1753.4 1721.62 1686.7 1788.32 1595.37 1788.32 1595.37 1692.12 1753.4 1692.12 1753.4 1721.62"/><polygon class="cls-34" points="1595.19 1692.12 1524.04 1760.77 1682.36 1760.77 1753.4 1692.12 1595.19 1692.12"/><path class="cls-38" d="M1517.06,1884.3l-5.77,1.12a12.7,12.7,0,0,1-14.84-10l-8.47-43.63a12.71,12.71,0,0,1,8.24-14.37c0-.14-.09-.3-.13-.46l-.49-2.56a3.3,3.3,0,0,1,2.61-3.87l2.56-.49a3.31,3.31,0,0,1,3.87,2.6l.49,2.57a2.23,2.23,0,0,1,0,.36s0,0,0,.06a12.7,12.7,0,0,1,13.41,10.21l8.47,43.63A12.7,12.7,0,0,1,1517.06,1884.3Z"/><rect class="cls-25" x="1491.09" y="1831.01" width="31.19" height="30.54" transform="translate(-324.32 321.06) rotate(-10.99)"/><path class="cls-21" d="M1505.18,1815.56l-9,1.85c0-.14-.09-.3-.13-.46l-.49-2.56a3.3,3.3,0,0,1,2.61-3.87l2.56-.49a3.31,3.31,0,0,1,3.87,2.6l.49,2.57A2.23,2.23,0,0,1,1505.18,1815.56Z"/><path class="cls-39" d="M1672.32,1804.55s-3.79,5.34-7.27,5.41-8.77-2.47-8.77-2.47-3.19-7.12-1-9.9a4.64,4.64,0,0,1,4.45.73,6.73,6.73,0,0,1,1.17,1.12,3.75,3.75,0,0,0,1.83,1.24c2.48.75,5.43-1,6.53.69a11.09,11.09,0,0,0,1.92,2.27A9,9,0,0,0,1672.32,1804.55Z"/><path class="cls-39" d="M1622.86,1843.08s13.41-32.5,37.55-33.12c0,0,22.28,2.48,23.52,33.12Z"/><path class="cls-36" d="M1653.8,1811s9.67,2.15,12.66.88c0,0,.45-4-3.63-3.48a8.55,8.55,0,0,1-5.67-1.49C1655.65,1806.1,1653.39,1809.26,1653.8,1811Z"/><path class="cls-40" d="M1662.22,1804.86c-.62.46-2.52-6.54-2.52-6.54a6.73,6.73,0,0,1,1.17,1.12,3.75,3.75,0,0,0,1.83,1.24C1662.7,1800.88,1662.82,1804.41,1662.22,1804.86Z"/><path class="cls-40" d="M1671.15,1803.64c-.14.08-4.61,2.76-5.22,2.76s3.3-5,3.3-5A11.09,11.09,0,0,0,1671.15,1803.64Z"/><path class="cls-40" d="M1636,1834c-.25-.21,9.49-14.34,12.17-14.44s8.71,3.09,13.07,3.5,8.59-.82,9.42,1.76,3.09,11.72,1.7,13.18S1641.32,1838.57,1636,1834Z"/><path class="cls-32" d="M1523,1856a4.59,4.59,0,0,1-1.53,1.73,4.51,4.51,0,0,1-1.15.55,4.58,4.58,0,0,1-3.51-.26l-60.13-30.55a4.6,4.6,0,0,1,4.17-8.21l60.13,30.55A4.61,4.61,0,0,1,1523,1856Z"/><polygon class="cls-41" points="1476.57 1837.57 1472.78 1825.32 1463.1 1820.4 1468.93 1833.69 1476.57 1837.57"/><polygon class="cls-41" points="1491.26 1845.03 1483.62 1841.15 1477.78 1827.86 1487.46 1832.78 1491.26 1845.03"/><polygon class="cls-41" points="1505.93 1852.48 1498.29 1848.6 1492.45 1835.31 1502.14 1840.23 1505.93 1852.48"/><path class="cls-41" d="M1521.42,1857.7a4.51,4.51,0,0,1-1.15.55,4.58,4.58,0,0,1-3.51-.26l-3.53-1.8-5.83-13.29,9.68,4.92Z"/><path class="cls-41" d="M1454.61,1821.25s-1.21-6.54-6.52-8.48c0,0,.62.76-1.93,1.57s-1.82,2.58-2.72,3.37C1443.44,1817.71,1447.12,1822.61,1454.61,1821.25Z"/><path class="cls-21" d="M1453.58,1822.11l-.14-.07a.83.83,0,0,1-.36-1.12l.75-1.47a.82.82,0,0,1,1.11-.36l.14.07a.83.83,0,0,1,.37,1.11l-.75,1.48A.84.84,0,0,1,1453.58,1822.11Z"/><path class="cls-41" d="M1522.7,1855.84s6-2.88,10.69.27c0,0-1-.06-.12,2.48s-1,3-1.12,4.19C1532.15,1862.78,1526,1862.69,1522.7,1855.84Z"/><rect class="cls-21" x="1522.52" y="1854.08" width="1.82" height="3.31" rx="0.83" transform="translate(2049.51 4198.35) rotate(-153.27)"/><path class="cls-36" d="M1600.78,1856.44a4.51,4.51,0,0,1-2.23.61,4.44,4.44,0,0,1-1.26-.15,4.66,4.66,0,0,1-2.8-2.14l-33.77-58.38a4.6,4.6,0,0,1,8-4.61l33.77,58.38A4.61,4.61,0,0,1,1600.78,1856.44Z"/><polygon class="cls-39" points="1571.92 1815.74 1575.41 1803.4 1569.98 1794 1567.63 1808.33 1571.92 1815.74"/><polygon class="cls-39" points="1580.16 1830 1575.88 1822.58 1578.22 1808.26 1583.66 1817.66 1580.16 1830"/><polygon class="cls-39" points="1588.41 1844.24 1584.12 1836.82 1586.46 1822.5 1591.91 1831.9 1588.41 1844.24"/><path class="cls-39" d="M1598.55,1857.05a4.44,4.44,0,0,1-1.26-.15,4.66,4.66,0,0,1-2.8-2.14l-2-3.43,2.35-14.32,5.44,9.4Z"/><path class="cls-36" d="M1562.4,1790.09s2.54-6.14-.86-10.66c0,0,.12,1-2.47.26s-2.92,1.17-4.12,1.35C1555,1781,1555.37,1787.15,1562.4,1790.09Z"/><path class="cls-33" d="M1561.06,1790.25l-.08-.13a.84.84,0,0,1,.31-1.14l1.43-.82a.82.82,0,0,1,1.13.3l.08.13a.84.84,0,0,1-.3,1.14l-1.43.83A.84.84,0,0,1,1561.06,1790.25Z"/><path class="cls-36" d="M1600.64,1856.19s6.6.86,8.82,6.06c0,0-.78-.58-1.46,2s-2.47,2-3.22,2.9C1604.78,1867.16,1599.69,1863.75,1600.64,1856.19Z"/><path class="cls-33" d="M1599.84,1857.27l.08.14a.83.83,0,0,0,1.13.3l1.43-.83a.82.82,0,0,0,.3-1.13l-.08-.14a.83.83,0,0,0-1.13-.3l-1.43.83A.83.83,0,0,0,1599.84,1857.27Z"/><path class="cls-21" d="M1491.48,1872.81a4.53,4.53,0,0,1-1.71-1.56,4.45,4.45,0,0,1-.53-1.15,4.59,4.59,0,0,1,.32-3.51l31.51-59.63a4.61,4.61,0,0,1,8.14,4.31l-31.51,59.62A4.61,4.61,0,0,1,1491.48,1872.81Z"/><polygon class="cls-4" points="1510.62 1826.74 1522.93 1823.14 1528.01 1813.54 1514.62 1819.16 1510.62 1826.74"/><polygon class="cls-4" points="1502.92 1841.3 1506.93 1833.73 1520.31 1828.1 1515.24 1837.71 1502.92 1841.3"/><polygon class="cls-4" points="1495.23 1855.85 1499.24 1848.27 1512.63 1842.65 1507.55 1852.26 1495.23 1855.85"/><path class="cls-4" d="M1489.77,1871.25a4.45,4.45,0,0,1-.53-1.15,4.59,4.59,0,0,1,.32-3.51l1.85-3.5,13.38-5.62-5.07,9.6Z"/><path class="cls-4" d="M1527.29,1805s6.56-1.1,8.58-6.38c0,0-.76.61-1.53-2s-2.55-1.85-3.33-2.77C1531,1793.93,1526.05,1797.53,1527.29,1805Z"/><path class="cls-21" d="M1526.45,1804l.07-.14a.84.84,0,0,1,1.12-.35l1.46.78a.83.83,0,0,1,.35,1.12l-.08.14a.82.82,0,0,1-1.12.34l-1.46-.77A.83.83,0,0,1,1526.45,1804Z"/><path class="cls-21" d="M1491.61,1872.57s2.78,6-.44,10.68c0,0,.07-1-2.48-.16s-3-1.06-4.17-1.19C1484.52,1881.9,1484.71,1875.78,1491.61,1872.57Z"/><path class="cls-21" d="M1490.27,1872.46l-.07.13a.84.84,0,0,0,.34,1.13l1.46.77a.84.84,0,0,0,1.13-.35l.07-.14a.83.83,0,0,0-.35-1.12l-1.46-.77A.83.83,0,0,0,1490.27,1872.46Z"/><path class="cls-41" d="M1554.43,1818.61s2.76,3.88,5.28,3.93,6.37-1.79,6.37-1.79,2.31-5.17.74-7.19a3.37,3.37,0,0,0-3.22.53,5,5,0,0,0-.86.82,2.78,2.78,0,0,1-1.32.9c-1.8.54-3.94-.74-4.74.5a8.53,8.53,0,0,1-1.39,1.65A6.16,6.16,0,0,1,1554.43,1818.61Z"/><path class="cls-41" d="M1590.33,1846.58s-9.73-23.59-27.25-24c0,0-16.17,1.8-17.07,24Z"/><path class="cls-42" d="M1567.88,1823.26s-7,1.57-9.19.65c0,0-.33-2.94,2.63-2.53a6.21,6.21,0,0,0,4.12-1.08C1566.54,1819.74,1568.17,1822,1567.88,1823.26Z"/><path class="cls-42" d="M1561.77,1818.84c.45.34,1.83-4.75,1.83-4.75a5,5,0,0,0-.86.82,2.78,2.78,0,0,1-1.32.9C1561.41,1816,1561.33,1818.51,1561.77,1818.84Z"/><path class="cls-42" d="M1555.29,1818a28.72,28.72,0,0,0,3.78,2c.45,0-2.39-3.65-2.39-3.65A8.53,8.53,0,0,1,1555.29,1818Z"/><path class="cls-42" d="M1580.82,1840c.18-.16-6.88-10.41-8.83-10.48s-6.32,2.24-9.49,2.54-6.23-.6-6.83,1.27-2.25,8.51-1.24,9.57S1576.94,1843.31,1580.82,1840Z"/><path class="cls-38" d="M1624.21,1819.87h0c-2.9,0-4.35-4.34-4.35-4.34l-28.22,8.55a5.54,5.54,0,0,1-.78,5.47s-4.89,3.26-3.37,8.28l6.25,20.63a7,7,0,0,0,8.66,4.63l29.77-9a7,7,0,0,0,4.63-8.66l-6.24-20.63A7,7,0,0,0,1624.21,1819.87Z"/><path class="cls-42" d="M1588.82,1823.16l1.69,5.6c.61,2,8.34,1.48,17.27-1.22s15.65-6.54,15-8.56l-1.69-5.6Z"/><path class="cls-41" d="M1621.13,1813.38c.61,2-6.13,5.86-15.05,8.56s-16.65,3.25-17.26,1.22,6.12-5.85,15-8.55S1620.51,1811.36,1621.13,1813.38Z"/><path class="cls-43" d="M1548.49,1831.08h0c-2-1-1.52-4.52-1.52-4.52l-22.56-3.86a4.28,4.28,0,0,1-2.44,3.53s-4.52.57-5.2,4.58l-2.83,16.49a5.41,5.41,0,0,0,4.41,6.22l23.8,4.07a5.4,5.4,0,0,0,6.22-4.4l2.82-16.49A5.41,5.41,0,0,0,1548.49,1831.08Z"/><path class="cls-37" d="M1522.77,1821.09l-.76,4.47c-.28,1.62,5.28,3.92,12.41,5.14s13.14.9,13.41-.72l.77-4.48Z"/><path class="cls-36" d="M1548.6,1825.5c-.28,1.62-6.28,1.94-13.42.72s-12.68-3.52-12.41-5.13,6.28-1.94,13.42-.72S1548.88,1823.89,1548.6,1825.5Z"/><rect class="cls-33" x="1476.59" y="1837.77" width="139.79" height="115.26" transform="translate(3092.97 3790.81) rotate(180)"/><rect class="cls-34" x="1546.48" y="1837.77" width="139.79" height="115.26" transform="translate(3232.75 3790.81) rotate(180)"/><polygon class="cls-44" points="1546.48 1837.78 1686.63 1837.78 1686.63 1877.93 1546.48 1895.41 1546.48 1837.78"/><polygon class="cls-34" points="1546.48 1837.78 1574.14 1868.1 1712.08 1868.1 1686.27 1837.78 1546.48 1837.78"/><polygon class="cls-34" points="1476.67 1923.81 1498.82 1923.81 1496.87 1917.57 1498.82 1913.12 1476.67 1913.12 1476.67 1923.81"/><polygon class="cls-37" points="1546.48 1850.81 1517.02 1880.27 1476.67 1880.27 1476.67 1837.78 1546.48 1837.78 1546.48 1850.81"/><polygon class="cls-34" points="1476.59 1837.78 1445.16 1868.1 1515.1 1868.1 1546.48 1837.78 1476.59 1837.78"/><path class="cls-16" d="M1305,1310.91c-141-26.08-224,140.7-238.3,161.35-14.27-20.65-97.28-187.43-238.31-161.35C672.89,1339.67,606,1486.38,664.77,1629.59c47.88,116.67,357.25,303.54,399.76,325.77v2.29l2.21-1.14,2.2,1.14v-2.29c42.51-22.23,347-211.23,399.76-325.77C1527.61,1501.73,1460.58,1339.67,1305,1310.91Z"/><path class="cls-15" d="M870.94,1642.24c-2.53,6.2-19.34,4.51-32.29-4.32s-31.37-16.8-41.88-24.13c-7.89-5.35-16.06-25.63-22.25-38.12a72.5,72.5,0,0,0-4.32-7.7c-7.61-2.25-7.14-10.14-14.18-12.67-8.36-2.91-5.82-7.61-5.82-7.61a30,30,0,0,1,13.33-1.78c2.63.37,7.89,8,11,12.77,2.91,2.16,6.38,5.07,10.14,8.45,10.14,9,21.59,20.66,26.19,26.38,5.35,6.67,40,14,49.39,21.69C877,1628.91,870.94,1642.24,870.94,1642.24Z"/><path class="cls-15" d="M811,1737.61l36.33,201.67,12.59.83s9.89-87.82,1.41-118.14,14.62-68.66,8.13-95S811,1737.61,811,1737.61Z"/><path class="cls-10" d="M852.75,1626.2,821,1621c-1.51-5.15-1.94-12.23-2-18.49,0-7.78.6-14.29.6-14.29l25.6-2.46,11.37-1.1C850.38,1596.61,852.75,1626.2,852.75,1626.2Z"/><path class="cls-15" d="M853.69,1591s-17,14.46-34.63,11.6c0-7.78.6-14.29.6-14.29l25.6-2.46Z"/><path class="cls-10" d="M835.14,1787.29c-6.42,17.86-12.19,36.06-9.3,51a102.35,102.35,0,0,1,1.64,13.63c.23,4.26.25,8.6.07,12.95-1.41,35.16-14.8,71-16.87,76.35l-.27.69-11.14-1.19-4.79-211.61s50.86-20.54,53.69,6.4C849.64,1749.42,842,1768.17,835.14,1787.29Z"/><path class="cls-11" d="M865.54,1799.28s-3.25.47-8.08,1c-9.06,1-23.66,2.17-32.68.78-4.3-.66-6.71-7.76-7.85-17.31-2.52-21.14,1.24-54.24,4.66-55.71,5-2.12,48.89-.32,48.89-.32S880.07,1751.44,865.54,1799.28Z"/><path class="cls-12" d="M858.17,1800.28c-9.06,1-23.66,2.17-32.68.78-4.31-.66-6.72-7.76-7.85-17.31l24.08-39.4,18.08-7.09S867.05,1767.47,858.17,1800.28Z"/><path class="cls-11" d="M794.3,1728.4s-9.46,41.82-8,74.9c0,0,21.5,4.25,43.48,0,0,0,36.39-52.93,33.32-69.94S803.51,1723,794.3,1728.4Z"/><path class="cls-10" d="M811.58,1583.17s29.57,23.45,43.89,4.8,27.77-28.16,9.5-43.92-27.45-11.5-33.75-6.44S804.25,1576.59,811.58,1583.17Z"/><path class="cls-14" d="M886,1551.05a6.46,6.46,0,0,0-3.52,0v0c2.39-4.41.6-11.25.6-11.25.6,3.75-2.78,8.16-2.78,8.16-.2-13.9-34.6-22.51-37.79-23.4s-2.78-6.18-2.78-6.18c-6.56,1.33-13.52,9.71-13.32,17.88s7,23.85,11.33,24.07,2.39,3.75-.59,8.61.89,18,6.26,22.68c4.32,3.74,6.59.61,9.13-.76a7.6,7.6,0,0,1,2-.77c10-2.24,20.47-12.15,25.66-24.8a33.94,33.94,0,0,0,2.34-12.58A17.81,17.81,0,0,1,886,1551.05Z"/><path class="cls-45" d="M861.57,1954h-7c-2.35-.32-4.09-.93-6.5-1.2-3.67-.43-5.35.9-5.69,1.2l-.07.07H812.46c-.75-.95,0-3.15.68-4.76a4.08,4.08,0,0,1,2.79-2.26c3.16-.81,9.4-1.53,15.11-6.1,3.22-2.57,15.52-9.45,15.52-9.45h.06c.28,0,1.56.36,7.16,4.53,2.89,2.16,7.82-3,7.82-3a6.39,6.39,0,0,1,1.62,1.94,5.91,5.91,0,0,1,.64,4c-.45,2.37,1,6.79,2.14,9.78.69,1.81,1.28,3.09,1.28,3.09S867.61,1953.36,861.57,1954Z"/><path class="cls-46" d="M863.22,1934.94c-1.68,1-5.22,3.1-7.57,3.37-3.16.37-9.09-6.79-9.09-6.79h.06c.28,0,1.56.36,7.16,4.53,2.89,2.16,7.82-3,7.82-3A6.39,6.39,0,0,1,863.22,1934.94Z"/><path class="cls-46" d="M861.57,1954h-7c-2.35-.32-4.09-.93-6.5-1.2-3.67-.43-5.35.9-5.69,1.2l-.07.07H812.46c-.75-.95,0-3.15.68-4.76.9-.71,1.16,3.09,1.66,3.7s24.34.22,25.71-.67,5.51-2.43,11.27-1.21c5,1.06,12.39-1.66,14.22-2.38.69,1.81,1.28,3.09,1.28,3.09S867.61,1953.36,861.57,1954Z"/><path class="cls-45" d="M813.57,1954h-7c-2.35-.32-4.09-.93-6.5-1.2-3.67-.43-5.35.9-5.69,1.2l-.06.07H764.46c-.75-.95,0-3.15.68-4.76a4.08,4.08,0,0,1,2.79-2.26c3.17-.81,9.4-1.53,15.11-6.1,3.22-2.57,15.52-9.45,15.52-9.45h.07c.27,0,1.55.36,7.15,4.53,2.89,2.16,7.82-3,7.82-3a6.39,6.39,0,0,1,1.62,1.94,5.86,5.86,0,0,1,.64,4c-.44,2.37,1,6.79,2.14,9.78.69,1.81,1.28,3.09,1.28,3.09S819.62,1953.36,813.57,1954Z"/><path class="cls-46" d="M815.22,1934.94c-1.68,1-5.22,3.1-7.56,3.37-3.17.37-9.1-6.79-9.1-6.79h.07c.27,0,1.55.36,7.15,4.53,2.89,2.16,7.82-3,7.82-3A6.39,6.39,0,0,1,815.22,1934.94Z"/><path class="cls-46" d="M813.57,1954h-7c-2.35-.32-4.09-.93-6.5-1.2-3.67-.43-5.35.9-5.69,1.2l-.06.07H764.46c-.75-.95,0-3.15.68-4.76.9-.71,1.16,3.09,1.66,3.7s24.34.22,25.71-.67,5.51-2.43,11.27-1.21c5,1.06,12.39-1.66,14.22-2.38.69,1.81,1.28,3.09,1.28,3.09S819.62,1953.36,813.57,1954Z"/><path class="cls-19" d="M876.64,1737.26s-28.44,8.28-63,2.39c-6.32-1.08-17.42-4.23-25.27-8.65l10.42-82.91,2.15-38.55s11.94-3.65,17.72-4c0,0,24.22,2.89,33.62.41,0,0,13.46,2.78,17.31,15.45C877.59,1647.75,880.27,1680.46,876.64,1737.26Z"/><path class="cls-10" d="M820.52,1642.24c-2.63,6.2-19.43,4.51-32.3-4.32-1.12-.75-2.25-1.5-3.47-2.25-12.58-7.89-28.92-15.21-38.5-21.88-9-6.2-18.49-32-24.88-43.09a21.29,21.29,0,0,0-1.69-2.73c-7.51-2.34-7-10.14-14.08-12.67-8.36-2.91-5.92-7.61-5.92-7.61a30.45,30.45,0,0,1,13.34-1.78c2.72.37,8,8,11,12.77,2.07,1.59,4.6,3.57,7.23,5.73,10.71,9.29,24.13,22.81,29.11,29.1,3.85,4.79,22.81,10,36.71,15.21,5.45,2.16,10.14,4.32,12.77,6.48C826.53,1628.91,820.52,1642.24,820.52,1642.24Z"/><path class="cls-19" d="M820.52,1642.24c-2.82,12.86-35.63-2.74-36.85-3.5,1.79-19.33,1.55-29.93,7-33.29,10.67-1.67,26.76-.85,30,.3C846.81,1615.19,820.52,1642.24,820.52,1642.24Z"/><path class="cls-47" d="M784.66,1567.13c-1.13,3.1-3.95,6.67-10.14,8.54a72.5,72.5,0,0,0-4.32-7.7c-7.61-2.25-7.14-10.14-14.18-12.67-8.36-2.91-5.82-7.61-5.82-7.61a30,30,0,0,1,13.33-1.78c2.63.37,7.89,8,11,12.77C777.43,1560.84,780.9,1563.75,784.66,1567.13Z"/><path class="cls-19" d="M767.24,1559.37c-2.84,2.2-10.44,9.88-10.44,9.88l-17.5-22.62s9-5.65,11.94-7.94c2.71-2.08,10.69-9.56,10.69-9.56l17.5,22.62S770.08,1557.17,767.24,1559.37Z"/><path class="cls-19" d="M767.24,1559.37c-2.84,2.2-10.44,9.88-10.44,9.88l-12.32-15.93s8.94-5.65,11.93-7.94c2.72-2.08,10.69-9.56,10.69-9.56l12.33,15.93S770.08,1557.17,767.24,1559.37Z"/><rect class="cls-19" x="757.28" y="1538.6" width="28.6" height="2.29" transform="translate(1517.41 -12.64) rotate(52.28)"/><rect class="cls-19" x="732.85" y="1557.5" width="28.6" height="2.29" transform="translate(1522.88 14.02) rotate(52.28)"/><path class="cls-48" d="M733.67,1549.63l-23.34,28.6a8,8,0,0,1-11.18,1.13l-11.72-9.57a8.43,8.43,0,0,1-1.2-11.82l23.06-28.25a15.28,15.28,0,0,1,15.88-5,1.74,1.74,0,0,0,2-.73,4,4,0,0,1,.39-.56l1.23-1.51,8.71,7.11-1.23,1.51a5.44,5.44,0,0,1-.52.55,1.53,1.53,0,0,0-.36,1.84A15.29,15.29,0,0,1,733.67,1549.63Z"/><path class="cls-49" d="M733.67,1549.63l-23.34,28.6a8,8,0,0,1-11.18,1.13l-7.37-6a8.43,8.43,0,0,1-1.19-11.83l23-28.25a15.27,15.27,0,0,1,15.88-5,1.9,1.9,0,0,0,.82,0,1.67,1.67,0,0,0,1.13-.77c.12-.19.25-.37.39-.55l1.24-1.51,4.35,3.55-1.23,1.51a5.44,5.44,0,0,1-.52.55,1.53,1.53,0,0,0-.36,1.84A15.29,15.29,0,0,1,733.67,1549.63Z"/><path class="cls-49" d="M728.84,1545.68l-23.34,28.6a8,8,0,0,1-11.18,1.14l-2.54-2.07a8.43,8.43,0,0,1-1.19-11.83l23-28.25a15.27,15.27,0,0,1,15.88-5,1.9,1.9,0,0,0,.82,0,1.4,1.4,0,0,0,.17.68A15.27,15.27,0,0,1,728.84,1545.68Z"/><rect class="cls-50" x="696.89" y="1539.68" width="31.48" height="21.67" transform="translate(1140.86 -101.32) rotate(39.22)"/><rect class="cls-50" x="727.87" y="1522.69" width="12.5" height="2.96" transform="translate(1125.84 -121.61) rotate(39.11)"/><path class="cls-47" d="M731.23,1564.41c-1.69,2.53-4.69,4.78-9.86,6.29a21.29,21.29,0,0,0-1.69-2.73c-7.51-2.34-7-10.14-14.08-12.67-8.36-2.91-5.92-7.61-5.92-7.61a30.45,30.45,0,0,1,13.34-1.78c2.72.37,8,8,11,12.77C726.07,1560.27,728.6,1562.25,731.23,1564.41Z"/><path class="cls-10" d="M608.79,1524.11l-1.69,11.36s-.75,0-2.06-.09c-4.13-.28-14.18-.84-25.54-2.07-17.09-1.68-37.37-4.69-45.45-9.67-12.3-7.51-32.48-30.51-45.63-53.52a16.68,16.68,0,0,1-.94-1.69c-6.85-12.2-11.64-24.31-12-34a48.32,48.32,0,0,1,1.59-15.4,39.46,39.46,0,0,1,6.95-13.9,7.3,7.3,0,0,1,1.31-1.6,32.43,32.43,0,0,1,8.92-7.6c2.26-.94,4.7.19,7.23,2.91v.09a43,43,0,0,1,6.48,9.58c.1.1.19.19.19.28.47.85.94,1.79,1.5,2.82a2.49,2.49,0,0,1,.38.66q1.55,3.24,3.1,6.76c11.55,25.16,23.85,63.28,34.08,74.64,4.41,4.88,24.6,14.46,40.66,21.6C599.4,1520.36,608.79,1524.11,608.79,1524.11Z"/><path class="cls-14" d="M456.06,1273.64s-3.49-18.15-23.07-19.13-42.63,14.61-40.67,35-20.12,28.76-24,45.94,14.57,17.21,18.54,30.42-7,25.15,16.85,26.24,51.32-3,56.86-16.42,8.63-67.57,8.63-67.57Z"/><path class="cls-10" d="M490,1459a72.06,72.06,0,0,1-5.26,16.78c-1.88,4.28-4,8.34-6.22,12.57-6.46,12.44-20.79,18.15-22.18,42.48-.48,8.38.58,19,4,32.8,17,68.17-117,10.09-109.46-7.57,15.07-35.09,35.44-54.93,36.13-84.27a.89.89,0,0,0,0-.23c-.07-1.43-.12-5.24-.15-10.28-.07-12.33,0-32,.09-41.93,0-.23,0-.46,0-.68.06-4.26,0-7.34-.09-8.16,11-40,32.82-39.35,40.26-38.94,2.76.15,5.65.44,8,.73,4.78-2.49,13.35-14.6,18.31-34.85l1.67.79,28.14,13.22s-3,9.16-5.19,17.92c-1.73,6.86-3,13.48-1.93,15.34,2.22.9,3.55,1.46,3.55,1.46v0C480.13,1387.36,495.72,1427.07,490,1459Z"/><path class="cls-11" d="M485.8,1935.05l-10.29,5.37s-56-77.24-62.64-143c-1.18-11.73-.78-23.11,1.77-33.61,0,0-1.12-6.49-3-17.22q-.57-3.21-1.2-6.89c-1.59-9.07-3.54-20.21-5.71-32.52-2.14-12.13-4.49-25.41-6.91-39-4.77-26.67-9.8-54.44-14-76.86l3.35-1.08,15.32-5,20.85-6.72,7.47-23.74,4.88-1.29,22-5.8a43.3,43.3,0,0,1,2.46,7.69c2,7.66,4.9,22.19,7.77,48.3.38,3.57.78,7.36,1.17,11.38,4,29.54,6.39,71.32,0,121.45q-1.86,14.51-4.72,29.9c-1.42,7.51-1.63,17.75-1,29.51C466.08,1849.77,485.8,1935.05,485.8,1935.05Z"/><path class="cls-12" d="M467.94,1603.77c-14.39,34.26-45.59,107.85-57.49,135.93-1.59-9.07-3.54-20.21-5.71-32.52-2.14-12.13-4.49-25.41-6.91-39l-5.44-57.07,10.07-25.82,12.83-32.88s9.59.48,20.37,1.13c8.93.55,18.7,1.24,24.51,1.89C462.15,1563.13,465.07,1577.66,467.94,1603.77Z"/><path class="cls-34" d="M631.75,1554.56c-4.88,4.32-25.51-17.21-27.3-19.18-4.13-.28-14.18-.84-25.54-2.07,3.57-5.82,6.86-14.17,8.36-18,11.55,5.07,20.94,8.82,20.94,8.82s17.64,2.91,20.32,5.86C636,1538.15,637.11,1550,631.75,1554.56Z"/><path class="cls-4" d="M626.31,1538.66c-3.52,0-72.77-3.53-72.77-3.53l48.12,51.32L707.29,1609Z"/><path class="cls-34" d="M674.21,1604.33c-2.29,7-6.33,28.85-6.33,28.85L612,1614.9s8.7-19.94,11.14-27.28c2.21-6.66,7.14-28.59,7.14-28.59l55.87,18.29S676.51,1597.31,674.21,1604.33Z"/><path class="cls-44" d="M674.21,1604.33c-2.29,7-6.33,28.85-6.33,28.85l-39.35-12.87s8.69-19.94,11.13-27.28c2.22-6.67,7.15-28.59,7.15-28.59l39.35,12.88S676.51,1597.31,674.21,1604.33Z"/><rect class="cls-44" x="629.57" y="1563.59" width="58.78" height="4.7" transform="translate(519.73 -127.28) rotate(18.12)"/><rect class="cls-51" x="609.82" y="1623.93" width="58.78" height="4.7" transform="translate(537.52 -118.15) rotate(18.12)"/><path class="cls-52" d="M684.79,1588.65,705,1619.57a8,8,0,0,1-2.32,11L690,1638.84a8.44,8.44,0,0,1-11.63-2.45l-19.92-30.54a15.27,15.27,0,0,1,0-16.66,1.73,1.73,0,0,0-.11-2.08,5.47,5.47,0,0,1-.41-.54l-1.06-1.64,9.41-6.14,1.07,1.63a4.83,4.83,0,0,1,.36.67,1.54,1.54,0,0,0,1.64.9A15.3,15.3,0,0,1,684.79,1588.65Z"/><path class="cls-53" d="M684.79,1588.65,705,1619.57a8,8,0,0,1-2.32,11l-8,5.2a8.44,8.44,0,0,1-11.63-2.45l-19.92-30.54a15.27,15.27,0,0,1,0-16.66,2,2,0,0,0,.28-.78,1.67,1.67,0,0,0-.39-1.3,5.47,5.47,0,0,1-.41-.54l-1.06-1.64,4.7-3.07,1.07,1.63a4.83,4.83,0,0,1,.36.67,1.54,1.54,0,0,0,1.64.9A15.3,15.3,0,0,1,684.79,1588.65Z"/><path class="cls-54" d="M679.57,1592.06,699.74,1623a8,8,0,0,1-2.32,11l-2.74,1.79a8.44,8.44,0,0,1-11.63-2.45l-19.92-30.54a15.27,15.27,0,0,1,0-16.66,2,2,0,0,0,.28-.78,1.24,1.24,0,0,0,.69.05A15.3,15.3,0,0,1,679.57,1592.06Z"/><rect class="cls-50" x="663.51" y="1598.14" width="31.48" height="21.67" transform="translate(-768.75 632.51) rotate(-33.12)"/><rect class="cls-50" x="654.42" y="1579.02" width="12.5" height="2.96" transform="translate(-758.13 620.57) rotate(-33.23)"/><path class="cls-52" d="M615.28,1575.56l7.49,36.15a8,8,0,0,1-6.17,9.4l-14.82,3.06a8.41,8.41,0,0,1-9.93-6.52l-7.4-35.71a15.28,15.28,0,0,1,6.1-15.5,1.73,1.73,0,0,0,.66-2,6.16,6.16,0,0,1-.18-.65l-.39-1.91,11-2.28.39,1.91a4.82,4.82,0,0,1,.1.75,1.53,1.53,0,0,0,1.2,1.44A15.29,15.29,0,0,1,615.28,1575.56Z"/><path class="cls-53" d="M615.28,1575.56l7.49,36.15a8,8,0,0,1-6.17,9.4l-9.32,1.93a8.44,8.44,0,0,1-9.93-6.53L590,1580.8a15.27,15.27,0,0,1,6.1-15.5,1.79,1.79,0,0,0,.54-.62,1.69,1.69,0,0,0,.12-1.36,4.43,4.43,0,0,1-.18-.65l-.4-1.91,5.51-1.14.39,1.91a4.82,4.82,0,0,1,.1.75,1.53,1.53,0,0,0,1.2,1.44A15.29,15.29,0,0,1,615.28,1575.56Z"/><path class="cls-54" d="M609.18,1576.83l7.48,36.15a8,8,0,0,1-6.17,9.39l-3.21.67a8.44,8.44,0,0,1-9.93-6.53L590,1580.8a15.27,15.27,0,0,1,6.1-15.5,1.79,1.79,0,0,0,.54-.62,1.32,1.32,0,0,0,.63.3A15.32,15.32,0,0,1,609.18,1576.83Z"/><rect class="cls-44" x="586.96" y="1581.62" width="31.48" height="21.67" transform="translate(-310.39 155.29) rotate(-11.7)"/><rect class="cls-44" x="589.56" y="1557.69" width="12.5" height="2.96" transform="translate(-306.53 154.97) rotate(-11.81)"/><path class="cls-55" d="M743.53,1814.06l-11.92,75.86-3.48,21.88-6.85,43.85H628.51s-12.2-7.51-28.07-17.37c-27-17-64.41-40.66-68.17-44.88-2.44-2.73-6.67-23.19-10.8-46.29-5.82-33-11.45-71.46-11.45-71.46l34-63.47L514.71,1642l38.69-106.91,48.07,51.33,105.72,22.44Z"/><polygon class="cls-55" points="605.63 1800.09 595.06 1859.95 674.28 1804.78 605.63 1800.09"/><path class="cls-55" d="M731.46,1889.92l-10.33,65.73H628.36s-12.2-7.51-28.07-17.37l-7.7-22.63,89.2-40.47,10.7-.56Z"/><path class="cls-56" d="M743.53,1814.06l-11.92,75.86-3.48,21.88c-6-3-47.88-24.6-46.19-36.62C683.72,1862.32,743.53,1814.06,743.53,1814.06Z"/><path class="cls-56" d="M532.27,1893.4s56.34,17,60.44,22.3,15.85,27.58,15.85,27.58Z"/><path class="cls-56" d="M605.63,1800.09s44.59-12.91,48.7-18.78,32.86-41.66,32.86-41.66-7.62,58.09-12.91,65.13S605.63,1800.09,605.63,1800.09Z"/><path class="cls-57" d="M569.08,1758l-47.61,89.11c-5.82-33-11.45-71.46-11.45-71.46l27-31.73Z"/><path class="cls-56" d="M569.08,1758s-25.82-10.14-59.06,17.65l34-63.47Z"/><polygon class="cls-56" points="514.71 1642.04 593.3 1662.58 626.16 1712.65 514.71 1642.04"/><polygon class="cls-57" points="595.06 1859.95 592.72 1915.7 681.94 1875.18 743.53 1814.06 687.2 1739.65 660.2 1811.24 595.06 1859.95"/><path class="cls-14" d="M508.68,1293.79s-7.55-27.18-29.4-29.8-35.6,10.47-38.54,23.23-.82,46.13,12.68,50.22S508.68,1293.79,508.68,1293.79Z"/><path class="cls-11" d="M446,1562.7l-1.36-11.61c-22.68,6-83.29-16.84-83.29-16.84s-22,19.32-19.09,65.62c1.41,22.6,2.32,61,2.32,61h0c-.06,32.89,2.39,65.46,4.34,86.11,1,10.3,1.82,17.63,2.17,20.55v0a4.07,4.07,0,0,1-.65,2.52c-4,6.71-7.71,13.54-9.92,20.85-15.5,51.19-3.3,129.83-3.3,129.83l15.26,23.8s17.31-96.31,31.39-138.85c2.38-7.22,4.67-12.89,6.77-16.28,6.12-9.88,11.8-26,16.95-45.2C417.24,1708.11,446,1562.7,446,1562.7Z"/><path class="cls-15" d="M483.23,1351.46s-3,9.15-5.19,17.92c-16.45-4.59-21.45-21.88-23-31.15Z"/><path class="cls-10" d="M486.7,1361.14s-39.35-9.1-33.31-33.52,5.05-42,30.43-37.26,27.93,15.31,27.9,24S497.09,1362.88,486.7,1361.14Z"/><path class="cls-14" d="M513.93,1300.44c-4.23-8.85-9.21-8.38-12.32-6.81-18.49-17.1-36.63-3.13-36.63-3.13a48,48,0,0,1-22.11,23.76s6.05,6.19,23.57,6c5.35,0,10.73-2.5,15.63-5.89a94.22,94.22,0,0,1-20.52,15.31c21.93-4.2,36.64-29.59,38.15-32.29,1.85,2.75,5.41,8.59,5.71,13.52.4,6.7-1.9,19.72,1.94,20.21C507.35,1331.17,520.28,1313.72,513.93,1300.44Z"/><path class="cls-13" d="M502.32,1398.22s9.48,16.53,10.89,20.79c0,0-12.28-.48-17.25,9C496,1428,496.39,1400.6,502.32,1398.22Z"/><path class="cls-13" d="M499,1447.46c-.28.78-.61,1.54-1,2.32-9.87,21.26-18.86,39-18.86,39-.25-.15-1.43,78.8-13.38,81.91-6.74,1.75-26,4.32-39.75,5.23-6.69.44-25,1.47-41.83,0-21.19-1.85-33.24-6.65-41.33-14-9.58-12.77,34.84-54.87,40.87-85.16-.08-1.58.2-6.66.63-13.28.77-12.1,2-29.37,2.38-39.92.06-1.58.1-3,.11-4.26,0-.23,0-.46,0-.68,2.14-1.59,4.23-3.06,6.16-4.46,6.18-4.51,10.8-8.35,11.1-13.3A38.27,38.27,0,0,0,404,1395c-.09-.94-.21-1.88-.35-2.81a80.47,80.47,0,0,0-5.65-18.88c10.46-4.24,29.07-1.72,29.07-1.72s0,1,0,2.73c-.06,6.8,0,24.25,2.18,27.55,2.73,4.11,52.58,22.14,55.21,16.56s-4.5-31.21-4.77-32.18v0c16.69,6.54,22.66,12,22.66,12C492.26,1404.76,506.83,1426.83,499,1447.46Z"/><path class="cls-16" d="M430,1524c-13.09-6.06-32.89-37.78-45.59-60.52.77-12.1,2-29.37,2.38-39.92Z"/><path class="cls-10" d="M527.86,1542.61l-3.29,12s-4.13-.75-10.7-2c-2-.38-3.1-.66-3.1-.66-5.26-1-11.55-2.44-18.4-3.94h-.1c-11.73-2.82-24.88-6.2-36-10-7.79-2.72-14.55-5.63-19.15-8.54a10.75,10.75,0,0,1-1.32-.94c-11-8-24-31.45-34.17-56.62-1.41-3.47-2.73-7-4-10.33A257.08,257.08,0,0,1,386.92,1426a102,102,0,0,1-2.53-17,41.13,41.13,0,0,1-.1-4.79c.19-27.23,13.71-31,13.71-31a9.06,9.06,0,0,1,.94-.28c2.35-.38,4.79,1.22,7.33,4.31,3.19,3.85,6.57,10.15,10,17.75,5.35,12.11,11,27.79,16.25,43.38,2.91,8.54,5.72,17.09,8.54,25,1.6,4.79,3.19,9.3,4.69,13.43,2.92,7.89,5.55,14.27,7.89,18.31,1.5,2.63,5.82,6.29,11.55,10.42,9.95,7.23,24.51,16,37.18,23.1,5.26,3,10.24,5.73,14.37,8C523.44,1540.26,527.86,1542.61,527.86,1542.61Z"/><path class="cls-13" d="M416.28,1395.05c-18.08-5-32,9.13-32,9.13.23-27.19,13.76-30.91,13.76-30.91C403.46,1371,409.77,1380.45,416.28,1395.05Z"/><path class="cls-34" d="M567.32,1554.53c-6,2.53-14.46,11.36-28,6a208.85,208.85,0,0,0-24.89-7.61c-2-.37-3.09-.65-3.09-.65-5.26-1-11.55-2.44-18.41-4,5.64-6.95,8.83-15.77,10.05-19.43,5.26,3,10.23,5.72,14.37,8,13.61,5.19,21.12,4.5,29.38,2.63,9.3-2.16,24.89,9,24.89,9S573.33,1552.09,567.32,1554.53Z"/><path class="cls-14" d="M394,1951H333.27s-2.27-9.68,1.72-16.27c3.53-5.84,2-12.55,1.31-20.51,2.75,1.12,6.25,4,10.12,4.69a17.4,17.4,0,0,0,11.28-2.13c2.61,3,9.92,18.38,13.41,20.89C375.08,1940.49,392.78,1939.47,394,1951Z"/><path class="cls-14" d="M516.49,1951H455.76s-2.27-9.68,1.72-16.27c3.53-5.84,2-12.55,1.31-20.51,2.75,1.12,6.25,4,10.12,4.69,4.25.73,9.75-2.07,12.56-3.7,1.37,11.79,8.64,19.95,12.13,22.46C497.57,1940.49,515.27,1939.47,516.49,1951Z"/><rect class="cls-14" y="1950.81" width="2620.15" height="7.13" rx="3.01"/><text class="cls-58" transform="translate(0 102)">D<tspan class="cls-59" x="85.56" y="0">i</tspan><tspan class="cls-60" x="114.72" y="0">sc</tspan><tspan class="cls-61" x="231.96" y="0">ov</tspan><tspan x="362.4" y="0">er </tspan><tspan class="cls-61" x="504.84" y="0">v</tspan><tspan x="566.4" y="0">olun</tspan><tspan class="cls-62" x="805.8" y="0">t</tspan><tspan class="cls-63" x="849.24" y="0">e</tspan><tspan class="cls-64" x="918.48" y="0">er oppo</tspan><tspan class="cls-65" x="1353.71" y="0">r</tspan><tspan x="1398.11" y="0">tuni</tspan><tspan class="cls-66" x="1612.43" y="0">t</tspan><tspan x="1657.66" y="0">i</tspan><tspan class="cls-67" x="1687.3" y="0">e</tspan><tspan class="cls-68" x="1754.62" y="0">s</tspan><tspan x="1809.11" y="0">.</tspan><tspan x="0" y="140">Find </tspan><tspan class="cls-67" x="266.28" y="140">y</tspan><tspan x="326.88" y="140">our </tspan><tspan class="cls-69" x="540.12" y="140">c</tspan><tspan x="603" y="140">ommuni</tspan><tspan class="cls-70" x="1046.87" y="140">t</tspan><tspan class="cls-71" x="1093.43" y="140">y</tspan><tspan x="1145.51" y="140">.</tspan><tspan x="0" y="280">Manage </tspan><tspan class="cls-67" x="492.11" y="280">v</tspan><tspan x="553.67" y="280">olun</tspan><tspan class="cls-62" x="793.07" y="280">t</tspan><tspan class="cls-59" x="836.51" y="280">e</tspan><tspan x="905.75" y="280">e</tspan><tspan class="cls-72" x="975.47" y="280">r</tspan><tspan class="cls-68" x="1016.27" y="280">s</tspan><tspan x="1070.75" y="280">.</tspan><tspan class="cls-73"><tspan x="0" y="420">Gi</tspan><tspan class="cls-74" x="92.88" y="420">v</tspan><tspan x="139.05" y="420">ehub </tspan><tspan class="cls-75" x="374.04" y="420">i</tspan><tspan x="395.91" y="420">s a one-</tspan><tspan class="cls-74" x="742.22" y="420">s</tspan><tspan class="cls-76" x="782.27" y="420">t</tspan><tspan x="814.85" y="420">op pla</tspan><tspan class="cls-77" x="1082.06" y="420">t</tspan><tspan class="cls-78" x="1113.83" y="420">f</tspan><tspan x="1141.64" y="420">orm</tspan><tspan class="cls-78" x="0" y="528">f</tspan><tspan x="27.81" y="528">or all </tspan><tspan class="cls-79" x="259.11" y="528">t</tspan><tspan x="293.04" y="528">hin</tspan><tspan class="cls-75" x="419.12" y="528">g</tspan><tspan x="475.1" y="528">s </tspan><tspan class="cls-74" x="539.45" y="528">v</tspan><tspan x="585.62" y="528">olun</tspan><tspan class="cls-76" x="765.17" y="528">t</tspan><tspan class="cls-75" x="797.75" y="528">e</tspan><tspan x="849.68" y="528">er</tspan><tspan class="cls-80" x="934.01" y="528">i</tspan><tspan x="955.88" y="528">sm.</tspan></tspan></text></g></g></svg>