<?xml version="1.0" encoding="utf-8"?>
<!-- Generator: Adobe Illustrator 25.3.1, SVG Export Plug-In . SVG Version: 6.00 Build 0)  -->
<svg version="1.1" id="Layer_1" xmlns="http://www.w3.org/2000/svg" xmlns:xlink="http://www.w3.org/1999/xlink" x="0px" y="0px"
	 viewBox="0 0 2620.1 1957.9" style="enable-background:new 0 0 2620.1 1957.9;" xml:space="preserve">
<style type="text/css">
	.st0{fill:#FFE4E6;}
	.st1{fill:#FECDD3;}
	.st2{opacity:0.5;fill:#FECDD3;enable-background:new    ;}
	.st3{fill:#699FF0;}
	.st4{fill:#4888E5;}
	.st5{fill:#A8D29F;}
	.st6{fill:#7DB2FF;}
	.st7{fill:#3B7FD1;}
	.st8{fill:#82B378;}
	.st9{fill:#FFB27D;}
	.st10{fill:#35488B;}
	.st11{fill:#2C3A64;}
	.st12{fill:#F43F5E;}
	.st13{fill:#374151;}
	.st14{fill:#ED985F;}
	.st15{fill:#E11D48;}
	.st16{fill:#C94C43;}
	.st17{fill:#B23B38;}
	.st18{fill:#FFFFFF;}
	.st19{fill:#ED975D;}
	.st20{fill:#4A75CB;}
	.st21{fill:#E58638;}
	.st22{fill:#739AF0;}
	.st23{opacity:0.5;}
	.st24{fill:#2B478B;}
	.st25{fill:#F4A671;}
	.st26{fill:#233862;}
	.st27{fill:#EFCDAF;}
	.st28{fill:#E2B99A;}
	.st29{fill:#FFF3E9;}
	.st30{fill:#AFCDFB;}
	.st31{fill:#E57970;}
	.st32{fill:#D3671E;}
	.st33{fill:#F99746;}
	.st34{opacity:0.4;fill:#D86713;enable-background:new    ;}
	.st35{fill:#F1A34F;}
	.st36{fill:#C95C12;}
	.st37{fill:#CADDFF;}
	.st38{fill:#F9DDBF;}
	.st39{fill:#E5C1A1;}
	.st40{fill:#B64C41;}
	.st41{fill:#963333;}
	.st42{fill:#B7D2F9;}
	.st43{fill:#ED7D2B;}
	.st44{fill:#739CF3;}
	.st45{fill:#415DA5;}
	.st46{fill:#FFA412;}
	.st47{opacity:0.5;fill:#EBF3FA;enable-background:new    ;}
	.st48{opacity:0.3;fill:#EBF3FA;enable-background:new    ;}
	.st49{fill:#EBF3FA;}
	.st50{fill:#DC8D39;}
	.st51{fill:#ECF2FD;}
	.st52{fill:#E5EAF5;}
	.st53{opacity:0.3;fill:#CED4EA;enable-background:new    ;}
	.st54{fill:#AAC9F5;}
	.st55{fill:#C3D9FA;}
	.st56{fill:#9DC1ED;}
	.st57{enable-background:new    ;}
</style>
<path class="st0" d="M142.5,1954.6c0,0-268.9-429.2-67.9-854.2c189.1-400,504.4-188.2,857-505.9
	c535.3-482.3,1597.4-208,1377.8,457.9c-113.8,345.2,464.3,551.9,270.9,902.9L142.5,1954.6z"/>
<path class="st1" d="M1705.7,1339.1h309.7c4.1,0,7.5,3.3,7.5,7.5v23.8c0,4.1-3.3,7.5-7.5,7.5h-309.7c-4.1,0-7.5-3.3-7.5-7.5v-23.8
	C1698.2,1342.5,1701.6,1339.1,1705.7,1339.1z"/>
<path class="st1" d="M1776.9,1377.8l-3.9,22.6l-55.8,327.7c-0.4,1.3-1.6,2.1-2.9,2c-2.9,0-5.1-1.9-4.8-4.1l44.3-335.6l1.7-12.7
	L1776.9,1377.8z"/>
<path class="st1" d="M1776.9,1377.8l-3.9,22.6c-2.7-9-19.3-10-19.3-10l1.7-12.7L1776.9,1377.8z"/>
<path class="st1" d="M2006.8,1956.2c-1.5,0-2.8-1.4-2.9-3.3l-55.8-537.9l-2.4-23.2l-1.4-14h21.4l1.7,20.8l1.3,16.3l43,534.5
	C2011.9,1953.1,2009.7,1956.2,2006.8,1956.2z"/>
<path class="st1" d="M1968.6,1415c-5.4-17.7-23-23.2-23-23.2l0,0l-1.4-14h21.4l1.7,20.8L1968.6,1415z"/>
<path class="st2" d="M1733.1,1179.2c0,0,108.7-160.9,249.2-218c18.7-7.6,36.6,12.6,27,30.3l-0.5,0.9
	C1991.9,1022.4,1827.1,1100.8,1733.1,1179.2z"/>
<path class="st2" d="M1697.1,1222.8c0,0,197.9-169.2,396.2-187.1c12.1-1.1,23.4,7.4,24.9,19.4c1,7.8-1.9,17.8-13.6,29.7
	C2073.3,1116.4,1841.2,1157.4,1697.1,1222.8z"/>
<path class="st1" d="M1026.7,949.5c0,0-76.8-89.8-87.5-181.4c-1.4-12.2,13.3-19.4,22.1-10.9l0.4,0.4
	C976.6,772.3,995.9,881.6,1026.7,949.5z"/>
<path class="st1" d="M1046.5,977.6c0,0-67.2-143.4-45.6-262.6c1.3-7.3,8-12.4,15.4-11.5c4.8,0.7,10.1,4,15.2,12.8
	C1044.9,739.8,1031.4,882.5,1046.5,977.6z"/>
<path class="st1" d="M1373.8,597.2c-33.9-36.8-99.2,14.2-99.2,14.2s-10,100.5-23.4,109.7s-8.2-87.6-8.2-87.6
	c-29,11.7-81.9,82.4-81.9,82.4s50,85.1,34.8,90.8s-40.4-77.6-40.4-77.6c-22.6,22-31.3,66.2-31.3,66.2c-4.7,67.1,81.7,69.7,81.7,69.7
	s16.7,29.9,16.1,74.4l0,0c-0.5,7.3-0.3,14.6,0.5,21.8l7.3-3.8c-0.4-2.3-0.8-4.5-1-6.7l0,0v-0.1c-0.1-1.4-0.2-3.4-0.3-5.8l0,0l0,0
	c0-5.5-0.2-9.5-0.5-12.3l0,0c-0.5-17.2-0.1-40,4.3-47.1c-1.2-0.7-2.3-1.6-3.3-2.5l3.3,2.5c26.4,20.2,91.2-7.8,122.3-33.1
	s10.8-27.2-16.2-33.3s-64.1,18.5-78.9,18.3s-1.2-15.3,23-25.6s47.8,6.8,87.1-9.1s31.2-101.3,31.2-101.3
	c-21.7,21.5-75.5,31.4-82,23.4s62.7-42.9,72-51.1S1407.7,634,1373.8,597.2z"/>
<path class="st1" d="M1754.5,647.1c-50.1-54.4-146.7,21.1-146.7,21.1s-14.9,148.6-34.6,162.2s-12.1-129.5-12.1-129.5
	c-43,17.3-121,121.8-121,121.8s73.9,125.8,51.5,134.2s-59.8-114.8-59.8-114.8c-33.4,32.5-46.3,97.9-46.3,97.9
	c-7,99.2,120.8,103.1,120.8,103.1s24.7,44.2,23.8,110l0,0c0,0-1.3,12.8,0.8,32.2l10.8-5.6c-0.6-3.4-1.1-6.7-1.4-9.9c0,0,0,0,0-0.1
	v-0.1c-0.1-2.1-0.3-5-0.5-8.6l0,0l0,0c-0.1-8.2-0.3-14.1-0.7-18.3l0,0c-0.7-25.4-0.2-59.2,6.4-69.7c-1.8-1-3.4-2.3-4.9-3.7l4.9,3.7
	c39.1,30,134.9-11.6,180.8-48.9s16-40.2-24-49.3s-94.8,27.3-116.7,27s-1.7-22.6,34-37.8s70.7,10.1,128.8-13.5s46.1-149.8,46.1-149.8
	c-32.1,31.8-111.7,46.4-121.2,34.6s92.8-63.4,106.5-75.6S1804.7,701.5,1754.5,647.1z"/>
<path class="st1" d="M338.9,1041.2c-0.1-82.8,136.6-94.1,136.6-94.1s125,110.9,151.6,107.1s-88.4-115.7-88.4-115.7
	c48.5-18.4,192,8.2,192,8.2s34.8,159.6,59.6,149.4s-38-139.8-38-139.8c52.1,1.3,112.4,45.3,112.4,45.3c81.1,76.3-21,176.5-21,176.5
	s13.2,55.1,64,108.5l0,0c0,0,10.8,9.5,23.8,27l-13.1,3.6c-2-3.2-4.1-6.3-6.3-9.2c0,0,0,0,0-0.1l-0.1-0.1c-1.5-1.8-3.5-4.3-6.1-7.4
	l0,0c-6.2-6.8-10.4-11.8-13.3-15.6l0,0c-18.7-21.4-44.8-48.8-58.2-52.4c0.7-2.2,1.1-4.5,1.2-6.8c-0.4,2.2-0.8,4.4-1.2,6.8
	c-9.4,54.3-119.7,92.9-185.8,97.1s-43.6-20.9-17.7-58.8s98.7-49.5,116.5-66.4s-15.8-19.9-56.6-5.3s-50.4,62-116.2,86.8
	S423,1197.6,423,1197.6c50.5,1.8,127.1-46.6,125.9-63.6s-124.4,18.3-145,18.7S339,1124,338.9,1041.2z"/>
<path class="st3" d="M1842.2,1388c0,34-3,67.9-9.1,101.4c-47.7,262.4-277.5,461.4-553.7,461.4c-229.7,0-427.3-137.6-514.8-335
	c-11.6-26.2-21.2-53.2-28.7-80.9c-81.1-300.1,96.5-609.2,396.6-690.3c47.9-12.9,97.2-19.5,146.8-19.5c14.3,0,28.5,0.5,42.5,1.6
	C1615.5,848.9,1842.3,1093.6,1842.2,1388z"/>
<path class="st4" d="M1842.2,1388c0,34-3,67.9-9.1,101.4c-6.1,33.6-15.3,66.6-27.5,98.6c-80.6,212.1-285.8,362.9-526.2,362.9
	c-92.5,0.1-183.5-22.6-265-66.2c-7.3-3.9-14.4-7.9-21.5-12.1C892,1812.7,812.3,1723,764.7,1615.9c-11.6-26.2-21.2-53.3-28.7-80.9
	c63.6,15.2,164,31.5,284.2,23.8c20.9-1.3,42.4-3.4,64.4-6.3c85.3-11.2,168.6-34.1,247.7-68c204.8-87.8,342.6-263.7,422.8-397.4
	C1812.2,1177,1842.4,1281.4,1842.2,1388z"/>
<path class="st5" d="M1842.2,1388c0,34-3,67.9-9.1,101.4c-22.9-3.3-52.7-6.6-71.2-4.4c-33.2,3.9-66.4,72.2-134.7,74.9
	s-152.2-49.5-242-14.4s-136.6-2-152.2-27.3s39-83.9,34.1-109.3s6.9-111.2,83-111.2s107.6-41.6,121-56.6c38.3-43,68.3-3.9,99.5-37.1
	s-23.4-91.7,0-130.8s138.6-48.5,138.6-48.5C1795.3,1126.2,1842.4,1255,1842.2,1388z"/>
<path class="st5" d="M1012.5,1292.3c-27.3,38.5,9.8,118.5-13.7,159.5s-68.3,33.2-101.5,52.7c-28.8,16.9-40.3,86.8-132.7,111.4
	c-48.3-109.7-60.6-231.9-35-348.9c18.9-19,44.7-36.1,79.9-45.4c111.2-29.3,114-111.2,158.9-112.7
	C1077.8,1105,1039.9,1253.8,1012.5,1292.3z"/>
<path class="st5" d="M1432.2,1080c0,0-68.3-13.7-105.4,9.8s-112.2,65.4-102.5,89.8s81,42.9,110.3,42s9.3-58.8,151.2-42
	C1521.8,1183.8,1522.3,1104.8,1432.2,1080z"/>
<path class="st6" d="M1380.5,834.2c-34.6,60.6-98,137.3-204.9,165c-129,33.4-238.8,9.3-294.4-8.9C986.7,884.5,1130,825,1279.5,825.1
	c14.3,0,28.5,0.5,42.5,1.6C1341.6,828.2,1361.1,830.7,1380.5,834.2z"/>
<path class="st7" d="M1805.7,1588c-80.6,212.1-285.8,362.9-526.2,362.9c-92.5,0.1-183.5-22.6-265-66.2c-7.3-3.9-14.4-7.9-21.5-12.1
	C1138.1,1861.9,1500.6,1812.3,1805.7,1588z"/>
<path class="st5" d="M1107.1,1749.7c-29.9,21.8-37,88.7-56.1,98c-9.6,4.7-24.3,21.4-36.6,36.9c-77.4-41.4-144.1-100.3-194.7-172
	c33.8-23.4,97.1-63.1,141.1-64.1c0,0,22-0.3,38.2-44.9c6.4-17.6,13.3-33.2,21.2-44.9c12.3-18.1,27.1-27,46.7-20
	c7.3,2.4,13.5,7.3,17.7,13.7c11.4,16.9,12.1,43.8,44.1,69.7C1172,1657.2,1137,1727.9,1107.1,1749.7z"/>
<path class="st5" d="M1534.3,993.5c0,0-5.9-105.8-136-124.2C1398.3,869.3,1393.5,993.5,1534.3,993.5z"/>
<path class="st5" d="M1528.4,992.7c0,0,104.3,19.7,146.6-104.7C1675,888,1554.6,854.4,1528.4,992.7z"/>
<path class="st5" d="M1529.8,948.6c0,0,46.3-37.5,8.4-100.7C1538.2,847.9,1480.2,887.2,1529.8,948.6z"/>
<path class="st5" d="M1528.4,992.7c0,0-15.6,67.9-12.9,91.8h12.9c0,0-5-63.2,7.3-95L1528.4,992.7z"/>
<path class="st8" d="M1672.5,1159.1c0,0-2.8-50.1-64.3-58.8C1608.1,1100.4,1605.9,1159.1,1672.5,1159.1z"/>
<path class="st8" d="M1669.7,1158.8c0,0,49.4,9.3,69.4-49.6C1739.1,1109.2,1682.1,1093.3,1669.7,1158.8z"/>
<path class="st8" d="M1670.4,1137.9c0,0,21.9-17.7,4-47.7C1674.3,1090.2,1646.9,1108.9,1670.4,1137.9z"/>
<path class="st8" d="M1669.7,1158.8c0,0-7.4,32.1-6.1,43.4h6.1c0,0-2.4-29.9,3.4-45L1669.7,1158.8z"/>
<path class="st5" d="M1458.1,1039.3c0,0-1.7-31.4-40.4-36.9C1417.7,1002.4,1416.3,1039.3,1458.1,1039.3z"/>
<path class="st5" d="M1456.4,1039.1c0,0,31,5.9,43.6-31.1C1500,1007.9,1464.2,998,1456.4,1039.1z"/>
<path class="st5" d="M1456.8,1026c0,0,13.8-11.1,2.5-29.9C1459.3,996,1442.1,1007.7,1456.8,1026z"/>
<path class="st5" d="M1456.4,1039.1c0,0-4.7,20.2-3.8,27.3h3.8c0,0-1.5-18.8,2.2-28.2L1456.4,1039.1z"/>
<path class="st9" d="M1765.3,966.9c0,0-10-2-12.3,0s-13.2,13-10.8,16.6s13.5-3,15.8-3.6s8.8-3.2,8.8-3.2L1765.3,966.9z"/>
<path class="st10" d="M1871.8,1321.1l10.7,4c0,0,46.6-64.7,52.4-121.6c1.1-9.7,0.6-19.6-1.5-29.1c0,0,0.5-2.6,1.3-7.2
	c0.4-2.1,0.8-4.7,1.3-7.7c1.5-8.7,3.6-20.6,6-34.1c5.5-31.2,12.6-71,18.1-100.2l-2.9-0.9l-31.3-10.1l-6.5-20.5l-23.3-6.1
	c0,0-5.2,10.2-9.9,58.3c-0.9,6.3-1.6,13.3-2.2,20.8c-2.1,28.1-1.4,56.3,2.2,84.3c1.1,8.4,2.4,17,4.1,25.9c1.2,6.5,1.4,15.4,0.9,25.6
	C1888.8,1248.8,1871.8,1321.1,1871.8,1321.1z"/>
<path class="st11" d="M1884,1066.5l50.6,100.6c0.4-2.1,0.8-4.7,1.3-7.7c1.5-8.7,3.6-20.6,6-34.1c5.5-31.2,12.6-71,18.1-100.2
	l-2.9-0.9l-31.3-10.1l-6.5-20.5l-23.3-6.1c0,0-5.2,10.2-9.9,58.3C1885.3,1052,1884.6,1059,1884,1066.5z"/>
<path class="st10" d="M1906.2,1000.3l1.2-10c19.6,5.2,72.1-14.6,72.1-14.6s19,16.7,16.5,56.8c-1.2,19.6-3.4,102.7-5.8,127.3
	c-0.8,8.9-1.6,15.3-1.9,17.8l0,0c-0.1,0.8,0.1,1.5,0.6,2.2c3.4,5.8,6.2,11.8,8.6,18.1c22.8,60.8-3.5,135.7-3.5,135.7l-6.8-2.8
	c0,0-15-83.4-27.2-120.2c-2.1-6.2-4-11.2-5.9-14.1c-5.3-8.5-10.2-22.5-14.7-39.1c-8.4-31.4-15.2-72.2-19.7-103.8
	C1919.1,1053.6,1906.2,1000.3,1906.2,1000.3z"/>
<path class="st9" d="M1765.3,966.9l1.5,9.8c0,0,0.7,0,1.8-0.1c3.6-0.2,12.3-0.7,22.1-1.8c14.8-1.5,32.3-4.1,39.3-8.4
	c10.6-6.5,28.1-26.4,39.5-46.3c0.3-0.5,0.6-1,0.8-1.5c5.9-10.6,10.1-21,10.4-29.4c0.3-4.5-0.2-9-1.4-13.3c-1.2-4.4-3.2-8.4-6-12
	c-0.3-0.5-0.7-1-1.1-1.4c-2.2-2.6-4.8-4.9-7.7-6.6c-2-0.8-4.1,0.2-6.3,2.5v0.1c-2.2,2.5-4.1,5.3-5.6,8.3c-0.1,0.1-0.2,0.2-0.2,0.2
	c-0.4,0.7-0.8,1.5-1.3,2.4c-0.1,0.2-0.3,0.4-0.3,0.6c-0.9,1.9-1.8,3.8-2.7,5.8c-10,21.8-20.6,54.8-29.5,64.6
	c-3.8,4.2-21.3,12.5-35.2,18.7C1773.4,963.7,1765.3,966.9,1765.3,966.9z"/>
<path class="st9" d="M1868.7,878.4c7.1,3.2,14.8,5,22.6,5.3c33.8,1.8,41.4-27.7,42.8-47.4c-3.7-1.3-7.7-1.8-11.6-1.5
	c-2.4,0.1-4.9,0.4-7,0.6c-4.1-2.2-11.5-12.6-15.8-30.2l-1.5,0.7l-24.3,11.4c0,0,2.6,7.9,4.5,15.5c1.5,5.9,2.6,11.7,1.7,13.3
	c-1.9,0.8-3.1,1.3-3.1,1.3l0,0C1873.3,857.5,1870.5,867.9,1868.7,878.4z"/>
<path class="st12" d="M1860.3,900.5c0.2,0.7,0.5,1.3,0.8,2c8.6,18.4,24.4,94.7,24.4,94.7c-2.3,13.7,103-2.7,103.3-15.2
	c3.7-13.2-13.2-34.5-22.7-45.2c-1.2-1.3-2.3-2.8-3.2-4.3c-2.4-3.8-3.8-8.1-4.3-12.6c-1.9-17.7-1.2-34.3-1.3-44.4l0,0
	c-1.9-1.4-3.7-2.7-5.3-3.9c-2.3-1.6-4.5-3.4-6.5-5.4c-1.7-1.6-2.8-3.8-3.1-6.1c-0.1-1.7,0-3.4,0.1-5.1c0.1-0.8,0.2-1.6,0.3-2.5
	c1-5.6,2.6-11.1,4.9-16.3c-9.1-3.7-25.2-1.5-25.2-1.5s0,0.9,0,2.4c0.1,5.9,0,21-1.9,23.8c-2.4,3.6-45.5,19.2-47.8,14.3
	s3.9-27,4.1-27.9l0,0c-14.4,5.7-19.6,10.4-19.6,10.4C1866.2,863.6,1853.6,882.7,1860.3,900.5z"/>
<path class="st13" d="M1889.3,741.5c0.1-1.5,1.2-17.2,25.2-18c0,0-11.8,1.4-13.8,6.6c0,0,8-6.4,14.6-4.4s10.4,13.5,10.4,17.3
	s-3.6,15.9-7.8,17c-1.6,0.3-3.4,0.3-5,0c1.2,1.9,2.3,3.8,3.2,5.8c9.6,19.7-0.3,38.9-8.4,36.8c-5.2-1.4-6.7,7.5-6.7,7.5l-50.6-40.9
	C1850.6,769.1,1869.1,730.6,1889.3,741.5z"/>
<path class="st14" d="M1874,817.5c0,0,2.6,7.9,4.5,15.5c14.2-4,18.6-18.9,19.9-27L1874,817.5z"/>
<path class="st9" d="M1871,825.8c0,0,34.1-7.9,28.8-29s-4.4-36.4-26.3-32.2s-24.2,13.2-24.2,20.7S1862,827.3,1871,825.8z"/>
<path class="st13" d="M1847.4,773.3c3.7-7.7,8-7.2,10.7-5.9c16-14.8,31.7-2.7,31.7-2.7c3.8,8.9,10.6,16.1,19.1,20.6
	c0,0-5.2,5.4-20.4,5.2c-4.6,0-9.3-2.2-13.5-5.1c5.3,5.2,11.3,9.7,17.8,13.2c-19-3.6-31.7-25.6-33-28c-1.6,2.4-4.7,7.4-5,11.7
	c-0.3,5.8,1.7,17.1-1.7,17.5C1853.1,799.9,1841.9,784.8,1847.4,773.3z"/>
<path class="st12" d="M1857.4,857.9c0,0-8.2,14.3-9.4,18c0,0,10.6-0.4,14.9,7.8C1863,883.7,1864,859.9,1857.4,857.9z"/>
<path class="st15" d="M1913.9,971.6c20.8-0.2,38.4-21.8,49.1-39c-2.4-3.8-3.8-8.1-4.3-12.6c-1.9-17.7-1.2-34.3-1.3-44.4l0,0
	c-1.9-1.4-3.7-2.7-5.3-3.9c-2.3-1.6-4.5-3.4-6.5-5.4C1928.5,895.1,1885.7,971.9,1913.9,971.6z"/>
<path class="st9" d="M1835.3,982.9l2.8,10.4c0,0,3.6-0.7,9.3-1.7c1.7-0.3,2.7-0.6,2.7-0.6c4.6-0.9,10-2.1,15.9-3.4h0.1
	c10.2-2.4,21.5-5.4,31.1-8.6c6.8-2.3,12.6-4.9,16.6-7.4c0.4-0.2,0.8-0.5,1.1-0.8c9.5-6.9,20.8-27.2,29.6-49c1.2-3,2.4-6,3.5-8.9
	c3.8-10.1,6.9-20.4,9.3-30.9c1.1-4.8,1.9-9.8,2.2-14.7c0.1-1.4,0.1-2.8,0.1-4.1c-0.2-23.6-11.9-26.8-11.9-26.8
	c-0.2-0.1-0.5-0.2-0.8-0.2c-2-0.3-4.2,1-6.3,3.7c-2.8,3.3-5.7,8.8-8.7,15.4c-4.6,10.5-9.5,24.1-14.1,37.5c-2.5,7.4-5,14.8-7.4,21.6
	c-1.4,4.2-2.8,8-4.1,11.6c-2.5,6.8-4.8,12.4-6.8,15.8c-1.3,2.3-5,5.5-10,9c-8.6,6.3-21.2,13.8-32.2,20c-4.6,2.6-8.9,5-12.4,6.9
	C1839.2,980.9,1835.3,982.9,1835.3,982.9z"/>
<path class="st12" d="M1931.9,855.2c15.7-4.3,27.7,7.9,27.7,7.9c-0.2-23.5-11.9-26.8-11.9-26.8
	C1943,834.4,1937.6,842.5,1931.9,855.2z"/>
<path class="st13" d="M1954.3,1339.1h54.1c0,0,1.3-8.2-1.5-14.5c-2.7-6-6.9-8.7-5.9-16c-3.4,3.5-9,7.5-16.9,6.4
	c-1,1.6-6.2,9.9-9.4,12.2C1971.1,1329.8,1955.4,1328.9,1954.3,1339.1z"/>
<path class="st13" d="M1838.1,1339.1h54.1c0,0,2-8.6-1.5-14.5c-3.1-5.2-1.9-8.2,0.4-12.4c-2.9,1.2-6,1.8-9.1,1.7
	c-2.8-0.3-5.6-1.3-8-2.8c-2.3,2.7-12.3,14-15.4,16.2C1855,1329.8,1839.2,1328.9,1838.1,1339.1z"/>
<path class="st16" d="M1832.1,1031.1l-12.8-31.3c-1.7-4.1-6.1-6.2-10.3-5.1c-4-7.6-9.7-14.2-16.8-19.1c-6.6-4.7-14.5-7.3-22.6-7.4
	c-4.1,0-8.2,0.8-12.1,2.4c-18.3,7.5-26.5,30.6-19.8,53.3l-1,0.4c0,0-3.1-0.2-8.4-0.2c-16.6,0-54.2,2.2-80.6,20.5
	c-1.1,1.2-1.7,2.8-1.8,4.5c0,1,0.1,2.1,0.6,3c0,0,42.4-27.4,81.6,0.8c2.4,1.7,4.7,3.3,7,4.8l3.5,8.6c5.9,14.3,22.2,21.1,36.5,15.3
	l35.9-14.7l7.5-3.1C1831.2,1058.4,1837.3,1043.9,1832.1,1031.1z M1762.5,1005.7l-14.6,6c-3.9,1.6-6,5.9-5,10l-1.6,0.6
	c-6-20.7,1.3-41.5,17.6-48.2c2.2-0.9,4.6-1.6,7-1.9c7.5-1,15.3,1,22.4,5.4c7.2,4.6,13,10.9,17,18.4l-2.2,0.9
	c-2.2-3.7-6.7-5.2-10.6-3.6l-14.6,6c-1.5-3.7-5.7-5.4-9.4-4l-2,0.8C1762.8,997.8,1761,1002,1762.5,1005.7z"/>
<path class="st17" d="M1735.2,1057.5c-2.3-1.5-4.6-3.1-7-4.8c-39.2-28.2-81.6-0.8-81.6-0.8c-0.4-0.9-0.6-2-0.6-3
	c5.9-3.9,28.2-16.9,55.7-12.5C1734,1041.8,1739.9,1046.2,1735.2,1057.5z"/>
<path class="st17" d="M1818.5,1063.6l-7.5,3.1c11.2-6.1-2.7-32-10.8-49.1s-20.4-9.3-20.4-9.3c-1.7-3.3-5.1-5.5-8.8-5.4
	c-0.3-5.5-4.5-6.6-4.5-6.6l2-0.8c3.7-1.5,7.9,0.3,9.4,4l14.6-6c3.9-1.6,8.4-0.1,10.6,3.6l2.2-0.9c-4-7.5-9.8-13.8-17-18.4
	c-7-4.4-14.9-6.4-22.4-5.4c1.4-1.2,2.6-2.6,3.6-4.1c8.1,0.1,16,2.7,22.6,7.4c7.1,4.9,12.9,11.5,16.9,19.1c4.2-1.2,8.7,1,10.3,5.1
	l12.8,31.3C1837.3,1043.8,1831.2,1058.3,1818.5,1063.6z"/>
<path class="st9" d="M1801.7,993c5.2,2.2,12.5,9.8,24.2,5.2c7-2.6,14.2-4.8,21.5-6.6c1.7-0.3,2.7-0.6,2.7-0.6l-4.6-13.5
	c-0.2,0.1-0.4,0.1-0.6,0.2c-3,0.7-18.3,3.9-25.4,2.3c-8-1.9-21.5,7.8-21.5,7.8S1796.5,990.9,1801.7,993z"/>
<path class="st18" d="M1654.9,1074.6c0-4.9-8.8-19.9-8.8-19.9s-8.8,15.1-8.8,19.9c0,4.9,4,8.8,8.8,8.8S1654.9,1079.5,1654.9,1074.6
	L1654.9,1074.6z"/>
<path class="st13" d="M2346.4,1903.3c0,0,10.2,9.5,8.2,16.2s-11.2,11.2-12.5,19.5s-6.2,12.7-10.7,12.7H2310c0,0-3.3-5.8,4.7-7.6
	s11-11.4,10.5-20.4c-0.2-7,0-14,0.8-21l17-4L2346.4,1903.3z"/>
<path class="st13" d="M2220.9,1929.2c0,0,2.5,20-2,22.2s-58.2,1.5-58.2,1.5s0-6.7,9.2-8.2s25.5-7,28.2-19.2
	S2220.9,1929.2,2220.9,1929.2z"/>
<path class="st10" d="M2172.3,1624.2c0,0,3,37.9,6.6,83.4c4.8,61.8,10.7,137.7,11.2,152.1c1,25,5,64.9,5,64.9s9.5,9.5,28.5,5.5
	c0,0,16.9-57,21.8-117.4c0.1-1,0.1-2,0.2-3c4.5-61.4,11.5-190.8,11.5-190.8L2172.3,1624.2z"/>
<path class="st11" d="M2172.3,1624.2c0,0,3,37.9,6.6,83.4l66.5,105.2c0.1-1,0.1-2,0.2-3c4.5-61.4,11.5-190.8,11.5-190.8
	L2172.3,1624.2z"/>
<path class="st10" d="M2186.1,1628.7c0,0,54.7,137.1,90.6,201.5s47.2,82.4,47.2,82.4s20.6-8.2,22.5-13.9c0,0-13.8-124.4-37.8-154.7
	c-13.6-17.1-29.6-68.5-30.3-86.5s-4.9-53.6-4.9-53.6L2186.1,1628.7z"/>
<path class="st9" d="M2078.8,1609.7c0,0-19.3,9.3-21.9,11.6s-9,14-8.5,14.9s1.4,1.2,3.2,0s6.6-6.3,6.8-5.3s-13.1,16.6-10.8,19.9
	c2.4,3.3,15.7,2.3,23.3-3.1s15.2-25.3,16.3-26.4C2097,1612.1,2078.8,1609.7,2078.8,1609.7z"/>
<path class="st15" d="M2078,1619.6c-5.4-4.7-5.5-5.8-5.5-5.8s34.2-59.2,37.2-64.9s21.3-94.6,21.3-94.6l63.4-18.4
	c0,0-44.7,115.5-52.5,129.8c-12.9,23.6-55,58.3-55,58.3C2083.6,1623.3,2080.6,1621.8,2078,1619.6z"/>
<path class="st9" d="M2162.1,1412.8c0,0-22.3,39.2-44.1,44.4c0,0,0.9-13.2,6.2-22.2c-2.2-2.6-4.1-4.9-5.7-7
	c-2.9-3.6-5.6-7.4-8.1-11.3l7.4-19.9l5-13.5c2.2,4,4.8,7.8,7.8,11.3C2144.9,1411,2162.1,1412.8,2162.1,1412.8z"/>
<path class="st19" d="M2130.6,1394.6c0,0,2.7,19.7-12.2,33.4c-2.9-3.6-5.6-7.4-8.1-11.3l7.4-19.9
	C2125.6,1394.3,2130.6,1394.6,2130.6,1394.6z"/>
<path class="st9" d="M2104.4,1419.6c0,0,33.3-13,24.9-33.6s-9.8-36.2-31.4-28.8s-22.5,17-21.4,24.6S2095.5,1422.4,2104.4,1419.6z"/>
<path class="st12" d="M2276.6,1614.3c-13.4,19.3-114,45.2-112.8,31.8c0.8-8.8,0.8-17.6,0-26.4c-0.2-2.9-0.6-5.9-1.1-9.1
	c-2.6-17.6-8.6-40.2-22.2-66.4c-1-2-2.1-3.9-3.2-5.9c-5.5-10-10.2-20.5-13.9-31.3c-7-20.1-9.8-39.4-6.3-52c0-0.1,0-0.1,0.1-0.2
	c21-9.7,29.2-47.4,29.2-47.4s71.7,12.9,111.9,108.4c0,0,3.9,10.5,8.3,24.7c5.4,17.3,11.5,40,12.6,56.3
	C2279.7,1604.6,2279.1,1610.8,2276.6,1614.3z"/>
<path class="st13" d="M2134.1,1347.6c0.2-0.5,0.9-1,2.6-1.5c-1.1-0.3-2.2-0.4-3.4-0.1c-0.9-2.3-3.2-6.2-7.5-6.2
	c1.5,0.5,2.8,1.6,3.3,3.1c-5.8-3.7-16.7-4.8-43.7,4.2c-35.7,11.9-17.9,32.6-12.4,34.2s15.4-9,24.3-10.4s13.8,11,17.2,12
	s1.5-1.8,5-4.7s5.6,3.8,5.6,8.5s6.9,9.2,6.9,9.2l4.1-7.5c4.1-7.5,3-34.7-0.9-39.6L2134.1,1347.6z"/>
<path class="st15" d="M2279.2,1596.8c-86.5-26.1-100.3-129.2-100.3-129.2s49.3,37.6,87.7,73
	C2271.9,1557.8,2278.1,1580.6,2279.2,1596.8z"/>
<path class="st9" d="M2302.9,1600.2c0,0-2,16.4-1.5,19s3.6,10.6,4.4,10.7s3.1,0.1,3.1-1.5s-1.1-3.2-0.4-2.9s0.9,6.4,4,6.3
	s12.3-3.6,11.9-10.8s-10.2-20.3-10.4-21.5C2312,1589.4,2302.9,1600.2,2302.9,1600.2z"/>
<path class="st12" d="M2308.1,1603c-6.9,3.2-9.4-0.1-9.4-0.1s-40-66.8-44.2-72.1s-78-37-78-37s-30-11.5-31.2-29.7
	c-1-15.8,8-25.6,17.8-31.4c11.8-7,26.6-6,37.4,2.4c24.2,18.8,72.2,56.6,79.9,66.9c17.2,22.8,36.2,94.4,36.2,94.4
	C2314.3,1599.2,2311.4,1601.5,2308.1,1603z"/>
<path class="st20" d="M2136.2,1648.3l-18,18l-0.2-0.2l-27-16.9c0,0,14,4.5,15.9,4s21.3-7.2,25.9-6.7c0.2,0,0.5,0.1,0.7,0.2
	L2136.2,1648.3z"/>
<path class="st21" d="M2117.4,1671.1c-0.7-0.2-2.9-0.7-5.8-1.4c-8.4-2.2-23.2-6.3-29-9.7c-5.2-3-32.9-19.1-52-30.4
	c6.5-3.5,14-4.8,21.4-3.8c22.3,13.1,51.3,30.2,54.9,32.7c5.9,4.1,13.8,9.1,13.8,9.1c0,0.2-0.1,0.4-0.1,0.6
	C2120.4,1669.3,2119.5,1671.6,2117.4,1671.1z"/>
<path class="st22" d="M2117.4,1671.1c-0.7-0.2-2.9-0.7-5.8-1.4c-8.4-2.2-23.2-6.3-29-9.7c-5.2-3-32.9-19.1-52-30.4
	c-9.6-5.7-17-10.1-18.3-11.1c-3.9-3-11.4-10.5-9.5-11.9s5.4,0,6.8-0.2h0.1c0.3,0,0.8-0.1,1.6-0.2c2.6-0.2,7.7,0.2,14.9,4.4
	c0,0,11.5,6.7,25.9,15.2c22.3,13.1,51.3,30.2,54.9,32.7c5.9,4.1,13.8,9.1,13.8,9.1c0,0.2-0.1,0.4-0.1,0.6
	C2120.4,1669.3,2119.5,1671.6,2117.4,1671.1z"/>
<path class="st20" d="M2117.4,1671.1c-0.7-0.2-2.9-0.7-5.8-1.4c0.1-2.2-0.6-4.3-1.9-6l11,4.4
	C2120.4,1669.3,2119.5,1671.6,2117.4,1671.1z"/>
<g class="st23">
	<path class="st20" d="M2093.6,1657L2093.6,1657c-0.2-0.1-0.2-0.3-0.1-0.5l0.2-0.3c0.1-0.2,0.3-0.2,0.5-0.1l0,0
		c0.2,0.1,0.2,0.3,0.1,0.5l-0.2,0.3C2094,1657,2093.8,1657.1,2093.6,1657z"/>
	<path class="st20" d="M2092,1656.1L2092,1656.1c-0.2-0.1-0.2-0.3-0.1-0.5l0.2-0.3c0.1-0.2,0.3-0.2,0.5-0.1l0,0
		c0.2,0.1,0.2,0.3,0.1,0.5l-0.2,0.3C2092.4,1656.1,2092.2,1656.2,2092,1656.1L2092,1656.1z"/>
	<path class="st20" d="M2090.4,1655.1L2090.4,1655.1c-0.2-0.1-0.2-0.3-0.1-0.5l0.2-0.3c0.1-0.2,0.3-0.2,0.5-0.1l0,0
		c0.2,0.1,0.2,0.3,0.1,0.5l-0.2,0.3C2090.8,1655.2,2090.6,1655.2,2090.4,1655.1z"/>
	<path class="st20" d="M2088.8,1654.2L2088.8,1654.2c-0.2-0.1-0.2-0.3-0.1-0.5l0.2-0.3c0.1-0.2,0.3-0.2,0.5-0.1l0,0
		c0.2,0.1,0.2,0.3,0.1,0.5l-0.2,0.3C2089.2,1654.2,2089,1654.3,2088.8,1654.2z"/>
	<path class="st20" d="M2087.2,1653.2L2087.2,1653.2c-0.2-0.1-0.2-0.3-0.1-0.5l0.2-0.3c0.1-0.2,0.3-0.2,0.5-0.1l0,0
		c0.2,0.1,0.2,0.3,0.1,0.5l-0.2,0.3C2087.6,1653.3,2087.4,1653.3,2087.2,1653.2z"/>
	<path class="st20" d="M2085.6,1652.3L2085.6,1652.3c-0.2-0.1-0.2-0.3-0.1-0.5l0.2-0.3c0.1-0.2,0.3-0.2,0.5-0.1l0,0
		c0.2,0.1,0.2,0.3,0.1,0.5l-0.2,0.3C2086,1652.3,2085.8,1652.4,2085.6,1652.3L2085.6,1652.3z"/>
	<path class="st20" d="M2084,1651.3L2084,1651.3c-0.2-0.1-0.2-0.3-0.1-0.5l0.2-0.3c0.1-0.2,0.3-0.2,0.5-0.1l0,0l0,0
		c0.2,0.1,0.2,0.3,0.1,0.5l-0.2,0.3C2084.4,1651.4,2084.2,1651.4,2084,1651.3z"/>
	<path class="st20" d="M2082.4,1650.4L2082.4,1650.4c-0.2-0.1-0.2-0.3-0.1-0.5l0.2-0.3c0.1-0.2,0.3-0.2,0.5-0.1l0,0l0,0
		c0.2,0.1,0.2,0.3,0.1,0.5l-0.2,0.3C2082.8,1650.4,2082.6,1650.5,2082.4,1650.4z"/>
	<path class="st20" d="M2080.8,1649.4L2080.8,1649.4c-0.2-0.1-0.2-0.3-0.1-0.5l0.2-0.3c0.1-0.2,0.3-0.2,0.5-0.1l0,0
		c0.2,0.1,0.2,0.3,0.1,0.5l-0.2,0.3C2081.2,1649.5,2081,1649.5,2080.8,1649.4z"/>
	<path class="st20" d="M2061.9,1638.2L2061.9,1638.2c-0.2-0.1-0.2-0.3-0.1-0.5l0.2-0.3c0.1-0.2,0.3-0.2,0.5-0.1l0,0
		c0.2,0.1,0.2,0.3,0.1,0.5l-0.2,0.3C2062.3,1638.3,2062.1,1638.4,2061.9,1638.2C2061.9,1638.3,2061.9,1638.3,2061.9,1638.2z"/>
	<path class="st20" d="M2060.3,1637.3L2060.3,1637.3c-0.2-0.1-0.2-0.3-0.1-0.5l0.2-0.3c0.1-0.2,0.3-0.2,0.5-0.1l0,0l0,0
		c0.2,0.1,0.2,0.3,0.1,0.5l-0.2,0.3C2060.7,1637.4,2060.5,1637.4,2060.3,1637.3z"/>
	<path class="st20" d="M2058.7,1636.4L2058.7,1636.4c-0.2-0.1-0.2-0.3-0.1-0.5l0.2-0.3c0.1-0.2,0.3-0.2,0.5-0.1l0,0l0,0
		c0.2,0.1,0.2,0.3,0.1,0.5l-0.2,0.3C2059.1,1636.4,2058.9,1636.5,2058.7,1636.4z"/>
	<path class="st20" d="M2057.1,1635.4L2057.1,1635.4c-0.2-0.1-0.2-0.3-0.1-0.5l0.2-0.3c0.1-0.2,0.3-0.2,0.5-0.1l0,0
		c0.2,0.1,0.2,0.3,0.1,0.5l-0.2,0.3C2057.5,1635.4,2057.3,1635.5,2057.1,1635.4L2057.1,1635.4z"/>
	<path class="st20" d="M2055.5,1634.5L2055.5,1634.5c-0.2-0.1-0.2-0.3-0.1-0.5l0.2-0.3c0.1-0.2,0.3-0.2,0.5-0.1l0,0
		c0.2,0.1,0.2,0.3,0.1,0.5l-0.2,0.3C2055.9,1634.5,2055.7,1634.6,2055.5,1634.5L2055.5,1634.5z"/>
	<path class="st20" d="M2053.9,1633.5L2053.9,1633.5c-0.2-0.1-0.2-0.3-0.1-0.5l0.2-0.3c0.1-0.2,0.3-0.2,0.5-0.1l0,0l0,0
		c0.2,0.1,0.2,0.3,0.1,0.5l-0.2,0.3C2054.3,1633.6,2054.1,1633.6,2053.9,1633.5z"/>
	<path class="st20" d="M2052.3,1632.6L2052.3,1632.6c-0.2-0.1-0.2-0.3-0.1-0.5l0.2-0.3c0.1-0.2,0.3-0.2,0.5-0.1l0,0l0,0
		c0.2,0.1,0.2,0.3,0.1,0.5l-0.2,0.3C2052.7,1632.6,2052.5,1632.7,2052.3,1632.6z"/>
	<path class="st20" d="M2050.7,1631.6L2050.7,1631.6c-0.2-0.1-0.2-0.3-0.1-0.5l0.2-0.3c0.1-0.2,0.3-0.2,0.5-0.1l0,0
		c0.2,0.1,0.2,0.3,0.1,0.5l-0.2,0.3C2051.1,1631.7,2050.9,1631.7,2050.7,1631.6L2050.7,1631.6z"/>
	<path class="st20" d="M2049.1,1630.7L2049.1,1630.7c-0.2-0.1-0.2-0.3-0.1-0.5l0,0l0.2-0.3c0.1-0.2,0.3-0.2,0.5-0.1l0,0
		c0.2,0.1,0.2,0.3,0.1,0.5l0,0l-0.2,0.3C2049.5,1630.7,2049.3,1630.8,2049.1,1630.7z"/>
	<path class="st20" d="M2042.9,1627L2042.9,1627c-0.2-0.1-0.2-0.3-0.1-0.5l0.2-0.3c0.1-0.2,0.3-0.2,0.5-0.1l0,0l0,0
		c0.2,0.1,0.2,0.3,0.1,0.5l-0.2,0.3C2043.3,1627,2043.1,1627.1,2042.9,1627z"/>
	<path class="st20" d="M2046,1628.9L2046,1628.9c-0.2-0.1-0.2-0.3-0.1-0.5l0,0l0.2-0.3c0.1-0.2,0.3-0.2,0.5-0.1l0,0l0,0
		c0.2,0.1,0.2,0.3,0.1,0.5l-0.2,0.3C2046.4,1628.9,2046.2,1629,2046,1628.9z"/>
	<path class="st20" d="M2041.3,1626.1L2041.3,1626.1c-0.2-0.1-0.2-0.3-0.1-0.5l0.2-0.3c0.1-0.2,0.3-0.2,0.5-0.1l0,0l0,0
		c0.2,0.1,0.2,0.3,0.1,0.5l-0.2,0.3C2041.7,1626.1,2041.5,1626.2,2041.3,1626.1z"/>
	<path class="st20" d="M2039.7,1625.1L2039.7,1625.1c-0.2-0.1-0.2-0.3-0.1-0.5l0.2-0.3c0.1-0.2,0.3-0.2,0.5-0.1l0,0
		c0.2,0.1,0.2,0.3,0.1,0.5l-0.2,0.3C2040.1,1625.2,2039.9,1625.2,2039.7,1625.1L2039.7,1625.1z"/>
	<path class="st20" d="M2038.1,1624.2L2038.1,1624.2c-0.2-0.1-0.2-0.3-0.1-0.5l0.2-0.3c0.1-0.2,0.3-0.2,0.5-0.1l0,0
		c0.2,0.1,0.2,0.3,0.1,0.5l-0.2,0.3C2038.5,1624.2,2038.2,1624.3,2038.1,1624.2z"/>
	<path class="st20" d="M2036.5,1623.2L2036.5,1623.2c-0.2-0.1-0.2-0.3-0.1-0.5l0.2-0.3c0.1-0.2,0.3-0.2,0.5-0.1l0,0
		c0.2,0.1,0.2,0.3,0.1,0.5l-0.2,0.3C2036.9,1623.3,2036.6,1623.3,2036.5,1623.2z"/>
	<path class="st20" d="M2034.9,1622.3L2034.9,1622.3c-0.2-0.1-0.2-0.3-0.1-0.5l0,0l0.2-0.3c0.1-0.2,0.3-0.2,0.5-0.1l0,0
		c0.2,0.1,0.2,0.3,0.1,0.5l0,0l-0.2,0.3C2035.3,1622.3,2035,1622.4,2034.9,1622.3z"/>
	<path class="st20" d="M2033.3,1621.3L2033.3,1621.3c-0.2-0.1-0.2-0.3-0.1-0.5l0.2-0.3c0.1-0.2,0.3-0.2,0.5-0.1l0,0
		c0.2,0.1,0.2,0.3,0.1,0.5l0,0l-0.2,0.3C2033.7,1621.4,2033.4,1621.4,2033.3,1621.3z"/>
	<path class="st20" d="M2031.7,1620.4L2031.7,1620.4c-0.2-0.1-0.2-0.3-0.1-0.5l0.2-0.3c0.1-0.2,0.3-0.2,0.5-0.1l0,0
		c0.2,0.1,0.2,0.3,0.1,0.5l-0.2,0.3C2032,1620.4,2031.8,1620.5,2031.7,1620.4z"/>
	<path class="st20" d="M2030.1,1619.4L2030.1,1619.4c-0.2-0.1-0.2-0.3-0.1-0.5l0,0l0.2-0.3c0.1-0.2,0.3-0.2,0.5-0.1l0,0
		c0.2,0.1,0.2,0.3,0.1,0.5l-0.2,0.3C2030.5,1619.5,2030.2,1619.5,2030.1,1619.4L2030.1,1619.4z"/>
	<path class="st20" d="M2028.5,1618.5L2028.5,1618.5c-0.2-0.1-0.2-0.3-0.1-0.5l0.2-0.3c0.1-0.2,0.3-0.2,0.5-0.1l0,0l0,0
		c0.2,0.1,0.2,0.3,0.1,0.5l-0.2,0.3C2028.9,1618.5,2028.7,1618.6,2028.5,1618.5z"/>
	<path class="st20" d="M2026.9,1617.6L2026.9,1617.6c-0.2-0.1-0.2-0.3-0.1-0.5l0.2-0.3c0.1-0.2,0.3-0.2,0.5-0.1l0,0l0,0
		c0.2,0.1,0.2,0.3,0.1,0.5l-0.2,0.3C2027.3,1617.6,2027.1,1617.6,2026.9,1617.6z"/>
	<path class="st20" d="M2025.3,1616.6L2025.3,1616.6c-0.2-0.1-0.2-0.3-0.1-0.5l0.2-0.3c0.1-0.2,0.3-0.2,0.5-0.1l0,0
		c0.2,0.1,0.2,0.3,0.1,0.5l-0.2,0.3C2025.7,1616.6,2025.5,1616.7,2025.3,1616.6z"/>
	<path class="st20" d="M2013,1608.3c-0.1,0.2-0.4,0.3-0.6,0.2l-0.2-0.1l-2.5-2c0.3,0,0.8-0.1,1.6-0.2l1.7,1.3
		C2013.2,1607.7,2013.2,1608.1,2013,1608.3L2013,1608.3z"/>
	<path class="st20" d="M2053.5,1631.6l0.5,0.3c0.3,0.2,0.4,0.6,0.2,0.9l-1.2,2c-0.2,0.3-0.6,0.4-0.9,0.2l-0.5-0.3
		c-0.3-0.2-0.4-0.6-0.2-0.9l1.2-2C2052.8,1631.5,2053.2,1631.4,2053.5,1631.6z"/>
	<path class="st20" d="M2058,1633.4l0.5,0.3c0.3,0.2,0.4,0.6,0.2,0.9l-1.2,2c-0.2,0.3-0.6,0.4-0.9,0.2l-0.5-0.3
		c-0.3-0.2-0.4-0.6-0.2-0.9l1.2-2C2057.3,1633.3,2057.7,1633.2,2058,1633.4z"/>
	<path class="st20" d="M2076.1,1646.6L2076.1,1646.6c-0.2-0.1-0.2-0.3-0.1-0.5l0.2-0.3c0.1-0.2,0.3-0.2,0.5-0.1l0,0
		c0.2,0.1,0.2,0.3,0.1,0.5l-0.2,0.3C2076.5,1646.7,2076.3,1646.7,2076.1,1646.6z"/>
	<path class="st20" d="M2074.5,1645.7L2074.5,1645.7c-0.2-0.1-0.2-0.3-0.1-0.5l0,0l0.2-0.3c0.1-0.2,0.3-0.2,0.5-0.1l0,0
		c0.2,0.1,0.2,0.3,0.1,0.5l0,0l-0.2,0.3C2074.9,1645.7,2074.7,1645.8,2074.5,1645.7z"/>
	<path class="st20" d="M2072.9,1644.7L2072.9,1644.7c-0.2-0.1-0.2-0.3-0.1-0.5l0.2-0.3c0.1-0.2,0.3-0.2,0.5-0.1l0,0
		c0.2,0.1,0.2,0.3,0.1,0.5l0,0l-0.2,0.3C2073.3,1644.8,2073.1,1644.8,2072.9,1644.7z"/>
	<path class="st20" d="M2071.3,1643.8L2071.3,1643.8c-0.2-0.1-0.2-0.3-0.1-0.5l0.2-0.3c0.1-0.2,0.3-0.2,0.5-0.1l0,0
		c0.2,0.1,0.2,0.3,0.1,0.5l-0.2,0.3C2071.7,1643.8,2071.4,1643.9,2071.3,1643.8z"/>
	<path class="st20" d="M2069.7,1642.8L2069.7,1642.8c-0.2-0.1-0.2-0.3-0.1-0.5l0,0l0.2-0.3c0.1-0.2,0.3-0.2,0.5-0.1l0,0
		c0.2,0.1,0.2,0.3,0.1,0.5l-0.2,0.3C2070.1,1642.9,2069.9,1642.9,2069.7,1642.8L2069.7,1642.8z"/>
	<path class="st20" d="M2068.1,1641.9L2068.1,1641.9c-0.2-0.1-0.2-0.3-0.1-0.5l0,0l0.2-0.3c0.1-0.2,0.3-0.2,0.5-0.1l0,0
		c0.2,0.1,0.2,0.3,0.1,0.5l0,0l-0.2,0.3C2068.5,1641.9,2068.2,1642,2068.1,1641.9z"/>
	<path class="st20" d="M2066.5,1641L2066.5,1641c-0.2-0.1-0.2-0.3-0.1-0.5l0.2-0.3c0.1-0.2,0.3-0.2,0.5-0.1l0,0
		c0.2,0.1,0.2,0.3,0.1,0.5l-0.2,0.3C2066.9,1641,2066.6,1641.1,2066.5,1641z"/>
	<path class="st20" d="M2064.9,1640L2064.9,1640c-0.2-0.1-0.2-0.3-0.1-0.5l0.2-0.3c0.1-0.2,0.3-0.2,0.5-0.1l0,0
		c0.2,0.1,0.2,0.3,0.1,0.5l-0.2,0.3C2065.3,1640,2065,1640.1,2064.9,1640z"/>
	<path class="st20" d="M2063.3,1639.1L2063.3,1639.1c-0.2-0.1-0.2-0.3-0.1-0.5l0.2-0.3c0.1-0.2,0.3-0.2,0.5-0.1l0,0
		c0.2,0.1,0.2,0.3,0.1,0.5l-0.2,0.3C2063.7,1639.1,2063.4,1639.2,2063.3,1639.1L2063.3,1639.1z"/>
</g>
<path class="st24" d="M2053.4,1643.6c0.7,0.1,1.4-0.4,1.5-1.1c0.1-0.3,0-0.6-0.1-0.9c-0.6-1.1-1.5-2.1-2.6-2.7
	c-2.4-1.4-3.1,3-2.4,3.5C2051,1643,2052.2,1643.3,2053.4,1643.6z"/>
<path class="st24" d="M2053.2,1638.3l-3,5c-2.5-0.6-4.8-1.6-7-2.9c-1.7-0.9-3.3-2.1-4.8-3.5c-0.3-0.2-0.5-0.5-0.7-0.8l3.1-5.3
	c0.4,0,0.7,0,1.1,0.1c3.6,1,10.8,6.8,10.8,6.8L2053.2,1638.3z"/>
<path class="st20" d="M2041.9,1631l-3.5,6c-0.3-0.2-0.5-0.5-0.7-0.8l3.1-5.3C2041.2,1630.9,2041.5,1630.9,2041.9,1631z"/>
<path class="st24" d="M2109.8,1662.9c0.1,0,10.4,2.3,16.1,6.4l-7.1-0.1l-9.1-5.4C2109.7,1663.8,2109.1,1663.1,2109.8,1662.9z"/>
<path class="st20" d="M2088.8,1642.3c0,0-6.4,4.4-7.5,5c-0.9,0.4-1.9,0.5-2.9,0.4l0,0l-11-1.8c0,0-11.7-6.8-14.2-8.4l0,0
	c-0.2-0.2-0.4-0.2-0.4-0.3c-0.7-0.5-1-1-0.7-1.2s19.5,7.5,21.6,8.4h0.1c2.1,0.8,2.5,0.4,2.5,0.4l10.6-2.9c0.2-0.1,0.4-0.1,0.6-0.1
	C2087.8,1642,2088.3,1642.1,2088.8,1642.3z"/>
<path class="st20" d="M2087.4,1641.9c-2.9,0.9-10.9,3.3-11.6,3.4s-18.2-6.2-22.5-7.8l0,0c-0.2-0.2-0.4-0.2-0.4-0.3
	c-0.7-0.5-1-1-0.7-1.2s19.5,7.5,21.6,8.4s2.6,0.4,2.6,0.4l10.6-2.9C2087,1641.9,2087.2,1641.9,2087.4,1641.9z"/>
<path class="st20" d="M2088.8,1642.3c0,0-6.4,4.4-7.5,5c-0.9,0.4-1.9,0.5-2.9,0.4l0,0c-1.7-0.9-3.3-2-4.7-3.3
	c2.1,0.8,2.5,0.4,2.5,0.4l10.6-2.9c0.2-0.1,0.4-0.1,0.6-0.1C2087.9,1642,2088.3,1642.1,2088.8,1642.3z"/>
<path class="st22" d="M2118.5,1666.4l-27.5-17.2c0,0,14.2,4.6,16.1,4.1s21.5-7.1,26.2-6.5c-5.3,2.1-17.7,7.4-18.6,10.4
	S2116.9,1664.3,2118.5,1666.4z"/>
<path class="st25" d="M1889.8,1659c0.1-5.8,4.6-15.7-4.3-25c-5.2-5.7-10-11.7-14.4-18c-1-1.5-11.7,7.3-11.4,7.7
	c1.8,2.6,9.8,15.9,11,23.3c1.3,8.4,15.6,17.5,15.6,17.5S1889.8,1664.8,1889.8,1659z"/>
<path class="st24" d="M1957.1,1660.2c-14.1,0.7-23.7-21.1-29.7-21.4c-1.7,0.1-3.5,0.3-5.2,0.6c6.2,10.3,10.5,21.5,12.8,33.3
	c8.4,42.2-9.4,81.3-39.8,87.4c-29.6,5.9-60.2-21.6-69.6-62c-0.3-1.1-0.5-2.3-0.8-3.4c-2.4-11.7-2.7-23.6-1-35.4v-0.1
	c-1,0.2-1.9,0.5-2.8,0.9c-5.4,2.6-5.8,26.4-19.1,31.2s-22.2-20.7-6.4-40.6c9.7-12.1,26.8-18,38.6-20.7c2.4-3.9,5.2-7.5,8.5-10.8
	c0.1-0.1,0.2-0.2,0.4-0.4c-12.4-6.7-19.5-20.2-18-34.1h-0.1c-9.3-2.8-14.5-12.6-11.8-21.9s12.6-14.5,21.9-11.8
	c3.6,1.1,6.8,3.3,9,6.4c5.1-2.5,10.8-3.7,16.5-3.6c2.5-9.4,12.1-15,21.5-12.5s15,12.1,12.5,21.5c-0.9,3.2-2.6,6.2-5.1,8.4
	c6.8,11.9,5.9,26.6-2.1,37.6c5.1,1.8,10,4.4,14.3,7.6c11.9-2.3,31.4-4.1,45.8,3.8C1969.7,1632.5,1971.2,1659.4,1957.1,1660.2z"/>
<path class="st26" d="M1825.6,1698.1c-0.3-1.1-0.5-2.3-0.8-3.4c-2.4-11.7-2.7-23.6-1-35.4c1.8-2,4.1-3.6,6.7-2.3
	c5.8,2.8,4.9,30.7,13.8,37.1C1850.9,1698.8,1834.5,1698.8,1825.6,1698.1z"/>
<path class="st26" d="M1859.4,1614.8c-5.5,2-11.1,3.5-16.9,4.4c0.1-0.1,0.2-0.2,0.4-0.4c-12.4-6.7-19.5-20.2-18-34.1h-0.1
	c0.3-0.1,0.8,0.1,1.4,0.9c2.2,3.1,14.2,28.6,33.2,25.7C1859.4,1611.3,1864.4,1613,1859.4,1614.8z"/>
<path class="st26" d="M1868.4,1556.1c0,0,4.4-8.3,11-6.1s7.5,11.6,3.2,14.2C1882.7,1564.3,1876.3,1558.3,1868.4,1556.1z"/>
<path class="st26" d="M1837.4,1561c0,0-9.5-4.4-13.8,0.7s4.3,11.5,4.3,11.5S1832.1,1564.6,1837.4,1561z"/>
<path class="st27" d="M1761.2,1714c-6.7-6-1.2-20.3-3.8-23.1c-0.8-0.8-1.7-1.4-2.6-2.1c-1.8,7.4-5,14.5-9.2,20.8
	c-15.2,22.9-41,32.6-57.5,21.6c-16.1-10.7-17.5-37-3.5-59.5c0.4-0.6,0.8-1.2,1.2-1.9c4.2-6.3,9.4-11.9,15.5-16.5l0,0
	c-0.5-0.3-1.1-0.6-1.7-0.9c-3.6-1.3-14.6,9.3-22.7,5.5s-0.7-19.4,15.4-21.2c9.8-1.1,20.2,4,26.8,8.1c2.8-0.7,5.8-1,8.7-1h0.3
	c-2.6-8.6,0.3-17.9,7.3-23.5l0,0c-2.9-5.5-0.9-12.3,4.6-15.2s12.3-0.9,15.2,4.6c1.1,2.1,1.6,4.5,1.2,6.9c3.5,1.2,6.6,3.2,9.1,5.8
	c5.4-3.1,12.2-1.3,15.3,4.1c3.1,5.4,1.3,12.2-4.1,15.3c-1.8,1.1-4,1.6-6.1,1.5c-2.3,8.4-9.3,14.7-17.9,16c1.5,3.1,2.5,6.5,3.1,9.9
	c6.4,4.3,16.1,12.3,19,22.4C1779.3,1707.2,1767.9,1720.1,1761.2,1714z"/>
<path class="st28" d="M1684.6,1671.8c0.4-0.6,0.8-1.2,1.2-1.9c4.2-6.3,9.4-11.9,15.5-16.5c1.7-0.1,3.4,0.2,4.1,2
	c1.4,3.9-11.6,16.1-10.5,23C1695.7,1683.6,1688.2,1676.2,1684.6,1671.8z"/>
<path class="st28" d="M1737.5,1649.4c-3.4-1.6-6.6-3.5-9.6-5.6h0.3c-2.6-8.6,0.3-17.9,7.3-23.5l0,0c0.2,0.1,0.3,0.4,0.2,1
	c-0.4,2.4-6.5,19.3,3.4,26.6C1739.1,1647.8,1740.5,1650.8,1737.5,1649.4z"/>
<path class="st29" d="M1768,1626.9c0,0,5.7-1.7,7.8,2.2s-1.9,8.7-5,7.9C1770.5,1633.5,1769.6,1630.1,1768,1626.9z"/>
<path class="st29" d="M1751.8,1615.1c0,0-2.3-6.3-6.5-5.9s-3.3,7.1-3.3,7.1S1747.8,1614.3,1751.8,1615.1z"/>
<path class="st30" d="M1619.2,1710.6c0,0-14.4-18.6-14.5-33.7s0.3-20.2,2.9-19.5s13.9,9.1,18,17.5s11.3,30.4,11.4,33.4
	S1619.2,1710.6,1619.2,1710.6z"/>
<path class="st31" d="M1620,1704.6c0,0-9.2-12.8-9.5-23.1s-0.2-13.6,1.4-13.1s8.7,6.4,11.4,12.2s7.5,20.8,7.7,22.8
	S1620,1704.6,1620,1704.6z"/>
<path class="st30" d="M1642.4,1702.8c0,0-6.9-25.1-4.2-32s16.9-2.3,18.5,2.6s0.6,25.2,0.6,25.2L1642.4,1702.8z"/>
<path class="st31" d="M1644.3,1673.9c0,0-1,19.9,2.5,27.7l6.7-1.9c0,0,1-22.2,0.2-23.8S1644.3,1673.9,1644.3,1673.9z"/>
<path class="st30" d="M1637.9,1672.3c0,0,23.2,15.4,25.1,13.7s-5.2-17.2-7.9-18.6S1637.7,1663.1,1637.9,1672.3z"/>
<rect x="1595.2" y="1692.1" class="st32" width="316.4" height="260.9"/>
<rect x="1753.4" y="1692.1" class="st33" width="316.4" height="260.9"/>
<polygon class="st34" points="2069.8,1692.1 2069.8,1775 1753.4,1793.9 1753.4,1692.1 "/>
<polygon class="st33" points="1753.4,1692.1 1816,1760.8 2128.3,1760.8 2069.8,1692.1 "/>
<polygon class="st35" points="1595.4,1886.9 1645.5,1886.9 1641.1,1872.8 1645.5,1862.7 1595.4,1862.7 "/>
<polygon class="st34" points="2069.9,1931.6 2019.8,1931.6 2024.2,1917.5 2019.8,1907.4 2069.9,1907.4 "/>
<polygon class="st36" points="1753.4,1721.6 1686.7,1788.3 1595.4,1788.3 1595.4,1692.1 1753.4,1692.1 "/>
<polygon class="st33" points="1595.2,1692.1 1524,1760.8 1682.4,1760.8 1753.4,1692.1 "/>
<path class="st37" d="M1517.1,1884.3l-5.8,1.1c-6.9,1.3-13.5-3.2-14.8-10l-8.5-43.6c-1.2-6.2,2.3-12.3,8.2-14.4
	c0-0.1-0.1-0.3-0.1-0.5l-0.5-2.6c-0.3-1.8,0.8-3.5,2.6-3.9l0,0l2.6-0.5c1.8-0.3,3.5,0.8,3.9,2.6l0.5,2.6c0,0.1,0,0.2,0,0.4
	c0,0,0,0,0,0.1c6.4-0.5,12.2,3.9,13.4,10.2l8.5,43.6C1528.3,1876.3,1523.9,1882.9,1517.1,1884.3z"/>
<rect x="1491.1" y="1831.1" transform="matrix(0.9817 -0.1906 0.1906 0.9817 -324.2898 321.0121)" class="st24" width="31.2" height="30.5"/>
<path class="st20" d="M1505.2,1815.6l-9,1.8c0-0.1-0.1-0.3-0.1-0.5l-0.5-2.6c-0.3-1.8,0.8-3.5,2.6-3.9l0,0l2.6-0.5
	c1.8-0.3,3.5,0.8,3.9,2.6l0.5,2.6C1505.1,1815.3,1505.2,1815.4,1505.2,1815.6z"/>
<path class="st38" d="M1672.3,1804.6c0,0-3.8,5.3-7.3,5.4s-8.8-2.5-8.8-2.5s-3.2-7.1-1-9.9c1.5-0.5,3.2-0.3,4.4,0.7
	c0.4,0.3,0.8,0.7,1.2,1.1c0.5,0.6,1.1,1,1.8,1.2c2.5,0.8,5.4-1,6.5,0.7c0.5,0.8,1.2,1.6,1.9,2.3
	C1671.5,1804,1671.9,1804.3,1672.3,1804.6z"/>
<path class="st38" d="M1622.9,1843.1c0,0,13.4-32.5,37.6-33.1c0,0,22.3,2.5,23.5,33.1H1622.9z"/>
<path class="st35" d="M1653.8,1811c0,0,9.7,2.2,12.7,0.9c0,0,0.4-4-3.6-3.5c-2,0.2-4-0.3-5.7-1.5
	C1655.7,1806.1,1653.4,1809.3,1653.8,1811z"/>
<path class="st39" d="M1662.2,1804.9c-0.6,0.5-2.5-6.5-2.5-6.5c0.4,0.3,0.8,0.7,1.2,1.1c0.5,0.6,1.1,1,1.8,1.2
	C1662.7,1800.9,1662.8,1804.4,1662.2,1804.9z"/>
<path class="st39" d="M1671.2,1803.6c-0.1,0.1-4.6,2.8-5.2,2.8s3.3-5,3.3-5C1669.8,1802.2,1670.4,1803,1671.2,1803.6z"/>
<path class="st39" d="M1636,1834c-0.2-0.2,9.5-14.3,12.2-14.4s8.7,3.1,13.1,3.5s8.6-0.8,9.4,1.8s3.1,11.7,1.7,13.2
	S1641.3,1838.6,1636,1834z"/>
<path class="st31" d="M1523,1856c-0.4,0.7-0.9,1.3-1.5,1.7c-0.4,0.2-0.7,0.4-1.2,0.6c-1.2,0.4-2.4,0.3-3.5-0.3l-60.1-30.6
	c-2.3-1.2-3.2-3.9-2-6.2c1.2-2.3,3.9-3.2,6.2-2l60.1,30.6C1523.2,1851,1524.1,1853.7,1523,1856z"/>
<polygon class="st40" points="1476.6,1837.6 1472.8,1825.3 1463.1,1820.4 1468.9,1833.7 "/>
<polygon class="st40" points="1491.3,1845 1483.6,1841.2 1477.8,1827.9 1487.5,1832.8 "/>
<polygon class="st40" points="1505.9,1852.5 1498.3,1848.6 1492.4,1835.3 1502.1,1840.2 "/>
<path class="st40" d="M1521.4,1857.7c-0.4,0.2-0.7,0.4-1.2,0.6c-1.2,0.4-2.4,0.3-3.5-0.3l-3.5-1.8l-5.8-13.3l9.7,4.9L1521.4,1857.7z
	"/>
<path class="st40" d="M1454.6,1821.2c0,0-1.2-6.5-6.5-8.5c0,0,0.6,0.8-1.9,1.6s-1.8,2.6-2.7,3.4
	C1443.4,1817.7,1447.1,1822.6,1454.6,1821.2z"/>
<path class="st20" d="M1453.6,1822.1L1453.6,1822.1c-0.5-0.3-0.7-0.8-0.5-1.2l0,0l0.8-1.5c0.2-0.4,0.7-0.6,1.1-0.4l0,0l0.1,0.1
	c0.4,0.2,0.6,0.7,0.4,1.1l-0.8,1.5C1454.5,1822.2,1454,1822.3,1453.6,1822.1z"/>
<path class="st40" d="M1522.7,1855.8c0,0,6-2.9,10.7,0.3c0,0-1-0.1-0.1,2.5s-1,3-1.1,4.2C1532.2,1862.8,1526,1862.7,1522.7,1855.8z"
	/>
<path class="st20" d="M1522.9,1857.2L1522.9,1857.2c-0.5-0.3-0.7-0.8-0.5-1.2l0.7-1.5c0.2-0.4,0.7-0.6,1.1-0.4l0.1,0.1
	c0.4,0.2,0.6,0.7,0.4,1.1l-0.7,1.5C1523.8,1857.3,1523.3,1857.4,1522.9,1857.2z"/>
<path class="st35" d="M1600.8,1856.4c-0.7,0.4-1.4,0.6-2.2,0.6c-0.4,0-0.8,0-1.3-0.2c-1.2-0.3-2.2-1.1-2.8-2.1l-33.8-58.4
	c-1.3-2.2-0.5-5,1.7-6.3s5-0.5,6.3,1.7l33.8,58.4C1603.8,1852.4,1603,1855.2,1600.8,1856.4z"/>
<polygon class="st38" points="1571.9,1815.7 1575.4,1803.4 1570,1794 1567.6,1808.3 "/>
<polygon class="st38" points="1580.2,1830 1575.9,1822.6 1578.2,1808.3 1583.7,1817.7 "/>
<polygon class="st38" points="1588.4,1844.2 1584.1,1836.8 1586.5,1822.5 1591.9,1831.9 "/>
<path class="st38" d="M1598.6,1857.1c-0.4,0-0.8,0-1.3-0.2c-1.2-0.3-2.2-1.1-2.8-2.1l-2-3.4l2.3-14.3l5.4,9.4L1598.6,1857.1z"/>
<path class="st35" d="M1562.4,1790.1c0,0,2.5-6.1-0.9-10.7c0,0,0.1,1-2.5,0.3s-2.9,1.2-4.1,1.3
	C1555,1781,1555.4,1787.2,1562.4,1790.1z"/>
<path class="st32" d="M1561.1,1790.2L1561.1,1790.2c-0.3-0.5-0.2-1,0.2-1.2l1.4-0.8c0.4-0.2,0.9-0.1,1.1,0.3l0,0l0.1,0.1
	c0.2,0.4,0.1,0.9-0.3,1.1l-1.4,0.8C1561.8,1790.8,1561.3,1790.6,1561.1,1790.2z"/>
<path class="st35" d="M1600.6,1856.2c0,0,6.6,0.9,8.8,6.1c0,0-0.8-0.6-1.5,2s-2.5,2-3.2,2.9
	C1604.8,1867.2,1599.7,1863.8,1600.6,1856.2z"/>
<path class="st32" d="M1599.8,1857.3L1599.8,1857.3c0.3,0.5,0.8,0.6,1.2,0.4l1.4-0.8c0.4-0.2,0.5-0.7,0.3-1.1l0,0l-0.1-0.1
	c-0.2-0.4-0.7-0.5-1.1-0.3l-1.4,0.8C1599.7,1856.4,1599.6,1856.9,1599.8,1857.3z"/>
<path class="st20" d="M1491.5,1872.8c-0.7-0.4-1.3-0.9-1.7-1.6c-0.2-0.4-0.4-0.7-0.5-1.2c-0.4-1.2-0.2-2.4,0.3-3.5l31.5-59.6
	c1.3-2.2,4.1-2.9,6.3-1.6c2.1,1.2,2.8,3.8,1.8,5.9l-31.5,59.6C1496.5,1873.1,1493.7,1874,1491.5,1872.8z"/>
<polygon class="st3" points="1510.6,1826.7 1522.9,1823.1 1528,1813.5 1514.6,1819.2 "/>
<polygon class="st3" points="1502.9,1841.3 1506.9,1833.7 1520.3,1828.1 1515.2,1837.7 "/>
<polygon class="st3" points="1495.2,1855.8 1499.2,1848.3 1512.6,1842.7 1507.6,1852.3 "/>
<path class="st3" d="M1489.8,1871.2c-0.2-0.4-0.4-0.7-0.5-1.2c-0.4-1.2-0.2-2.4,0.3-3.5l1.8-3.5l13.4-5.6l-5.1,9.6L1489.8,1871.2z"
	/>
<path class="st3" d="M1527.3,1805c0,0,6.6-1.1,8.6-6.4c0,0-0.8,0.6-1.5-2s-2.6-1.8-3.3-2.8C1531,1793.9,1526.1,1797.5,1527.3,1805z"
	/>
<path class="st20" d="M1526.4,1804L1526.4,1804c0.3-0.5,0.8-0.7,1.2-0.4l1.5,0.8c0.4,0.2,0.6,0.7,0.3,1.1l-0.1,0.1
	c-0.2,0.4-0.7,0.6-1.1,0.3l0,0l-1.5-0.8C1526.4,1804.9,1526.2,1804.4,1526.4,1804z"/>
<path class="st20" d="M1491.6,1872.6c0,0,2.8,6-0.4,10.7c0,0,0.1-1-2.5-0.2s-3-1.1-4.2-1.2
	C1484.5,1881.9,1484.7,1875.8,1491.6,1872.6z"/>
<path class="st20" d="M1490.3,1872.5L1490.3,1872.5c-0.3,0.5-0.2,1,0.2,1.2l1.5,0.8c0.4,0.2,0.9,0.1,1.1-0.3l0.1-0.1
	c0.2-0.4,0.1-0.9-0.3-1.1l-1.5-0.8C1491,1871.9,1490.5,1872.1,1490.3,1872.5z"/>
<path class="st40" d="M1554.4,1818.6c0,0,2.8,3.9,5.3,3.9s6.4-1.8,6.4-1.8s2.3-5.2,0.7-7.2c-1.1-0.4-2.3-0.2-3.2,0.5
	c-0.3,0.2-0.6,0.5-0.9,0.8c-0.3,0.4-0.8,0.7-1.3,0.9c-1.8,0.5-3.9-0.7-4.7,0.5c-0.4,0.6-0.9,1.2-1.4,1.7
	C1555,1818.2,1554.7,1818.4,1554.4,1818.6z"/>
<path class="st40" d="M1590.3,1846.6c0,0-9.7-23.6-27.2-24c0,0-16.2,1.8-17.1,24H1590.3z"/>
<path class="st41" d="M1567.9,1823.3c0,0-7,1.6-9.2,0.7c0,0-0.3-2.9,2.6-2.5c1.5,0.1,2.9-0.2,4.1-1.1
	C1566.5,1819.7,1568.2,1822,1567.9,1823.3z"/>
<path class="st41" d="M1561.8,1818.8c0.4,0.3,1.8-4.8,1.8-4.8c-0.3,0.2-0.6,0.5-0.9,0.8c-0.3,0.4-0.8,0.7-1.3,0.9
	C1561.4,1816,1561.3,1818.5,1561.8,1818.8z"/>
<path class="st41" d="M1555.3,1818c1.2,0.8,2.5,1.4,3.8,2c0.4,0-2.4-3.7-2.4-3.7C1556.3,1817,1555.8,1817.5,1555.3,1818z"/>
<path class="st41" d="M1580.8,1840c0.2-0.2-6.9-10.4-8.8-10.5s-6.3,2.2-9.5,2.5s-6.2-0.6-6.8,1.3s-2.2,8.5-1.2,9.6
	S1576.9,1843.3,1580.8,1840z"/>
<path class="st37" d="M1624.2,1819.9L1624.2,1819.9c-2.9,0-4.3-4.3-4.3-4.3l-28.2,8.6c0.7,1.8,0.4,3.9-0.8,5.5c0,0-4.9,3.3-3.4,8.3
	l6.2,20.6c1.1,3.6,5,5.7,8.7,4.6l29.8-9c3.6-1.1,5.7-5,4.6-8.7l-6.2-20.6C1629.7,1822,1627.2,1820,1624.2,1819.9z"/>
<path class="st41" d="M1588.8,1823.2l1.7,5.6c0.6,2,8.3,1.5,17.3-1.2s15.7-6.5,15-8.6l-1.7-5.6L1588.8,1823.2z"/>
<path class="st40" d="M1621.1,1813.4c0.6,2-6.1,5.9-15.1,8.6s-16.7,3.2-17.3,1.2s6.1-5.8,15-8.6S1620.5,1811.4,1621.1,1813.4z"/>
<path class="st42" d="M1548.5,1831.1L1548.5,1831.1c-2-1-1.5-4.5-1.5-4.5l-22.6-3.9c-0.1,1.5-1.1,2.9-2.4,3.5c0,0-4.5,0.6-5.2,4.6
	l-2.8,16.5c-0.5,2.9,1.5,5.7,4.4,6.2l23.8,4.1c2.9,0.5,5.7-1.5,6.2-4.4l2.8-16.5C1551.6,1834.4,1550.5,1832.2,1548.5,1831.1z"/>
<path class="st36" d="M1522.8,1821.1l-0.8,4.5c-0.3,1.6,5.3,3.9,12.4,5.1s13.1,0.9,13.4-0.7l0.8-4.5L1522.8,1821.1z"/>
<path class="st35" d="M1548.6,1825.5c-0.3,1.6-6.3,1.9-13.4,0.7s-12.7-3.5-12.4-5.1s6.3-1.9,13.4-0.7S1548.9,1823.9,1548.6,1825.5z"
	/>
<rect x="1476.6" y="1837.8" class="st32" width="139.8" height="115.3"/>
<rect x="1546.5" y="1837.8" class="st33" width="139.8" height="115.3"/>
<polygon class="st43" points="1546.5,1837.8 1686.6,1837.8 1686.6,1877.9 1546.5,1895.4 "/>
<polygon class="st33" points="1546.5,1837.8 1574.1,1868.1 1712.1,1868.1 1686.3,1837.8 "/>
<polygon class="st33" points="1476.7,1923.8 1498.8,1923.8 1496.9,1917.6 1498.8,1913.1 1476.7,1913.1 "/>
<polygon class="st36" points="1546.5,1850.8 1517,1880.3 1476.7,1880.3 1476.7,1837.8 1546.5,1837.8 "/>
<polygon class="st33" points="1476.6,1837.8 1445.2,1868.1 1515.1,1868.1 1546.5,1837.8 "/>
<path class="st15" d="M1305,1310.9c-141-26.1-224,140.7-238.3,161.3c-14.3-20.7-97.3-187.4-238.3-161.3
	c-155.5,28.8-222.4,175.5-163.6,318.7c47.9,116.7,357.2,303.5,399.8,325.8v2.3l2.2-1.1l2.2,1.1v-2.3
	c42.5-22.2,347-211.2,399.8-325.8C1527.6,1501.7,1460.6,1339.7,1305,1310.9z"/>
<path class="st14" d="M870.9,1642.2c-2.5,6.2-19.3,4.5-32.3-4.3s-31.4-16.8-41.9-24.1c-7.9-5.3-16.1-25.6-22.2-38.1
	c-1.3-2.7-2.7-5.2-4.3-7.7c-7.6-2.2-7.1-10.1-14.2-12.7c-8.4-2.9-5.8-7.6-5.8-7.6c4.3-1.6,8.8-2.2,13.3-1.8c2.6,0.4,7.9,8,11,12.8
	c2.9,2.2,6.4,5.1,10.1,8.4c10.1,9,21.6,20.7,26.2,26.4c5.3,6.7,40,14,49.4,21.7C877,1628.9,870.9,1642.2,870.9,1642.2z"/>
<path class="st14" d="M811,1737.6l36.3,201.7l12.6,0.8c0,0,9.9-87.8,1.4-118.1s14.6-68.7,8.1-95S811,1737.6,811,1737.6z"/>
<path class="st9" d="M852.8,1626.2L821,1621c-1.5-5.2-1.9-12.2-2-18.5c0-7.8,0.6-14.3,0.6-14.3l25.6-2.5l11.4-1.1
	C850.4,1596.6,852.8,1626.2,852.8,1626.2z"/>
<path class="st14" d="M853.7,1591c0,0-17,14.5-34.6,11.6c0-7.8,0.6-14.3,0.6-14.3l25.6-2.5L853.7,1591z"/>
<path class="st9" d="M835.1,1787.3c-6.4,17.9-12.2,36.1-9.3,51c0.9,4.5,1.4,9.1,1.6,13.6c0.2,4.3,0.2,8.6,0.1,12.9
	c-1.4,35.2-14.8,71-16.9,76.3l-0.3,0.7l-11.1-1.2l-4.8-211.6c0,0,50.9-20.5,53.7,6.4C849.6,1749.4,842,1768.2,835.1,1787.3z"/>
<path class="st10" d="M865.5,1799.3c0,0-3.2,0.5-8.1,1c-9.1,1-23.7,2.2-32.7,0.8c-4.3-0.7-6.7-7.8-7.8-17.3
	c-2.5-21.1,1.2-54.2,4.7-55.7c5-2.1,48.9-0.3,48.9-0.3S880.1,1751.4,865.5,1799.3z"/>
<path class="st11" d="M858.2,1800.3c-9.1,1-23.7,2.2-32.7,0.8c-4.3-0.7-6.7-7.8-7.8-17.3l24.1-39.4l18.1-7.1
	C859.8,1737.3,867,1767.5,858.2,1800.3z"/>
<path class="st10" d="M794.3,1728.4c0,0-9.5,41.8-8,74.9c0,0,21.5,4.2,43.5,0c0,0,36.4-52.9,33.3-69.9S803.5,1723,794.3,1728.4z"/>
<path class="st9" d="M811.6,1583.2c0,0,29.6,23.4,43.9,4.8s27.8-28.2,9.5-43.9s-27.5-11.5-33.8-6.4S804.2,1576.6,811.6,1583.2z"/>
<path class="st13" d="M886,1551.1c-1.2-0.3-2.4-0.3-3.5,0l0,0c2.4-4.4,0.6-11.2,0.6-11.2c0.6,3.8-2.8,8.2-2.8,8.2
	c-0.2-13.9-34.6-22.5-37.8-23.4s-2.8-6.2-2.8-6.2c-6.6,1.3-13.5,9.7-13.3,17.9s7,23.8,11.3,24.1s2.4,3.8-0.6,8.6s0.9,18,6.3,22.7
	c4.3,3.7,6.6,0.6,9.1-0.8c0.6-0.3,1.3-0.6,2-0.8c10-2.2,20.5-12.2,25.7-24.8c1.6-4,2.4-8.3,2.3-12.6
	C883.6,1552,884.8,1551.5,886,1551.1z"/>
<path class="st44" d="M861.6,1954h-7c-2.3-0.3-4.1-0.9-6.5-1.2c-3.7-0.4-5.3,0.9-5.7,1.2l-0.1,0.1h-29.8c-0.8-0.9,0-3.2,0.7-4.8
	c0.5-1.1,1.6-2,2.8-2.3c3.2-0.8,9.4-1.5,15.1-6.1c3.2-2.6,15.5-9.4,15.5-9.4h0.1c0.3,0,1.6,0.4,7.2,4.5c2.9,2.2,7.8-3,7.8-3
	c0.7,0.5,1.2,1.2,1.6,1.9c0.7,1.2,0.9,2.6,0.6,4c-0.5,2.4,1,6.8,2.1,9.8c0.7,1.8,1.3,3.1,1.3,3.1S867.6,1953.4,861.6,1954z"/>
<path class="st45" d="M863.2,1934.9c-1.7,1-5.2,3.1-7.6,3.4c-3.2,0.4-9.1-6.8-9.1-6.8h0.1c0.3,0,1.6,0.4,7.2,4.5
	c2.9,2.2,7.8-3,7.8-3C862.3,1933.6,862.8,1934.2,863.2,1934.9z"/>
<path class="st45" d="M861.6,1954h-7c-2.3-0.3-4.1-0.9-6.5-1.2c-3.7-0.4-5.3,0.9-5.7,1.2l-0.1,0.1h-29.8c-0.8-0.9,0-3.2,0.7-4.8
	c0.9-0.7,1.2,3.1,1.7,3.7s24.3,0.2,25.7-0.7s5.5-2.4,11.3-1.2c5,1.1,12.4-1.7,14.2-2.4c0.7,1.8,1.3,3.1,1.3,3.1
	S867.6,1953.4,861.6,1954z"/>
<path class="st44" d="M813.6,1954h-7c-2.3-0.3-4.1-0.9-6.5-1.2c-3.7-0.4-5.3,0.9-5.7,1.2l-0.1,0.1h-29.9c-0.8-0.9,0-3.2,0.7-4.8
	c0.5-1.1,1.6-2,2.8-2.3c3.2-0.8,9.4-1.5,15.1-6.1c3.2-2.6,15.5-9.4,15.5-9.4h0.1c0.3,0,1.5,0.4,7.2,4.5c2.9,2.2,7.8-3,7.8-3
	c0.7,0.5,1.2,1.2,1.6,1.9c0.7,1.2,0.9,2.6,0.6,4c-0.4,2.4,1,6.8,2.1,9.8c0.7,1.8,1.3,3.1,1.3,3.1S819.6,1953.4,813.6,1954z"/>
<path class="st45" d="M815.2,1934.9c-1.7,1-5.2,3.1-7.6,3.4c-3.2,0.4-9.1-6.8-9.1-6.8h0.1c0.3,0,1.5,0.4,7.2,4.5
	c2.9,2.2,7.8-3,7.8-3C814.3,1933.6,814.8,1934.2,815.2,1934.9z"/>
<path class="st45" d="M813.6,1954h-7c-2.3-0.3-4.1-0.9-6.5-1.2c-3.7-0.4-5.3,0.9-5.7,1.2l-0.1,0.1h-29.9c-0.8-0.9,0-3.2,0.7-4.8
	c0.9-0.7,1.2,3.1,1.7,3.7s24.3,0.2,25.7-0.7s5.5-2.4,11.3-1.2c5,1.1,12.4-1.7,14.2-2.4c0.7,1.8,1.3,3.1,1.3,3.1
	S819.6,1953.4,813.6,1954z"/>
<path class="st18" d="M876.6,1737.3c0,0-28.4,8.3-63,2.4c-6.3-1.1-17.4-4.2-25.3-8.7l10.4-82.9l2.2-38.6c0,0,11.9-3.7,17.7-4
	c0,0,24.2,2.9,33.6,0.4c0,0,13.5,2.8,17.3,15.4C877.6,1647.8,880.3,1680.5,876.6,1737.3z"/>
<path class="st9" d="M820.5,1642.2c-2.6,6.2-19.4,4.5-32.3-4.3c-1.1-0.8-2.2-1.5-3.5-2.2c-12.6-7.9-28.9-15.2-38.5-21.9
	c-9-6.2-18.5-32-24.9-43.1c-0.5-1-1.1-1.9-1.7-2.7c-7.5-2.3-7-10.1-14.1-12.7c-8.4-2.9-5.9-7.6-5.9-7.6c4.3-1.6,8.8-2.2,13.3-1.8
	c2.7,0.4,8,8,11,12.8c2.1,1.6,4.6,3.6,7.2,5.7c10.7,9.3,24.1,22.8,29.1,29.1c3.8,4.8,22.8,10,36.7,15.2c5.5,2.2,10.1,4.3,12.8,6.5
	C826.5,1628.9,820.5,1642.2,820.5,1642.2z"/>
<path class="st18" d="M820.5,1642.2c-2.8,12.9-35.6-2.7-36.8-3.5c1.8-19.3,1.5-29.9,7-33.3c10.7-1.7,26.8-0.8,30,0.3
	C846.8,1615.2,820.5,1642.2,820.5,1642.2z"/>
<path class="st46" d="M784.7,1567.1c-1.1,3.1-4,6.7-10.1,8.5c-1.3-2.7-2.7-5.2-4.3-7.7c-7.6-2.2-7.1-10.1-14.2-12.7
	c-8.4-2.9-5.8-7.6-5.8-7.6c4.3-1.6,8.8-2.2,13.3-1.8c2.6,0.4,7.9,8,11,12.8C777.4,1560.8,780.9,1563.8,784.7,1567.1z"/>
<path class="st18" d="M767.2,1559.4c-2.8,2.2-10.4,9.9-10.4,9.9l-17.5-22.6c0,0,9-5.7,11.9-7.9c2.7-2.1,10.7-9.6,10.7-9.6l17.5,22.6
	C779.4,1551.8,770.1,1557.2,767.2,1559.4z"/>
<path class="st18" d="M767.2,1559.4c-2.8,2.2-10.4,9.9-10.4,9.9l-12.3-15.9c0,0,8.9-5.7,11.9-7.9c2.7-2.1,10.7-9.6,10.7-9.6
	l12.3,15.9C779.4,1551.8,770.1,1557.2,767.2,1559.4z"/>
<rect x="770.4" y="1525.4" transform="matrix(0.791 -0.6118 0.6118 0.791 -780.734 793.8012)" class="st18" width="2.3" height="28.6"/>
<rect x="745.9" y="1544.3" transform="matrix(0.791 -0.6118 0.6118 0.791 -797.4412 782.7811)" class="st18" width="2.3" height="28.6"/>
<path class="st47" d="M733.7,1549.6l-23.3,28.6c-2.8,3.4-7.8,3.9-11.2,1.1l-11.7-9.6c-3.6-2.9-4.1-8.2-1.2-11.8l23.1-28.2
	c3.8-4.7,10.1-6.6,15.9-5c0.8,0.2,1.6-0.1,2-0.7c0.1-0.2,0.2-0.4,0.4-0.6l1.2-1.5l8.7,7.1l-1.2,1.5c-0.2,0.2-0.3,0.4-0.5,0.6
	c-0.5,0.5-0.7,1.2-0.4,1.8C738.2,1538.3,737.5,1544.9,733.7,1549.6z"/>
<path class="st48" d="M733.7,1549.6l-23.3,28.6c-2.8,3.4-7.8,3.9-11.2,1.1l-7.4-6c-3.6-2.9-4.1-8.2-1.2-11.8l23-28.2
	c3.8-4.7,10.1-6.6,15.9-5c0.3,0.1,0.5,0.1,0.8,0c0.5-0.1,0.9-0.4,1.1-0.8c0.1-0.2,0.2-0.4,0.4-0.6l1.2-1.5l4.3,3.6l-1.2,1.5
	c-0.2,0.2-0.3,0.4-0.5,0.6c-0.5,0.5-0.7,1.2-0.4,1.8C738.1,1538.3,737.5,1544.9,733.7,1549.6z"/>
<path class="st48" d="M728.8,1545.7l-23.3,28.6c-2.8,3.4-7.8,3.9-11.2,1.1l-2.5-2.1c-3.6-2.9-4.1-8.2-1.2-11.8l23-28.2
	c3.8-4.7,10.1-6.6,15.9-5c0.3,0.1,0.5,0.1,0.8,0c0,0.2,0.1,0.5,0.2,0.7C733.3,1534.3,732.7,1540.9,728.8,1545.7z"/>
<rect x="701.7" y="1534.8" transform="matrix(0.6323 -0.7747 0.7747 0.6323 -939.2384 1122.1509)" class="st49" width="21.7" height="31.5"/>
<rect x="732.4" y="1517.9" transform="matrix(0.6308 -0.7759 0.7759 0.6308 -911.6815 1132.1757)" class="st49" width="3" height="12.5"/>
<path class="st46" d="M731.2,1564.4c-1.7,2.5-4.7,4.8-9.9,6.3c-0.5-1-1.1-1.9-1.7-2.7c-7.5-2.3-7-10.1-14.1-12.7
	c-8.4-2.9-5.9-7.6-5.9-7.6c4.3-1.6,8.8-2.2,13.3-1.8c2.7,0.4,8,8,11,12.8C726.1,1560.3,728.6,1562.2,731.2,1564.4z"/>
<path class="st9" d="M608.8,1524.1l-1.7,11.4c0,0-0.8,0-2.1-0.1c-4.1-0.3-14.2-0.8-25.5-2.1c-17.1-1.7-37.4-4.7-45.5-9.7
	c-12.3-7.5-32.5-30.5-45.6-53.5c-0.3-0.5-0.7-1.1-0.9-1.7c-6.9-12.2-11.6-24.3-12-34c-0.3-5.2,0.2-10.4,1.6-15.4s3.7-9.8,7-13.9
	c0.4-0.6,0.8-1.1,1.3-1.6c2.5-3.1,5.5-5.6,8.9-7.6c2.3-0.9,4.7,0.2,7.2,2.9v0.1c2.6,2.9,4.8,6.1,6.5,9.6c0.1,0.1,0.2,0.2,0.2,0.3
	c0.5,0.8,0.9,1.8,1.5,2.8c0.2,0.2,0.3,0.4,0.4,0.7c1,2.2,2.1,4.4,3.1,6.8c11.5,25.2,23.8,63.3,34.1,74.6
	c4.4,4.9,24.6,14.5,40.7,21.6C599.4,1520.4,608.8,1524.1,608.8,1524.1z"/>
<path class="st13" d="M456.1,1273.6c0,0-3.5-18.2-23.1-19.1s-42.6,14.6-40.7,35s-20.1,28.8-24,45.9s14.6,17.2,18.5,30.4
	s-7,25.2,16.9,26.2s51.3-3,56.9-16.4s8.6-67.6,8.6-67.6L456.1,1273.6z"/>
<path class="st9" d="M490,1459c-1.1,5.8-2.8,11.4-5.3,16.8c-1.9,4.3-4,8.3-6.2,12.6c-6.5,12.4-20.8,18.2-22.2,42.5
	c-0.5,8.4,0.6,19,4,32.8c17,68.2-117,10.1-109.5-7.6c15.1-35.1,35.4-54.9,36.1-84.3c0-0.1,0-0.2,0-0.2c-0.1-1.4-0.1-5.2-0.1-10.3
	c-0.1-12.3,0-32,0.1-41.9c0-0.2,0-0.5,0-0.7c0.1-4.3,0-7.3-0.1-8.2c11-40,32.8-39.3,40.3-38.9c2.8,0.2,5.6,0.4,8,0.7
	c4.8-2.5,13.4-14.6,18.3-34.8l1.7,0.8l28.1,13.2c0,0-3,9.2-5.2,17.9c-1.7,6.9-3,13.5-1.9,15.3c2.2,0.9,3.5,1.5,3.5,1.5l0,0
	C480.1,1387.4,495.7,1427.1,490,1459z"/>
<path class="st10" d="M485.8,1935.1l-10.3,5.4c0,0-56-77.2-62.6-143c-1.2-11.7-0.8-23.1,1.8-33.6c0,0-1.1-6.5-3-17.2
	c-0.4-2.1-0.8-4.4-1.2-6.9c-1.6-9.1-3.5-20.2-5.7-32.5c-2.1-12.1-4.5-25.4-6.9-39c-4.8-26.7-9.8-54.4-14-76.9l3.4-1.1l15.3-5
	l20.9-6.7l7.5-23.7l4.9-1.3l22-5.8c1.1,2.5,1.9,5.1,2.5,7.7c2,7.7,4.9,22.2,7.8,48.3c0.4,3.6,0.8,7.4,1.2,11.4
	c4,29.5,6.4,71.3,0,121.4c-1.2,9.7-2.8,19.6-4.7,29.9c-1.4,7.5-1.6,17.8-1,29.5C466.1,1849.8,485.8,1935.1,485.8,1935.1z"/>
<path class="st11" d="M467.9,1603.8c-14.4,34.3-45.6,107.8-57.5,135.9c-1.6-9.1-3.5-20.2-5.7-32.5c-2.1-12.1-4.5-25.4-6.9-39
	l-5.4-57.1l10.1-25.8l12.8-32.9c0,0,9.6,0.5,20.4,1.1c8.9,0.6,18.7,1.2,24.5,1.9C462.1,1563.1,465.1,1577.7,467.9,1603.8z"/>
<path class="st33" d="M631.8,1554.6c-4.9,4.3-25.5-17.2-27.3-19.2c-4.1-0.3-14.2-0.8-25.5-2.1c3.6-5.8,6.9-14.2,8.4-18
	c11.5,5.1,20.9,8.8,20.9,8.8s17.6,2.9,20.3,5.9C636,1538.2,637.1,1550,631.8,1554.6z"/>
<path class="st3" d="M626.3,1538.7c-3.5,0-72.8-3.5-72.8-3.5l48.1,51.3l105.6,22.6L626.3,1538.7z"/>
<path class="st33" d="M674.2,1604.3c-2.3,7-6.3,28.8-6.3,28.8l-55.9-18.3c0,0,8.7-19.9,11.1-27.3c2.2-6.7,7.1-28.6,7.1-28.6
	l55.9,18.3C686.2,1577.3,676.5,1597.3,674.2,1604.3z"/>
<path class="st43" d="M674.2,1604.3c-2.3,7-6.3,28.8-6.3,28.8l-39.3-12.9c0,0,8.7-19.9,11.1-27.3c2.2-6.7,7.2-28.6,7.2-28.6
	l39.3,12.9C686.2,1577.3,676.5,1597.3,674.2,1604.3z"/>
<rect x="656.7" y="1536.6" transform="matrix(0.311 -0.9504 0.9504 0.311 -1034.2717 1705.2971)" class="st43" width="4.7" height="58.8"/>
<rect x="636.9" y="1596.9" transform="matrix(0.311 -0.9504 0.9504 0.311 -1105.1802 1728.0436)" class="st50" width="4.7" height="58.8"/>
<path class="st51" d="M684.8,1588.7l20.2,30.9c2.4,3.7,1.3,8.6-2.3,11l-12.7,8.3c-3.9,2.5-9.1,1.4-11.6-2.4l-19.9-30.5
	c-3.3-5.1-3.3-11.6,0-16.7c0.4-0.6,0.4-1.5-0.1-2.1c-0.1-0.2-0.3-0.4-0.4-0.5l-1.1-1.6l9.4-6.1l1.1,1.6c0.1,0.2,0.3,0.4,0.4,0.7
	c0.3,0.6,1,1,1.6,0.9C675.4,1580.9,681.4,1583.5,684.8,1588.7z"/>
<path class="st52" d="M684.8,1588.7l20.2,30.9c2.4,3.7,1.3,8.6-2.3,11l-8,5.2c-3.9,2.5-9.1,1.4-11.6-2.4l-19.9-30.5
	c-3.3-5.1-3.3-11.6,0-16.7c0.1-0.2,0.2-0.5,0.3-0.8c0.1-0.5-0.1-0.9-0.4-1.3c-0.1-0.2-0.3-0.4-0.4-0.5l-1.1-1.6l4.7-3.1l1.1,1.6
	c0.1,0.2,0.3,0.4,0.4,0.7c0.3,0.6,1,1,1.6,0.9C675.3,1580.9,681.4,1583.5,684.8,1588.7z"/>
<path class="st53" d="M679.6,1592.1l20.2,30.9c2.4,3.7,1.3,8.6-2.3,11l-2.7,1.8c-3.9,2.5-9.1,1.4-11.6-2.4l-19.9-30.5
	c-3.3-5.1-3.3-11.6,0-16.7c0.1-0.2,0.2-0.5,0.3-0.8c0.2,0.1,0.5,0.1,0.7,0.1C670.1,1584.3,676.2,1586.9,679.6,1592.1z"/>
<rect x="663.5" y="1598.1" transform="matrix(0.8375 -0.5464 0.5464 0.8375 -768.7606 632.5724)" class="st49" width="31.5" height="21.7"/>
<rect x="654.4" y="1579.1" transform="matrix(0.8365 -0.548 0.548 0.8365 -758.1323 620.4965)" class="st49" width="12.5" height="3"/>
<path class="st51" d="M615.3,1575.6l7.5,36.2c0.9,4.3-1.9,8.5-6.2,9.4l-14.8,3.1c-4.5,0.9-9-2-9.9-6.5l-7.4-35.7
	c-1.2-5.9,1.2-12,6.1-15.5c0.6-0.4,0.9-1.3,0.7-2c-0.1-0.2-0.1-0.4-0.2-0.7l-0.4-1.9l11-2.3l0.4,1.9c0.1,0.2,0.1,0.5,0.1,0.8
	c0,0.7,0.5,1.3,1.2,1.4C609.3,1564.9,614,1569.6,615.3,1575.6z"/>
<path class="st52" d="M615.3,1575.6l7.5,36.2c0.9,4.3-1.9,8.5-6.2,9.4l-9.3,1.9c-4.5,0.9-9-2-9.9-6.5l-7.4-35.7
	c-1.2-5.9,1.2-12,6.1-15.5c0.2-0.2,0.4-0.4,0.5-0.6c0.2-0.4,0.3-0.9,0.1-1.4c-0.1-0.2-0.1-0.4-0.2-0.7l-0.4-1.9l5.5-1.1l0.4,1.9
	c0.1,0.2,0.1,0.5,0.1,0.8c0,0.7,0.5,1.3,1.2,1.4C609.4,1564.9,614,1569.6,615.3,1575.6z"/>
<path class="st53" d="M609.2,1576.8l7.5,36.2c0.9,4.3-1.9,8.5-6.2,9.4l-3.2,0.7c-4.5,0.9-9-2-9.9-6.5l-7.3-35.7
	c-1.2-5.9,1.2-12,6.1-15.5c0.2-0.2,0.4-0.4,0.5-0.6c0.2,0.2,0.4,0.3,0.6,0.3C603.2,1566.2,607.9,1570.9,609.2,1576.8z"/>
<rect x="587" y="1581.5" transform="matrix(0.9792 -0.2028 0.2028 0.9792 -310.4192 155.3329)" class="st43" width="31.5" height="21.7"/>
<rect x="589.5" y="1557.6" transform="matrix(0.9788 -0.2047 0.2047 0.9788 -306.5464 154.9768)" class="st43" width="12.5" height="3"/>
<path class="st54" d="M743.5,1814.1l-11.9,75.9l-3.5,21.9l-6.8,43.8h-92.8c0,0-12.2-7.5-28.1-17.4c-27-17-64.4-40.7-68.2-44.9
	c-2.4-2.7-6.7-23.2-10.8-46.3c-5.8-33-11.5-71.5-11.5-71.5l34-63.5l-29.3-70.2l38.7-106.9l48.1,51.3l105.7,22.4L743.5,1814.1z"/>
<polygon class="st54" points="605.6,1800.1 595.1,1859.9 674.3,1804.8 "/>
<path class="st54" d="M731.5,1889.9l-10.3,65.7h-92.8c0,0-12.2-7.5-28.1-17.4l-7.7-22.6l89.2-40.5l10.7-0.6L731.5,1889.9z"/>
<path class="st55" d="M743.5,1814.1l-11.9,75.9l-3.5,21.9c-6-3-47.9-24.6-46.2-36.6C683.7,1862.3,743.5,1814.1,743.5,1814.1z"/>
<path class="st55" d="M532.3,1893.4c0,0,56.3,17,60.4,22.3s15.8,27.6,15.8,27.6L532.3,1893.4z"/>
<path class="st55" d="M605.6,1800.1c0,0,44.6-12.9,48.7-18.8s32.9-41.7,32.9-41.7s-7.6,58.1-12.9,65.1S605.6,1800.1,605.6,1800.1z"
	/>
<path class="st56" d="M569.1,1758l-47.6,89.1c-5.8-33-11.5-71.5-11.5-71.5l27-31.7L569.1,1758z"/>
<path class="st55" d="M569.1,1758c0,0-25.8-10.1-59.1,17.7l34-63.5L569.1,1758z"/>
<polygon class="st55" points="514.7,1642 593.3,1662.6 626.2,1712.7 "/>
<polygon class="st56" points="595.1,1859.9 592.7,1915.7 681.9,1875.2 743.5,1814.1 687.2,1739.7 660.2,1811.2 "/>
<path class="st13" d="M508.7,1293.8c0,0-7.5-27.2-29.4-29.8s-35.6,10.5-38.5,23.2s-0.8,46.1,12.7,50.2S508.7,1293.8,508.7,1293.8z"
	/>
<path class="st10" d="M446,1562.7l-1.4-11.6c-22.7,6-83.3-16.8-83.3-16.8s-22,19.3-19.1,65.6c1.4,22.6,2.3,61,2.3,61l0,0
	c-0.1,32.9,2.4,65.5,4.3,86.1c1,10.3,1.8,17.6,2.2,20.6l0,0c0.1,0.9-0.2,1.8-0.6,2.5c-4,6.7-7.7,13.5-9.9,20.8
	c-15.5,51.2-3.3,129.8-3.3,129.8l15.3,23.8c0,0,17.3-96.3,31.4-138.8c2.4-7.2,4.7-12.9,6.8-16.3c6.1-9.9,11.8-26,17-45.2
	C417.2,1708.1,446,1562.7,446,1562.7z"/>
<path class="st14" d="M483.2,1351.5c0,0-3,9.2-5.2,17.9c-16.5-4.6-21.5-21.9-23-31.2L483.2,1351.5z"/>
<path class="st9" d="M486.7,1361.1c0,0-39.4-9.1-33.3-33.5s5-42,30.4-37.3s27.9,15.3,27.9,24S497.1,1362.9,486.7,1361.1z"/>
<path class="st13" d="M513.9,1300.4c-4.2-8.8-9.2-8.4-12.3-6.8c-18.5-17.1-36.6-3.1-36.6-3.1c-4.4,10.2-12.2,18.6-22.1,23.8
	c0,0,6,6.2,23.6,6c5.4,0,10.7-2.5,15.6-5.9c-6.1,6-13,11.2-20.5,15.3c21.9-4.2,36.6-29.6,38.1-32.3c1.9,2.8,5.4,8.6,5.7,13.5
	c0.4,6.7-1.9,19.7,1.9,20.2C507.4,1331.2,520.3,1313.7,513.9,1300.4z"/>
<path class="st12" d="M502.3,1398.2c0,0,9.5,16.5,10.9,20.8c0,0-12.3-0.5-17.2,9C496,1428,496.4,1400.6,502.3,1398.2z"/>
<path class="st12" d="M499,1447.5c-0.3,0.8-0.6,1.5-1,2.3c-9.9,21.3-18.9,39-18.9,39c-0.2-0.2-1.4,78.8-13.4,81.9
	c-6.7,1.8-26,4.3-39.8,5.2c-6.7,0.4-25,1.5-41.8,0c-21.2-1.8-33.2-6.7-41.3-14c-9.6-12.8,34.8-54.9,40.9-85.2
	c-0.1-1.6,0.2-6.7,0.6-13.3c0.8-12.1,2-29.4,2.4-39.9c0.1-1.6,0.1-3,0.1-4.3c0-0.2,0-0.5,0-0.7c2.1-1.6,4.2-3.1,6.2-4.5
	c6.2-4.5,10.8-8.3,11.1-13.3c0.1-2,0.1-3.9-0.1-5.9c-0.1-0.9-0.2-1.9-0.4-2.8c-1.1-6.5-3-12.8-5.6-18.9c10.5-4.2,29.1-1.7,29.1-1.7
	s0,1,0,2.7c-0.1,6.8,0,24.2,2.2,27.6c2.7,4.1,52.6,22.1,55.2,16.6s-4.5-31.2-4.8-32.2l0,0c16.7,6.5,22.7,12,22.7,12
	C492.3,1404.8,506.8,1426.8,499,1447.5z"/>
<path class="st15" d="M430,1524c-13.1-6.1-32.9-37.8-45.6-60.5c0.8-12.1,2-29.4,2.4-39.9L430,1524z"/>
<path class="st9" d="M527.9,1542.6l-3.3,12c0,0-4.1-0.8-10.7-2c-2-0.4-3.1-0.7-3.1-0.7c-5.3-1-11.5-2.4-18.4-3.9h-0.1
	c-11.7-2.8-24.9-6.2-36-10c-7.8-2.7-14.5-5.6-19.1-8.5c-0.5-0.3-0.9-0.6-1.3-0.9c-11-8-24-31.4-34.2-56.6c-1.4-3.5-2.7-7-4-10.3
	c-4.4-11.6-8-23.5-10.7-35.6c-1.3-5.6-2.2-11.3-2.5-17c-0.1-1.6-0.2-3.2-0.1-4.8c0.2-27.2,13.7-31,13.7-31c0.3-0.1,0.6-0.2,0.9-0.3
	c2.4-0.4,4.8,1.2,7.3,4.3c3.2,3.8,6.6,10.2,10,17.8c5.4,12.1,11,27.8,16.2,43.4c2.9,8.5,5.7,17.1,8.5,25c1.6,4.8,3.2,9.3,4.7,13.4
	c2.9,7.9,5.5,14.3,7.9,18.3c1.5,2.6,5.8,6.3,11.5,10.4c10,7.2,24.5,16,37.2,23.1c5.3,3,10.2,5.7,14.4,8
	C523.4,1540.3,527.9,1542.6,527.9,1542.6z"/>
<path class="st12" d="M416.3,1395.1c-18.1-5-32,9.1-32,9.1c0.2-27.2,13.8-30.9,13.8-30.9C403.5,1371,409.8,1380.4,416.3,1395.1z"/>
<path class="st33" d="M567.3,1554.5c-6,2.5-14.5,11.4-28,6c-8.1-3.1-16.4-5.6-24.9-7.6c-2-0.4-3.1-0.7-3.1-0.7
	c-5.3-1-11.5-2.4-18.4-4c5.6-6.9,8.8-15.8,10-19.4c5.3,3,10.2,5.7,14.4,8c13.6,5.2,21.1,4.5,29.4,2.6c9.3-2.2,24.9,9,24.9,9
	S573.3,1552.1,567.3,1554.5z"/>
<path class="st13" d="M394,1951h-60.7c0,0-2.3-9.7,1.7-16.3c3.5-5.8,2-12.6,1.3-20.5c2.8,1.1,6.2,4,10.1,4.7
	c3.9,0.6,7.9-0.2,11.3-2.1c2.6,3,9.9,18.4,13.4,20.9C375.1,1940.5,392.8,1939.5,394,1951z"/>
<path class="st13" d="M516.5,1951h-60.7c0,0-2.3-9.7,1.7-16.3c3.5-5.8,2-12.6,1.3-20.5c2.8,1.1,6.2,4,10.1,4.7
	c4.2,0.7,9.8-2.1,12.6-3.7c1.4,11.8,8.6,19.9,12.1,22.5C497.6,1940.5,515.3,1939.5,516.5,1951z"/>
<path class="st13" d="M3,1950.8h2614.1c1.7,0,3,1.3,3,3v1.1c0,1.7-1.3,3-3,3H3c-1.7,0-3-1.3-3-3v-1.1C0,1952.2,1.3,1950.8,3,1950.8z
	"/>
<g class="st57">
	<path class="st15" d="M7.8,18h33.4c11.5,0,21.1,4,28.8,12.1c7.8,8,11.6,18,11.6,29.9S77.7,81.9,70,89.9C62.3,98,52.7,102,41.2,102
		H7.8V18z M24.4,86.2h16.8c7.3,0,13.2-2.4,17.8-7.2c4.6-5,6.8-11.3,6.8-19c0-7.8-2.3-14-6.8-18.8c-4.6-4.9-10.5-7.3-17.8-7.3H24.4
		V86.2z"/>
</g>
<g class="st57">
	<path class="st15" d="M100.3,34.8c-2.6,0-4.8-0.9-6.7-2.8c-1.9-1.9-2.8-4.1-2.8-6.7s0.9-4.8,2.8-6.7c1.9-1.9,4.1-2.9,6.7-2.9
		s4.9,1,6.8,2.9s2.8,4.2,2.8,6.7c0,2.6-0.9,4.8-2.8,6.7C105.2,33.9,103,34.8,100.3,34.8z M108.1,102H92.6V42h15.5V102z"/>
</g>
<g class="st57">
	<path class="st15" d="M136.1,59c0,2.6,3.6,4.8,10.9,6.6c2.6,0.6,4.9,1.2,7,2s4.2,1.8,6.3,3.2c2.1,1.4,3.8,3.3,5,5.6
		c1.2,2.3,1.8,5,1.8,8c0,6.2-2.3,10.9-7,14.3c-4.6,3.3-10.4,4.9-17.2,4.9c-12.3,0-20.7-4.8-25.2-14.3l13.4-7.6
		c1.8,5.2,5.8,7.8,11.8,7.8c5.5,0,8.3-1.7,8.3-5.2c0-2.6-3.6-4.8-10.9-6.6c-2.7-0.7-5-1.4-7-2.2c-1.9-0.7-4-1.8-6.2-3.2
		c-2.2-1.4-3.9-3.2-5.1-5.4c-1.2-2.2-1.7-4.8-1.7-7.7c0-5.9,2.2-10.6,6.5-13.9c4.4-3.4,9.8-5.2,16.3-5.2c4.9,0,9.3,1.1,13.3,3.3
		s7.2,5.3,9.5,9.4L152.7,60c-1.9-4.1-5.1-6.1-9.6-6.1c-2,0-3.7,0.5-5,1.4C136.7,56.4,136.1,57.6,136.1,59z"/>
	<path class="st15" d="M203.6,103.7c-9,0-16.6-3-22.7-9.1c-6-6.1-9-13.6-9-22.6s3-16.5,9-22.6c6.1-6.1,13.6-9.1,22.7-9.1
		c5.8,0,11.2,1.4,16,4.2s8.4,6.6,10.9,11.3l-13.3,7.8c-1.2-2.5-3-4.4-5.5-5.9c-2.4-1.4-5.2-2.2-8.2-2.2c-4.6,0-8.5,1.5-11.5,4.6
		s-4.6,7-4.6,11.8c0,4.6,1.5,8.6,4.6,11.8c3,3,6.9,4.6,11.5,4.6c3.1,0,5.9-0.7,8.3-2.1c2.4-1.4,4.3-3.3,5.5-5.8l13.4,7.7
		c-2.6,4.8-6.4,8.6-11.2,11.4S209.4,103.7,203.6,103.7z"/>
</g>
<g class="st57">
	<path class="st15" d="M290.2,94.6c-6.1,6.1-13.6,9.1-22.6,9.1s-16.5-3-22.6-9.1S235.9,81,235.9,72c0-8.9,3-16.4,9.1-22.4
		c6.2-6.2,13.7-9.2,22.6-9.2s16.4,3.1,22.6,9.2c6.2,6.2,9.2,13.6,9.2,22.4C299.4,80.9,296.3,88.4,290.2,94.6z M256,83.9
		c3.1,3.1,7,4.7,11.6,4.7s8.5-1.6,11.6-4.7s4.7-7.1,4.7-11.9s-1.6-8.8-4.7-11.9c-3.1-3.1-7-4.7-11.6-4.7s-8.5,1.6-11.6,4.7
		c-3,3.2-4.6,7.2-4.6,11.9C251.4,76.7,252.9,80.7,256,83.9z"/>
	<path class="st15" d="M330.5,84l14.6-42h17l-22.8,60h-17.6l-22.8-60h17L330.5,84z"/>
</g>
<g class="st57">
	<path class="st15" d="M427.8,78.4h-45.2c2,7.5,7.6,11.3,16.9,11.3c5.9,0,10.4-2,13.4-6l12.5,7.2c-5.9,8.6-14.6,12.8-26.2,12.8
		c-9.9,0-17.9-3-23.9-9s-9-13.6-9-22.7c0-9,3-16.5,8.9-22.6c5.8-6.1,13.4-9.1,22.8-9.1c8.9,0,16.1,3,21.7,9.1
		c5.8,6.1,8.6,13.6,8.6,22.6C428.4,73.7,428.2,75.8,427.8,78.4z M382.3,66.4h30.6c-0.9-3.9-2.7-6.9-5.3-9c-2.7-2.1-5.9-3.1-9.5-3.1
		c-4.2,0-7.6,1.1-10.3,3.2C385,59.5,383.2,62.5,382.3,66.4z"/>
	<path class="st15" d="M454.7,42v10.3c1.4-3.8,3.7-6.6,7-8.6c3.3-2,7-2.9,11.3-2.9v17.3c-4.7-0.6-9,0.3-12.7,2.9
		c-3.7,2.5-5.5,6.6-5.5,12.4V102h-15.5V42H454.7z"/>
</g>
<g class="st57">
	<path class="st15" d="M536.8,84l14.6-42h17l-22.8,60H528l-22.8-60h17L536.8,84z"/>
</g>
<g class="st57">
	<path class="st15" d="M624.6,94.6c-6.1,6.1-13.6,9.1-22.6,9.1s-16.5-3-22.6-9.1S570.3,81,570.3,72c0-8.9,3-16.4,9.1-22.4
		c6.2-6.2,13.7-9.2,22.6-9.2c8.9,0,16.4,3.1,22.6,9.2c6.2,6.2,9.2,13.6,9.2,22.4C633.8,80.9,630.8,88.4,624.6,94.6z M590.4,83.9
		c3.1,3.1,7,4.7,11.6,4.7s8.5-1.6,11.6-4.7s4.7-7.1,4.7-11.9s-1.6-8.8-4.7-11.9c-3.1-3.1-7-4.7-11.6-4.7s-8.5,1.6-11.6,4.7
		c-3,3.2-4.6,7.2-4.6,11.9C585.8,76.7,587.4,80.7,590.4,83.9z"/>
	<path class="st15" d="M660.2,102h-15.5V14.4h15.5V102z"/>
	<path class="st15" d="M714,74.4V42h15.5v60H714v-6.7c-3.7,5.6-9.6,8.4-17.9,8.4c-6.6,0-12-2.2-16.3-6.6c-4.2-4.5-6.4-10.6-6.4-18.2
		V42h15.5v34.9c0,3.9,1.1,7,3.2,9.1c2.1,2.2,5,3.2,8.7,3.2c4.1,0,7.3-1.3,9.7-3.8C712.8,83,714,79.3,714,74.4z"/>
	<path class="st15" d="M777,40.3c6.6,0,12,2.2,16.2,6.6c4.3,4.5,6.5,10.6,6.5,18.2V102h-15.5V67.1c0-3.9-1.1-7-3.2-9.1
		c-2.1-2.2-5-3.2-8.7-3.2c-4.1,0-7.3,1.3-9.7,3.8s-3.5,6.2-3.5,11.1V102h-15.5V42h15.5v6.7C762.8,43.1,768.8,40.3,777,40.3z"/>
</g>
<g class="st57">
	<path class="st15" d="M847.2,42v14.9h-13.6v25c0,2.1,0.5,3.6,1.6,4.6c1,1,2.6,1.5,4.6,1.6s4.5,0.1,7.4-0.1v14
		c-10.5,1.2-17.9,0.2-22.4-2.9c-4.4-3.2-6.7-8.9-6.7-17.2v-25h-10.4V42h10.4V29.9l15.5-4.7V42H847.2z"/>
</g>
<g class="st57">
	<path class="st15" d="M914.6,78.4h-45.2c2,7.5,7.6,11.3,16.9,11.3c5.9,0,10.4-2,13.4-6l12.5,7.2c-5.9,8.6-14.6,12.8-26.2,12.8
		c-9.9,0-17.9-3-23.9-9s-9-13.6-9-22.7c0-9,3-16.5,8.9-22.6c5.8-6.1,13.4-9.1,22.8-9.1c8.9,0,16.1,3,21.7,9.1
		c5.8,6.1,8.6,13.6,8.6,22.6C915.2,73.7,915,75.8,914.6,78.4z M869.2,66.4h30.6c-0.9-3.9-2.7-6.9-5.3-9c-2.7-2.1-5.9-3.1-9.5-3.1
		c-4.2,0-7.6,1.1-10.3,3.2C871.8,59.5,870,62.5,869.2,66.4z"/>
</g>
<g class="st57">
	<path class="st15" d="M983.9,78.4h-45.2c2,7.5,7.6,11.3,16.9,11.3c5.9,0,10.4-2,13.4-6l12.5,7.2c-5.9,8.6-14.6,12.8-26.2,12.8
		c-9.9,0-17.9-3-23.9-9s-9-13.6-9-22.7c0-9,3-16.5,8.9-22.6c5.8-6.1,13.4-9.1,22.8-9.1c8.9,0,16.1,3,21.7,9.1
		c5.8,6.1,8.6,13.6,8.6,22.6C984.5,73.7,984.3,75.8,983.9,78.4z M938.4,66.4H969c-0.9-3.9-2.7-6.9-5.3-9c-2.7-2.1-5.9-3.1-9.5-3.1
		c-4.2,0-7.6,1.1-10.3,3.2C941.1,59.5,939.3,62.5,938.4,66.4z"/>
	<path class="st15" d="M1010.8,42v10.3c1.4-3.8,3.7-6.6,7-8.6c3.3-2,7-2.9,11.3-2.9v17.3c-4.7-0.6-9,0.3-12.7,2.9
		c-3.7,2.5-5.5,6.6-5.5,12.4V102h-15.5V42H1010.8z"/>
	<path class="st15" d="M1119.1,94.6c-6.1,6.1-13.6,9.1-22.6,9.1s-16.5-3-22.6-9.1s-9.1-13.6-9.1-22.6c0-8.9,3-16.4,9.1-22.4
		c6.2-6.2,13.7-9.2,22.6-9.2s16.4,3.1,22.6,9.2c6.2,6.2,9.2,13.6,9.2,22.4C1128.4,80.9,1125.3,88.4,1119.1,94.6z M1084.9,83.9
		c3.1,3.1,7,4.7,11.6,4.7s8.5-1.6,11.6-4.7s4.7-7.1,4.7-11.9s-1.6-8.8-4.7-11.9c-3.1-3.1-7-4.7-11.6-4.7s-8.5,1.6-11.6,4.7
		c-3,3.2-4.6,7.2-4.6,11.9C1080.4,76.7,1081.9,80.7,1084.9,83.9z"/>
	<path class="st15" d="M1174.2,40.3c8.1,0,15,3.1,20.6,9.2c5.8,6.2,8.6,13.6,8.6,22.4c0,9-2.9,16.5-8.6,22.6
		c-5.6,6.1-12.5,9.1-20.6,9.1c-8.4,0-14.9-2.9-19.4-8.8V126h-15.5V42h15.5v7.1C1159.3,43.2,1165.8,40.3,1174.2,40.3z M1159.4,84.2
		c3.1,3.1,7.1,4.7,11.9,4.7s8.8-1.6,11.9-4.7c3.2-3.2,4.8-7.3,4.8-12.2c0-5-1.6-9-4.8-12.1c-3.1-3.2-7.1-4.8-11.9-4.8
		s-8.8,1.6-11.9,4.8c-3.1,3.1-4.7,7.2-4.7,12.1C1154.8,77,1156.3,81,1159.4,84.2z"/>
	<path class="st15" d="M1249.3,40.3c8.1,0,15,3.1,20.6,9.2c5.8,6.2,8.6,13.6,8.6,22.4c0,9-2.9,16.5-8.6,22.6
		c-5.6,6.1-12.5,9.1-20.6,9.1c-8.4,0-14.9-2.9-19.4-8.8V126h-15.5V42h15.5v7.1C1234.4,43.2,1240.9,40.3,1249.3,40.3z M1234.6,84.2
		c3.1,3.1,7.1,4.7,11.9,4.7s8.8-1.6,11.9-4.7c3.2-3.2,4.8-7.3,4.8-12.2c0-5-1.6-9-4.8-12.1c-3.1-3.2-7.1-4.8-11.9-4.8
		s-8.8,1.6-11.9,4.8c-3.1,3.1-4.7,7.2-4.7,12.1C1229.9,77,1231.4,81,1234.6,84.2z"/>
	<path class="st15" d="M1340.6,94.6c-6.1,6.1-13.6,9.1-22.6,9.1s-16.5-3-22.6-9.1s-9.1-13.6-9.1-22.6c0-8.9,3-16.4,9.1-22.4
		c6.2-6.2,13.7-9.2,22.6-9.2s16.4,3.1,22.6,9.2c6.2,6.2,9.2,13.6,9.2,22.4C1349.9,80.9,1346.8,88.4,1340.6,94.6z M1306.4,83.9
		c3.1,3.1,7,4.7,11.6,4.7s8.5-1.6,11.6-4.7s4.7-7.1,4.7-11.9s-1.6-8.8-4.7-11.9c-3.1-3.1-7-4.7-11.6-4.7s-8.5,1.6-11.6,4.7
		c-3,3.2-4.6,7.2-4.6,11.9C1301.9,76.7,1303.4,80.7,1306.4,83.9z"/>
</g>
<g class="st57">
	<path class="st15" d="M1376.3,42v10.3c1.4-3.8,3.7-6.6,7-8.6c3.3-2,7-2.9,11.3-2.9v17.3c-4.7-0.6-9,0.3-12.7,2.9
		c-3.7,2.5-5.5,6.6-5.5,12.4V102h-15.5V42H1376.3z"/>
</g>
<g class="st57">
	<path class="st15" d="M1439.5,42v14.9H1426v25c0,2.1,0.5,3.6,1.6,4.6c1,1,2.6,1.5,4.6,1.6s4.5,0.1,7.4-0.1v14
		c-10.5,1.2-17.9,0.2-22.4-2.9c-4.4-3.2-6.7-8.9-6.7-17.2v-25H1400V42h10.4V29.9l15.5-4.7V42H1439.5z"/>
	<path class="st15" d="M1491,74.4V42h15.5v60H1491v-6.7c-3.7,5.6-9.6,8.4-17.9,8.4c-6.6,0-12-2.2-16.3-6.6
		c-4.2-4.5-6.4-10.6-6.4-18.2V42h15.5v34.9c0,3.9,1.1,7,3.2,9.1c2.1,2.2,5,3.2,8.7,3.2c4.1,0,7.3-1.3,9.7-3.8
		C1489.8,83,1491,79.3,1491,74.4z"/>
	<path class="st15" d="M1554,40.3c6.6,0,12,2.2,16.2,6.6c4.3,4.5,6.5,10.6,6.5,18.2V102h-15.5V67.1c0-3.9-1.1-7-3.2-9.1
		c-2.1-2.2-5-3.2-8.7-3.2c-4.1,0-7.3,1.3-9.7,3.8c-2.4,2.5-3.5,6.2-3.5,11.1V102h-15.5V42h15.5v6.7
		C1539.8,43.1,1545.7,40.3,1554,40.3z"/>
	<path class="st15" d="M1597.5,34.8c-2.6,0-4.8-0.9-6.7-2.8c-1.9-1.9-2.8-4.1-2.8-6.7s0.9-4.8,2.8-6.7c1.9-1.9,4.1-2.9,6.7-2.9
		s4.9,1,6.8,2.9s2.8,4.2,2.8,6.7c0,2.6-0.9,4.8-2.8,6.7S1600.2,34.8,1597.5,34.8z M1605.3,102h-15.5V42h15.5V102z"/>
</g>
<g class="st57">
	<path class="st15" d="M1653.8,42v14.9h-13.6v25c0,2.1,0.5,3.6,1.6,4.6c1,1,2.6,1.5,4.6,1.6s4.5,0.1,7.4-0.1v14
		c-10.5,1.2-17.9,0.2-22.4-2.9c-4.4-3.2-6.7-8.9-6.7-17.2v-25h-10.4V42h10.4V29.9l15.5-4.7V42H1653.8z"/>
</g>
<g class="st57">
	<path class="st15" d="M1672.4,34.8c-2.6,0-4.8-0.9-6.7-2.8c-1.9-1.9-2.8-4.1-2.8-6.7s0.9-4.8,2.8-6.7c1.9-1.9,4.1-2.9,6.7-2.9
		s4.9,1,6.8,2.9s2.8,4.2,2.8,6.7c0,2.6-0.9,4.8-2.8,6.7S1675.1,34.8,1672.4,34.8z M1680.2,102h-15.5V42h15.5V102z"/>
</g>
<g class="st57">
	<path class="st15" d="M1752.7,78.4h-45.2c2,7.5,7.6,11.3,16.9,11.3c5.9,0,10.4-2,13.4-6l12.5,7.2c-5.9,8.6-14.6,12.8-26.2,12.8
		c-9.9,0-17.9-3-23.9-9s-9-13.6-9-22.7c0-9,3-16.5,8.9-22.6c5.8-6.1,13.4-9.1,22.8-9.1c8.9,0,16.1,3,21.7,9.1
		c5.8,6.1,8.6,13.6,8.6,22.6C1753.3,73.7,1753.1,75.8,1752.7,78.4z M1707.2,66.4h30.6c-0.9-3.9-2.7-6.9-5.3-9
		c-2.7-2.1-5.9-3.1-9.5-3.1c-4.2,0-7.6,1.1-10.3,3.2C1709.9,59.5,1708.1,62.5,1707.2,66.4z"/>
</g>
<g class="st57">
	<path class="st15" d="M1776,59c0,2.6,3.6,4.8,10.9,6.6c2.6,0.6,4.9,1.2,7,2s4.2,1.8,6.3,3.2c2.1,1.4,3.8,3.3,5,5.6
		c1.2,2.3,1.8,5,1.8,8c0,6.2-2.3,10.9-7,14.3c-4.6,3.3-10.4,4.9-17.2,4.9c-12.3,0-20.7-4.8-25.2-14.3l13.4-7.6
		c1.8,5.2,5.8,7.8,11.8,7.8c5.5,0,8.3-1.7,8.3-5.2c0-2.6-3.6-4.8-10.9-6.6c-2.7-0.7-5-1.4-7-2.2c-1.9-0.7-4-1.8-6.2-3.2
		c-2.2-1.4-3.9-3.2-5.1-5.4c-1.2-2.2-1.7-4.8-1.7-7.7c0-5.9,2.2-10.6,6.5-13.9c4.4-3.4,9.8-5.2,16.3-5.2c4.9,0,9.3,1.1,13.3,3.3
		s7.2,5.3,9.5,9.4l-13.2,7.2c-1.9-4.1-5.1-6.1-9.6-6.1c-2,0-3.7,0.5-5,1.4C1776.6,56.4,1776,57.6,1776,59z"/>
</g>
<g class="st57">
	<path class="st15" d="M1835.4,93.4c0,2.8-1,5.2-3,7.2s-4.4,3-7.2,3c-2.8,0-5.2-1-7.2-3s-3-4.4-3-7.2c0-2.8,1-5.2,3-7.2s4.4-3,7.2-3
		c2.8,0,5.2,1,7.2,3C1834.4,88.2,1835.4,90.6,1835.4,93.4z"/>
</g>
<g class="st57">
	<path class="st15" d="M58,158v15.8H24.4v19.9H57v15.8H24.4V242H7.8v-84H58z"/>
	<path class="st15" d="M77,174.8c-2.6,0-4.8-0.9-6.7-2.8c-1.9-1.9-2.8-4.1-2.8-6.7c0-2.6,0.9-4.8,2.8-6.7s4.1-2.9,6.7-2.9
		s4.9,1,6.8,2.9s2.8,4.2,2.8,6.7c0,2.6-0.9,4.8-2.8,6.7S79.7,174.8,77,174.8z M84.8,242H69.4v-60h15.5L84.8,242L84.8,242z"/>
	<path class="st15" d="M132.4,180.3c6.6,0,12,2.2,16.2,6.6c4.3,4.5,6.5,10.6,6.5,18.2V242h-15.5v-34.9c0-3.9-1.1-7-3.2-9.1
		c-2.1-2.2-5-3.2-8.7-3.2c-4.1,0-7.3,1.3-9.7,3.8c-2.4,2.5-3.5,6.2-3.5,11.1V242H99v-60h15.5v6.7
		C118.2,183.1,124.1,180.3,132.4,180.3z"/>
	<path class="st15" d="M213.7,189.1V158h15.5v84h-15.5v-7.1c-4.6,5.8-11,8.8-19.4,8.8c-8.1,0-15-3-20.8-9.1
		c-5.7-6.2-8.5-13.7-8.5-22.6c0-8.8,2.8-16.3,8.5-22.4c5.8-6.2,12.7-9.2,20.8-9.2C202.7,180.3,209.2,183.2,213.7,189.1z
		 M185.2,224.2c3.3,3.1,7.3,4.7,12,4.7c4.8,0,8.8-1.6,11.9-4.7c3.1-3.2,4.7-7.3,4.7-12.2c0-5-1.6-9-4.7-12.1
		c-3.1-3.2-7.1-4.8-11.9-4.8s-8.8,1.6-12,4.8c-3.1,3.1-4.7,7.2-4.7,12.1C180.5,217,182,221,185.2,224.2z"/>
</g>
<g class="st57">
	<path class="st15" d="M299.2,222.3l13.3-40.3H329l-21.8,60c-3.1,8.6-7.3,14.9-12.4,18.8c-5.2,3.9-11.6,5.6-19.3,5.2v-14.4
		c4.1,0.1,7.4-0.8,9.8-2.6c2.5-1.8,4.4-4.8,5.9-8.9L266.6,182h16.9L299.2,222.3z"/>
</g>
<g class="st57">
	<path class="st15" d="M385.1,234.6c-6.1,6.1-13.6,9.1-22.6,9.1s-16.5-3-22.6-9.1s-9.1-13.6-9.1-22.6c0-8.9,3-16.4,9.1-22.4
		c6.2-6.2,13.7-9.2,22.6-9.2s16.4,3.1,22.6,9.2c6.2,6.2,9.2,13.6,9.2,22.4C394.3,220.9,391.2,228.4,385.1,234.6z M350.9,223.9
		c3.1,3.1,7,4.7,11.6,4.7s8.5-1.6,11.6-4.7c3.1-3.1,4.7-7.1,4.7-11.9s-1.6-8.8-4.7-11.9c-3.1-3.1-7-4.7-11.6-4.7s-8.5,1.6-11.6,4.7
		c-3,3.2-4.6,7.2-4.6,11.9S347.8,220.7,350.9,223.9z"/>
	<path class="st15" d="M444.8,214.4V182h15.5v60h-15.5v-6.7c-3.7,5.6-9.6,8.4-17.9,8.4c-6.6,0-12-2.2-16.3-6.6
		c-4.2-4.5-6.4-10.6-6.4-18.2V182h15.5v34.9c0,3.9,1.1,7,3.2,9.1c2.1,2.2,5,3.2,8.7,3.2c4.1,0,7.3-1.3,9.7-3.8
		C443.7,223,444.8,219.3,444.8,214.4z"/>
	<path class="st15" d="M490,182v10.3c1.4-3.8,3.7-6.6,7-8.6s7-2.9,11.3-2.9v17.3c-4.7-0.6-9,0.3-12.7,2.9c-3.7,2.5-5.5,6.6-5.5,12.4
		V242h-15.5v-60H490z"/>
</g>
<g class="st57">
	<path class="st15" d="M575.8,243.7c-9,0-16.6-3-22.7-9.1c-6-6.1-9-13.6-9-22.6s3-16.5,9-22.6c6.1-6.1,13.6-9.1,22.7-9.1
		c5.8,0,11.2,1.4,16,4.2s8.4,6.6,10.9,11.3l-13.3,7.8c-1.2-2.5-3-4.4-5.5-5.9c-2.4-1.4-5.2-2.2-8.2-2.2c-4.6,0-8.5,1.5-11.5,4.6
		s-4.6,7-4.6,11.8c0,4.6,1.5,8.6,4.6,11.8c3,3,6.9,4.6,11.5,4.6c3.1,0,5.9-0.7,8.3-2.1c2.4-1.4,4.3-3.3,5.5-5.8l13.4,7.7
		c-2.6,4.8-6.4,8.6-11.2,11.4C586.8,242.3,581.5,243.7,575.8,243.7z"/>
</g>
<g class="st57">
	<path class="st15" d="M661.2,234.6c-6.1,6.1-13.6,9.1-22.6,9.1s-16.5-3-22.6-9.1c-6-6.1-9-13.6-9-22.6c0-8.9,3-16.4,9.1-22.4
		c6.2-6.2,13.7-9.2,22.6-9.2c8.9,0,16.4,3.1,22.6,9.2c6.2,6.2,9.2,13.6,9.2,22.4C670.4,220.9,667.4,228.4,661.2,234.6z M627,223.9
		c3.1,3.1,7,4.7,11.6,4.7s8.5-1.6,11.6-4.7c3.1-3.1,4.7-7.1,4.7-11.9s-1.6-8.8-4.7-11.9c-3.1-3.1-7-4.7-11.6-4.7s-8.5,1.6-11.6,4.7
		c-3,3.2-4.6,7.2-4.6,11.9S624,220.7,627,223.9z"/>
	<path class="st15" d="M747.7,180.3c6.9,0,12.4,2.2,16.5,6.7s6.2,10.5,6.2,18v37h-15.5v-35.9c0-3.6-0.9-6.4-2.6-8.4
		c-1.8-2-4.2-3-7.4-3c-3.5,0-6.3,1.2-8.2,3.5c-2,2.3-2.9,5.7-2.9,10.1V242h-15.5v-35.9c0-3.6-0.9-6.4-2.6-8.4c-1.8-2-4.2-3-7.4-3
		c-3.4,0-6.2,1.2-8.2,3.5c-2,2.4-3.1,5.7-3.1,10V242h-15.5v-60H697v6.4c3.6-5.4,9.2-8,16.7-8c7.4,0,12.9,2.9,16.3,8.6
		C733.8,183.2,739.7,180.3,747.7,180.3z"/>
	<path class="st15" d="M850,180.3c6.9,0,12.4,2.2,16.5,6.7s6.2,10.5,6.2,18v37h-15.5v-35.9c0-3.6-0.9-6.4-2.6-8.4
		c-1.8-2-4.2-3-7.4-3c-3.5,0-6.3,1.2-8.2,3.5c-2,2.3-2.9,5.7-2.9,10.1V242h-15.5v-35.9c0-3.6-0.9-6.4-2.6-8.4c-1.8-2-4.2-3-7.4-3
		c-3.4,0-6.2,1.2-8.2,3.5c-2,2.4-3.1,5.7-3.1,10V242h-15.5v-60h15.5v6.4c3.6-5.4,9.2-8,16.7-8c7.4,0,12.9,2.9,16.3,8.6
		C836,183.2,842,180.3,850,180.3z"/>
	<path class="st15" d="M925.4,214.4V182h15.5v60h-15.5v-6.7c-3.7,5.6-9.6,8.4-17.9,8.4c-6.6,0-12-2.2-16.3-6.6
		c-4.2-4.5-6.4-10.6-6.4-18.2V182h15.5v34.9c0,3.9,1.1,7,3.2,9.1c2.1,2.2,5,3.2,8.7,3.2c4.1,0,7.3-1.3,9.7-3.8
		C924.3,223,925.4,219.3,925.4,214.4z"/>
	<path class="st15" d="M988.4,180.3c6.6,0,12,2.2,16.2,6.6c4.3,4.5,6.5,10.6,6.5,18.2V242h-15.5v-34.9c0-3.9-1.1-7-3.2-9.1
		c-2.1-2.2-5-3.2-8.7-3.2c-4.1,0-7.3,1.3-9.7,3.8s-3.5,6.2-3.5,11.1V242H955v-60h15.5v6.7C974.2,183.1,980.2,180.3,988.4,180.3z"/>
	<path class="st15" d="M1032,174.8c-2.6,0-4.8-0.9-6.7-2.8c-1.9-1.9-2.8-4.1-2.8-6.7c0-2.6,0.9-4.8,2.8-6.7c1.9-1.9,4.1-2.9,6.7-2.9
		s4.9,1,6.8,2.9s2.8,4.2,2.8,6.7c0,2.6-0.9,4.8-2.8,6.7S1034.6,174.8,1032,174.8z M1039.8,242h-15.5v-60h15.5V242z"/>
</g>
<g class="st57">
	<path class="st15" d="M1088.3,182v14.9h-13.6v25c0,2.1,0.5,3.6,1.6,4.6c1,1,2.6,1.5,4.6,1.6s4.5,0.1,7.4-0.1v14
		c-10.5,1.2-17.9,0.2-22.4-2.9c-4.4-3.2-6.7-8.9-6.7-17.2v-25h-10.4V182h10.4v-12.1l15.5-4.7V182H1088.3z"/>
</g>
<g class="st57">
	<path class="st15" d="M1126.3,222.3l13.3-40.3h16.6l-21.8,60c-3.1,8.6-7.3,14.9-12.4,18.8c-5.2,3.9-11.6,5.6-19.3,5.2v-14.4
		c4.1,0.1,7.4-0.8,9.8-2.6c2.5-1.8,4.4-4.8,5.9-8.9l-24.6-58.1h16.9L1126.3,222.3z"/>
</g>
<g class="st57">
	<path class="st15" d="M1171.8,233.4c0,2.8-1,5.2-3,7.2s-4.4,3-7.2,3c-2.8,0-5.2-1-7.2-3s-3-4.4-3-7.2s1-5.2,3-7.2s4.4-3,7.2-3
		c2.8,0,5.2,1,7.2,3S1171.8,230.6,1171.8,233.4z"/>
</g>
<g class="st57">
	<path class="st15" d="M73,298h17v84H73.6v-54.5l-23.6,39h-2l-23.6-38.9V382H7.8v-84h17L49,337.7L73,298z"/>
	<path class="st15" d="M150.5,329.1V322H166v60h-15.5v-7.1c-4.6,5.8-11.2,8.8-19.6,8.8c-8,0-14.9-3-20.6-9.1
		c-5.7-6.2-8.5-13.7-8.5-22.6c0-8.8,2.8-16.3,8.5-22.4c5.8-6.2,12.6-9.2,20.6-9.2C139.3,320.3,145.8,323.2,150.5,329.1z
		 M121.9,364.2c3.1,3.1,7.1,4.7,11.9,4.7s8.8-1.6,11.9-4.7c3.2-3.2,4.8-7.3,4.8-12.2c0-5-1.6-9-4.8-12.1c-3.1-3.2-7.1-4.8-11.9-4.8
		s-8.8,1.6-11.9,4.8c-3.1,3.1-4.7,7.2-4.7,12.1C117.2,357,118.8,361,121.9,364.2z"/>
	<path class="st15" d="M213.4,320.3c6.6,0,12,2.2,16.2,6.6c4.3,4.5,6.5,10.6,6.5,18.2V382h-15.5v-34.9c0-3.9-1.1-7-3.2-9.1
		c-2.1-2.2-5-3.2-8.7-3.2c-4.1,0-7.3,1.3-9.7,3.8s-3.5,6.2-3.5,11.1V382H180v-60h15.5v6.7C199.2,323.1,205.1,320.3,213.4,320.3z"/>
	<path class="st15" d="M294.8,329.1V322h15.5v60h-15.5v-7.1c-4.6,5.8-11.2,8.8-19.6,8.8c-8,0-14.9-3-20.6-9.1
		c-5.7-6.2-8.5-13.7-8.5-22.6c0-8.8,2.8-16.3,8.5-22.4c5.8-6.2,12.6-9.2,20.6-9.2C283.7,320.3,290.2,323.2,294.8,329.1z
		 M266.3,364.2c3.1,3.1,7.1,4.7,11.9,4.7s8.8-1.6,11.9-4.7c3.2-3.2,4.8-7.3,4.8-12.2c0-5-1.6-9-4.8-12.1c-3.1-3.2-7.1-4.8-11.9-4.8
		s-8.8,1.6-11.9,4.8c-3.1,3.1-4.7,7.2-4.7,12.1C261.6,357,263.2,361,266.3,364.2z"/>
	<path class="st15" d="M370.3,329.4V322h15.1v57.1c0,9.2-3.1,16.3-9.2,21.2c-6.1,4.9-13.4,7.3-22.1,7.3c-13.6,0-23.1-4.9-28.4-14.6
		l13.2-7.6c3,5.6,8.2,8.4,15.7,8.4c4.9,0,8.7-1.3,11.5-3.8c2.8-2.6,4.2-6.2,4.2-10.9v-6.5c-4.6,6.1-11,9.1-19.2,9.1
		c-8.5,0-15.6-3-21.4-8.9c-5.7-6.1-8.5-13.4-8.5-21.8c0-8.5,2.9-15.7,8.6-21.7c5.8-6,12.8-9,21.2-9
		C359.4,320.3,365.8,323.4,370.3,329.4z M365.6,362.9c3.2-3.1,4.7-7,4.7-11.8s-1.6-8.7-4.8-11.6c-3.1-3.1-7.1-4.7-12-4.7
		c-4.8,0-8.8,1.6-12.1,4.7c-3.1,3-4.7,6.8-4.7,11.6s1.6,8.7,4.7,11.8c3.2,3.1,7.2,4.6,12.1,4.6C358.4,367.5,362.4,365.9,365.6,362.9
		z"/>
	<path class="st15" d="M457.8,358.4h-45.2c2,7.5,7.6,11.3,16.9,11.3c5.9,0,10.4-2,13.4-6l12.5,7.2c-5.9,8.6-14.6,12.8-26.2,12.8
		c-9.9,0-17.9-3-23.9-9s-9-13.6-9-22.7c0-9,3-16.5,8.9-22.6c5.8-6.1,13.4-9.1,22.8-9.1c8.9,0,16.1,3,21.7,9.1
		c5.8,6.1,8.6,13.6,8.6,22.6C458.4,353.7,458.2,355.8,457.8,358.4z M412.3,346.4h30.6c-0.9-3.9-2.7-6.9-5.3-9
		c-2.7-2.1-5.9-3.1-9.5-3.1c-4.2,0-7.6,1.1-10.3,3.2C415,339.5,413.2,342.5,412.3,346.4z"/>
</g>
<g class="st57">
	<path class="st15" d="M524,364l14.6-42h17l-22.8,60h-17.6l-22.8-60h17L524,364z"/>
</g>
<g class="st57">
	<path class="st15" d="M611.9,374.6c-6.1,6.1-13.6,9.1-22.6,9.1s-16.5-3-22.6-9.1s-9.1-13.6-9.1-22.6c0-8.9,3-16.4,9.1-22.4
		c6.2-6.2,13.7-9.2,22.6-9.2c8.9,0,16.4,3.1,22.6,9.2c6.2,6.2,9.2,13.6,9.2,22.4C621.1,360.9,618,368.4,611.9,374.6z M577.7,363.9
		c3.1,3.1,7,4.7,11.6,4.7s8.5-1.6,11.6-4.7s4.7-7.1,4.7-11.9s-1.6-8.8-4.7-11.9c-3.1-3.1-7-4.7-11.6-4.7s-8.5,1.6-11.6,4.7
		c-3,3.2-4.6,7.2-4.6,11.9C573.1,356.7,574.6,360.7,577.7,363.9z"/>
	<path class="st15" d="M647.5,382H632v-87.6h15.5V382z"/>
	<path class="st15" d="M701.3,354.4V322h15.5v60h-15.5v-6.7c-3.7,5.6-9.6,8.4-17.9,8.4c-6.6,0-12-2.2-16.3-6.6
		c-4.2-4.5-6.4-10.6-6.4-18.2V322h15.5v34.9c0,3.9,1.1,7,3.2,9.1c2.1,2.2,5,3.2,8.7,3.2c4.1,0,7.3-1.3,9.7-3.8
		C700.1,363,701.3,359.3,701.3,354.4z"/>
	<path class="st15" d="M764.3,320.3c6.6,0,12,2.2,16.2,6.6c4.3,4.5,6.5,10.6,6.5,18.2V382h-15.5v-34.9c0-3.9-1.1-7-3.2-9.1
		c-2.1-2.2-5-3.2-8.7-3.2c-4.1,0-7.3,1.3-9.7,3.8s-3.5,6.2-3.5,11.1V382h-15.5v-60h15.5v6.7C750.1,323.1,756,320.3,764.3,320.3z"/>
</g>
<g class="st57">
	<path class="st15" d="M834.5,322v14.9h-13.6v25c0,2.1,0.5,3.6,1.6,4.6c1,1,2.6,1.5,4.6,1.6s4.5,0.1,7.4-0.1v14
		c-10.5,1.2-17.9,0.2-22.4-2.9c-4.4-3.2-6.7-8.9-6.7-17.2v-25H795V322h10.4v-12.1l15.5-4.7V322H834.5z"/>
</g>
<g class="st57">
	<path class="st15" d="M901.9,358.4h-45.2c2,7.5,7.6,11.3,16.9,11.3c5.9,0,10.4-2,13.4-6l12.5,7.2c-5.9,8.6-14.6,12.8-26.2,12.8
		c-9.9,0-17.9-3-23.9-9s-9-13.6-9-22.7c0-9,3-16.5,8.9-22.6c5.8-6.1,13.4-9.1,22.8-9.1c8.9,0,16.1,3,21.7,9.1
		c5.8,6.1,8.6,13.6,8.6,22.6C902.5,353.7,902.3,355.8,901.9,358.4z M856.4,346.4H887c-0.9-3.9-2.7-6.9-5.3-9
		c-2.7-2.1-5.9-3.1-9.5-3.1c-4.2,0-7.6,1.1-10.3,3.2C859.1,339.5,857.3,342.5,856.4,346.4z"/>
</g>
<g class="st57">
	<path class="st15" d="M971.1,358.4h-45.2c2,7.5,7.6,11.3,16.9,11.3c5.9,0,10.4-2,13.4-6l12.5,7.2c-5.9,8.6-14.6,12.8-26.2,12.8
		c-9.9,0-17.9-3-23.9-9s-9-13.6-9-22.7c0-9,3-16.5,8.9-22.6c5.8-6.1,13.4-9.1,22.8-9.1c8.9,0,16.1,3,21.7,9.1
		c5.8,6.1,8.6,13.6,8.6,22.6C971.8,353.7,971.5,355.8,971.1,358.4z M925.7,346.4h30.6c-0.9-3.9-2.7-6.9-5.3-9
		c-2.7-2.1-5.9-3.1-9.5-3.1c-4.2,0-7.6,1.1-10.3,3.2C928.3,339.5,926.5,342.5,925.7,346.4z"/>
</g>
<g class="st57">
	<path class="st15" d="M998,322v10.3c1.4-3.8,3.7-6.6,7-8.6s7-2.9,11.3-2.9v17.3c-4.7-0.6-9,0.3-12.7,2.9c-3.7,2.5-5.5,6.6-5.5,12.4
		V382h-15.5v-60H998z"/>
</g>
<g class="st57">
	<path class="st15" d="M1037.6,339c0,2.6,3.6,4.8,10.9,6.6c2.6,0.6,4.9,1.2,7,2s4.2,1.8,6.3,3.2c2.1,1.4,3.8,3.3,5,5.6
		c1.2,2.3,1.8,5,1.8,8c0,6.2-2.3,10.9-7,14.3c-4.6,3.3-10.4,4.9-17.2,4.9c-12.3,0-20.7-4.8-25.2-14.3l13.4-7.6
		c1.8,5.2,5.8,7.8,11.8,7.8c5.5,0,8.3-1.7,8.3-5.2c0-2.6-3.6-4.8-10.9-6.6c-2.7-0.7-5-1.4-7-2.2c-1.9-0.7-4-1.8-6.2-3.2
		c-2.2-1.4-3.9-3.2-5.1-5.4c-1.2-2.2-1.7-4.8-1.7-7.7c0-5.9,2.2-10.6,6.5-13.9c4.4-3.4,9.8-5.2,16.3-5.2c4.9,0,9.3,1.1,13.3,3.3
		c4,2.2,7.2,5.3,9.5,9.4l-13.2,7.2c-1.9-4.1-5.1-6.1-9.6-6.1c-2,0-3.7,0.5-5,1.4C1038.3,336.4,1037.6,337.6,1037.6,339z"/>
</g>
<g class="st57">
	<path class="st15" d="M1097,373.4c0,2.8-1,5.2-3,7.2s-4.4,3-7.2,3c-2.8,0-5.2-1-7.2-3s-3-4.4-3-7.2c0-2.8,1-5.2,3-7.2s4.4-3,7.2-3
		c2.8,0,5.2,1,7.2,3C1096,368.2,1097,370.6,1097,373.4z"/>
</g>
<g>
	<g class="st57">
		<path class="st13" d="M36.1,488.2h31.6v4.9c0,9-2.9,16.3-8.6,21.9c-5.8,5.6-13.2,8.4-22.3,8.4c-9.7,0-17.8-3.1-24.2-9.5
			C6.1,507.5,3,499.7,3,490.6c0-9.2,3.1-16.9,9.4-23.3c6.4-6.4,14.2-9.5,23.6-9.5c5.8,0,11.2,1.3,16,4c4.9,2.6,8.7,6.2,11.4,10.7
			l-10.6,6.1c-1.5-2.6-3.8-4.7-6.8-6.3c-3.1-1.6-6.4-2.4-10.1-2.4c-6.1,0-11,2-14.9,5.9c-3.8,3.8-5.8,8.8-5.8,14.8
			c0,5.9,1.9,10.9,5.9,14.8c3.9,3.8,9.1,5.8,15.7,5.8c4.7,0,8.7-1,11.9-3.2c3.2-2.1,5.3-5,6.5-8.8H36.1V488.2z"/>
		<path class="st13" d="M81.7,471.6c-1.9,0-3.6-0.7-5-2.1s-2.1-3.1-2.1-5s0.7-3.6,2.1-5s3.1-2.2,5-2.2c2,0,3.7,0.7,5.1,2.2
			c1.4,1.4,2.1,3.1,2.1,5s-0.7,3.6-2.1,5C85.4,470.9,83.7,471.6,81.7,471.6z M87.6,522H76v-45h11.6V522z"/>
	</g>
	<g class="st57">
		<path class="st13" d="M116.8,508.5l11-31.5h12.8l-17.1,45h-13.2l-17.1-45H106L116.8,508.5z"/>
	</g>
	<g class="st57">
		<path class="st13" d="M188.1,504.3h-33.9c1.5,5.6,5.7,8.5,12.7,8.5c4.4,0,7.8-1.5,10.1-4.5l9.4,5.4c-4.4,6.4-11,9.6-19.6,9.6
			c-7.4,0-13.4-2.2-17.9-6.8s-6.8-10.2-6.8-17c0-6.7,2.2-12.4,6.7-16.9c4.4-4.6,10.1-6.8,17.1-6.8c6.7,0,12.1,2.3,16.3,6.8
			c4.3,4.6,6.5,10.2,6.5,16.9C188.5,500.8,188.4,502.4,188.1,504.3z M154,495.3h23c-0.7-2.9-2-5.2-4-6.8c-2-1.6-4.4-2.3-7.2-2.3
			c-3.1,0-5.7,0.8-7.7,2.4C156,490.2,154.6,492.4,154,495.3z"/>
		<path class="st13" d="M221.7,475.7c5,0,9,1.7,12.1,5c3.2,3.4,4.9,7.9,4.9,13.7V522h-11.6v-26.2c0-2.9-0.8-5.2-2.4-6.8
			c-1.6-1.6-3.8-2.4-6.5-2.4c-3.1,0-5.5,0.9-7.2,2.8c-1.8,1.9-2.7,4.7-2.7,8.3V522h-11.6v-63h11.6v23
			C211,477.8,215.5,475.7,221.7,475.7z"/>
		<path class="st13" d="M278.3,501.3V477h11.6v45h-11.6v-5c-2.8,4.2-7.2,6.3-13.4,6.3c-4.9,0-9-1.6-12.2-5s-4.8-7.9-4.8-13.7V477
			h11.6v26.2c0,2.9,0.8,5.2,2.4,6.8c1.6,1.6,3.8,2.4,6.5,2.4c3.1,0,5.5-0.9,7.2-2.8C277.4,507.7,278.3,505,278.3,501.3z"/>
		<path class="st13" d="M326.7,475.7c6.1,0,11.2,2.3,15.5,6.9s6.5,10.2,6.5,16.8c0,6.7-2.2,12.4-6.5,16.9c-4.2,4.6-9.4,6.8-15.5,6.8
			c-6.3,0-11.2-2.2-14.6-6.6v5.3h-11.6v-63h11.6v23.3C315.5,477.9,320.4,475.7,326.7,475.7z M315.6,508.7c2.3,2.3,5.3,3.5,8.9,3.5
			s6.6-1.2,8.9-3.5c2.4-2.4,3.6-5.5,3.6-9.2s-1.2-6.8-3.6-9.1c-2.3-2.4-5.3-3.6-8.9-3.6s-6.6,1.2-8.9,3.6c-2.3,2.3-3.5,5.4-3.5,9.1
			S313.3,506.3,315.6,508.7z"/>
	</g>
	<g class="st57">
		<path class="st13" d="M385.1,471.6c-1.9,0-3.6-0.7-5-2.1s-2.1-3.1-2.1-5s0.7-3.6,2.1-5s3.1-2.2,5-2.2c2,0,3.7,0.7,5.1,2.2
			c1.4,1.4,2.1,3.1,2.1,5s-0.7,3.6-2.1,5C388.8,470.9,387.1,471.6,385.1,471.6z M391,522h-11.6v-45H391V522z"/>
	</g>
	<g class="st57">
		<path class="st13" d="M411.9,489.8c0,1.9,2.7,3.6,8.2,5c1.9,0.4,3.7,0.9,5.2,1.5c1.6,0.6,3.1,1.4,4.7,2.4c1.6,1.1,2.8,2.4,3.7,4.2
			c0.9,1.7,1.4,3.8,1.4,6c0,4.6-1.7,8.2-5.2,10.7s-7.8,3.7-12.9,3.7c-9.2,0-15.5-3.6-18.9-10.7l10.1-5.7c1.4,3.9,4.3,5.9,8.8,5.9
			c4.1,0,6.2-1.3,6.2-3.9c0-1.9-2.7-3.6-8.2-5c-2-0.5-3.8-1.1-5.2-1.6c-1.4-0.5-3-1.3-4.7-2.4c-1.7-1-3-2.4-3.8-4
			c-0.9-1.7-1.3-3.6-1.3-5.8c0-4.4,1.6-7.9,4.9-10.4c3.3-2.6,7.4-3.9,12.2-3.9c3.7,0,7,0.8,10,2.5s5.4,4,7.1,7.1l-9.9,5.4
			c-1.4-3.1-3.8-4.6-7.2-4.6c-1.5,0-2.7,0.3-3.7,1C412.4,487.8,411.9,488.7,411.9,489.8z"/>
		<path class="st13" d="M499.8,482.3V477h11.6v45h-11.6v-5.3c-3.5,4.4-8.4,6.6-14.7,6.6c-6,0-11.2-2.3-15.5-6.8
			c-4.3-4.6-6.4-10.3-6.4-16.9s2.1-12.2,6.4-16.8c4.3-4.6,9.5-6.9,15.5-6.9C491.4,475.7,496.3,477.9,499.8,482.3z M478.3,508.7
			c2.3,2.3,5.3,3.5,8.9,3.5s6.6-1.2,8.9-3.5c2.4-2.4,3.6-5.5,3.6-9.2s-1.2-6.8-3.6-9.1c-2.3-2.4-5.3-3.6-8.9-3.6s-6.6,1.2-8.9,3.6
			c-2.3,2.3-3.5,5.4-3.5,9.1S476,506.3,478.3,508.7z"/>
		<path class="st13" d="M582.7,516.4c-4.6,4.6-10.2,6.8-16.9,6.8s-12.4-2.3-16.9-6.8c-4.6-4.6-6.8-10.2-6.8-16.9
			c0-6.7,2.3-12.3,6.8-16.8c4.6-4.6,10.3-6.9,16.9-6.9s12.3,2.3,16.9,6.9c4.6,4.6,6.9,10.2,6.9,16.8
			C589.7,506.2,587.4,511.8,582.7,516.4z M557.1,508.4c2.3,2.3,5.2,3.5,8.7,3.5s6.4-1.2,8.7-3.5s3.5-5.3,3.5-8.9s-1.2-6.6-3.5-8.9
			s-5.3-3.5-8.7-3.5c-3.5,0-6.4,1.2-8.7,3.5c-2.3,2.4-3.4,5.4-3.4,8.9C553.7,503,554.8,506,557.1,508.4z"/>
		<path class="st13" d="M622.9,475.7c5,0,9,1.7,12.1,5c3.2,3.4,4.9,7.9,4.9,13.7V522h-11.6v-26.2c0-2.9-0.8-5.2-2.4-6.8
			c-1.6-1.6-3.8-2.4-6.5-2.4c-3.1,0-5.5,0.9-7.2,2.8c-1.8,1.9-2.7,4.7-2.7,8.3V522h-11.6v-45h11.6v5
			C612.2,477.8,616.7,475.7,622.9,475.7z"/>
		<path class="st13" d="M693.5,504.3h-33.9c1.5,5.6,5.7,8.5,12.7,8.5c4.4,0,7.8-1.5,10.1-4.5l9.4,5.4c-4.4,6.4-11,9.6-19.6,9.6
			c-7.4,0-13.4-2.2-17.9-6.8s-6.8-10.2-6.8-17c0-6.7,2.2-12.4,6.7-16.9c4.4-4.6,10.1-6.8,17.1-6.8c6.7,0,12.1,2.3,16.3,6.8
			c4.3,4.6,6.5,10.2,6.5,16.9C694,500.8,693.8,502.4,693.5,504.3z M659.4,495.3h23c-0.7-2.9-2-5.2-4-6.8c-2-1.6-4.4-2.3-7.2-2.3
			c-3.1,0-5.7,0.8-7.7,2.4C661.4,490.2,660.1,492.4,659.4,495.3z"/>
		<path class="st13" d="M736.4,500.4h-33.8v-11.2h33.8V500.4z"/>
	</g>
	<g class="st57">
		<path class="st13" d="M758.2,489.8c0,1.9,2.7,3.6,8.2,5c1.9,0.4,3.7,0.9,5.2,1.5c1.6,0.6,3.1,1.4,4.7,2.4c1.6,1.1,2.8,2.4,3.7,4.2
			c0.9,1.7,1.3,3.8,1.3,6c0,4.6-1.7,8.2-5.2,10.7s-7.8,3.7-12.9,3.7c-9.2,0-15.5-3.6-18.9-10.7l10.1-5.7c1.4,3.9,4.3,5.9,8.8,5.9
			c4.1,0,6.2-1.3,6.2-3.9c0-1.9-2.7-3.6-8.2-5c-2-0.5-3.8-1.1-5.2-1.6s-3-1.3-4.7-2.4c-1.7-1-3-2.4-3.8-4c-0.9-1.7-1.3-3.6-1.3-5.8
			c0-4.4,1.6-7.9,4.9-10.4c3.3-2.6,7.4-3.9,12.2-3.9c3.7,0,7,0.8,10,2.5s5.4,4,7.1,7.1l-9.9,5.4c-1.4-3.1-3.8-4.6-7.2-4.6
			c-1.5,0-2.7,0.3-3.7,1C758.7,487.8,758.2,488.7,758.2,489.8z"/>
	</g>
	<g class="st57">
		<path class="st13" d="M813.3,477v11.2h-10.2v18.7c0,1.6,0.4,2.7,1.2,3.4c0.8,0.7,1.9,1.1,3.4,1.2s3.4,0.1,5.6,0V522
			c-7.9,0.9-13.5,0.2-16.8-2.2s-5-6.7-5-12.9v-18.7h-7.8V477h7.8v-9.1l11.6-3.5V477H813.3z"/>
	</g>
	<g class="st57">
		<path class="st13" d="M858.5,516.4c-4.6,4.6-10.2,6.8-16.9,6.8s-12.4-2.3-16.9-6.8c-4.6-4.6-6.8-10.2-6.8-16.9
			c0-6.7,2.3-12.3,6.8-16.8c4.6-4.6,10.3-6.9,16.9-6.9s12.3,2.3,16.9,6.9c4.6,4.6,6.9,10.2,6.9,16.8
			C865.4,506.2,863.1,511.8,858.5,516.4z M832.9,508.4c2.3,2.3,5.2,3.5,8.7,3.5s6.4-1.2,8.7-3.5s3.5-5.3,3.5-8.9s-1.2-6.6-3.5-8.9
			s-5.3-3.5-8.7-3.5c-3.5,0-6.4,1.2-8.7,3.5c-2.3,2.4-3.4,5.4-3.4,8.9C829.4,503,830.6,506,832.9,508.4z"/>
		<path class="st13" d="M899.8,475.7c6.1,0,11.2,2.3,15.5,6.9s6.5,10.2,6.5,16.8c0,6.7-2.2,12.4-6.5,16.9c-4.2,4.6-9.4,6.8-15.5,6.8
			c-6.3,0-11.2-2.2-14.6-6.6V540h-11.6v-63h11.6v5.3C888.6,477.9,893.5,475.7,899.8,475.7z M888.7,508.7c2.3,2.3,5.3,3.5,8.9,3.5
			c3.6,0,6.6-1.2,8.9-3.5c2.4-2.4,3.6-5.5,3.6-9.2s-1.2-6.8-3.6-9.1c-2.3-2.4-5.3-3.6-8.9-3.6c-3.6,0-6.6,1.2-8.9,3.6
			c-2.3,2.3-3.5,5.4-3.5,9.1S886.4,506.3,888.7,508.7z"/>
		<path class="st13" d="M978.6,475.7c6.1,0,11.2,2.3,15.5,6.9s6.5,10.2,6.5,16.8c0,6.7-2.2,12.4-6.5,16.9c-4.2,4.6-9.4,6.8-15.5,6.8
			c-6.3,0-11.2-2.2-14.6-6.6V540h-11.6v-63H964v5.3C967.5,477.9,972.3,475.7,978.6,475.7z M967.6,508.7c2.3,2.3,5.3,3.5,8.9,3.5
			c3.6,0,6.6-1.2,8.9-3.5c2.4-2.4,3.6-5.5,3.6-9.2s-1.2-6.8-3.6-9.1c-2.3-2.4-5.3-3.6-8.9-3.6c-3.6,0-6.6,1.2-8.9,3.6
			c-2.3,2.3-3.5,5.4-3.5,9.1S965.2,506.3,967.6,508.7z"/>
		<path class="st13" d="M1020.4,522h-11.6v-65.7h11.6V522z"/>
		<path class="st13" d="M1065.2,482.3V477h11.6v45h-11.6v-5.3c-3.5,4.4-8.4,6.6-14.7,6.6c-6,0-11.2-2.3-15.5-6.8
			c-4.3-4.6-6.4-10.3-6.4-16.9s2.1-12.2,6.4-16.8c4.3-4.6,9.5-6.9,15.5-6.9C1056.9,475.7,1061.7,477.9,1065.2,482.3z M1043.8,508.7
			c2.3,2.3,5.3,3.5,8.9,3.5s6.6-1.2,8.9-3.5c2.4-2.4,3.6-5.5,3.6-9.2s-1.2-6.8-3.6-9.1c-2.3-2.4-5.3-3.6-8.9-3.6s-6.6,1.2-8.9,3.6
			c-2.3,2.3-3.5,5.4-3.5,9.1S1041.5,506.3,1043.8,508.7z"/>
	</g>
	<g class="st57">
		<path class="st13" d="M1113.1,477v11.2h-10.2v18.7c0,1.6,0.4,2.7,1.2,3.4c0.8,0.7,1.9,1.1,3.4,1.2s3.4,0.1,5.6,0V522
			c-7.9,0.9-13.5,0.2-16.8-2.2s-5-6.7-5-12.9v-18.7h-7.8V477h7.8v-9.1l11.6-3.5V477H1113.1z"/>
	</g>
	<g class="st57">
		<path class="st13" d="M1143.4,457.7v11.2c-6.4-0.4-9.5,2.1-9.5,7.6v0.5h9.5v11.2h-9.5V522h-11.6v-33.8h-6.5V477h6.5v-0.5
			c0-6.4,1.8-11.3,5.4-14.5C1131.1,458.7,1136.4,457.3,1143.4,457.7z"/>
	</g>
	<g class="st57">
		<path class="st13" d="M1185.3,516.4c-4.6,4.6-10.2,6.8-16.9,6.8c-6.7,0-12.4-2.3-16.9-6.8c-4.6-4.6-6.8-10.2-6.8-16.9
			c0-6.7,2.3-12.3,6.8-16.8c4.6-4.6,10.3-6.9,16.9-6.9s12.3,2.3,16.9,6.9s6.9,10.2,6.9,16.8C1192.2,506.2,1189.9,511.8,1185.3,516.4
			z M1159.6,508.4c2.3,2.3,5.2,3.5,8.7,3.5s6.4-1.2,8.7-3.5s3.5-5.3,3.5-8.9s-1.2-6.6-3.5-8.9s-5.3-3.5-8.7-3.5
			c-3.5,0-6.4,1.2-8.7,3.5c-2.3,2.4-3.4,5.4-3.4,8.9S1157.4,506,1159.6,508.4z"/>
		<path class="st13" d="M1212,477v7.7c1-2.8,2.8-5,5.2-6.4c2.5-1.5,5.3-2.2,8.5-2.2v13c-3.5-0.5-6.7,0.2-9.5,2.2
			c-2.8,1.9-4.1,5-4.1,9.3V522h-11.6v-45H1212z"/>
		<path class="st13" d="M1282.2,475.7c5.2,0,9.3,1.7,12.4,5c3.1,3.4,4.6,7.9,4.6,13.5V522h-11.6v-26.9c0-2.7-0.7-4.8-2-6.3
			s-3.2-2.2-5.6-2.2c-2.6,0-4.7,0.9-6.2,2.6s-2.2,4.3-2.2,7.6V522H1260v-26.9c0-2.7-0.7-4.8-2-6.3s-3.2-2.2-5.6-2.2
			c-2.6,0-4.6,0.9-6.2,2.7c-1.5,1.8-2.3,4.3-2.3,7.5V522h-11.6v-45h11.6v4.8c2.7-4,6.9-6,12.5-6s9.7,2.2,12.2,6.5
			C1271.7,477.9,1276.2,475.7,1282.2,475.7z"/>
	</g>
	<g class="st57">
		<path class="st13" d="M29.5,565.7v11.2c-6.4-0.4-9.5,2.1-9.5,7.6v0.5h9.5v11.2H20V630H8.4v-33.8H1.9V585h6.5v-0.5
			c0-6.4,1.8-11.3,5.4-14.5C17.3,566.7,22.6,565.3,29.5,565.7z"/>
	</g>
	<g class="st57">
		<path class="st13" d="M71.5,624.4c-4.6,4.6-10.2,6.8-16.9,6.8s-12.4-2.3-16.9-6.8c-4.6-4.6-6.8-10.2-6.8-16.9s2.3-12.3,6.8-16.8
			c4.6-4.6,10.3-6.9,16.9-6.9s12.3,2.3,16.9,6.9c4.6,4.6,6.9,10.2,6.9,16.8C78.4,614.2,76.1,619.8,71.5,624.4z M45.8,616.4
			c2.3,2.3,5.2,3.5,8.7,3.5s6.4-1.2,8.7-3.5s3.5-5.3,3.5-8.9s-1.2-6.6-3.5-8.9s-5.3-3.5-8.7-3.5c-3.5,0-6.4,1.2-8.7,3.5
			c-2.3,2.4-3.4,5.4-3.4,8.9C42.4,611,43.5,614,45.8,616.4z"/>
		<path class="st13" d="M98.2,585v7.7c1-2.8,2.8-5,5.2-6.4c2.5-1.5,5.3-2.2,8.5-2.2v13c-3.5-0.5-6.7,0.2-9.5,2.2
			c-2.8,1.9-4.1,5-4.1,9.3V630H86.6v-45H98.2z"/>
		<path class="st13" d="M175.3,590.3V585h11.6v45h-11.6v-5.3c-3.5,4.4-8.4,6.6-14.7,6.6c-6,0-11.2-2.3-15.5-6.8
			c-4.3-4.6-6.4-10.3-6.4-16.9c0-6.6,2.1-12.2,6.4-16.8c4.3-4.6,9.5-6.9,15.5-6.9C166.9,583.7,171.8,585.9,175.3,590.3z
			 M153.9,616.7c2.3,2.3,5.3,3.5,8.9,3.5s6.6-1.2,8.9-3.5c2.4-2.4,3.6-5.5,3.6-9.2s-1.2-6.8-3.6-9.1c-2.3-2.4-5.3-3.6-8.9-3.6
			s-6.6,1.2-8.9,3.6c-2.3,2.3-3.5,5.4-3.5,9.1C150.4,611.2,151.6,614.3,153.9,616.7z"/>
		<path class="st13" d="M209.1,630h-11.6v-65.7h11.6V630z"/>
		<path class="st13" d="M231.3,630h-11.6v-65.7h11.6V630z"/>
	</g>
	<g class="st57">
		<path class="st13" d="M290.2,585v11.2H280v18.7c0,1.6,0.4,2.7,1.2,3.4c0.8,0.7,1.9,1.1,3.4,1.2c1.5,0.1,3.4,0.1,5.6,0V630
			c-7.9,0.9-13.5,0.2-16.8-2.2s-5-6.7-5-12.9v-18.7h-7.8V585h7.8v-9.1l11.6-3.5V585H290.2z"/>
	</g>
	<g class="st57">
		<path class="st13" d="M323.4,583.7c5,0,9,1.7,12.1,5c3.2,3.4,4.9,7.9,4.9,13.7V630h-11.6v-26.2c0-2.9-0.8-5.2-2.4-6.8
			s-3.8-2.4-6.5-2.4c-3.1,0-5.5,0.9-7.2,2.8c-1.8,1.9-2.7,4.7-2.7,8.3V630h-11.6v-63H310v23C312.7,585.8,317.2,583.7,323.4,583.7z"
			/>
		<path class="st13" d="M356,579.6c-1.9,0-3.6-0.7-5-2.1c-1.4-1.4-2.1-3.1-2.1-5s0.7-3.6,2.1-5s3.1-2.2,5-2.2c2,0,3.7,0.7,5.1,2.2
			c1.4,1.4,2.1,3.1,2.1,5s-0.7,3.6-2.1,5S358,579.6,356,579.6z M361.9,630h-11.6v-45h11.6V630z"/>
		<path class="st13" d="M397.5,583.7c5,0,9,1.7,12.1,5c3.2,3.4,4.9,7.9,4.9,13.7V630h-11.6v-26.2c0-2.9-0.8-5.2-2.4-6.8
			s-3.8-2.4-6.5-2.4c-3.1,0-5.5,0.9-7.2,2.8c-1.8,1.9-2.7,4.7-2.7,8.3V630h-11.6v-45h11.6v5C386.9,585.8,391.3,583.7,397.5,583.7z"
			/>
	</g>
	<g class="st57">
		<path class="st13" d="M458.9,590.6V585h11.3v42.8c0,6.9-2.3,12.2-6.9,15.9s-10.1,5.5-16.6,5.5c-10.2,0-17.3-3.7-21.3-11l9.9-5.7
			c2.2,4.2,6.1,6.3,11.8,6.3c3.7,0,6.5-1,8.6-2.9s3.1-4.7,3.1-8.2V623c-3.4,4.6-8.2,6.8-14.4,6.8c-6.4,0-11.7-2.2-16-6.7
			c-4.3-4.6-6.4-10-6.4-16.4s2.2-11.8,6.5-16.3s9.6-6.8,15.9-6.8C450.7,583.7,455.5,586,458.9,590.6z M455.3,615.6
			c2.4-2.3,3.6-5.3,3.6-8.9c0-3.6-1.2-6.5-3.6-8.7c-2.3-2.3-5.3-3.5-9-3.5c-3.6,0-6.6,1.2-9.1,3.5c-2.3,2.2-3.5,5.1-3.5,8.7
			c0,3.6,1.2,6.6,3.6,8.9c2.4,2.3,5.4,3.5,9,3.5C450,619.1,453,618,455.3,615.6z"/>
	</g>
	<g class="st57">
		<path class="st13" d="M491.1,597.8c0,1.9,2.7,3.6,8.2,5c1.9,0.4,3.7,0.9,5.2,1.5c1.6,0.6,3.1,1.4,4.7,2.4c1.6,1.1,2.8,2.4,3.7,4.2
			c0.9,1.7,1.4,3.8,1.4,6c0,4.6-1.7,8.2-5.2,10.7s-7.8,3.7-12.9,3.7c-9.2,0-15.5-3.6-18.9-10.7l10.1-5.7c1.4,3.9,4.3,5.9,8.8,5.9
			c4.1,0,6.2-1.3,6.2-3.9c0-1.9-2.7-3.6-8.2-5c-2-0.5-3.8-1.1-5.2-1.6c-1.4-0.5-3-1.3-4.7-2.4c-1.7-1-3-2.4-3.8-4
			c-0.9-1.7-1.3-3.6-1.3-5.8c0-4.4,1.6-7.9,4.9-10.4c3.3-2.6,7.4-3.9,12.2-3.9c3.7,0,7,0.8,10,2.5s5.4,4,7.1,7.1l-9.9,5.4
			c-1.4-3.1-3.8-4.6-7.2-4.6c-1.5,0-2.7,0.3-3.7,1C491.6,595.8,491.1,596.7,491.1,597.8z"/>
	</g>
	<g class="st57">
		<path class="st13" d="M563.4,616.5l11-31.5h12.8l-17.1,45h-13.2l-17.1-45h12.8L563.4,616.5z"/>
	</g>
	<g class="st57">
		<path class="st13" d="M629.3,624.4c-4.6,4.6-10.2,6.8-16.9,6.8s-12.4-2.3-16.9-6.8c-4.6-4.6-6.8-10.2-6.8-16.9s2.3-12.3,6.8-16.8
			c4.6-4.6,10.3-6.9,16.9-6.9s12.3,2.3,16.9,6.9c4.6,4.6,6.9,10.2,6.9,16.8C636.2,614.2,633.9,619.8,629.3,624.4z M603.6,616.4
			c2.3,2.3,5.2,3.5,8.7,3.5s6.4-1.2,8.7-3.5s3.5-5.3,3.5-8.9s-1.2-6.6-3.5-8.9s-5.3-3.5-8.7-3.5c-3.5,0-6.4,1.2-8.7,3.5
			c-2.3,2.4-3.4,5.4-3.4,8.9C600.2,611,601.3,614,603.6,616.4z"/>
		<path class="st13" d="M656,630h-11.6v-65.7H656V630z"/>
		<path class="st13" d="M696.3,609.3V585h11.6v45h-11.6v-5c-2.8,4.2-7.2,6.3-13.4,6.3c-4.9,0-9-1.6-12.2-5s-4.8-7.9-4.8-13.7V585
			h11.6v26.2c0,2.9,0.8,5.2,2.4,6.8c1.6,1.6,3.8,2.4,6.5,2.4c3.1,0,5.5-0.9,7.2-2.8C695.4,615.7,696.3,613,696.3,609.3z"/>
		<path class="st13" d="M743.6,583.7c5,0,9,1.7,12.1,5c3.2,3.4,4.9,7.9,4.9,13.7V630H749v-26.2c0-2.9-0.8-5.2-2.4-6.8
			c-1.6-1.6-3.8-2.4-6.5-2.4c-3.1,0-5.5,0.9-7.2,2.8c-1.8,1.9-2.7,4.7-2.7,8.3V630h-11.6v-45h11.6v5
			C732.9,585.8,737.4,583.7,743.6,583.7z"/>
	</g>
	<g class="st57">
		<path class="st13" d="M796.2,585v11.2H786v18.7c0,1.6,0.4,2.7,1.2,3.4s1.9,1.1,3.4,1.2c1.5,0.1,3.4,0.1,5.6,0V630
			c-7.9,0.9-13.5,0.2-16.8-2.2s-5-6.7-5-12.9v-18.7h-7.8V585h7.8v-9.1l11.6-3.5V585H796.2z"/>
	</g>
	<g class="st57">
		<path class="st13" d="M846.8,612.3h-33.9c1.5,5.6,5.7,8.5,12.7,8.5c4.4,0,7.8-1.5,10.1-4.5l9.4,5.4c-4.4,6.4-11,9.6-19.6,9.6
			c-7.4,0-13.4-2.2-17.9-6.8s-6.8-10.2-6.8-17c0-6.7,2.2-12.4,6.7-16.9c4.4-4.6,10.1-6.8,17.1-6.8c6.7,0,12.1,2.3,16.3,6.8
			c4.3,4.6,6.5,10.2,6.5,16.9C847.2,608.8,847.1,610.4,846.8,612.3z M812.7,603.3h23c-0.7-2.9-2-5.2-4-6.8s-4.4-2.3-7.2-2.3
			c-3.1,0-5.7,0.8-7.7,2.4C814.7,598.2,813.3,600.4,812.7,603.3z"/>
	</g>
	<g class="st57">
		<path class="st13" d="M898.7,612.3h-33.9c1.5,5.6,5.7,8.5,12.7,8.5c4.4,0,7.8-1.5,10.1-4.5l9.4,5.4c-4.4,6.4-11,9.6-19.6,9.6
			c-7.4,0-13.4-2.2-17.9-6.8s-6.8-10.2-6.8-17c0-6.7,2.2-12.4,6.7-16.9c4.4-4.6,10.1-6.8,17.1-6.8c6.7,0,12.1,2.3,16.3,6.8
			c4.3,4.6,6.5,10.2,6.5,16.9C899.2,608.8,899,610.4,898.7,612.3z M864.6,603.3h23c-0.7-2.9-2-5.2-4-6.8s-4.4-2.3-7.2-2.3
			c-3.1,0-5.7,0.8-7.7,2.4C866.6,598.2,865.3,600.4,864.6,603.3z"/>
		<path class="st13" d="M918.9,585v7.7c1-2.8,2.8-5,5.2-6.4c2.5-1.5,5.3-2.2,8.5-2.2v13c-3.5-0.5-6.7,0.2-9.5,2.2
			c-2.8,1.9-4.1,5-4.1,9.3V630h-11.6v-45H918.9z"/>
	</g>
	<g class="st57">
		<path class="st13" d="M945.1,579.6c-1.9,0-3.6-0.7-5-2.1c-1.4-1.4-2.1-3.1-2.1-5s0.7-3.6,2.1-5c1.4-1.4,3.1-2.2,5-2.2
			c2,0,3.7,0.7,5.1,2.2c1.4,1.4,2.1,3.1,2.1,5s-0.7,3.6-2.1,5S947.1,579.6,945.1,579.6z M950.9,630h-11.6v-45h11.6V630z"/>
	</g>
	<g class="st57">
		<path class="st13" d="M971.9,597.8c0,1.9,2.7,3.6,8.2,5c1.9,0.4,3.7,0.9,5.2,1.5c1.6,0.6,3.1,1.4,4.7,2.4c1.6,1.1,2.8,2.4,3.7,4.2
			c0.9,1.7,1.4,3.8,1.4,6c0,4.6-1.7,8.2-5.2,10.7s-7.8,3.7-12.9,3.7c-9.2,0-15.5-3.6-18.9-10.7l10.1-5.7c1.4,3.9,4.3,5.9,8.8,5.9
			c4.1,0,6.2-1.3,6.2-3.9c0-1.9-2.7-3.6-8.2-5c-2-0.5-3.8-1.1-5.2-1.6s-3-1.3-4.7-2.4c-1.7-1-3-2.4-3.8-4c-0.9-1.7-1.3-3.6-1.3-5.8
			c0-4.4,1.6-7.9,4.9-10.4c3.3-2.6,7.4-3.9,12.2-3.9c3.7,0,7,0.8,10,2.5s5.4,4,7.1,7.1l-9.9,5.4c-1.4-3.1-3.8-4.6-7.2-4.6
			c-1.5,0-2.7,0.3-3.7,1C972.4,595.8,971.9,596.7,971.9,597.8z"/>
		<path class="st13" d="M1052.8,583.7c5.2,0,9.3,1.7,12.4,5c3.1,3.4,4.6,7.9,4.6,13.5V630h-11.6v-26.9c0-2.7-0.7-4.8-2-6.3
			s-3.2-2.2-5.6-2.2c-2.6,0-4.7,0.9-6.2,2.6c-1.5,1.7-2.2,4.3-2.2,7.6V630h-11.6v-26.9c0-2.7-0.7-4.8-2-6.3s-3.2-2.2-5.6-2.2
			c-2.6,0-4.6,0.9-6.2,2.7c-1.5,1.8-2.3,4.3-2.3,7.5V630H1003v-45h11.6v4.8c2.7-4,6.9-6,12.5-6s9.7,2.2,12.2,6.5
			C1042.3,585.9,1046.8,583.7,1052.8,583.7z"/>
		<path class="st13" d="M1094.1,623.5c0,2.1-0.8,3.9-2.2,5.4c-1.5,1.5-3.3,2.2-5.4,2.2s-3.9-0.8-5.4-2.2c-1.5-1.5-2.2-3.3-2.2-5.4
			c0-2.1,0.7-3.9,2.2-5.4s3.3-2.2,5.4-2.2s3.9,0.8,5.4,2.2C1093.4,619.6,1094.1,621.4,1094.1,623.5z"/>
	</g>
</g>
</svg>
