<svg xmlns="http://www.w3.org/2000/svg" viewBox="0 0 250 250"><defs><style>.cls-1{fill:#e11d48;}</style></defs><g id="Layer_2" data-name="Layer 2"><g id="Layer_1-2" data-name="Layer 1"><g id="Layer_2-2" data-name="Layer 2"><g id="Layer_1-2-2" data-name="Layer 1-2"><g id="Layer_2-2-2" data-name="Layer 2-2"><g id="Layer_1-2-2-2" data-name="Layer 1-2-2"><path class="cls-1" d="M127.77,24.1c-25.25.27-45.86,5.91-64.41,18.17C46.76,53,34.9,67.24,28.92,86.11c-4.73,15.17-5,30.61-1.69,46.05A105.81,105.81,0,0,0,49,177.76c2.95,3.44,6.16,6.61,9.46,9.79l1.7,1.68c3.74,3.44,5,7.58,3.48,12.52-1.7,5.91-3.48,11.73-5,17.64v1.24a2.11,2.11,0,0,0,1.25-.27c8.65-2.91,16.86-6.61,24-12.52A11.55,11.55,0,0,1,100,209.07a15.89,15.89,0,0,1,2.23,3.71,10.37,10.37,0,0,1-3.47,11.29c-6.7,5.64-14.64,9.79-22.84,13.23a138.26,138.26,0,0,1-31.23,9.08,33.75,33.75,0,0,1-8.92.27,6.64,6.64,0,0,1-6-6.88,2.08,2.08,0,0,1,.27-1.24c1.7-7.14,3.93-14.2,6-21.34,1.25-4.68,2.5-9.35,3.92-13.94a2.24,2.24,0,0,0-.53-2.2C20.89,182.43,9.92,159.85,5,134.36a118.81,118.81,0,0,1-2-29.64c1.7-23,9.64-43.57,25.25-61C42.21,28,59.52,17.22,79.06,10.34a134.78,134.78,0,0,1,49.07-7.85c30.51,1,58,10.32,81.27,29.64C227.24,46.86,239.64,65.47,244.55,88c6.69,30.87,0,58.83-20.79,83.09-14.63,17.11-33.72,27.43-56.29,30.87C137,206.87,109,200.25,84,182.08c-18.11-13.23-29.71-30.87-34.44-52.66-2.5-11.73-2.94-23.55.27-35,3.92-13.93,11.86-25.49,25.07-32.81C91.46,52.24,107.79,54,123.22,65c1.25,1,2,.71,3.21,0,16.86-12.7,38.9-12.26,55.49,1.68C193.07,76.06,199.5,87.79,201,102c2,18.17-3.21,33.78-17.13,46.31a53,53,0,0,1-24.26,13c-7.67,1.68-14.36-3.44-13.92-10.76.27-4.41,2.5-7.32,6.42-9.35a72.12,72.12,0,0,0,15.62-9.79,31.55,31.55,0,0,0,2.94-45.07l-2.23-2.21c-5-4.67-10.44-7.14-17.31-6.61-5.44.53-10.17,3.17-14.36,6.61-2.5,2.21-4.73,4.15-7.23,6.35-2.49,2.47-6.42,2.47-9.45.27-3.75-2.91-7.23-5.65-10.89-8.29-7-5.12-14.36-6.35-22.3-2.47A28.13,28.13,0,0,0,76,90.7a39.65,39.65,0,0,0-5.45,25.93C73.35,142.83,87.45,161,110.73,173a81.91,81.91,0,0,0,40.68,9.35c25.07-.71,45.32-10.5,60-30.88A68.52,68.52,0,0,0,224,116.9c2.5-27.17-7.67-49.22-28-67.39C181.12,36.28,163.28,29,143.74,25.78,137.23,24.9,130.8,24.63,127.77,24.1Z"/><path class="cls-1" d="M39.09,250a19.43,19.43,0,0,1-3.92-.26,9.18,9.18,0,0,1-8.39-10.06,3.13,3.13,0,0,1,.54-1.68c1.25-4.94,2.76-10.32,4.19-15.17.53-1.94,1.25-3.88,1.69-5.91l1-3.44,2.94-10.32C19,185,7.6,162.94,2.16,135.33a125.56,125.56,0,0,1-2-30.61C1.89,80.47,10.63,59.39,26.25,42c13.65-15.17,31.22-26.73,52-34A130.56,130.56,0,0,1,128.57.11c31.94,1,60,11.29,83.06,30.34,19.09,16,31.22,35,36,57.6,6.69,32.11-.53,60.78-21.32,85.48-14.9,17.37-34.17,28.13-58,32.1-31.22,5.12-60.22-1.67-85.46-20.55C64,171.32,52.12,153,47.39,130.66c-2.94-13.76-2.94-25.49.27-36.52C52.12,78.44,61,66.71,73.89,59.56,91.19,50,108.32,51.27,125.18,63c18.11-13.49,41.4-13,59,1.94a55.17,55.17,0,0,1,20.34,37.23c2.23,19.58-3.92,36-18.11,48.51a60.86,60.86,0,0,1-25.51,13.76,14.5,14.5,0,0,1-12.67-2.73A13.66,13.66,0,0,1,151.41,139a66.29,66.29,0,0,0,14.9-9.35A28.81,28.81,0,0,0,167,86.29c-5-4.41-9.63-6.35-15.07-5.65a23.36,23.36,0,0,0-12.67,5.91C138,87.79,136.51,89,135.35,90c-1,1-2.23,1.94-3.21,2.91a9.87,9.87,0,0,1-12.85.27c-1.24-1-2.76-2.21-3.92-3.18-2.23-1.67-4.46-3.44-6.69-5.11C102.25,80.2,96,79.5,89.14,82.67c-3.75,1.68-6.69,4.94-9.63,9.53a37.75,37.75,0,0,0-5.18,24.26c2.5,24.25,15.08,42.16,38.45,54.15a77.84,77.84,0,0,0,39.43,8.82c24.81-.7,44.08-10.76,57.46-29.63a67,67,0,0,0,12.13-33.08c2.23-25.76-6.69-47-27-64.92C180.85,39.54,163.81,32,144,28.51c-4.46-.7-8.92-1-12.14-1.23-1.25,0-2.23-.27-2.94-.27-25.43.53-45.23,6.18-63.34,17.91-17.13,11.29-28,25-33.46,42.69-4.46,14.2-5,28.67-1.51,44.63a101.86,101.86,0,0,0,21.05,44.37,57.73,57.73,0,0,0,6,6.35l3.21,3.18a14.38,14.38,0,0,0,1.7,1.5c4.72,4.14,6,9.35,4.19,15.43-1.25,4.68-2.77,9.53-3.93,14.21a64.74,64.74,0,0,0,19.54-10.77,14.45,14.45,0,0,1,20.07,1.5h0a13,13,0,0,1-1.69,19.14,95,95,0,0,1-23.55,13.5A146.09,146.09,0,0,1,45.43,250C42.84,249.82,41.05,250,39.09,250ZM42,204.22c-1,3.44-2,7.15-2.95,10.5l-1,3.44-1.69,6.08c-1.52,4.94-3,10.06-4.2,15.18a.74.74,0,0,1-.26.7,5.67,5.67,0,0,0,.71,2.74,3.6,3.6,0,0,0,2.5,1.23,30.41,30.41,0,0,0,8.38-.26A131.19,131.19,0,0,0,74.06,235c9.19-3.88,16.33-7.85,22-12.7A7.46,7.46,0,0,0,98.6,214c-.54-1-.72-1.94-1.7-2.73a8.6,8.6,0,0,0-11.86-1h0c-6.69,5.38-14.9,9.52-25.07,13H59.7c-.53,0-1,.27-1.69.27l-2.95.26v-2.91a4.86,4.86,0,0,1,.27-1.94v-.26l1-3.44c1.25-4.68,2.77-9.53,4.19-14.47,1.25-3.88.54-6.88-2.49-9.53a11.22,11.22,0,0,0-2-1.67c-1-1-2-2.21-2.94-3.18-2.23-2.2-4.19-4.41-6.42-6.61A106.85,106.85,0,0,1,24.37,133c-3.48-16.67-2.94-32.55,1.7-47.54C31.78,67.06,43.91,51.62,61.75,39.8c18.74-12.52,39.79-18.34,65.84-18.61h.27c.71,0,2,.27,2.94.27,3.48.26,7.94.53,12.67,1.23,21.06,3.44,39.17,11.73,53.8,24.52,21.59,18.88,31.22,42.43,29,69.86a71.12,71.12,0,0,1-13.38,36c-14.63,20.55-35.42,31.4-62.18,32.11a83.9,83.9,0,0,1-42.11-9.53c-25.07-13-38.9-32.55-41.66-58.57a43.37,43.37,0,0,1,6-27.69c3.48-5.91,7.41-9.53,11.87-11.74,8.92-4.41,17.31-3.44,25.51,2.74,2.23,1.68,4.73,3.7,7,5.38,1.25,1,2.77,2.21,3.93,3.18h0a4.47,4.47,0,0,0,5.44,0c1-1,2.23-1.68,3.21-2.74,1.25-1.23,2.77-2.47,4.19-3.7,5.18-4.15,10.44-6.62,15.88-7.15,7.23-.7,13.65,1.68,19.54,7.15a33.75,33.75,0,0,1,11.15,25.75,34.76,34.76,0,0,1-11.86,25.94,78.68,78.68,0,0,1-16.15,10.32c-3.21,1.49-4.73,3.7-4.73,6.88a7,7,0,0,0,2.77,6.35,8.66,8.66,0,0,0,7.67,1.67,51.18,51.18,0,0,0,23-12.52c12.67-11.29,18.11-26.2,16.14-43.84a50.08,50.08,0,0,0-18.11-33.61c-15.61-13-36.22-13.76-52-1.67a4.74,4.74,0,0,1-6.42,0Q98.55,52,75.58,64.59C63.89,71.21,56,81.44,51.76,95.9c-2.94,10.06-2.94,20.82-.27,33.61,4.46,20.82,15.62,38,33.46,51,24,17.91,51.56,24.26,81.27,19.32,22.3-3.7,40.68-13.76,54.51-30.17,19.8-23.28,26.5-50.45,20.07-80.62-4.46-21.08-16.15-39.42-34.17-54.42-22-18.35-48.8-28-79.57-28.93A127.62,127.62,0,0,0,79,13.52C58.63,20.66,42.3,31.42,29.19,45.89,14.29,62.39,6.08,82.41,4.66,105.25a117.13,117.13,0,0,0,1.69,28.94c5.18,26.46,16.15,47.8,33.72,65.18C42.3,200.52,42.84,202.46,42,204.22Z"/></g></g></g></g></g></g></svg>