<?xml version="1.0" encoding="utf-8"?>
<!-- Generator: Adobe Illustrator 25.2.3, SVG Export Plug-In . SVG Version: 6.00 Build 0)  -->
<svg version="1.1" id="Layer_1" xmlns="http://www.w3.org/2000/svg" xmlns:xlink="http://www.w3.org/1999/xlink" x="0px" y="0px"
	 viewBox="0 0 261.1 263.9" style="enable-background:new 0 0 261.1 263.9;" xml:space="preserve">
<style type="text/css">
	.st0{fill:#E11D48;}
</style>
<g id="Layer_2_1_">
	<g id="Layer_1-2">
		<g id="Layer_2-2">
			<g id="Layer_1-2-2">
				<path class="st0" d="M133.9,25.7C107.5,26,86,32,66.6,44.8c-17.2,11.4-29.8,26.5-36,46.4c-5,16-5.1,32.2-1.7,48.6
					c3.5,17.6,11.3,34.1,22.7,48c3,3.6,6.4,6.9,9.7,10.3c0.6,0.6,1.2,1.2,1.8,1.8c4,3.6,5.1,8,3.6,13.2c-1.8,6.2-3.5,12.4-5.2,18.7
					c-0.1,0.5-0.1,1-0.1,1.4c0.4,0,0.9-0.1,1.3-0.2c9.1-3,17.6-7.1,25.1-13.1c5-4.3,12.5-3.7,16.8,1.3c1,1.2,1.7,2.5,2.2,3.9
					c1.3,4.3-0.1,9-3.6,11.9c-7.1,6-15.2,10.3-23.8,14c-10.4,4.5-21.3,7.7-32.5,9.5c-3.1,0.5-6.3,0.6-9.4,0.2
					c-3.7-0.3-6.5-3.6-6.3-7.3c0-0.5,0.1-0.9,0.3-1.4c1.9-7.5,4.1-15,6.2-22.5c1.4-4.9,2.7-9.9,4.1-14.8c0.3-0.8,0.1-1.7-0.5-2.2
					c-19.5-19.6-30.7-43.4-36-70.3c-2-10.3-2.7-20.9-2-31.4c1.7-24.4,10.1-46,26.5-64.3C44.3,30,62.3,18.7,82.8,11.3
					c16.4-6,33.9-8.8,51.3-8.3C165.9,4,194.5,13.8,219,34.3c18.7,15.6,31.5,35.1,36.6,59c6.9,32.6-0.1,62.1-21.6,87.7
					c-15.3,18.2-35.2,28.9-58.6,32.7c-31.9,5.3-61.1-1.7-87.1-21c-18.8-14-31-32.6-35.9-55.6c-2.6-12.3-3.2-24.7,0.2-36.9
					c4.2-14.8,12.4-27,26-34.6C96,55.9,113,57.7,129,69.2c1.3,1,2,0.9,3.3-0.1c17.7-13.5,40.6-12.8,58,1.8
					c11.6,9.7,18.4,22.2,20,37.3c2,19.1-3.4,35.7-17.8,48.8c-7.1,6.7-15.8,11.5-25.3,13.8c-7.9,1.8-15-3.7-14.6-11.4
					c0.2-4.6,2.6-7.8,6.7-9.8c5.8-2.7,11.3-6.2,16.2-10.3c14-12.3,15.4-33.6,3.1-47.6c-0.7-0.8-1.5-1.6-2.3-2.4
					c-5.1-4.8-10.9-7.6-18.1-6.9c-5.8,0.6-10.6,3.3-15,6.9c-2.6,2.2-5,4.5-7.6,6.7c-2.7,2.5-6.8,2.5-9.7,0.2c-3.8-3-7.4-6-11.3-8.9
					c-7.3-5.5-15.1-6.7-23.4-2.5c-5,2.5-8.5,6.6-11.3,11.3c-4.9,8.2-6.9,17.9-5.8,27.4c2.8,27.6,17.7,46.9,41.8,59.5
					c13.1,6.9,27.7,10.3,42.5,9.8c26-0.9,47.3-11.2,62.5-32.7c7.6-10.7,12.2-23.3,13.2-36.4c2.5-28.7-7.9-52.1-29.2-71.1
					c-15.6-13.9-34.1-21.8-54.6-25.2C143.8,26.3,137.2,26.1,133.9,25.7z"/>
				<path class="st0" d="M41.3,263.9c-1.4,0-2.8-0.1-4.2-0.2c-5.4-0.5-9.4-5.2-8.9-10.6c0.1-0.7,0.2-1.3,0.4-1.9
					c1.4-5.3,2.9-10.8,4.4-16.1c0.6-2.1,1.2-4.2,1.8-6.3l1-3.6c1-3.6,2-7.3,3-10.9C19.9,195.2,8,171.8,2.3,142.8
					c-2.1-10.6-2.7-21.4-2-32.2C2,85,11.2,62.8,27.5,44.4C41.7,28.4,60,16.3,81.8,8.5c16.8-6.1,34.6-9,52.5-8.4
					c33.3,1,62.5,11.8,86.7,32c19.9,16.7,32.6,37.1,37.6,60.7c7.1,33.8-0.4,64.2-22.3,90.2c-15.4,18.3-35.7,29.7-60.4,33.8
					c-32.7,5.4-62.8-1.8-89.3-21.6c-19.6-14.6-32-33.9-37.1-57.4c-3.1-14.4-3-27,0.3-38.4c4.7-16.6,14-28.9,27.4-36.4
					c18-10,36-8.8,53.4,3.7c18.9-14.3,43.1-13.6,61.6,2c12.3,10.3,19.4,23.5,21.1,39.2c2.2,20.7-4.1,38-18.8,51.3
					c-7.5,7-16.7,12-26.6,14.5c-4.7,1.2-9.6,0.1-13.3-2.9c-3.4-2.8-5.3-7.1-5-11.6c0.3-5.5,3.2-9.8,8.4-12.3
					c5.6-2.6,10.8-5.9,15.4-9.9c6.6-5.8,10.4-14.2,10.5-23c0.1-8.6-3.5-16.8-9.8-22.7c-5.1-4.7-10.1-6.6-15.7-6
					c-4.5,0.5-8.8,2.4-13.3,6.2c-1.4,1.2-2.9,2.5-4.2,3.7c-1.1,1-2.2,2-3.3,3c-3.8,3.4-9.6,3.5-13.5,0.2c-1.4-1.1-2.8-2.2-4.1-3.3
					c-2.3-1.8-4.7-3.7-7-5.5c-6.6-5-13.2-5.7-20.3-2.2c-3.9,1.9-7,5.1-10.1,10.2c-4.6,7.7-6.5,16.6-5.5,25.5
					c2.6,25.7,15.7,44.4,40.2,57.2c12.6,6.7,26.7,9.9,41,9.4c25.8-0.9,46-11.4,60.1-31.4c7.3-10.3,11.7-22.4,12.7-35
					c2.4-27.2-6.9-49.6-28.2-68.6c-14.4-12.8-32.3-21-53.1-24.5c-4.6-0.8-9.3-1.1-12.7-1.4c-1.2-0.1-2.3-0.2-3.2-0.3
					C107.8,29,87,34.9,68.3,47.3C50.5,59.1,39.2,73.8,33.5,92.2c-4.6,14.9-5.1,30.3-1.6,47.1c3.4,17.2,11,33.2,22.1,46.8
					c1.9,2.3,4.1,4.6,6.2,6.8c1.1,1.1,2.2,2.3,3.3,3.4c0.5,0.5,1.1,1,1.7,1.6c4.8,4.3,6.3,9.8,4.4,16.2c-1.4,5-2.8,10-4.2,14.9
					c7.4-2.6,14.3-6.5,20.5-11.3c6.2-5.3,15.6-4.6,21,1.6c0,0,0,0,0,0c1.3,1.5,2.2,3.2,2.8,5c1.8,5.5-0.1,11.5-4.6,15.2
					c-6.6,5.4-14.4,10-24.6,14.3c-10.6,4.6-21.7,7.8-33.2,9.7C45.4,263.7,43.4,263.9,41.3,263.9z M44.6,215.7
					c-1.1,3.7-2.1,7.4-3.1,11.1l-1,3.6l-1.8,6.4c-1.5,5.2-3,10.7-4.4,16c-0.1,0.3-0.1,0.6-0.2,0.8c-0.1,1,0.2,2,0.9,2.8
					c0.7,0.8,1.6,1.3,2.6,1.3c2.9,0.3,5.8,0.2,8.7-0.2c10.9-1.8,21.6-4.9,31.7-9.3c9.6-4.1,17-8.4,23.1-13.5
					c2.6-2.1,3.6-5.5,2.7-8.7c-0.4-1.1-0.9-2.1-1.7-2.9c-3.2-3.7-8.8-4.2-12.5-1c0,0,0,0,0,0c-7.1,5.8-15.6,10.2-26.1,13.7l-0.2,0.1
					c-0.6,0.1-1.1,0.2-1.7,0.3l-3.2,0.3l-0.1-3.2c0-0.7,0-1.3,0.2-2l0.1-0.3l1-3.5c1.4-5,2.8-10.2,4.3-15.3
					c1.2-4.2,0.4-7.3-2.7-10.1c-0.7-0.7-1.4-1.3-2-1.9c-1.1-1.1-2.1-2.2-3.2-3.3c-2.2-2.3-4.5-4.6-6.6-7.1
					c-11.7-14.3-19.7-31.3-23.3-49.4c-3.7-17.6-3.1-34.4,1.8-50.1c6-19.5,18.5-35.7,37.2-48.1c19.7-13.1,41.6-19.3,68.9-19.6h0.1
					h0.2c0.9,0.1,2,0.2,3.2,0.3c3.6,0.3,8.4,0.6,13.3,1.4c22,3.6,40.8,12.3,56.1,25.9c22.6,20,32.7,44.8,30.2,73.6
					c-1.1,13.7-5.9,26.7-13.9,37.9c-15.2,21.6-37,33-64.8,33.9c-15.3,0.5-30.5-2.9-44-10.1c-26-13.7-40.7-34.5-43.4-61.9
					c-1.2-10.2,1-20.5,6.3-29.2c3.7-6.1,7.7-10,12.5-12.5c9.2-4.6,18.1-3.7,26.6,2.8c2.4,1.8,4.8,3.8,7.2,5.6
					c1.4,1.1,2.8,2.2,4.1,3.3l0.1,0.1c1.7,1.4,4.1,1.4,5.7-0.1c1.1-1,2.2-1.9,3.3-2.9c1.4-1.3,2.9-2.6,4.4-3.9
					c5.4-4.5,10.9-7,16.6-7.6c7.4-0.7,14.1,1.8,20.4,7.6c7.6,7,11.8,16.8,11.7,27.1c-0.1,10.5-4.6,20.4-12.5,27.4
					c-5.1,4.4-10.8,8-16.9,10.8c-3.3,1.6-4.9,3.9-5,7.2c-0.2,2.6,0.9,5,2.9,6.7c2.3,1.8,5.3,2.5,8.1,1.7c9-2.2,17.3-6.7,24-13.1
					c13.2-12,18.8-27.6,16.9-46.3c-1.5-14.1-7.9-26-19-35.3c-16.4-13.7-37.7-14.4-54.2-1.7c-1.9,1.8-4.9,1.8-6.8,0.1
					c-15.4-11.1-31.3-12.2-47.2-3.4C68,74.9,59.8,85.9,55.5,101c-3,10.5-3,22.1-0.2,35.5c4.7,22,16.4,40.1,34.8,53.8
					c25.2,18.8,53.7,25.6,84.8,20.5c23.2-3.9,42.4-14.5,56.8-31.7c20.6-24.5,27.7-53.2,21-85.1c-4.7-22.3-16.7-41.6-35.6-57.4
					c-23.1-19.3-51-29.6-83-30.6C117,5.5,99.9,8.3,83.9,14.2C62.7,21.8,45.7,33,32,48.4C16.6,65.7,7.9,86.8,6.3,111
					c-0.7,10.2,0,20.5,1.9,30.6c5.4,28,16.9,50.4,35.1,68.7C44.8,211.7,45.3,213.8,44.6,215.7z"/>
			</g>
		</g>
	</g>
</g>
</svg>
