<?xml version="1.0" encoding="utf-8"?>
<!-- Generator: Adobe Illustrator 25.3.1, SVG Export Plug-In . SVG Version: 6.00 Build 0)  -->
<svg version="1.1" id="Layer_1" xmlns="http://www.w3.org/2000/svg" xmlns:xlink="http://www.w3.org/1999/xlink" x="0px" y="0px"
	 viewBox="0 0 1224.2 283.4" style="enable-background:new 0 0 1224.2 283.4;" xml:space="preserve">
<style type="text/css">
	.st0{fill:#E11D48;}
	.st1{fill:#E11D48;stroke:#E11D48;stroke-width:4.1009;stroke-linecap:round;stroke-linejoin:round;stroke-miterlimit:10;}
</style>
<g>
	<g id="Layer_2_1_">
		<g id="Layer_1-2">
			<g id="Layer_2-2">
				<g id="Layer_1-2-2">
					<path class="st0" d="M143.2,27.3C114.9,27.6,91.8,34,71,47.9C52.4,60.1,39.1,76.2,32.4,97.6c-5.3,17.2-5.6,34.7-1.9,52.2
						c3.9,18.9,12.2,36.7,24.4,51.7c3.3,3.9,6.9,7.5,10.6,11.1c0.6,0.6,1.4,1.4,1.9,1.9c4.2,3.9,5.6,8.6,3.9,14.2
						c-1.9,6.7-3.9,13.3-5.6,20c0,0.6,0,1.1,0,1.4c0.6,0,0.8,0,1.4-0.3c9.7-3.3,18.9-7.5,26.9-14.2c5.3-4.7,13.3-3.9,18.1,1.4
						c1.1,1.4,1.9,2.8,2.5,4.2c1.4,4.7,0,9.7-3.9,12.8c-7.5,6.4-16.4,11.1-25.6,15c-11.1,4.7-22.8,8.3-35,10.3
						c-3.3,0.6-6.7,0.6-10,0.3c-3.9-0.3-6.9-3.9-6.7-7.8c0-0.6,0-0.8,0.3-1.4c1.9-8.1,4.4-16.1,6.7-24.2c1.4-5.3,2.8-10.6,4.4-15.8
						c0.3-0.8,0-1.9-0.6-2.5c-20.8-21.1-33.1-46.7-38.6-75.6c-2.2-11.1-2.8-22.5-2.2-33.6c1.9-26.1,10.8-49.4,28.3-69.2
						c15.6-17.8,35-30,56.9-37.8c17.5-6.4,36.4-9.4,55-8.9c34.2,1.1,65,11.7,91.1,33.6c20,16.7,33.9,37.8,39.4,63.3
						c7.5,35,0,66.7-23.3,94.2c-16.4,19.4-37.8,31.1-63.1,35c-34.2,5.6-65.6-1.9-93.6-22.5c-20.3-15-33.3-35-38.6-59.7
						c-2.8-13.3-3.3-26.7,0.3-39.7c4.4-15.8,13.3-28.9,28.1-37.2c18.6-10.6,36.9-8.6,54.2,3.9c1.4,1.1,2.2,0.8,3.6,0
						c18.9-14.4,43.6-13.9,62.2,1.9c12.5,10.6,19.7,23.9,21.4,40c2.2,20.6-3.6,38.3-19.2,52.5c-7.5,7.2-16.9,12.2-27.2,14.7
						c-8.6,1.9-16.1-3.9-15.6-12.2c0.3-5,2.8-8.3,7.2-10.6c6.1-2.8,12.2-6.7,17.5-11.1c15-13.3,16.7-36.1,3.3-51.1
						c-0.8-0.8-1.7-1.7-2.5-2.5c-5.6-5.3-11.7-8.1-19.4-7.5c-6.1,0.6-11.4,3.6-16.1,7.5c-2.8,2.5-5.3,4.7-8.1,7.2
						c-2.8,2.8-7.2,2.8-10.6,0.3c-4.2-3.3-8.1-6.4-12.2-9.4c-7.8-5.8-16.1-7.2-25-2.8c-5.3,2.8-9.2,7.2-12.2,12.2
						c-5.3,8.9-7.5,19.2-6.1,29.4c3.1,29.7,18.9,50.3,45,63.9c14.2,7.5,29.7,11.1,45.6,10.6c28.1-0.8,50.8-11.9,67.2-35
						c8.1-11.4,13.1-25,14.2-39.2c2.8-30.8-8.6-55.8-31.4-76.4c-16.7-15-36.7-23.3-58.6-26.9C153.8,28.2,146.6,27.9,143.2,27.3z"/>
					<path class="st0" d="M43.8,283.4c-1.4,0-3.1,0-4.4-0.3c-5.8-0.6-10-5.6-9.4-11.4c0-0.8,0.3-1.4,0.6-1.9
						c1.4-5.6,3.1-11.7,4.7-17.2c0.6-2.2,1.4-4.4,1.9-6.7l1.1-3.9c1.1-3.9,2.2-7.8,3.3-11.7c-20.3-20.6-33.1-45.6-39.2-76.9
						c-2.2-11.4-2.8-23.1-2.2-34.7c1.9-27.5,11.7-51.4,29.2-71.1C44.7,30.4,64.4,17.3,87.7,9c18.1-6.7,37.2-9.7,56.4-8.9
						c35.8,1.1,67.2,12.8,93.1,34.4c21.4,18.1,35,39.7,40.3,65.3c7.5,36.4-0.6,68.9-23.9,96.9c-16.7,19.7-38.3,31.9-65,36.4
						c-35,5.8-67.5-1.9-95.8-23.3c-21.1-15.6-34.4-36.4-39.7-61.7c-3.3-15.6-3.3-28.9,0.3-41.4c5-17.8,15-31.1,29.4-39.2
						c19.4-10.8,38.6-9.4,57.5,3.9c20.3-15.3,46.4-14.7,66.1,2.2c13.3,11.1,20.8,25.3,22.8,42.2c2.5,22.2-4.4,40.8-20.3,55
						c-8.1,7.5-18.1,12.8-28.6,15.6c-5,1.4-10.3,0-14.2-3.1c-3.6-3.1-5.6-7.5-5.3-12.5c0.3-5.8,3.3-10.6,8.9-13.3
						c6.1-2.8,11.7-6.4,16.7-10.6c7.2-6.1,11.1-15.3,11.4-24.7c0-9.2-3.9-18.1-10.6-24.4c-5.6-5-10.8-7.2-16.9-6.4
						c-4.7,0.6-9.4,2.5-14.2,6.7c-1.4,1.4-3.1,2.8-4.4,3.9c-1.1,1.1-2.5,2.2-3.6,3.3c-4.2,3.6-10.3,3.9-14.4,0.3
						c-1.4-1.1-3.1-2.5-4.4-3.6c-2.5-1.9-5-3.9-7.5-5.8c-7.2-5.3-14.2-6.1-21.9-2.5c-4.2,1.9-7.5,5.6-10.8,10.8
						c-5,8.3-6.9,17.8-5.8,27.5c2.8,27.5,16.9,47.8,43.1,61.4c13.6,7.2,28.6,10.6,44.2,10c27.8-0.8,49.4-12.2,64.4-33.6
						c7.8-11.1,12.5-24.2,13.6-37.5c2.5-29.2-7.5-53.3-30.3-73.6c-15.6-13.9-34.7-22.5-56.9-26.4c-5-0.8-10-1.1-13.6-1.4
						c-1.4,0-2.5-0.3-3.3-0.3c-28.5,0.6-50.7,7-71,20.3C54.3,63.7,42.1,79.3,36,99.3c-5,16.1-5.6,32.5-1.7,50.6
						c3.6,18.6,11.9,35.6,23.6,50.3c1.9,2.5,4.4,5,6.7,7.2c1.1,1.1,2.5,2.5,3.6,3.6c0.6,0.6,1.1,1.1,1.9,1.7
						c5.3,4.7,6.7,10.6,4.7,17.5c-1.4,5.3-3.1,10.8-4.4,16.1c8.1-2.8,15.3-6.9,21.9-12.2c6.7-5.6,16.7-5,22.5,1.7l0,0
						c1.4,1.7,2.5,3.3,3.1,5.3c1.9,5.8,0,12.2-5,16.4c-7.2,5.8-15.6,10.8-26.4,15.3c-11.4,5-23.3,8.3-35.6,10.6
						C48,283.2,46,283.4,43.8,283.4z M47.1,231.5c-1.1,3.9-2.2,8.1-3.3,11.9l-1.1,3.9l-1.9,6.9c-1.7,5.6-3.3,11.4-4.7,17.2
						c0,0.3,0,0.6-0.3,0.8c0,1.1,0.3,2.2,0.8,3.1c0.8,0.8,1.7,1.4,2.8,1.4c3.1,0.3,6.1,0.3,9.4-0.3c11.7-1.9,23.3-5.3,34.2-10
						c10.3-4.4,18.3-8.9,24.7-14.4c2.8-2.2,3.9-5.8,2.8-9.4c-0.6-1.1-0.8-2.2-1.9-3.1c-3.3-3.9-9.4-4.4-13.3-1.1l0,0
						c-7.5,6.1-16.7,10.8-28.1,14.7h-0.3c-0.6,0-1.1,0.3-1.9,0.3l-3.3,0.3v-3.3c0-0.8,0-1.4,0.3-2.2v-0.3l1.1-3.9
						c1.4-5.3,3.1-10.8,4.7-16.4c1.4-4.4,0.6-7.8-2.8-10.8c-0.8-0.8-1.4-1.4-2.2-1.9c-1.1-1.1-2.2-2.5-3.3-3.6
						c-2.5-2.5-4.7-5-7.2-7.5c-12.5-15.3-21.1-33.6-25-53.1c-3.9-18.9-3.3-36.9,1.9-53.9c6.4-20.8,20-38.3,40-51.7
						c21-14.2,44.6-20.8,73.8-21.1l0,0h0.3c0.8,0,2.2,0.3,3.3,0.3c3.9,0.3,8.9,0.6,14.2,1.4c23.6,3.9,43.9,13.3,60.3,27.8
						c24.2,21.4,35,48.1,32.5,79.2c-1.1,14.7-6.4,28.6-15,40.8c-16.4,23.3-39.7,35.6-69.7,36.4c-16.4,0.6-32.8-3.1-47.2-10.8
						c-28.1-14.7-43.6-36.9-46.7-66.4c-1.4-10.8,1.1-21.9,6.7-31.4C85.6,94.6,90,90.5,95,88c10-5,19.4-3.9,28.6,3.1
						c2.5,1.9,5.3,4.2,7.8,6.1c1.4,1.1,3.1,2.5,4.4,3.6l0,0c1.9,1.4,4.4,1.4,6.1,0c1.1-1.1,2.5-1.9,3.6-3.1c1.4-1.4,3.1-2.8,4.7-4.2
						c5.8-4.7,11.7-7.5,17.8-8.1c8.1-0.8,15.3,1.9,21.9,8.1c8.1,7.5,12.8,18.1,12.5,29.2c0,11.4-5,21.9-13.3,29.4
						c-5.6,4.7-11.7,8.6-18.1,11.7c-3.6,1.7-5.3,4.2-5.3,7.8c-0.3,2.8,0.8,5.3,3.1,7.2c2.5,1.9,5.6,2.8,8.6,1.9
						c9.7-2.5,18.6-7.2,25.8-14.2c14.2-12.8,20.3-29.7,18.1-49.7c-1.7-15.3-8.6-28.1-20.3-38.1c-17.5-14.7-40.6-15.6-58.3-1.9
						c-1.9,1.9-5.3,1.9-7.2,0c-16.7-11.9-33.6-13.1-50.8-3.6c-13.1,7.5-22,19.1-26.7,35.5c-3.3,11.4-3.3,23.6-0.3,38.1
						c5,23.6,17.5,43.1,37.5,57.8c26.9,20.3,57.8,27.5,91.1,21.9c25-4.2,45.6-15.6,61.1-34.2c22.2-26.4,29.7-57.2,22.5-91.4
						c-5-23.9-18.1-44.7-38.3-61.7c-24.7-20.8-54.7-31.7-89.2-32.8c-18.3-0.6-36.7,2.5-53.9,8.9C65.7,23.4,47.4,35.6,32.7,52
						C16,70.7,6.8,93.4,5.2,119.3c-0.8,10.8,0,21.9,1.9,32.8c5.8,30,18.1,54.2,37.8,73.9C47.4,227.3,48,229.5,47.1,231.5z"/>
				</g>
			</g>
		</g>
	</g>
	<g>
		<g>
			<path class="st1" d="M426.6,96.4V81.3h30.7v115.7c0,18.7-6.2,32.9-18.7,43.1c-12.2,9.8-27.1,14.9-44.7,14.9
				c-27.5,0-46.7-9.8-57.6-29.5l26.7-15.4c6,11.4,16.6,17.1,31.8,17.1c9.8,0,17.5-2.6,23.4-7.8c5.8-5.1,8.5-12.6,8.5-22.3v-13
				c-9.4,12.2-22.3,18.4-38.9,18.4c-17.1,0-31.5-6-43.3-18c-11.5-12.2-17.4-27.1-17.4-44.2s5.8-31.8,17.5-44
				c11.5-12.2,26-18.3,43.1-18.3C404.4,78,417.5,84.2,426.6,96.4z M417,164.2c6.5-6.2,9.5-14.2,9.5-24c0-9.8-3.4-17.5-9.8-23.5
				c-6.2-6.2-14.4-9.5-24.3-9.5s-18,3.1-24.4,9.5c-6.2,6-9.5,13.8-9.5,23.5c0,9.8,3.1,17.8,9.5,24c6.5,6.2,14.4,9.4,24.4,9.4
				C402.4,173.5,410.6,170.5,417,164.2z"/>
			<path class="st1" d="M501.2,66.9c-5.1,0-9.8-2-13.5-5.8c-3.8-3.8-5.8-8.2-5.8-13.5c0-5.1,2-9.8,5.8-13.5c3.8-4,8.2-5.8,13.5-5.8
				c5.3,0,10,2,13.8,5.8c3.8,3.8,5.8,8.5,5.8,13.5s-2,9.8-5.8,13.5C511.2,64.9,506.6,66.9,501.2,66.9z M517.1,203.1h-31.3V81.6h31.3
				V203.1z"/>
			<path class="st1" d="M595.9,166.5l29.5-85.1h34.4L613.7,203h-35.8L532.1,81.6h34.4L595.9,166.5z"/>
			<path class="st1" d="M788.6,155.1H697c4,15.4,15.5,22.9,34.3,22.9c12,0,21.1-4,27.1-12.2l25.4,14.6c-12,17.4-29.5,26-52.9,26
				c-20,0-36.3-6-48.4-18.3s-18.3-27.5-18.3-46c0-18.3,6-33.3,18-45.8C694,84.1,709.5,78,728.4,78c18,0,32.7,6.2,44,18.4
				c11.8,12.2,17.5,27.5,17.5,45.8C789.7,145.6,789.3,150,788.6,155.1z M696.4,130.9h62c-1.8-8-5.4-14-10.9-18.3
				c-5.4-4.2-11.8-6.2-19.4-6.2c-8.5,0-15.4,2.2-20.9,6.5C702,117.1,698.1,123.1,696.4,130.9z"/>
			<path class="st1" d="M879.3,78c13.5,0,24.4,4.5,32.9,13.4c8.6,9.1,13.1,21.4,13.1,36.9V203H894v-70.8c0-8-2.2-14-6.5-18.4
				c-4.2-4.5-10.2-6.6-17.5-6.6c-8.2,0-14.9,2.5-19.5,7.5c-4.9,5.1-7.1,12.6-7.1,22.4v65.6H812V32.4h31.3v62.2
				C850.4,83.8,862.6,78,879.3,78z"/>
			<path class="st1" d="M1032.2,147.1V81.6h31.3v121.6h-31.3v-13.5c-7.5,11.4-19.5,17.1-36.3,17.1c-13.4,0-24.3-4.5-33.1-13.4
				c-8.6-9.1-12.9-21.4-12.9-36.9V81.6h31.3v70.7c0,8,2.2,14,6.5,18.4c4.2,4.4,10.2,6.6,17.5,6.6c8.2,0,14.9-2.5,19.5-7.5
				C1029.8,164.5,1032.2,156.9,1032.2,147.1z"/>
			<path class="st1" d="M1162.9,78c16.4,0,30.3,6.2,41.8,18.7s17.5,27.5,17.5,45.5c0,18.3-5.8,33.3-17.5,45.8
				c-11.4,12.2-25.4,18.4-41.8,18.4c-17.1,0-30.3-6-39.3-17.8v14.4h-31.3V32.9h31.3v62.9C1132.6,84,1145.7,78,1162.9,78z
				 M1133.1,167.1c6.2,6.2,14.4,9.5,24,9.5s17.8-3.1,24-9.5c6.5-6.5,9.8-14.6,9.8-24.9c0-10-3.4-18.3-9.8-24.4
				c-6.2-6.5-14.4-9.8-24-9.8s-17.8,3.4-24,9.8c-6.2,6.2-9.5,14.4-9.5,24.4C1123.5,152.2,1126.6,160.5,1133.1,167.1z"/>
		</g>
	</g>
</g>
</svg>
