<svg xmlns="http://www.w3.org/2000/svg" viewBox="0 0 1479.04 283.43"><defs><style>.cls-1{fill:#fff;}</style></defs><g id="Layer_2" data-name="Layer 2"><g id="Layer_1-2" data-name="Layer 1"><g id="Layer_2-2" data-name="Layer 2"><g id="Layer_1-2-2" data-name="Layer 1-2"><g id="Layer_2-2-2" data-name="Layer 2-2"><g id="Layer_1-2-2-2" data-name="Layer 1-2-2"><path class="cls-1" d="M143.22,27.33c-28.3.3-51.4,6.7-72.2,20.6-18.6,12.2-31.9,28.3-38.6,49.7-5.3,17.2-5.6,34.7-1.9,52.2a120.51,120.51,0,0,0,24.4,51.7c3.3,3.9,6.9,7.5,10.6,11.1l1.9,1.9c4.2,3.9,5.6,8.6,3.9,14.2-1.9,6.7-3.9,13.3-5.6,20v1.4a2.38,2.38,0,0,0,1.4-.3c9.7-3.3,18.9-7.5,26.9-14.2,5.3-4.7,13.3-3.9,18.1,1.4a18.59,18.59,0,0,1,2.5,4.2,11.82,11.82,0,0,1-3.9,12.8c-7.5,6.4-16.4,11.1-25.6,15a153.5,153.5,0,0,1-35,10.3,37.26,37.26,0,0,1-10,.3,7.48,7.48,0,0,1-6.7-7.8,2.38,2.38,0,0,1,.3-1.4c1.9-8.1,4.4-16.1,6.7-24.2,1.4-5.3,2.8-10.6,4.4-15.8a2.56,2.56,0,0,0-.6-2.5c-20.8-21.1-33.1-46.7-38.6-75.6a135.79,135.79,0,0,1-2.2-33.6c1.9-26.1,10.8-49.4,28.3-69.2,15.6-17.8,35-30,56.9-37.8a149.4,149.4,0,0,1,55-8.9c34.2,1.1,65,11.7,91.1,33.6,20,16.7,33.9,37.8,39.4,63.3,7.5,35,0,66.7-23.3,94.2-16.4,19.4-37.8,31.1-63.1,35-34.2,5.6-65.6-1.9-93.6-22.5-20.3-15-33.3-35-38.6-59.7-2.8-13.3-3.3-26.7.3-39.7,4.4-15.8,13.3-28.9,28.1-37.2,18.6-10.6,36.9-8.6,54.2,3.9,1.4,1.1,2.2.8,3.6,0,18.9-14.4,43.6-13.9,62.2,1.9,12.5,10.6,19.7,23.9,21.4,40,2.2,20.6-3.6,38.3-19.2,52.5a59.32,59.32,0,0,1-27.2,14.7c-8.6,1.9-16.1-3.9-15.6-12.2.3-5,2.8-8.3,7.2-10.6a80.77,80.77,0,0,0,17.5-11.1,36.06,36.06,0,0,0,3.3-51.1l-2.5-2.5c-5.6-5.3-11.7-8.1-19.4-7.5-6.1.6-11.4,3.6-16.1,7.5-2.8,2.5-5.3,4.7-8.1,7.2-2.8,2.8-7.2,2.8-10.6.3-4.2-3.3-8.1-6.4-12.2-9.4-7.8-5.8-16.1-7.2-25-2.8a31.78,31.78,0,0,0-12.2,12.2,45.32,45.32,0,0,0-6.1,29.4c3.1,29.7,18.9,50.3,45,63.9a90.88,90.88,0,0,0,45.6,10.6c28.1-.8,50.8-11.9,67.2-35a78.31,78.31,0,0,0,14.2-39.2c2.8-30.8-8.6-55.8-31.4-76.4-16.7-15-36.7-23.3-58.6-26.9C153.82,28.23,146.62,27.93,143.22,27.33Z"/><path class="cls-1" d="M43.82,283.43a21.23,21.23,0,0,1-4.4-.3,10.37,10.37,0,0,1-9.4-11.4,3.57,3.57,0,0,1,.6-1.9c1.4-5.6,3.1-11.7,4.7-17.2.6-2.2,1.4-4.4,1.9-6.7l1.1-3.9,3.3-11.7c-20.3-20.6-33.1-45.6-39.2-76.9a144.09,144.09,0,0,1-2.2-34.7c1.9-27.5,11.7-51.4,29.2-71.1,15.3-17.2,35-30.3,58.3-38.6a144.79,144.79,0,0,1,56.4-8.9c35.8,1.1,67.2,12.8,93.1,34.4,21.4,18.1,35,39.7,40.3,65.3,7.5,36.4-.6,68.9-23.9,96.9-16.7,19.7-38.3,31.9-65,36.4-35,5.8-67.5-1.9-95.8-23.3-21.1-15.6-34.4-36.4-39.7-61.7-3.3-15.6-3.3-28.9.3-41.4,5-17.8,15-31.1,29.4-39.2,19.4-10.8,38.6-9.4,57.5,3.9,20.3-15.3,46.4-14.7,66.1,2.2a62.77,62.77,0,0,1,22.8,42.2c2.5,22.2-4.4,40.8-20.3,55a68,68,0,0,1-28.6,15.6,16.07,16.07,0,0,1-14.2-3.1,15.57,15.57,0,0,1,3.6-25.8,74,74,0,0,0,16.7-10.6c7.2-6.1,11.1-15.3,11.4-24.7a33.68,33.68,0,0,0-10.6-24.4c-5.6-5-10.8-7.2-16.9-6.4a26,26,0,0,0-14.2,6.7c-1.4,1.4-3.1,2.8-4.4,3.9-1.1,1.1-2.5,2.2-3.6,3.3a11,11,0,0,1-14.4.3c-1.4-1.1-3.1-2.5-4.4-3.6-2.5-1.9-5-3.9-7.5-5.8-7.2-5.3-14.2-6.1-21.9-2.5-4.2,1.9-7.5,5.6-10.8,10.8a43.25,43.25,0,0,0-5.8,27.5c2.8,27.5,16.9,47.8,43.1,61.4a86.55,86.55,0,0,0,44.2,10c27.8-.8,49.4-12.2,64.4-33.6a76.57,76.57,0,0,0,13.6-37.5c2.5-29.2-7.5-53.3-30.3-73.6-15.6-13.9-34.7-22.5-56.9-26.4-5-.8-10-1.1-13.6-1.4-1.4,0-2.5-.3-3.3-.3-28.5.6-50.7,7-71,20.3-19.2,12.8-31.4,28.4-37.5,48.4-5,16.1-5.6,32.5-1.7,50.6a116.15,116.15,0,0,0,23.6,50.3,64.94,64.94,0,0,0,6.7,7.2l3.6,3.6a16.24,16.24,0,0,0,1.9,1.7c5.3,4.7,6.7,10.6,4.7,17.5-1.4,5.3-3.1,10.8-4.4,16.1a72.44,72.44,0,0,0,21.9-12.2,16.07,16.07,0,0,1,22.5,1.7h0a14.83,14.83,0,0,1-1.9,21.7,106.09,106.09,0,0,1-26.4,15.3,162.21,162.21,0,0,1-35.6,10.6C48,283.23,46,283.43,43.82,283.43Zm3.3-51.9c-1.1,3.9-2.2,8.1-3.3,11.9l-1.1,3.9-1.9,6.9c-1.7,5.6-3.3,11.4-4.7,17.2a.83.83,0,0,1-.3.8,6.5,6.5,0,0,0,.8,3.1,4,4,0,0,0,2.8,1.4,33.17,33.17,0,0,0,9.4-.3,145.88,145.88,0,0,0,34.2-10c10.3-4.4,18.3-8.9,24.7-14.4a8.52,8.52,0,0,0,2.8-9.4c-.6-1.1-.8-2.2-1.9-3.1a9.57,9.57,0,0,0-13.3-1.1h0c-7.5,6.1-16.7,10.8-28.1,14.7h-.3c-.6,0-1.1.3-1.9.3l-3.3.3v-3.3a5.58,5.58,0,0,1,.3-2.2v-.3l1.1-3.9c1.4-5.3,3.1-10.8,4.7-16.4,1.4-4.4.6-7.8-2.8-10.8a12.42,12.42,0,0,0-2.2-1.9c-1.1-1.1-2.2-2.5-3.3-3.6-2.5-2.5-4.7-5-7.2-7.5a121.78,121.78,0,0,1-25-53.1q-5.85-28.35,1.9-53.9c6.4-20.8,20-38.3,40-51.7,21-14.2,44.6-20.8,73.8-21.1h.3c.8,0,2.2.3,3.3.3,3.9.3,8.9.6,14.2,1.4,23.6,3.9,43.9,13.3,60.3,27.8,24.2,21.4,35,48.1,32.5,79.2a81.19,81.19,0,0,1-15,40.8c-16.4,23.3-39.7,35.6-69.7,36.4a93.14,93.14,0,0,1-47.2-10.8c-28.1-14.7-43.6-36.9-46.7-66.4a49.61,49.61,0,0,1,6.7-31.4C85.62,94.63,90,90.53,95,88c10-5,19.4-3.9,28.6,3.1,2.5,1.9,5.3,4.2,7.8,6.1,1.4,1.1,3.1,2.5,4.4,3.6h0a5,5,0,0,0,6.1,0c1.1-1.1,2.5-1.9,3.6-3.1,1.4-1.4,3.1-2.8,4.7-4.2,5.8-4.7,11.7-7.5,17.8-8.1,8.1-.8,15.3,1.9,21.9,8.1a38.51,38.51,0,0,1,12.5,29.2,39.57,39.57,0,0,1-13.3,29.4,87.41,87.41,0,0,1-18.1,11.7c-3.6,1.7-5.3,4.2-5.3,7.8a8,8,0,0,0,3.1,7.2,9.63,9.63,0,0,0,8.6,1.9,57.12,57.12,0,0,0,25.8-14.2c14.2-12.8,20.3-29.7,18.1-49.7A57,57,0,0,0,201,78.73c-17.5-14.7-40.6-15.6-58.3-1.9a5.26,5.26,0,0,1-7.2,0Q110.47,59,84.72,73.23c-13.1,7.5-22,19.1-26.7,35.5-3.3,11.4-3.3,23.6-.3,38.1,5,23.6,17.5,43.1,37.5,57.8,26.9,20.3,57.8,27.5,91.1,21.9,25-4.2,45.6-15.6,61.1-34.2,22.2-26.4,29.7-57.2,22.5-91.4-5-23.9-18.1-44.7-38.3-61.7-24.7-20.8-54.7-31.7-89.2-32.8a141.73,141.73,0,0,0-53.9,8.9c-22.8,8.1-41.1,20.3-55.8,36.7-16.7,18.7-25.9,41.4-27.5,67.3a134.28,134.28,0,0,0,1.9,32.8c5.8,30,18.1,54.2,37.8,73.9C47.42,227.33,48,229.53,47.12,231.53Z"/></g></g></g></g><path class="cls-1" d="M357.06,254.19a23,23,0,0,1-3.26-12c0-9,6.82-15.88,17.66-15.88,5.64,0,10.09,1.78,15,6.24,11.73,11.13,23,17.21,37.4,17.36,23.74.15,37.69-12.91,37.69-32.8V191.72h-.89c-7.42,17.06-26,28.49-49,28.49-39.62,0-64.55-30.27-64.55-78.79,0-49.86,24.34-79.39,65.29-79.39,22.85,0,40.22,12,48.53,30h.89V83.25c0-14.69,9.34-22,21.81-22s21.52,7.28,21.52,22V217.39c0,41.4-30,66.33-81.17,66C391.49,283.28,367.3,271,357.06,254.19ZM462,142c0-28.64-13.94-47-35.61-47-21.37,0-34.87,18.1-34.87,46.89,0,29.09,13.35,46.15,34.87,46.15S462,170.8,462,142Z"/><path class="cls-1" d="M538.54,22.41C538.54,9.79,548.63,0,561.69,0s23.15,9.79,23.15,22.41c0,12.46-10.09,22.4-23.15,22.4S538.54,34.87,538.54,22.41ZM540,204.18V84c0-14.1,8.16-22.71,21.66-22.71S583.36,69.89,583.36,84V204.18c0,14.1-8.31,22.56-21.67,22.56S540,218.28,540,204.18Z"/><path class="cls-1" d="M653.69,204.63l-41.4-111a40.79,40.79,0,0,1-2.37-12.91c0-11.72,9.35-19.44,21.66-19.44,10.54,0,17.51,5.64,20.78,17.37l32.2,106.69h.89L717.65,78.2c3-11.42,10.24-16.92,20.33-16.92,12,0,21.07,8.31,21.07,19.29a37.6,37.6,0,0,1-2.38,12.17l-41.4,111.89c-5.49,15.28-14.54,22.11-30.27,22.11C668.38,226.74,659.48,220.06,653.69,204.63Z"/><path class="cls-1" d="M774.48,144.83c0-51.2,29.83-83.69,76.87-83.69,45.11,0,75.38,30.86,75.38,74,0,12-6.83,18.85-18.85,18.85H817.07V156c0,23.59,14.24,39,36.21,39,15.87,0,26.26-5.34,38-19.14,4.6-4.75,8.46-6.38,14.1-6.38,9.35,0,16.92,5.94,16.92,15.88a22.26,22.26,0,0,1-3,10.53C908.77,215.46,884.14,227,853.42,227,803.71,227,774.48,196.32,774.48,144.83ZM885,127.47c-.89-20.78-14.25-34.28-33.24-34.28s-32.79,14-34.28,34.28Z"/><path class="cls-1" d="M956.11,204.18V28.49c0-13.95,8-22.26,21.37-22.26s21.22,8.31,21.22,22.26v64.4h.89c8.46-20,25.82-31.31,50-31.31,35.31,0,55.49,22.85,55.49,59.65v83c0,14.84-8.9,22.56-21.66,22.56s-21.67-7.72-21.67-22.56V130.43c0-20.47-10.09-32.94-29.82-32.94-20.48,0-32.5,14.4-32.5,35.32v71.37c0,14.84-8.9,22.56-21.67,22.56C965.16,226.74,956.11,219,956.11,204.18Z"/><path class="cls-1" d="M1138,167.09V84c0-14.84,9-22.71,21.66-22.71,12.77,0,21.67,7.87,21.67,22.71V158c0,21.21,10.53,32.49,29.68,32.49s31.31-13.8,31.31-34.87V84c0-14.84,9.05-22.71,21.66-22.71,12.76,0,21.67,7.87,21.67,22.71V204.78c0,14.39-8.46,22-20.93,22s-20.92-7.57-20.92-22V195H1243c-7.87,20-23.59,31.61-47.63,31.61C1160.89,226.59,1138,204.18,1138,167.09Z"/><path class="cls-1" d="M1321,204.78V28.94c0-14.84,9-22.71,21.67-22.71s21.66,7.87,21.66,22.71V92.15h.89C1374,73.3,1391.78,62,1414.34,62c40.21,0,64.7,30.71,64.7,82.06,0,51.19-24.34,82.06-64.55,82.06-23.3,0-41-11.28-49.86-29.83h-.89v8.46c0,14.39-8.9,22-21.52,22C1329.76,226.74,1321,219.32,1321,204.78Zm113.67-60.69c0-28.94-13.5-47.34-35-47.34-21.07,0-35.47,18.84-35.47,47.34,0,28.78,14.4,47.18,35.47,47.18C1421.17,191.27,1434.67,173.17,1434.67,144.09Z"/></g></g></svg>