<svg xmlns="http://www.w3.org/2000/svg" viewBox="0 0 264.25 267.11"><defs><style>.cls-1{fill:#f43f5e;}</style></defs><g id="Layer_2" data-name="Layer 2"><g id="Layer_1-2" data-name="Layer 1"><path class="cls-1" d="M135.56,23.56C108.25,23.81,86,30,65.88,43.35,48.08,55.16,35,70.78,28.63,91.45c-5.14,16.6-5.31,33.4-1.78,50.3,3.87,18.44,11.47,35.19,23.5,49.77,3.11,3.77,6.68,7.15,10,10.7.61.63,1.24,1.24,1.88,1.83,4.17,3.76,5.25,8.3,3.69,13.65-1.87,6.43-3.61,12.9-5.38,19.36a7.17,7.17,0,0,0-.11,1.48,9.46,9.46,0,0,0,1.33-.23c9.42-3.11,18.26-7.31,26-13.61a12.33,12.33,0,0,1,19.73,5.43,11.46,11.46,0,0,1-3.74,12.3c-7.44,6.16-15.86,10.64-24.69,14.4a141.34,141.34,0,0,1-33.62,9.84,37.74,37.74,0,0,1-9.73.23,7.06,7.06,0,0,1-6.22-9c2-7.79,4.23-15.51,6.37-23.26,1.41-5.11,2.79-10.22,4.26-15.31a2,2,0,0,0-.55-2.32c-20.22-20.28-31.84-45-37.24-72.82A125.23,125.23,0,0,1,.28,111.65C2,86.42,10.77,64,27.69,45c15.12-17,33.71-28.71,55-36.36A142.9,142.9,0,0,1,135.87.07c32.85,1,62.48,11.16,87.87,32.38,19.33,16.14,32.64,36.32,37.87,61.14,7.11,33.74-.1,64.32-22.39,90.8-15.85,18.84-36.51,29.88-60.7,33.9-33.06,5.51-63.31-1.77-90.18-21.78C68.89,182,56.23,162.79,51.13,138.9c-2.71-12.75-3.36-25.59.25-38.27,4.35-15.33,12.8-27.95,26.92-35.8,18-10,35.59-8.17,52.2,3.76,1.38,1,2.1.89,3.37-.08,18.3-14,42-13.29,60.08,1.85,12,10.09,19.08,23,20.72,38.61,2.08,19.74-3.5,36.94-18.42,50.53A58.61,58.61,0,0,1,170,173.79c-8.18,1.91-15.52-3.87-15.15-11.86.23-4.74,2.74-8.05,6.95-10.13,6-2.94,11.75-6.21,16.74-10.71,15.55-14,15.93-37.65.77-51.83C174,84.37,168,81.43,160.58,82.17c-6,.61-11,3.43-15.49,7.16-2.7,2.23-5.22,4.66-7.88,6.94a7.6,7.6,0,0,1-10,.16c-3.89-3.06-7.71-6.22-11.66-9.22-7.53-5.73-15.63-6.9-24.25-2.58-5.19,2.6-8.76,6.88-11.7,11.73a44.84,44.84,0,0,0-6.12,28.39c2.88,28.63,18.38,48.56,43.32,61.67a87.33,87.33,0,0,0,44,10.11c26.91-.9,49-11.56,64.71-33.82A75.47,75.47,0,0,0,239.3,125C241.87,95.3,231.11,71,209,51.37,192.83,37,173.68,28.79,152.47,25.29,145.82,24.19,139,23.9,135.56,23.56Z"/></g></g></svg>