<svg xmlns="http://www.w3.org/2000/svg" viewBox="0 0 1211.2 283.43"><defs><style>.cls-1{fill:#fff;}</style></defs><g id="Layer_2" data-name="Layer 2"><g id="Layer_1-2" data-name="Layer 1"><g id="Layer_2-2" data-name="Layer 2"><g id="Layer_1-2-2" data-name="Layer 1-2"><g id="Layer_2-2-2" data-name="Layer 2-2"><g id="Layer_1-2-2-2" data-name="Layer 1-2-2"><path class="cls-1" d="M143.22,27.33c-28.3.3-51.4,6.7-72.2,20.6-18.6,12.2-31.9,28.3-38.6,49.7-5.3,17.2-5.6,34.7-1.9,52.2a120.51,120.51,0,0,0,24.4,51.7c3.3,3.9,6.9,7.5,10.6,11.1l1.9,1.9c4.2,3.9,5.6,8.6,3.9,14.2-1.9,6.7-3.9,13.3-5.6,20v1.4a2.38,2.38,0,0,0,1.4-.3c9.7-3.3,18.9-7.5,26.9-14.2,5.3-4.7,13.3-3.9,18.1,1.4a18.59,18.59,0,0,1,2.5,4.2,11.82,11.82,0,0,1-3.9,12.8c-7.5,6.4-16.4,11.1-25.6,15a153.5,153.5,0,0,1-35,10.3,37.26,37.26,0,0,1-10,.3,7.48,7.48,0,0,1-6.7-7.8,2.38,2.38,0,0,1,.3-1.4c1.9-8.1,4.4-16.1,6.7-24.2,1.4-5.3,2.8-10.6,4.4-15.8a2.56,2.56,0,0,0-.6-2.5c-20.8-21.1-33.1-46.7-38.6-75.6a135.79,135.79,0,0,1-2.2-33.6c1.9-26.1,10.8-49.4,28.3-69.2,15.6-17.8,35-30,56.9-37.8a149.4,149.4,0,0,1,55-8.9c34.2,1.1,65,11.7,91.1,33.6,20,16.7,33.9,37.8,39.4,63.3,7.5,35,0,66.7-23.3,94.2-16.4,19.4-37.8,31.1-63.1,35-34.2,5.6-65.6-1.9-93.6-22.5-20.3-15-33.3-35-38.6-59.7-2.8-13.3-3.3-26.7.3-39.7,4.4-15.8,13.3-28.9,28.1-37.2,18.6-10.6,36.9-8.6,54.2,3.9,1.4,1.1,2.2.8,3.6,0,18.9-14.4,43.6-13.9,62.2,1.9,12.5,10.6,19.7,23.9,21.4,40,2.2,20.6-3.6,38.3-19.2,52.5a59.32,59.32,0,0,1-27.2,14.7c-8.6,1.9-16.1-3.9-15.6-12.2.3-5,2.8-8.3,7.2-10.6a80.77,80.77,0,0,0,17.5-11.1,36.06,36.06,0,0,0,3.3-51.1l-2.5-2.5c-5.6-5.3-11.7-8.1-19.4-7.5-6.1.6-11.4,3.6-16.1,7.5-2.8,2.5-5.3,4.7-8.1,7.2-2.8,2.8-7.2,2.8-10.6.3-4.2-3.3-8.1-6.4-12.2-9.4-7.8-5.8-16.1-7.2-25-2.8a31.78,31.78,0,0,0-12.2,12.2,45.32,45.32,0,0,0-6.1,29.4c3.1,29.7,18.9,50.3,45,63.9a90.88,90.88,0,0,0,45.6,10.6c28.1-.8,50.8-11.9,67.2-35a78.31,78.31,0,0,0,14.2-39.2c2.8-30.8-8.6-55.8-31.4-76.4-16.7-15-36.7-23.3-58.6-26.9C153.82,28.23,146.62,27.93,143.22,27.33Z"/><path class="cls-1" d="M43.82,283.43a21.23,21.23,0,0,1-4.4-.3,10.37,10.37,0,0,1-9.4-11.4,3.57,3.57,0,0,1,.6-1.9c1.4-5.6,3.1-11.7,4.7-17.2.6-2.2,1.4-4.4,1.9-6.7l1.1-3.9,3.3-11.7c-20.3-20.6-33.1-45.6-39.2-76.9a144.09,144.09,0,0,1-2.2-34.7c1.9-27.5,11.7-51.4,29.2-71.1,15.3-17.2,35-30.3,58.3-38.6a144.79,144.79,0,0,1,56.4-8.9c35.8,1.1,67.2,12.8,93.1,34.4,21.4,18.1,35,39.7,40.3,65.3,7.5,36.4-.6,68.9-23.9,96.9-16.7,19.7-38.3,31.9-65,36.4-35,5.8-67.5-1.9-95.8-23.3-21.1-15.6-34.4-36.4-39.7-61.7-3.3-15.6-3.3-28.9.3-41.4,5-17.8,15-31.1,29.4-39.2,19.4-10.8,38.6-9.4,57.5,3.9,20.3-15.3,46.4-14.7,66.1,2.2a62.77,62.77,0,0,1,22.8,42.2c2.5,22.2-4.4,40.8-20.3,55a68,68,0,0,1-28.6,15.6,16.07,16.07,0,0,1-14.2-3.1,15.57,15.57,0,0,1,3.6-25.8,74,74,0,0,0,16.7-10.6c7.2-6.1,11.1-15.3,11.4-24.7a33.68,33.68,0,0,0-10.6-24.4c-5.6-5-10.8-7.2-16.9-6.4a26,26,0,0,0-14.2,6.7c-1.4,1.4-3.1,2.8-4.4,3.9-1.1,1.1-2.5,2.2-3.6,3.3a11,11,0,0,1-14.4.3c-1.4-1.1-3.1-2.5-4.4-3.6-2.5-1.9-5-3.9-7.5-5.8-7.2-5.3-14.2-6.1-21.9-2.5-4.2,1.9-7.5,5.6-10.8,10.8a43.25,43.25,0,0,0-5.8,27.5c2.8,27.5,16.9,47.8,43.1,61.4a86.55,86.55,0,0,0,44.2,10c27.8-.8,49.4-12.2,64.4-33.6a76.57,76.57,0,0,0,13.6-37.5c2.5-29.2-7.5-53.3-30.3-73.6-15.6-13.9-34.7-22.5-56.9-26.4-5-.8-10-1.1-13.6-1.4-1.4,0-2.5-.3-3.3-.3-28.5.6-50.7,7-71,20.3-19.2,12.8-31.4,28.4-37.5,48.4-5,16.1-5.6,32.5-1.7,50.6a116.15,116.15,0,0,0,23.6,50.3,64.94,64.94,0,0,0,6.7,7.2l3.6,3.6a16.24,16.24,0,0,0,1.9,1.7c5.3,4.7,6.7,10.6,4.7,17.5-1.4,5.3-3.1,10.8-4.4,16.1a72.44,72.44,0,0,0,21.9-12.2,16.07,16.07,0,0,1,22.5,1.7h0a14.83,14.83,0,0,1-1.9,21.7,106.09,106.09,0,0,1-26.4,15.3,162.21,162.21,0,0,1-35.6,10.6C48,283.23,46,283.43,43.82,283.43Zm3.3-51.9c-1.1,3.9-2.2,8.1-3.3,11.9l-1.1,3.9-1.9,6.9c-1.7,5.6-3.3,11.4-4.7,17.2a.83.83,0,0,1-.3.8,6.5,6.5,0,0,0,.8,3.1,4,4,0,0,0,2.8,1.4,33.17,33.17,0,0,0,9.4-.3,145.88,145.88,0,0,0,34.2-10c10.3-4.4,18.3-8.9,24.7-14.4a8.52,8.52,0,0,0,2.8-9.4c-.6-1.1-.8-2.2-1.9-3.1a9.57,9.57,0,0,0-13.3-1.1h0c-7.5,6.1-16.7,10.8-28.1,14.7h-.3c-.6,0-1.1.3-1.9.3l-3.3.3v-3.3a5.58,5.58,0,0,1,.3-2.2v-.3l1.1-3.9c1.4-5.3,3.1-10.8,4.7-16.4,1.4-4.4.6-7.8-2.8-10.8a12.42,12.42,0,0,0-2.2-1.9c-1.1-1.1-2.2-2.5-3.3-3.6-2.5-2.5-4.7-5-7.2-7.5a121.78,121.78,0,0,1-25-53.1q-5.85-28.35,1.9-53.9c6.4-20.8,20-38.3,40-51.7,21-14.2,44.6-20.8,73.8-21.1h.3c.8,0,2.2.3,3.3.3,3.9.3,8.9.6,14.2,1.4,23.6,3.9,43.9,13.3,60.3,27.8,24.2,21.4,35,48.1,32.5,79.2a81.19,81.19,0,0,1-15,40.8c-16.4,23.3-39.7,35.6-69.7,36.4a93.14,93.14,0,0,1-47.2-10.8c-28.1-14.7-43.6-36.9-46.7-66.4a49.61,49.61,0,0,1,6.7-31.4C85.62,94.63,90,90.53,95,88c10-5,19.4-3.9,28.6,3.1,2.5,1.9,5.3,4.2,7.8,6.1,1.4,1.1,3.1,2.5,4.4,3.6h0a5,5,0,0,0,6.1,0c1.1-1.1,2.5-1.9,3.6-3.1,1.4-1.4,3.1-2.8,4.7-4.2,5.8-4.7,11.7-7.5,17.8-8.1,8.1-.8,15.3,1.9,21.9,8.1a38.51,38.51,0,0,1,12.5,29.2,39.57,39.57,0,0,1-13.3,29.4,87.41,87.41,0,0,1-18.1,11.7c-3.6,1.7-5.3,4.2-5.3,7.8a8,8,0,0,0,3.1,7.2,9.63,9.63,0,0,0,8.6,1.9,57.12,57.12,0,0,0,25.8-14.2c14.2-12.8,20.3-29.7,18.1-49.7A57,57,0,0,0,201,78.73c-17.5-14.7-40.6-15.6-58.3-1.9a5.26,5.26,0,0,1-7.2,0Q110.47,59,84.72,73.23c-13.1,7.5-22,19.1-26.7,35.5-3.3,11.4-3.3,23.6-.3,38.1,5,23.6,17.5,43.1,37.5,57.8,26.9,20.3,57.8,27.5,91.1,21.9,25-4.2,45.6-15.6,61.1-34.2,22.2-26.4,29.7-57.2,22.5-91.4-5-23.9-18.1-44.7-38.3-61.7-24.7-20.8-54.7-31.7-89.2-32.8a141.73,141.73,0,0,0-53.9,8.9c-22.8,8.1-41.1,20.3-55.8,36.7-16.7,18.7-25.9,41.4-27.5,67.3a134.28,134.28,0,0,0,1.9,32.8c5.8,30,18.1,54.2,37.8,73.9C47.42,227.33,48,229.53,47.12,231.53Z"/></g></g></g></g><path class="cls-1" d="M330.35,233a18.6,18.6,0,0,1-2.65-9.76c0-7.34,5.54-12.88,14.33-12.88,4.58,0,8.19,1.45,12.16,5.06,9.51,9,18.67,14,30.35,14.09,19.26.12,30.58-10.48,30.58-26.62V182.29h-.72c-6,13.85-21.07,23.12-39.74,23.12-32.15,0-52.38-24.56-52.38-63.94,0-40.46,19.75-64.42,53-64.42,18.55,0,32.64,9.75,39.38,24.32h.72v-7.1c0-11.92,7.59-17.82,17.7-17.82s17.47,5.9,17.47,17.82V203.13c0,33.59-24.33,53.82-65.87,53.58C358.29,256.59,338.66,246.6,330.35,233Zm85.13-91c0-23.24-11.32-38.17-28.9-38.17-17.34,0-28.29,14.69-28.29,38.05,0,23.6,10.83,37.45,28.29,37.45S415.48,165.31,415.48,142Z"/><path class="cls-1" d="M472.68,44.9c0-10.24,8.19-18.19,18.79-18.19s18.78,7.95,18.78,18.19-8.19,18.18-18.78,18.18S472.68,55,472.68,44.9Zm1.21,147.51V94.87c0-11.44,6.62-18.42,17.58-18.42s17.58,7,17.58,18.42v97.54c0,11.44-6.74,18.3-17.58,18.3S473.89,203.85,473.89,192.41Z"/><path class="cls-1" d="M561.19,192.77l-33.6-90.07a33.14,33.14,0,0,1-1.92-10.48c0-9.51,7.58-15.77,17.58-15.77,8.55,0,14.21,4.57,16.86,14.08l26.13,86.58H587l26.13-86.94c2.41-9.27,8.31-13.72,16.5-13.72,9.75,0,17.1,6.74,17.1,15.65a30.69,30.69,0,0,1-1.93,9.87l-33.6,90.8c-4.45,12.4-11.8,17.94-24.56,17.94C573.11,210.71,565.89,205.29,561.19,192.77Z"/><path class="cls-1" d="M654.27,144.24c0-41.54,24.21-67.91,62.38-67.91,36.61,0,61.17,25,61.17,60.08,0,9.76-5.54,15.3-15.29,15.3h-73.7v1.56c0,19.15,11.56,31.67,29.38,31.67,12.89,0,21.32-4.33,30.83-15.53,3.73-3.86,6.86-5.18,11.44-5.18,7.59,0,13.73,4.82,13.73,12.88a18,18,0,0,1-2.41,8.55c-8.55,15.9-28.54,25.29-53.47,25.29C678,211,654.27,186,654.27,144.24ZM744,130.15c-.72-16.86-11.56-27.81-27-27.81s-26.61,11.31-27.82,27.81Z"/><path class="cls-1" d="M796.73,192.41V49.83c0-11.32,6.5-18.06,17.34-18.06s17.22,6.74,17.22,18.06v52.26H832c6.86-16.25,21-25.4,40.58-25.4,28.66,0,45,18.54,45,48.4v67.32c0,12-7.23,18.3-17.59,18.3s-17.58-6.26-17.58-18.3V132.56c0-16.62-8.18-26.73-24.2-26.73-16.62,0-26.37,11.68-26.37,28.66v57.92c0,12-7.23,18.3-17.58,18.3S796.73,204.45,796.73,192.41Z"/><path class="cls-1" d="M939.42,162.3V94.87c0-12,7.35-18.42,17.58-18.42s17.58,6.38,17.58,18.42V155c0,17.22,8.55,26.37,24.09,26.37s25.41-11.2,25.41-28.3V94.87c0-12,7.34-18.42,17.57-18.42s17.59,6.38,17.59,18.42v98c0,11.68-6.87,17.82-17,17.82s-17-6.14-17-17.82v-7.95h-.72c-6.39,16.26-19.15,25.65-38.66,25.65C958,210.59,939.42,192.41,939.42,162.3Z"/><path class="cls-1" d="M1083,192.89V50.19c0-12,7.34-18.42,17.58-18.42s17.58,6.38,17.58,18.42v51.3h.72c7.11-15.29,21.56-24.44,39.86-24.44,32.63,0,52.5,24.92,52.5,66.59s-19.75,66.59-52.38,66.59c-18.9,0-33.23-9.15-40.46-24.2h-.72v6.86c0,11.68-7.23,17.82-17.46,17.82S1083,204.69,1083,192.89Zm92.24-49.25c0-23.48-11-38.41-28.42-38.41-17.1,0-28.78,15.29-28.78,38.41,0,23.36,11.68,38.29,28.78,38.29C1164.24,181.93,1175.2,167.24,1175.2,143.64Z"/></g></g></svg>