<?xml version="1.0" encoding="utf-8"?>
<!-- Generator: Adobe Illustrator 25.3.1, SVG Export Plug-In . SVG Version: 6.00 Build 0)  -->
<svg version="1.1" id="Layer_1" xmlns="http://www.w3.org/2000/svg" xmlns:xlink="http://www.w3.org/1999/xlink" x="0px" y="0px"
	 viewBox="0 0 1437.6 288.4" style="enable-background:new 0 0 1437.6 288.4;" xml:space="preserve">
<style type="text/css">
	.st0{fill:#E11D48;}
	.st1{fill:#E11D48;stroke:#E11D48;stroke-width:5.1232;stroke-linecap:round;stroke-linejoin:round;stroke-miterlimit:10;}
</style>
<g>
	<g id="Layer_2_1_">
		<g id="Layer_1-2">
			<g id="Layer_2-2">
				<g id="Layer_1-2-2">
					<path class="st0" d="M143.2,29.8c-28.3,0.3-51.4,6.7-72.2,20.6c-18.6,12.2-31.9,28.3-38.6,49.7c-5.3,17.2-5.6,34.7-1.9,52.2
						c3.9,18.9,12.2,36.7,24.4,51.7c3.3,3.9,6.9,7.5,10.6,11.1c0.6,0.6,1.4,1.4,1.9,1.9c4.2,3.9,5.6,8.6,3.9,14.2
						c-1.9,6.7-3.9,13.3-5.6,20c0,0.6,0,1.1,0,1.4c0.6,0,0.8,0,1.4-0.3c9.7-3.3,18.9-7.5,26.9-14.2c5.3-4.7,13.3-3.9,18.1,1.4
						c1.1,1.4,1.9,2.8,2.5,4.2c1.4,4.7,0,9.7-3.9,12.8c-7.5,6.4-16.4,11.1-25.6,15c-11.1,4.7-22.8,8.3-35,10.3
						c-3.3,0.6-6.7,0.6-10,0.3c-3.9-0.3-6.9-3.9-6.7-7.8c0-0.6,0-0.8,0.3-1.4c1.9-8.1,4.4-16.1,6.7-24.2c1.4-5.3,2.8-10.6,4.4-15.8
						c0.3-0.8,0-1.9-0.6-2.5c-20.8-21.1-33.1-46.7-38.6-75.6c-2.2-11.1-2.8-22.5-2.2-33.6C5.3,95.1,14.2,71.8,31.7,52
						c15.6-17.8,35-30,56.9-37.8c17.5-6.4,36.4-9.4,55-8.9c34.2,1.1,65,11.7,91.1,33.6c20,16.7,33.9,37.8,39.4,63.3
						c7.5,35,0,66.7-23.3,94.2c-16.4,19.4-37.8,31.1-63.1,35c-34.2,5.6-65.6-1.9-93.6-22.5c-20.3-15-33.3-35-38.6-59.7
						c-2.8-13.3-3.3-26.7,0.3-39.7c4.4-15.8,13.3-28.9,28.1-37.2c18.6-10.6,36.9-8.6,54.2,3.9c1.4,1.1,2.2,0.8,3.6,0
						c18.9-14.4,43.6-13.9,62.2,1.9c12.5,10.6,19.7,23.9,21.4,40c2.2,20.6-3.6,38.3-19.2,52.5c-7.5,7.2-16.9,12.2-27.2,14.7
						c-8.6,1.9-16.1-3.9-15.6-12.2c0.3-5,2.8-8.3,7.2-10.6c6.1-2.8,12.2-6.7,17.5-11.1c15-13.3,16.7-36.1,3.3-51.1
						c-0.8-0.8-1.7-1.7-2.5-2.5c-5.6-5.3-11.7-8.1-19.4-7.5c-6.1,0.6-11.4,3.6-16.1,7.5c-2.8,2.5-5.3,4.7-8.1,7.2
						c-2.8,2.8-7.2,2.8-10.6,0.3c-4.2-3.3-8.1-6.4-12.2-9.4c-7.8-5.8-16.1-7.2-25-2.8c-5.3,2.8-9.2,7.2-12.2,12.2
						c-5.3,8.9-7.5,19.2-6.1,29.4c3.1,29.7,18.9,50.3,45,63.9c14.2,7.5,29.7,11.1,45.6,10.6c28.1-0.8,50.8-11.9,67.2-35
						c8.1-11.4,13.1-25,14.2-39.2c2.8-30.8-8.6-55.8-31.4-76.4c-16.7-15-36.7-23.3-58.6-26.9C153.8,30.7,146.6,30.4,143.2,29.8z"/>
					<path class="st0" d="M43.8,285.9c-1.4,0-3.1,0-4.4-0.3c-5.8-0.6-10-5.6-9.4-11.4c0-0.8,0.3-1.4,0.6-1.9
						c1.4-5.6,3.1-11.7,4.7-17.2c0.6-2.2,1.4-4.4,1.9-6.7l1.1-3.9c1.1-3.9,2.2-7.8,3.3-11.7c-20.3-20.6-33.1-45.6-39.2-76.9
						c-2.2-11.4-2.8-23.1-2.2-34.7c1.9-27.5,11.7-51.4,29.2-71.1c15.3-17.2,35-30.3,58.3-38.6c18.1-6.7,37.2-9.7,56.4-8.9
						c35.8,1.1,67.2,12.8,93.1,34.4c21.4,18.1,35,39.7,40.3,65.3c7.5,36.4-0.6,68.9-23.9,96.9c-16.7,19.7-38.3,31.9-65,36.4
						c-35,5.8-67.5-1.9-95.8-23.3c-21.1-15.6-34.4-36.4-39.7-61.7c-3.3-15.6-3.3-28.9,0.3-41.4c5-17.8,15-31.1,29.4-39.2
						c19.4-10.8,38.6-9.4,57.5,3.9c20.3-15.3,46.4-14.7,66.1,2.2c13.3,11.1,20.8,25.3,22.8,42.2c2.5,22.2-4.4,40.8-20.3,55
						c-8.1,7.5-18.1,12.8-28.6,15.6c-5,1.4-10.3,0-14.2-3.1c-3.6-3.1-5.6-7.5-5.3-12.5c0.3-5.8,3.3-10.6,8.9-13.3
						c6.1-2.8,11.7-6.4,16.7-10.6c7.2-6.1,11.1-15.3,11.4-24.7c0-9.2-3.9-18.1-10.6-24.4c-5.6-5-10.8-7.2-16.9-6.4
						c-4.7,0.6-9.4,2.5-14.2,6.7c-1.4,1.4-3.1,2.8-4.4,3.9c-1.1,1.1-2.5,2.2-3.6,3.3c-4.2,3.6-10.3,3.9-14.4,0.3
						c-1.4-1.1-3.1-2.5-4.4-3.6c-2.5-1.9-5-3.9-7.5-5.8c-7.2-5.3-14.2-6.1-21.9-2.5c-4.2,1.9-7.5,5.6-10.8,10.8
						c-5,8.3-6.9,17.8-5.8,27.5c2.8,27.5,16.9,47.8,43.1,61.4c13.6,7.2,28.6,10.6,44.2,10c27.8-0.8,49.4-12.2,64.4-33.6
						c7.8-11.1,12.5-24.2,13.6-37.5c2.5-29.2-7.5-53.3-30.3-73.6c-15.6-13.9-34.7-22.5-56.9-26.4c-5-0.8-10-1.1-13.6-1.4
						c-1.4,0-2.5-0.3-3.3-0.3c-28.5,0.6-50.7,7-71,20.3C54.3,66.2,42.1,81.8,36,101.8c-5,16.1-5.6,32.5-1.7,50.6
						c3.6,18.6,11.9,35.6,23.6,50.3c1.9,2.5,4.4,5,6.7,7.2c1.1,1.1,2.5,2.5,3.6,3.6c0.6,0.6,1.1,1.1,1.9,1.7
						c5.3,4.7,6.7,10.6,4.7,17.5c-1.4,5.3-3.1,10.8-4.4,16.1c8.1-2.8,15.3-6.9,21.9-12.2c6.7-5.6,16.7-5,22.5,1.7l0,0
						c1.4,1.7,2.5,3.3,3.1,5.3c1.9,5.8,0,12.2-5,16.4c-7.2,5.8-15.6,10.8-26.4,15.3c-11.4,5-23.3,8.3-35.6,10.6
						C48,285.7,46,285.9,43.8,285.9z M47.1,234c-1.1,3.9-2.2,8.1-3.3,11.9l-1.1,3.9l-1.9,6.9c-1.7,5.6-3.3,11.4-4.7,17.2
						c0,0.3,0,0.6-0.3,0.8c0,1.1,0.3,2.2,0.8,3.1c0.8,0.8,1.7,1.4,2.8,1.4c3.1,0.3,6.1,0.3,9.4-0.3c11.7-1.9,23.3-5.3,34.2-10
						c10.3-4.4,18.3-8.9,24.7-14.4c2.8-2.2,3.9-5.8,2.8-9.4c-0.6-1.1-0.8-2.2-1.9-3.1c-3.3-3.9-9.4-4.4-13.3-1.1l0,0
						c-7.5,6.1-16.7,10.8-28.1,14.7h-0.3c-0.6,0-1.1,0.3-1.9,0.3l-3.3,0.3v-3.3c0-0.8,0-1.4,0.3-2.2v-0.3l1.1-3.9
						c1.4-5.3,3.1-10.8,4.7-16.4c1.4-4.4,0.6-7.8-2.8-10.8c-0.8-0.8-1.4-1.4-2.2-1.9c-1.1-1.1-2.2-2.5-3.3-3.6
						c-2.5-2.5-4.7-5-7.2-7.5c-12.5-15.3-21.1-33.6-25-53.1c-3.9-18.9-3.3-36.9,1.9-53.9c6.4-20.8,20-38.3,40-51.7
						c21-14.2,44.6-20.8,73.8-21.1l0,0h0.3c0.8,0,2.2,0.3,3.3,0.3c3.9,0.3,8.9,0.6,14.2,1.4c23.6,3.9,43.9,13.3,60.3,27.8
						c24.2,21.4,35,48.1,32.5,79.2c-1.1,14.7-6.4,28.6-15,40.8c-16.4,23.3-39.7,35.6-69.7,36.4c-16.4,0.6-32.8-3.1-47.2-10.8
						c-28.1-14.7-43.6-36.9-46.7-66.4c-1.4-10.8,1.1-21.9,6.7-31.4C85.6,97.1,90,93,95,90.5c10-5,19.4-3.9,28.6,3.1
						c2.5,1.9,5.3,4.2,7.8,6.1c1.4,1.1,3.1,2.5,4.4,3.6l0,0c1.9,1.4,4.4,1.4,6.1,0c1.1-1.1,2.5-1.9,3.6-3.1c1.4-1.4,3.1-2.8,4.7-4.2
						c5.8-4.7,11.7-7.5,17.8-8.1c8.1-0.8,15.3,1.9,21.9,8.1c8.1,7.5,12.8,18.1,12.5,29.2c0,11.4-5,21.9-13.3,29.4
						c-5.6,4.7-11.7,8.6-18.1,11.7c-3.6,1.7-5.3,4.2-5.3,7.8c-0.3,2.8,0.8,5.3,3.1,7.2c2.5,1.9,5.6,2.8,8.6,1.9
						c9.7-2.5,18.6-7.2,25.8-14.2c14.2-12.8,20.3-29.7,18.1-49.7c-1.7-15.3-8.6-28.1-20.3-38.1c-17.5-14.7-40.6-15.6-58.3-1.9
						c-1.9,1.9-5.3,1.9-7.2,0c-16.7-11.9-33.6-13.1-50.8-3.6c-13.1,7.5-22,19.1-26.7,35.5c-3.3,11.4-3.3,23.6-0.3,38.1
						c5,23.6,17.5,43.1,37.5,57.8c26.9,20.3,57.8,27.5,91.1,21.9c25-4.2,45.6-15.6,61.1-34.2c22.2-26.4,29.7-57.2,22.5-91.4
						c-5-23.9-18.1-44.7-38.3-61.7C206.9,20.9,176.9,10,142.4,8.9c-18.3-0.6-36.7,2.5-53.9,8.9c-22.8,8.1-41.1,20.3-55.8,36.7
						C16,73.2,6.8,95.9,5.2,121.8c-0.8,10.8,0,21.9,1.9,32.8c5.8,30,18.1,54.2,37.8,73.9C47.4,229.8,48,232,47.1,234z"/>
				</g>
			</g>
		</g>
	</g>
	<g>
		<g>
			<path class="st1" d="M441.1,87.7V68.8h38.3v144.6c0,23.3-7.8,41.1-23.3,53.9c-15.3,12.2-33.9,18.6-55.8,18.6
				c-34.4,0-58.3-12.2-71.9-36.9l33.3-19.2c7.5,14.2,20.8,21.4,39.7,21.4c12.2,0,21.9-3.3,29.2-9.7c7.2-6.4,10.6-15.8,10.6-27.8
				v-16.3c-11.7,15.3-27.8,23-48.6,23c-21.4,0-39.4-7.5-54.1-22.5c-14.4-15.3-21.7-33.9-21.7-55.2s7.2-39.7,21.9-55
				c14.4-15.3,32.5-22.8,53.9-22.8C413.3,64.7,429.7,72.4,441.1,87.7z M429.1,172.4c8.1-7.8,11.9-17.8,11.9-30s-4.2-21.9-12.2-29.4
				c-7.8-7.8-18-11.9-30.3-11.9S376,105,368,113c-7.8,7.5-11.9,17.2-11.9,29.4s3.9,22.2,11.9,30c8.1,7.8,18,11.7,30.5,11.7
				C410.8,184,421.1,180.2,429.1,172.4z"/>
			<path class="st1" d="M534.3,50.8c-6.4,0-12.2-2.5-16.9-7.2s-7.2-10.3-7.2-16.9c0-6.4,2.5-12.2,7.2-16.9c4.7-5,10.3-7.2,16.9-7.2
				s12.5,2.5,17.2,7.2s7.2,10.6,7.2,16.9s-2.5,12.2-7.2,16.9S541,50.8,534.3,50.8z M554.1,221H515V69.1h39.1V221z"/>
			<path class="st1" d="M652.6,175.2l36.9-106.3h43l-57.7,151.9h-44.7L572.9,69.1h43L652.6,175.2z"/>
			<path class="st1" d="M893.3,161H778.9c5,19.2,19.4,28.6,42.8,28.6c15,0,26.4-5,33.9-15.3l31.7,18.3c-15,21.7-36.9,32.5-66.1,32.5
				c-25,0-45.3-7.5-60.5-22.8s-22.8-34.4-22.8-57.5c0-22.8,7.5-41.6,22.5-57.2c14.7-15.3,34.1-23,57.7-23c22.5,0,40.8,7.8,55,23
				c14.7,15.3,21.9,34.4,21.9,57.2C894.7,149.1,894.2,154.6,893.3,161z M778.1,130.7h77.5c-2.2-10-6.7-17.5-13.6-22.8
				c-6.7-5.3-14.7-7.8-24.2-7.8c-10.6,0-19.2,2.8-26.1,8.1C785.1,113.5,780.3,121,778.1,130.7z"/>
			<path class="st1" d="M1006.6,64.7c16.9,0,30.5,5.6,41.1,16.7c10.8,11.4,16.4,26.7,16.4,46.1v93.3H1025v-88.4
				c0-10-2.8-17.5-8.1-23c-5.3-5.6-12.8-8.3-21.9-8.3c-10.3,0-18.6,3.1-24.4,9.4c-6.1,6.4-8.9,15.8-8.9,28v81.9h-39.1V7.7h39.1v77.7
				C970.5,71.9,985.8,64.7,1006.6,64.7z"/>
			<path class="st1" d="M1197.6,151V69.1h39.1V221h-39.1v-16.9c-9.4,14.2-24.4,21.4-45.3,21.4c-16.7,0-30.3-5.6-41.4-16.7
				c-10.8-11.4-16.1-26.7-16.1-46.1V69.1h39.1v88.3c0,10,2.8,17.5,8.1,23s12.8,8.3,21.9,8.3c10.3,0,18.6-3.1,24.4-9.4
				C1194.6,172.7,1197.6,163.2,1197.6,151z"/>
			<path class="st1" d="M1360.9,64.7c20.5,0,37.8,7.8,52.2,23.3s21.9,34.4,21.9,56.9c0,22.8-7.2,41.6-21.9,57.2
				c-14.2,15.3-31.7,23-52.2,23c-21.4,0-37.8-7.5-49.1-22.2v18h-39.1V8.3h39.1v78.6C1323.1,72.2,1339.5,64.7,1360.9,64.7z
				 M1323.7,176c7.8,7.8,18,11.9,30,11.9s22.2-3.9,30-11.9c8.1-8.1,12.2-18.3,12.2-31.1c0-12.5-4.2-22.8-12.2-30.5
				c-7.8-8.1-18-12.2-30-12.2s-22.2,4.2-30,12.2c-7.8,7.8-11.9,18-11.9,30.5C1311.7,157.4,1315.6,167.7,1323.7,176z"/>
		</g>
	</g>
</g>
</svg>
