<svg xmlns="http://www.w3.org/2000/svg" viewBox="0 0 1263.09 267.11"><defs><style>.cls-1{fill:#f43f5e;}</style></defs><g id="Layer_2" data-name="Layer 2"><g id="Layer_1-2" data-name="Layer 1"><path class="cls-1" d="M135.56,23.56C108.25,23.81,86,30,65.88,43.35,48.08,55.16,35,70.78,28.63,91.45c-5.14,16.6-5.31,33.4-1.78,50.3,3.87,18.44,11.47,35.19,23.5,49.77,3.11,3.77,6.68,7.15,10,10.7.61.63,1.24,1.24,1.88,1.83,4.17,3.76,5.25,8.3,3.69,13.65-1.87,6.43-3.61,12.9-5.38,19.36a7.17,7.17,0,0,0-.11,1.48,9.46,9.46,0,0,0,1.33-.23c9.42-3.11,18.26-7.31,26-13.61a12.33,12.33,0,0,1,19.73,5.43,11.46,11.46,0,0,1-3.74,12.3c-7.44,6.16-15.86,10.64-24.69,14.4a141.34,141.34,0,0,1-33.62,9.84,37.74,37.74,0,0,1-9.73.23,7.06,7.06,0,0,1-6.22-9c2-7.79,4.23-15.51,6.37-23.26,1.41-5.11,2.79-10.22,4.26-15.31a2,2,0,0,0-.55-2.32c-20.22-20.28-31.84-45-37.24-72.82A125.23,125.23,0,0,1,.28,111.65C2,86.42,10.77,64,27.69,45c15.12-17,33.71-28.71,55-36.36A142.9,142.9,0,0,1,135.87.07c32.85,1,62.48,11.16,87.87,32.38,19.33,16.14,32.64,36.32,37.87,61.14,7.11,33.74-.1,64.32-22.39,90.8-15.85,18.84-36.51,29.88-60.7,33.9-33.06,5.51-63.31-1.77-90.18-21.78C68.89,182,56.23,162.79,51.13,138.9c-2.71-12.75-3.36-25.59.25-38.27,4.35-15.33,12.8-27.95,26.92-35.8,18-10,35.59-8.17,52.2,3.76,1.38,1,2.1.89,3.37-.08,18.3-14,42-13.29,60.08,1.85,12,10.09,19.08,23,20.72,38.61,2.08,19.74-3.5,36.94-18.42,50.53A58.61,58.61,0,0,1,170,173.79c-8.18,1.91-15.52-3.87-15.15-11.86.23-4.74,2.74-8.05,6.95-10.13,6-2.94,11.75-6.21,16.74-10.71,15.55-14,15.93-37.65.77-51.83C174,84.37,168,81.43,160.58,82.17c-6,.61-11,3.43-15.49,7.16-2.7,2.23-5.22,4.66-7.88,6.94a7.6,7.6,0,0,1-10,.16c-3.89-3.06-7.71-6.22-11.66-9.22-7.53-5.73-15.63-6.9-24.25-2.58-5.19,2.6-8.76,6.88-11.7,11.73a44.84,44.84,0,0,0-6.12,28.39c2.88,28.63,18.38,48.56,43.32,61.67a87.33,87.33,0,0,0,44,10.11c26.91-.9,49-11.56,64.71-33.82A75.47,75.47,0,0,0,239.3,125C241.87,95.3,231.11,71,209,51.37,192.83,37,173.68,28.79,152.47,25.29,145.82,24.19,139,23.9,135.56,23.56Z"/><path class="cls-1" d="M314.55,217.25c7-6.4,18.66-5,24,.84,7.24,7.8,18.38,14.2,29,14.2,29.53,0,37.61-20.33,35.93-46.23v-3.62c-8.35,14.76-24.23,22.28-40.38,22.28-33.15,0-63.23-24.51-63.23-67.68S329.87,69.63,363,69.63c8.35,0,27.85,3.62,39,20.89V88c.28-9.47,9.19-17.27,19.5-17.27,10.58,0,19.5,7.52,19.5,17.27v96.09c0,56-27.3,83-73.54,83a70.3,70.3,0,0,1-55.15-25.9C307,234.52,307.59,223.38,314.55,217.25Zm56-47.07c17.54,0,31.75-15.6,31.75-32.86s-14.21-32.87-31.75-32.87c-19.5,0-30.64,15.6-30.64,32.87S351,170.18,370.54,170.18Z"/><path class="cls-1" d="M489.65,1.39c13.09,0,23.67,9.75,23.67,22.56s-10.58,22.84-23.67,22.84-24.23-10-24.23-22.84S476.56,1.39,489.65,1.39Zm19.5,185c0,9.75-8.92,17.26-19.5,17.26-10.31,0-19.22-7.79-19.5-17.26V88c.28-9.47,9.19-17.27,19.5-17.27,10.58,0,19.5,7.52,19.5,17.27Z"/><path class="cls-1" d="M610.69,187.17c-3.9,10.31-10.86,16.43-21.45,16.43h-1.67c-10.3,0-18.1-6.12-22.28-16.43L526,94.7c-3.34-8.91,2-20.61,11.42-23.12,12.25-3.06,20.89,2.51,24.23,11.14l26.46,70.19,26.46-70.19c3.07-8.63,12-14.2,24.23-11.14,9.47,2.51,14.76,14.21,11.42,23.12Z"/><path class="cls-1" d="M771.81,193c-13.09,8.64-29.53,11.7-44.85,11.7-37.32,0-68-27-68-68s30.64-67.13,68-67.13c37,0,66.57,27.3,66.57,68.24a12.07,12.07,0,0,1-12,12H697.72c1.95,15,18.38,21.45,32,21.45,7.8,0,14.48-.56,22.56-6.13,8.91-6.13,18.94-4.46,24.51,2C784.06,175.47,781.28,187.45,771.81,193Zm-17.27-67.4c-1.95-15.88-12.82-23.68-27.3-23.68s-25.62,7.24-29,23.68Z"/><path class="cls-1" d="M902.42,132.86c0-17-12.25-25.63-23.95-25.63-12.26,0-25.63,6.41-25.63,26.18v52.93c0,9.75-8.91,17.26-19.49,17.26-10.31,0-19.22-7.79-19.5-17.26V17.27C814.13,7.8,823,0,833.35,0c10.58,0,19.49,7.52,19.49,17.27v75.2c5.3-16.15,24-22.84,36.21-22.84,34.26,0,52.37,22.56,52.37,61.84v54.87c0,9.75-8.92,17.26-19.5,17.26-10.31,0-19.22-7.79-19.5-17.26Z"/><path class="cls-1" d="M1053.48,183.27c-7,13.09-22.28,21.45-37.6,21.45-29.25,0-47.91-14.48-47.91-51.53V88c0-9.75,8.92-17.27,19.5-17.27,10.31,0,19.22,7.8,19.5,17.27v53.47c0,17.27,6.4,25.63,22.56,25.63,13.65,0,24-6.41,24-26.18V88c0-9.75,8.92-17.27,19.5-17.27,10.3,0,19.22,7.8,19.5,17.27v98.32c-.28,9.47-9.2,17.26-19.5,17.26-10.58,0-19.5-7.51-19.5-17.26Z"/><path class="cls-1" d="M1199.86,69.63c33.15,0,63.23,24.23,63.23,67.41s-30.08,67.68-63.23,67.68c-14.76,0-30.63-7.24-39-20.89v2.51c-.28,9.47-9.19,17.26-19.5,17.26-10.58,0-19.49-7.51-19.49-17.26V17.27c0-9.75,8.91-17.27,19.49-17.27,10.31,0,19.22,7.8,19.5,17.27V90.52C1172,73.25,1191.51,69.63,1199.86,69.63Zm-7.52,34.82c-17.55,0-31.75,15.6-31.75,32.87s14.2,32.86,31.75,32.86c19.5,0,30.64-15.6,30.64-32.86S1211.84,104.45,1192.34,104.45Z"/></g></g></svg>