<svg xmlns="http://www.w3.org/2000/svg" viewBox="0 0 280.23 283.43"><defs><style>.cls-1{fill:#e11d48;}</style></defs><g id="Layer_2" data-name="Layer 2"><g id="Layer_1-2" data-name="Layer 1"><g id="Layer_2-2" data-name="Layer 2"><g id="Layer_1-2-2" data-name="Layer 1-2"><g id="Layer_2-2-2" data-name="Layer 2-2"><g id="Layer_1-2-2-2" data-name="Layer 1-2-2"><path class="cls-1" d="M143.22,27.33c-28.3.3-51.4,6.7-72.2,20.6-18.6,12.2-31.9,28.3-38.6,49.7-5.3,17.2-5.6,34.7-1.9,52.2a120.51,120.51,0,0,0,24.4,51.7c3.3,3.9,6.9,7.5,10.6,11.1l1.9,1.9c4.2,3.9,5.6,8.6,3.9,14.2-1.9,6.7-3.9,13.3-5.6,20v1.4a2.38,2.38,0,0,0,1.4-.3c9.7-3.3,18.9-7.5,26.9-14.2,5.3-4.7,13.3-3.9,18.1,1.4a18.59,18.59,0,0,1,2.5,4.2,11.82,11.82,0,0,1-3.9,12.8c-7.5,6.4-16.4,11.1-25.6,15a153.5,153.5,0,0,1-35,10.3,37.26,37.26,0,0,1-10,.3,7.48,7.48,0,0,1-6.7-7.8,2.38,2.38,0,0,1,.3-1.4c1.9-8.1,4.4-16.1,6.7-24.2,1.4-5.3,2.8-10.6,4.4-15.8a2.56,2.56,0,0,0-.6-2.5c-20.8-21.1-33.1-46.7-38.6-75.6a135.79,135.79,0,0,1-2.2-33.6c1.9-26.1,10.8-49.4,28.3-69.2,15.6-17.8,35-30,56.9-37.8a149.4,149.4,0,0,1,55-8.9c34.2,1.1,65,11.7,91.1,33.6,20,16.7,33.9,37.8,39.4,63.3,7.5,35,0,66.7-23.3,94.2-16.4,19.4-37.8,31.1-63.1,35-34.2,5.6-65.6-1.9-93.6-22.5-20.3-15-33.3-35-38.6-59.7-2.8-13.3-3.3-26.7.3-39.7,4.4-15.8,13.3-28.9,28.1-37.2,18.6-10.6,36.9-8.6,54.2,3.9,1.4,1.1,2.2.8,3.6,0,18.9-14.4,43.6-13.9,62.2,1.9,12.5,10.6,19.7,23.9,21.4,40,2.2,20.6-3.6,38.3-19.2,52.5a59.32,59.32,0,0,1-27.2,14.7c-8.6,1.9-16.1-3.9-15.6-12.2.3-5,2.8-8.3,7.2-10.6a80.77,80.77,0,0,0,17.5-11.1,36.06,36.06,0,0,0,3.3-51.1l-2.5-2.5c-5.6-5.3-11.7-8.1-19.4-7.5-6.1.6-11.4,3.6-16.1,7.5-2.8,2.5-5.3,4.7-8.1,7.2-2.8,2.8-7.2,2.8-10.6.3-4.2-3.3-8.1-6.4-12.2-9.4-7.8-5.8-16.1-7.2-25-2.8a31.78,31.78,0,0,0-12.2,12.2,45.32,45.32,0,0,0-6.1,29.4c3.1,29.7,18.9,50.3,45,63.9a90.88,90.88,0,0,0,45.6,10.6c28.1-.8,50.8-11.9,67.2-35a78.31,78.31,0,0,0,14.2-39.2c2.8-30.8-8.6-55.8-31.4-76.4-16.7-15-36.7-23.3-58.6-26.9C153.82,28.23,146.62,27.93,143.22,27.33Z"/><path class="cls-1" d="M43.82,283.43a21.23,21.23,0,0,1-4.4-.3,10.37,10.37,0,0,1-9.4-11.4,3.57,3.57,0,0,1,.6-1.9c1.4-5.6,3.1-11.7,4.7-17.2.6-2.2,1.4-4.4,1.9-6.7l1.1-3.9,3.3-11.7c-20.3-20.6-33.1-45.6-39.2-76.9a144.09,144.09,0,0,1-2.2-34.7c1.9-27.5,11.7-51.4,29.2-71.1,15.3-17.2,35-30.3,58.3-38.6a144.79,144.79,0,0,1,56.4-8.9c35.8,1.1,67.2,12.8,93.1,34.4,21.4,18.1,35,39.7,40.3,65.3,7.5,36.4-.6,68.9-23.9,96.9-16.7,19.7-38.3,31.9-65,36.4-35,5.8-67.5-1.9-95.8-23.3-21.1-15.6-34.4-36.4-39.7-61.7-3.3-15.6-3.3-28.9.3-41.4,5-17.8,15-31.1,29.4-39.2,19.4-10.8,38.6-9.4,57.5,3.9,20.3-15.3,46.4-14.7,66.1,2.2a62.77,62.77,0,0,1,22.8,42.2c2.5,22.2-4.4,40.8-20.3,55a68,68,0,0,1-28.6,15.6,16.07,16.07,0,0,1-14.2-3.1,15.57,15.57,0,0,1,3.6-25.8,74,74,0,0,0,16.7-10.6c7.2-6.1,11.1-15.3,11.4-24.7a33.68,33.68,0,0,0-10.6-24.4c-5.6-5-10.8-7.2-16.9-6.4a26,26,0,0,0-14.2,6.7c-1.4,1.4-3.1,2.8-4.4,3.9-1.1,1.1-2.5,2.2-3.6,3.3a11,11,0,0,1-14.4.3c-1.4-1.1-3.1-2.5-4.4-3.6-2.5-1.9-5-3.9-7.5-5.8-7.2-5.3-14.2-6.1-21.9-2.5-4.2,1.9-7.5,5.6-10.8,10.8a43.25,43.25,0,0,0-5.8,27.5c2.8,27.5,16.9,47.8,43.1,61.4a86.55,86.55,0,0,0,44.2,10c27.8-.8,49.4-12.2,64.4-33.6a76.57,76.57,0,0,0,13.6-37.5c2.5-29.2-7.5-53.3-30.3-73.6-15.6-13.9-34.7-22.5-56.9-26.4-5-.8-10-1.1-13.6-1.4-1.4,0-2.5-.3-3.3-.3-28.5.6-50.7,7-71,20.3-19.2,12.8-31.4,28.4-37.5,48.4-5,16.1-5.6,32.5-1.7,50.6a116.15,116.15,0,0,0,23.6,50.3,64.94,64.94,0,0,0,6.7,7.2l3.6,3.6a16.24,16.24,0,0,0,1.9,1.7c5.3,4.7,6.7,10.6,4.7,17.5-1.4,5.3-3.1,10.8-4.4,16.1a72.44,72.44,0,0,0,21.9-12.2,16.07,16.07,0,0,1,22.5,1.7h0a14.83,14.83,0,0,1-1.9,21.7,106.09,106.09,0,0,1-26.4,15.3,162.21,162.21,0,0,1-35.6,10.6C48,283.23,46,283.43,43.82,283.43Zm3.3-51.9c-1.1,3.9-2.2,8.1-3.3,11.9l-1.1,3.9-1.9,6.9c-1.7,5.6-3.3,11.4-4.7,17.2a.83.83,0,0,1-.3.8,6.5,6.5,0,0,0,.8,3.1,4,4,0,0,0,2.8,1.4,33.17,33.17,0,0,0,9.4-.3,145.88,145.88,0,0,0,34.2-10c10.3-4.4,18.3-8.9,24.7-14.4a8.52,8.52,0,0,0,2.8-9.4c-.6-1.1-.8-2.2-1.9-3.1a9.57,9.57,0,0,0-13.3-1.1h0c-7.5,6.1-16.7,10.8-28.1,14.7h-.3c-.6,0-1.1.3-1.9.3l-3.3.3v-3.3a5.58,5.58,0,0,1,.3-2.2v-.3l1.1-3.9c1.4-5.3,3.1-10.8,4.7-16.4,1.4-4.4.6-7.8-2.8-10.8a12.42,12.42,0,0,0-2.2-1.9c-1.1-1.1-2.2-2.5-3.3-3.6-2.5-2.5-4.7-5-7.2-7.5a121.78,121.78,0,0,1-25-53.1q-5.85-28.35,1.9-53.9c6.4-20.8,20-38.3,40-51.7,21-14.2,44.6-20.8,73.8-21.1h.3c.8,0,2.2.3,3.3.3,3.9.3,8.9.6,14.2,1.4,23.6,3.9,43.9,13.3,60.3,27.8,24.2,21.4,35,48.1,32.5,79.2a81.19,81.19,0,0,1-15,40.8c-16.4,23.3-39.7,35.6-69.7,36.4a93.14,93.14,0,0,1-47.2-10.8c-28.1-14.7-43.6-36.9-46.7-66.4a49.61,49.61,0,0,1,6.7-31.4C85.62,94.63,90,90.53,95,88c10-5,19.4-3.9,28.6,3.1,2.5,1.9,5.3,4.2,7.8,6.1,1.4,1.1,3.1,2.5,4.4,3.6h0a5,5,0,0,0,6.1,0c1.1-1.1,2.5-1.9,3.6-3.1,1.4-1.4,3.1-2.8,4.7-4.2,5.8-4.7,11.7-7.5,17.8-8.1,8.1-.8,15.3,1.9,21.9,8.1a38.51,38.51,0,0,1,12.5,29.2,39.57,39.57,0,0,1-13.3,29.4,87.41,87.41,0,0,1-18.1,11.7c-3.6,1.7-5.3,4.2-5.3,7.8a8,8,0,0,0,3.1,7.2,9.63,9.63,0,0,0,8.6,1.9,57.12,57.12,0,0,0,25.8-14.2c14.2-12.8,20.3-29.7,18.1-49.7A57,57,0,0,0,201,78.73c-17.5-14.7-40.6-15.6-58.3-1.9a5.26,5.26,0,0,1-7.2,0Q110.47,59,84.72,73.23c-13.1,7.5-22,19.1-26.7,35.5-3.3,11.4-3.3,23.6-.3,38.1,5,23.6,17.5,43.1,37.5,57.8,26.9,20.3,57.8,27.5,91.1,21.9,25-4.2,45.6-15.6,61.1-34.2,22.2-26.4,29.7-57.2,22.5-91.4-5-23.9-18.1-44.7-38.3-61.7-24.7-20.8-54.7-31.7-89.2-32.8a141.73,141.73,0,0,0-53.9,8.9c-22.8,8.1-41.1,20.3-55.8,36.7-16.7,18.7-25.9,41.4-27.5,67.3a134.28,134.28,0,0,0,1.9,32.8c5.8,30,18.1,54.2,37.8,73.9C47.42,227.33,48,229.53,47.12,231.53Z"/></g></g></g></g></g></g></svg>